<?xml version="1.0" encoding="UTF-8" standalone="no"?>
<!-- Created with Inkscape (http://www.inkscape.org/) -->

<svg
   xmlns:dc="http://purl.org/dc/elements/1.1/"
   xmlns:cc="http://creativecommons.org/ns#"
   xmlns:rdf="http://www.w3.org/1999/02/22-rdf-syntax-ns#"
   xmlns:svg="http://www.w3.org/2000/svg"
   xmlns="http://www.w3.org/2000/svg"
   xmlns:sodipodi="http://sodipodi.sourceforge.net/DTD/sodipodi-0.dtd"
   xmlns:inkscape="http://www.inkscape.org/namespaces/inkscape"
   id="svg2"
   version="1.1"
   inkscape:version="0.91 r13725"
   width="800"
   height="800"
   viewBox="0 0 800 799.99999"
   sodipodi:docname="birthday.svg">
  <metadata
     id="metadata8">
    <rdf:RDF>
      <cc:Work
         rdf:about="">
        <dc:format>image/svg+xml</dc:format>
        <dc:type
           rdf:resource="http://purl.org/dc/dcmitype/StillImage" />
        <dc:title></dc:title>
      </cc:Work>
    </rdf:RDF>
  </metadata>
  <defs
     id="defs6" />
  <sodipodi:namedview
     pagecolor="#ffffff"
     bordercolor="#666666"
     borderopacity="1"
     objecttolerance="10"
     gridtolerance="10"
     guidetolerance="10"
     inkscape:pageopacity="0"
     inkscape:pageshadow="2"
     inkscape:window-width="1366"
     inkscape:window-height="668"
     id="namedview4"
     showgrid="false"
     inkscape:zoom="0.48019306"
     inkscape:cx="251.54007"
     inkscape:cy="412.33416"
     inkscape:window-x="0"
     inkscape:window-y="1"
     inkscape:window-maximized="1"
     inkscape:current-layer="g3338" />
  <g
     id="g3338"
     transform="translate(0,308.53101)">
    <path
       style="fill:#1a1a1a"
       d="m 163.75342,371.58785 c -8.81241,-1.48616 -17.47781,-7.82236 -21.64064,-15.82379 -3.85028,-7.40077 -3.55053,3.62991 -3.55868,-130.95814 -0.004,-66.37377 -0.14231,-121.03138 -0.30731,-121.46136 -0.26325,-0.68603 -1.92521,-0.7818 -13.56749,-0.7818 -7.57317,0 -14.3278,-0.22741 -15.73801,-0.52983 -3.4882,-0.74809 -6.29492,-2.940903 -7.74175,-6.048403 l -1.1944,-2.56535 -0.005,-51.19914 c -0.0048,-49.377763 0.0299,-51.334933 0.97152,-55.016656 1.40584,-5.496764 3.64492,-9.360256 7.91999,-13.665796 3.84599,-3.873399 7.95246,-6.397182 13.3448,-8.201546 2.58475,-0.864895 6.41684,-0.916416 77.96757,-1.048325 71.4427,-0.131704 75.24919,-0.182719 75.24919,-1.008468 0,-0.58136 -4.37091,-3.88191 -13.18214,-9.954087 -15.55749,-10.721248 -21.19506,-15.158215 -26.96849,-21.225107 -22.11585,-23.239961 -26.06743,-59.130212 -9.55661,-86.797982 10.44565,-17.50414 26.77905,-28.8491 47.47143,-32.97299 7.14635,-1.42423 20.43515,-1.52839 27.19529,-0.21316 17.29336,3.36454 31.24741,11.32154 41.59519,23.71878 16.82333,20.15533 34.22664,51.71274 42.7018,77.431205 5.83466,17.705663 7.44752,30.338289 5.6365,44.147646 -0.41853,3.191321 -0.6278,6.017827 -0.46508,6.281127 0.17482,0.282838 4.31684,0.478739 10.12249,0.478739 5.80566,0 9.94768,-0.195901 10.12249,-0.478739 0.16273,-0.2633 -0.0466,-3.089806 -0.46508,-6.281127 -1.96545,-14.986894 0.35058,-30.3032 7.55484,-49.961699 9.06241,-24.728842 26.99642,-55.860572 42.26283,-73.364242 7.78808,-8.92938 19.32447,-16.18612 31.61329,-19.8857 7.68455,-2.31345 12.34598,-2.95117 21.60009,-2.95504 9.98373,-0.004 16.29243,1.00388 24.7873,3.96075 25.20552,8.77347 42.83885,30.90618 46.42536,58.27135 0.77691,5.92807 0.29889,17.9412 -0.944,23.7239 -3.66571,17.054988 -12.58515,31.282821 -26.90435,42.915995 -2.51123,2.040182 -10.57098,7.85592 -17.91056,12.923878 -8.48856,5.861325 -13.40157,9.558674 -13.50102,10.160341 -0.15333,0.927719 1.28958,0.948544 75.1257,1.084618 71.58253,0.131921 75.41556,0.18343 78.00029,1.048337 10.98222,3.674814 19.0176,12.11798 21.47161,22.561266 0.65135,2.772144 0.75524,10.226182 0.75741,54.367242 l 0,51.15463 -1.1945,2.56535 c -1.44681,3.1075 -4.25352,5.300313 -7.74167,6.048403 -1.41022,0.30242 -8.16492,0.52983 -15.73806,0.52983 -11.64224,0 -13.30428,0.0958 -13.56742,0.7818 -0.16504,0.42998 -0.3001,55.09648 -0.3001,121.48108 0,134.37789 0.3066,122.91559 -3.49538,130.68205 -3.38404,6.91285 -9.15165,11.84979 -17.62112,15.08321 l -2.85449,1.08972 -236.25035,0.0578 c -129.93771,0.0317 -236.80638,-0.0361 -237.48598,-0.15054 z m 224.26584,-22.30931 c 0.4934,-0.31325 0.59355,-25.32644 0.49424,-123.43075 l -0.12454,-123.0379 -113.4,-0.12462 c -90.39398,-0.0993 -113.47972,9.8e-4 -113.79294,0.49424 -0.21613,0.34038 -0.39636,55.71025 -0.40052,123.04418 -0.007,116.07869 0.0373,122.45143 0.85737,122.92907 1.04357,0.60782 225.41084,0.73252 226.36639,0.12578 z m 250.2443,-0.10364 c 0.94135,-0.50373 0.95603,-2.40051 0.94857,-122.9441 0,-67.33786 -0.18442,-122.71096 -0.40061,-123.05134 -0.31323,-0.49332 -23.39896,-0.59359 -113.79292,-0.49424 l -113.4,0.12462 -0.12454,123.0379 c -0.0993,98.10431 9.9e-4,123.1175 0.49424,123.43075 0.96691,0.61396 225.12638,0.5113 226.27526,-0.10364 z m -249.8746,-315.806863 0,-46.212157 -132.40663,-0.124469 c -97.46623,-0.09161 -132.58329,0.02215 -133.07616,0.431201 -0.55425,0.459996 -0.66955,8.295815 -0.66955,45.504185 0,30.06646 0.16956,45.26535 0.51212,45.90543 0.5048,0.94321 2.41045,0.95513 133.07618,0.83244 l 132.56404,-0.12447 0,-46.21216 z m 288.87041,45.50328 c 0.34187,-0.6389 0.5116,-15.86553 0.5116,-45.90452 0,-37.20837 -0.11556,-45.044189 -0.66953,-45.504185 -0.49295,-0.40904 -35.60998,-0.522832 -133.07621,-0.431201 l -132.40663,0.124469 -0.12749,45.717917 c -0.0702,25.14485 -0.0215,45.99592 0.10798,46.33571 0.18763,0.49212 27.18198,0.61781 132.69204,0.61781 130.45008,0 132.46422,-0.0145 132.96812,-0.956 z M 359.51568,-36.618795 c 3.54921,-0.995865 6.05042,-3.036528 7.7228,-6.300833 1.89116,-3.691317 2.16139,-11.259837 0.67872,-19.009476 -4.06621,-21.253481 -16.66558,-50.314606 -31.43211,-72.499886 -12.79072,-19.21683 -22.54248,-27.36319 -37.68238,-31.47888 -5.27363,-1.4336 -16.40385,-1.5477 -22.11371,-0.22669 -18.14716,4.19843 -32.33321,18.0064 -37.14374,36.1538 -1.13948,4.29862 -1.31016,5.90826 -1.31016,12.35619 0,6.44415 0.17114,8.06011 1.30856,12.3562 2.67101,10.088509 8.24028,18.95634 16.3388,26.015942 21.10677,18.399143 61.05842,38.194331 86.04722,42.63456 5.54756,0.985741 14.07114,0.985284 17.586,-9.87e-4 z m 103.01042,-0.921773 c 30.19842,-6.816719 76.10566,-32.421013 89.21753,-49.760141 3.84708,-5.087386 7.04889,-11.707386 8.7434,-18.077711 1.11251,-4.18234 1.28543,-5.82979 1.28543,-12.24615 0,-6.44793 -0.17068,-8.05757 -1.31016,-12.35619 -4.61888,-17.4244 -17.61607,-30.58042 -34.78434,-35.20942 -4.2526,-1.14661 -5.77688,-1.30433 -12.7386,-1.31804 -9.4392,-0.0186 -14.06638,0.93441 -21.3967,4.40681 -6.07783,2.87909 -9.78825,5.59192 -14.96353,10.9404 -16.3675,16.91526 -35.76288,54.028397 -42.9682,82.219827 -2.62928,10.28729 -3.22797,19.270369 -1.61851,24.28494 1.173,3.654711 4.41666,6.87261 8.04868,7.984771 4.18299,1.280881 14.77399,0.871516 22.485,-0.869096 z"
       id="path3340"
       inkscape:connector-curvature="0" />
  </g>
</svg>
