<svg xmlns="http://www.w3.org/2000/svg" width="24" height="24" viewBox="0 0 24 24"><g transform="translate(-539 -366)"><rect width="24" height="24" transform="translate(539 366)" fill="none"/><g transform="translate(541.001 303.415)"><path d="M16.872,75.44l3.08,6.326a.3.3,0,0,1-.293.468H.339a.3.3,0,0,1-.293-.468l3.08-6.326a.357.357,0,0,1,.293-.183H6.059a.37.37,0,0,1,.245.112c.179.207.362.409.544.609s.347.383.519.58H4.233a.357.357,0,0,0-.293.183L1.9,80.932H18.1l-2.04-4.191a.357.357,0,0,0-.293-.183H12.625c.172-.2.346-.39.519-.58s.366-.4.546-.61a.369.369,0,0,1,.244-.112H16.58A.356.356,0,0,1,16.872,75.44Zm-2.346-4.323c0,3.457-2.878,4.105-4.231,7.427a.324.324,0,0,1-.6,0c-1.221-3-3.681-3.816-4.152-6.485a4.629,4.629,0,0,1,4.011-5.451A4.532,4.532,0,0,1,14.527,71.116Zm-2.138,0A2.393,2.393,0,1,0,10,73.509,2.393,2.393,0,0,0,12.389,71.116Z" transform="translate(0)" fill="#00b3bf"/></g></g></svg>