<svg xmlns="http://www.w3.org/2000/svg" width="24" height="24" viewBox="0 0 24 24"><g transform="translate(-783 -230)"><g transform="translate(224 -17)"><g transform="translate(561 249)"><g transform="translate(0 0)"><path d="M10,20A10,10,0,1,1,20,10,10.011,10.011,0,0,1,10,20ZM10,1.143A8.857,8.857,0,1,0,18.857,10,8.867,8.867,0,0,0,10,1.143Z" transform="translate(0 0)" fill="#00b3bf"/></g><g transform="translate(9.366 3.015)"><path d="M18.372,15.533a.583.583,0,0,1-.415-.172l-3.144-3.144a.585.585,0,0,1-.172-.415V5.153a.586.586,0,0,1,1.172,0v6.409l2.972,2.972a.586.586,0,0,1-.414,1Z" transform="translate(-14.642 -4.567)" fill="#00b3bf"/></g></g><rect width="24" height="24" transform="translate(559 247)" fill="none"/></g></g></svg>