<svg xmlns="http://www.w3.org/2000/svg" width="24" height="24" viewBox="0 0 24 24"><g transform="translate(-493 -230)"><g transform="translate(138 -4)"><g transform="translate(357 236)"><path d="M18.334,1.875H15.625V.625a.625.625,0,0,0-1.25,0v1.25h-3.75V.625a.625.625,0,0,0-1.25,0v1.25H5.625V.625a.625.625,0,0,0-1.25,0v1.25H1.667A1.666,1.666,0,0,0,0,3.541V18.333A1.667,1.667,0,0,0,1.667,20H18.334A1.666,1.666,0,0,0,20,18.333V3.541A1.666,1.666,0,0,0,18.334,1.875Zm.416,16.458a.417.417,0,0,1-.416.417H1.667a.417.417,0,0,1-.417-.417V3.541a.417.417,0,0,1,.417-.416H4.375v1.25a.625.625,0,0,0,1.25,0V3.125h3.75v1.25a.625.625,0,0,0,1.25,0V3.125h3.75v1.25a.625.625,0,0,0,1.25,0V3.125h2.709a.417.417,0,0,1,.416.416Z" fill="#00b3bf"/><rect width="2.615" height="1.961" transform="translate(4.346 7.464)" fill="#00b3bf"/><rect width="2.615" height="1.961" transform="translate(4.346 10.575)" fill="#00b3bf"/><rect width="2.615" height="1.961" transform="translate(4.346 13.685)" fill="#00b3bf"/><rect width="2.615" height="1.961" transform="translate(8.693 13.685)" fill="#00b3bf"/><rect width="2.615" height="1.961" transform="translate(8.693 10.575)" fill="#00b3bf"/><rect width="2.615" height="1.961" transform="translate(8.693 7.464)" fill="#00b3bf"/><rect width="2.615" height="1.961" transform="translate(13.039 13.685)" fill="#00b3bf"/><rect width="2.615" height="1.961" transform="translate(13.039 10.575)" fill="#00b3bf"/><rect width="2.615" height="1.961" transform="translate(13.039 7.464)" fill="#00b3bf"/></g><rect width="24" height="24" transform="translate(355 234)" fill="none"/></g></g></svg>