<svg xmlns="http://www.w3.org/2000/svg" width="15.974" height="15.998" viewBox="0 0 15.974 15.998">
  <g id="Group_8139" data-name="Group 8139" transform="translate(-1325 -11960.999)">
    <path id="Path_9248" data-name="Path 9248" d="M-93.726-95.657c0-.2-.012-.373,0-.548a1.177,1.177,0,0,1,.1-.4.536.536,0,0,1,.657-.269.5.5,0,0,1,.441.533q.007.921,0,1.843a.58.58,0,0,1-.523.612.6.6,0,0,1-.669-.477c-.015-.057-.027-.115-.042-.18-.046,0-.087-.011-.129-.011-.528,0-1.056,0-1.584,0a.667.667,0,0,0-.751.76c0,.381,0,.762,0,1.153h13.53a.853.853,0,0,0,.015-.111c0-.356.005-.711,0-1.067a.661.661,0,0,0-.744-.735c-.571,0-1.141,0-1.722,0-.018.075-.033.142-.049.208a.605.605,0,0,1-.683.458.55.55,0,0,1-.505-.585q0-.9,0-1.794a.609.609,0,0,1,.568-.63.566.566,0,0,1,.617.53,6.06,6.06,0,0,1,.005.7c.09,0,.147.009.205.009.485,0,.97,0,1.454-.011a1.994,1.994,0,0,1,2.11,2.089c0,3.561,0,7.122,0,10.684a1.818,1.818,0,0,1-1.127,1.831,2.08,2.08,0,0,1-.784.151q-5.026.015-10.053.007-1.034,0-2.069,0a1.828,1.828,0,0,1-1.933-1.923q-.006-3.5,0-7c0-1.25-.007-2.5,0-3.75a3.033,3.033,0,0,1,.117-.889,1.768,1.768,0,0,1,1.8-1.2c.512-.005,1.024.006,1.535.009Zm-2.5,4.081v.227q0,2.65,0,5.3,0,1.608,0,3.216a.667.667,0,0,0,.73.752c.038,0,.075,0,.113,0h6.852q2.5,0,5.01,0c.58,0,.813-.238.813-.816v-8.681Z" transform="translate(1422.397 12057.904)" fill="#00b3bf"/>
    <path id="Path_9249" data-name="Path 9249" d="M88.638-56.247h-4.13V-57.38h4.13Z" transform="translate(1246.373 12025.712)" fill="#00b3bf"/>
    <path id="Path_9250" data-name="Path 9250" d="M44.3,137.622c.129-.123.25-.236.369-.351q1.423-1.386,2.844-2.774a.71.71,0,0,1,.72-.21.692.692,0,0,1,.307,1.169c-.313.319-.636.627-.957.939l-2.781,2.7a.683.683,0,0,1-1.006,0q-.842-.837-1.678-1.679a.7.7,0,0,1-.223-.671.685.685,0,0,1,.5-.538.62.62,0,0,1,.667.166c.374.372.741.751,1.111,1.127C44.208,137.538,44.247,137.573,44.3,137.622Z" transform="translate(1288.293 11835.405)" fill="#00b3bf"/>
  </g>
</svg>
