<svg xmlns="http://www.w3.org/2000/svg" width="24" height="24" viewBox="0 0 24 24"><g transform="translate(-16 -110)"><rect width="24" height="24" transform="translate(16 110)" fill="none"/><g transform="translate(657 -17278.002)"><path d="M-92.807-95.345c0-.245-.015-.467,0-.685a1.471,1.471,0,0,1,.121-.5.669.669,0,0,1,.821-.337.631.631,0,0,1,.552.666q.008,1.152,0,2.3a.725.725,0,0,1-.653.765.751.751,0,0,1-.836-.6c-.018-.071-.033-.143-.052-.225-.058-.005-.109-.014-.161-.014-.66,0-1.32,0-1.98,0a.834.834,0,0,0-.939.95c0,.476,0,.953,0,1.441h16.915A1.066,1.066,0,0,0-79-91.718c0-.444.006-.889,0-1.334a.827.827,0,0,0-.93-.919c-.713,0-1.426,0-2.152,0-.022.094-.041.177-.062.26a.756.756,0,0,1-.854.572.687.687,0,0,1-.632-.732q0-1.121,0-2.243a.761.761,0,0,1,.71-.788.708.708,0,0,1,.771.663,7.577,7.577,0,0,1,.006.881c.112.005.184.012.256.011.606,0,1.212,0,1.818-.014a2.493,2.493,0,0,1,2.637,2.612c0,4.452,0,8.9-.005,13.356A2.273,2.273,0,0,1-78.842-77.1a2.6,2.6,0,0,1-.98.189q-6.284.019-12.568.009-1.293,0-2.586,0a2.285,2.285,0,0,1-2.416-2.4q-.008-4.375,0-8.749c0-1.563-.009-3.125.006-4.688a3.791,3.791,0,0,1,.146-1.112,2.21,2.21,0,0,1,2.255-1.5c.64-.006,1.28.007,1.919.012Zm-3.122,5.1v.284q0,3.313,0,6.627,0,2.01,0,4.02a.834.834,0,0,0,.913.94c.047,0,.094,0,.141,0h8.566q3.131,0,6.263,0c.725,0,1.017-.3,1.017-1.02V-90.243Z" transform="translate(-541.603 17486.906)" fill="#fff"/><path d="M89.671-55.964H84.508V-57.38h5.163Z" transform="translate(-716.156 17456.547)" fill="#fff"/><path d="M44.9,138.463c.162-.154.313-.294.461-.439q1.779-1.733,3.556-3.468a.887.887,0,0,1,.9-.263.865.865,0,0,1,.383,1.461c-.392.4-.8.784-1.2,1.174q-1.738,1.689-3.477,3.376a.854.854,0,0,1-1.258,0q-1.053-1.046-2.1-2.1a.871.871,0,0,1-.278-.838.856.856,0,0,1,.625-.673.775.775,0,0,1,.833.207c.468.465.926.939,1.389,1.409C44.791,138.358,44.84,138.4,44.9,138.463Z" transform="translate(-674.414 17266.574)" fill="#fff"/></g></g></svg>