<svg xmlns="http://www.w3.org/2000/svg" width="24" height="24" viewBox="0 0 24 24"><g transform="translate(12359 -4164)"><g transform="translate(-60 -3)"><rect width="24" height="24" transform="translate(-12299 4167)" fill="none"/><g transform="translate(-12296 4170)"><path d="M18.438,29.653h0" transform="translate(-11.8 -17.909)" fill="none" stroke="#ff9696" stroke-linecap="round" stroke-width="1"/><path d="M23.25,22.528h0" transform="translate(-14.569 -13.81)" fill="none" stroke="#ff9696" stroke-linecap="round" stroke-width="1"/><path d="M17.7,17.466c.027,0,.029.016.053.027.069.029.071.089.212.212.1.087.347.316.451.4.163.129.178.2.212.212a1.111,1.111,0,0,1,.133.133,1.158,1.158,0,0,1,.159.159c.01.025.053.053.159.159a.458.458,0,0,1,.08.106,1.249,1.249,0,0,0,.159.186.5.5,0,0,1,.053.106c.059.119.2.108.239.212a.294.294,0,0,0,.053.106.585.585,0,0,0,.186.133c.027.027.029.075.08.106.023.014.027,0,.027,0a.212.212,0,0,0,.027.08c.01.025,0,.027,0,.053v.08s-.008-.019-.027,0l-.027.027c-.027,0-.031.008-.08-.027a.543.543,0,0,0-.106-.053c-.1-.041-.17-.011-.292-.106a.126.126,0,0,0-.053-.027l-.133-.133c-.027-.027-.053-.08-.08-.106-.08-.08-.184-.116-.212-.186-.01-.025-.016-.082-.027-.106-.029-.069-.08-.053-.106-.08s-.019-.088-.106-.159a1.769,1.769,0,0,1-.186-.159,2.456,2.456,0,0,0-.212-.319.5.5,0,0,1-.106-.159.572.572,0,0,0-.186-.239s0-.016-.027-.027-.034-.034-.053-.053-.075-.029-.106-.08c-.014-.023-.027-.027-.053-.053,0,0-.031-.018-.08-.053l-.106-.08a.1.1,0,0,0-.08-.027h-.106c0,.027.012.018.027.053s.05.058.133.106c.051.03.2.118.239.133s.027.027.053.053.049.084.08.106a.438.438,0,0,1,.08.08v.027a.3.3,0,0,0,.027.159c.021.056.027.08.027.053h0c-.027,0-.028,0-.053-.027-.087-.1-.159-.212-.345-.425h0l.053.053c.08.08.171.118.425.345.14.125.377.311.451.372.116.1.162.209.345.372.072.063.133.106.159.133a2.11,2.11,0,0,1,.212.292,2.382,2.382,0,0,0,.4.425c.071.044.212.053.239.08,0,0,.018-.031.053-.08a.286.286,0,0,0,.053-.08c.014-.058.053-.08.08-.133s.127-.268.159-.345c.023-.055.008-.087.027-.106a.426.426,0,0,0,.08-.08.958.958,0,0,1,.133-.133.9.9,0,0,1,.106-.08c.03-.022.08-.053.08-.053l.027-.027c-.027,0-.117.124-.186.212a.673.673,0,0,0-.106.159v.053h0a.7.7,0,0,1,.133-.08c.136-.074.206-.116.372-.212a2.3,2.3,0,0,0,.212-.159,1.884,1.884,0,0,0,.159-.133c.027-.027.08-.106.106-.106a.125.125,0,0,0,.053-.08c.006-.026.053-.133.053-.133a.2.2,0,0,0,.053-.08.5.5,0,0,1,.106-.159s.031-.018.08-.053c.091-.066.08-.106.133-.133l.106-.08a.4.4,0,0,1,.106-.053.282.282,0,0,0,.08-.08l.106-.106a.37.37,0,0,0,.08-.106c.014-.058.039-.045.053-.08a.176.176,0,0,1,.053-.053.343.343,0,0,1,.027.053c.01.025.061.048.106.133.013.023.077.032.133.053.1.038.106.053.133.08a.093.093,0,0,0,.053.027v.027l-.027.027c-.019.019-.048-.024-.08.027a.69.69,0,0,1-.08.08c-.027.027-.053.027-.106.08a.494.494,0,0,1-.106.08.915.915,0,0,0-.159.133,1.186,1.186,0,0,0-.133.186,1.3,1.3,0,0,1-.212.265c-.053.053-.139.154-.186.212-.156.2-.193.33-.319.372-.025.008-.034.034-.053.053s-.111.071-.159.106a.548.548,0,0,0-.133.159c-.027.027-.085.045-.133.08s-.106.106-.186.159v.027c-.027,0-.027,0,0-.027.08-.08.279-.277.4-.4a4.388,4.388,0,0,0,.478-.611,4.9,4.9,0,0,1,.319-.4,1.166,1.166,0,0,0,.106-.159,2.526,2.526,0,0,0,.159-.265l.027-.027V18.05l-.053.053-.106.106c-.08.08-.311.3-.451.425s-.159.159-.212.212-.087.1-.186.212-.271.26-.319.319c-.061.074-.072.112-.133.186a1.074,1.074,0,0,1-.08.08.23.23,0,0,1-.053.08c-.019.019,0,.027,0,.027v.027h0c.027.027.029.016.053.027.069.029.075.082.106.133.014.023.039.1.053.133a.989.989,0,0,1,.027.106.386.386,0,0,0,.053.08v.212a.093.093,0,0,1,.027.053c0,.027,0,.02.027.027a.214.214,0,0,1,.106.08c.019.019.016.055.027.08.029.069.08.08.133.133.027.027.049.111.08.133a.844.844,0,0,1,.159.159,1.486,1.486,0,0,0,.239.212.579.579,0,0,1,.133.106c.027.027.049.084.08.106a.42.42,0,0,1,.133.106,1.831,1.831,0,0,0,.133.186c.042.042.133.08.159.106l.08.08c0,.027.043.082.053.106s.034.034.053.053a.459.459,0,0,1,.053.106.173.173,0,0,0,.053.08c.019.019.027.053.053.08a.093.093,0,0,1,.027.053l.027.053h0v.053a.525.525,0,0,0-.106.133.191.191,0,0,1-.053.053s-.018,0-.053.053a.271.271,0,0,1-.053.053l-.027.027-.053.053-.027-.027c-.019-.019-.049-.084-.08-.106-.048-.035-.085-.071-.133-.106a.7.7,0,0,1-.08-.08c-.053-.053-.08-.053-.106-.08a.607.607,0,0,1-.106-.106c-.035-.048-.066-.084-.08-.106-.031-.05-.1-.034-.159-.106-.039-.044-.08-.106-.106-.133s-.08-.053-.133-.106l-.08-.08c-.053-.053-.1-.056-.133-.106-.014-.023-.014-.056-.027-.08-.045-.084-.131-.063-.159-.133a.319.319,0,0,0-.08-.106c-.027-.027-.08-.106-.133-.159-.106-.106-.155-.109-.186-.159a.119.119,0,0,0-.053-.053c-.035-.014-.027-.027-.053-.053l-.053-.027a.2.2,0,0,0-.08-.053,1.249,1.249,0,0,0-.133-.053h-.027a.1.1,0,0,0-.08-.027.093.093,0,0,0-.053-.027H20.2c0,.027-.018.039-.053.053a.2.2,0,0,1-.08,0h-.159c-.027.027-.065.018-.08.053s-.027.027-.027.027c-.027.053-.014.126-.133.186l-.053.027c-.027.053-.029.116-.133.159-.025.01-.069.029-.08.053s-.1.058-.133.106a.406.406,0,0,1-.106.106,1.341,1.341,0,0,0-.133.106l-.159.159a1.85,1.85,0,0,1-.159.212.733.733,0,0,0-.106.106c-.027.027-.08.106-.133.159l-.106.106a.789.789,0,0,1-.186.159c-.05.031-.082.069-.106.08a.261.261,0,0,0-.133.159c-.01.025-.008.034-.027.053a.938.938,0,0,0-.053.08c-.022.03-.027.027-.027.027h0a.23.23,0,0,0-.027-.08.24.24,0,0,0-.08-.106c-.027-.027-.018-.065-.053-.08s-.027,0-.027,0l-.027-.027c-.019-.019,0-.027,0-.027v-.106c0-.027.006-.027,0-.053-.014-.058-.027-.106-.027-.106v-.027a.026.026,0,0,1-.027-.027l.027-.027a.336.336,0,0,1,.106-.08c.051-.03.161-.1.186-.106a.977.977,0,0,0,.186-.133c.061-.044.073-.116.186-.186a1.29,1.29,0,0,0,.159-.106,1.67,1.67,0,0,1,.212-.212c.048-.035.164-.125.212-.159a.726.726,0,0,0,.212-.239.6.6,0,0,1,.133-.133.437.437,0,0,0,.159-.133,1.429,1.429,0,0,1,.159-.186l.133-.133c.08-.08.125-.139.212-.239a.246.246,0,0,0,.053-.08c.028-.092.08-.106.08-.106v-.027s.005,0-.053.133a1.979,1.979,0,0,1-.186.345,1.221,1.221,0,0,0-.133.133c-.071.087-.235.13-.425.345-.039.044-.08.106-.106.133l-.186.186c-.027.027-.045.085-.08.133s-.091.064-.133.106-.1.137-.159.186c-.1.087-.1.118-.133.133a.646.646,0,0,0-.133.133c-.061.074-.082.128-.133.159-.023.014-.027,0-.053.027a.343.343,0,0,0-.053.106c-.014.035-.027.027-.053.053,0,0,0,.008.027,0,.092-.028.159-.133.292-.265.186-.186.615-.58.77-.743.246-.259.444-.537.557-.664a1.952,1.952,0,0,1,.239-.239,1.561,1.561,0,0,0,.239-.319,1.03,1.03,0,0,1,.159-.186.726.726,0,0,0,.159-.186c.055-.078.137-.155.159-.186a.213.213,0,0,0,.053-.106h.027c-.053.053-.082.122-.212.292a.669.669,0,0,1-.186.159,1.838,1.838,0,0,0-.239.186c-.174.148-.3.144-.345.212a.193.193,0,0,0-.027.053c-.014.035-.027.027-.027.027v-.027a.957.957,0,0,1,.027-.186c.013-.083,0-.156.053-.212.019-.019.027,0,.027.053v.133a1.172,1.172,0,0,0,.106.292c.059.13.053.133.08.133h0a.613.613,0,0,1,.133-.186.074.074,0,0,1,.08-.027,1.452,1.452,0,0,0,.212.159c.1.06.368.191.478.265.128.086.161.1.239.159a1.509,1.509,0,0,0,.212.133c.053.027.11.033.159.053.069.029.078.055.053.027-.113-.127-.312-.378-.664-.743a.363.363,0,0,0-.133-.08.24.24,0,0,1-.106-.159.319.319,0,0,0-.08-.106c-.1-.087-.133-.106-.159-.133,0,0-.012.008-.027-.027h0c.027,0,.027.027.106.106a1.885,1.885,0,0,1,.133.159,1.036,1.036,0,0,0,.531.451c.025.008,0,0-.027-.027a2.023,2.023,0,0,0-.319-.292c-.03-.023-.111-.045-.159-.08a1.248,1.248,0,0,1-.106-.106c-.019-.019-.008-.014.027,0a.21.21,0,0,0,.08,0c.08,0,.159-.027.159-.053v-.027a.353.353,0,0,0-.08-.212l.027.053c.027.053.09.208.133.319a1.409,1.409,0,0,0,.265.531.1.1,0,0,1,.027.053.206.206,0,0,0,.027.133.154.154,0,0,1,.027.053,2.588,2.588,0,0,1,.159.212,1.34,1.34,0,0,0,.106.133c.053.053.072.139.159.239.049.057.114.061.133.08s.028.078.053.106a1.118,1.118,0,0,0,.239.212l.027.027a.814.814,0,0,0,.186.133,1.281,1.281,0,0,1,.159.08l.027.027a.959.959,0,0,0,.186.159c.1.06.123.1.133.08s-.1-.068-.133-.159c-.008-.025-.027-.027-.027-.053l-.08-.159a.594.594,0,0,0-.106-.159.413.413,0,0,1-.133-.133,1.021,1.021,0,0,0-.186-.212c-.03-.022-.058-.023-.08-.053a1.341,1.341,0,0,0-.106-.133.37.37,0,0,0-.106-.08c-.058-.014-.055-.043-.08-.053s-.151-.145-.186-.159-.027,0-.027,0a522.44,522.44,0,0,1-.053-.053.271.271,0,0,0-.053-.053c-.048-.035-.262-.138-.4-.212-.156-.086-.208-.111-.239-.133a.97.97,0,0,0-.186-.106.445.445,0,0,1-.212-.053.244.244,0,0,0-.106-.027h-.08c-.08,0-.106-.027-.186-.027h-.212c-.053,0-.08,0-.106.027l-.053-.027v.053h-.027a.274.274,0,0,0-.106.027c-.035.014-.08.053-.106.053s-.039-.008-.053.027a.245.245,0,0,1-.053.08c-.027.027-.08.027-.106.053a.7.7,0,0,1-.133.08.348.348,0,0,0-.106.106c-.031.05-.085.018-.133.053-.03.022-.051.082-.08.106-.074.061-.143.055-.186.159a.812.812,0,0,1-.106.159,2.216,2.216,0,0,0-.159.239.5.5,0,0,0-.106.133.084.084,0,0,0,0,.053c0,.027,0,.027.027.027a1.727,1.727,0,0,0,.239-.08c.189-.072.3-.078.584-.186a2.227,2.227,0,0,0,.557-.531c.209-.242.284-.3.345-.372a.437.437,0,0,0,.08-.186,1.617,1.617,0,0,0,.027-.212l-.027-.027-.027-.053v-.027h0c0-.027-.027-.027-.027-.053a.448.448,0,0,0-.053-.133.23.23,0,0,0-.053-.08c-.019-.019,0-.027,0-.027a.271.271,0,0,1-.053-.053.839.839,0,0,1-.08-.133.23.23,0,0,0-.053-.053c-.084-.045-.1-.147-.239-.239a.392.392,0,0,1-.106-.106,1.2,1.2,0,0,0-.159-.159,1.6,1.6,0,0,0-.133-.106c-.048-.035-.058-.018-.106-.053s-.127-.113-.159-.133c-.071-.044-.082-.016-.106-.027s-.045-.036-.106-.08a.877.877,0,0,0-.133-.08c-.035-.014-.065-.018-.08-.053s-.034-.034-.053-.053,0-.053-.027-.053v-.053l.08.08a.872.872,0,0,0,.159.106c.051.03.4.148.611.212a2.47,2.47,0,0,1,.345.133v.027h.027a.026.026,0,0,1,.027.027h0" transform="translate(-11.225 -10.897)" fill="none" stroke="#ff9696" stroke-width="1"/><path d="M21.146,22.642h0a.425.425,0,0,1-.3-.123l-2.051-2.056-2.051,2.056a.425.425,0,0,1-.6,0l-1.066-1.07a.425.425,0,0,1,0-.6l2.051-2.06-2.051-2.056a.425.425,0,0,1,0-.6l1.066-1.066a.425.425,0,0,1,.6,0l2.051,2.06,2.051-2.051a.425.425,0,0,1,.6,0l1.066,1.066a.425.425,0,0,1,0,.6L20.462,18.79l2.051,2.051a.425.425,0,0,1,0,.6l-1.066,1.07a.425.425,0,0,1-.3.132Zm-2.353-3.2a.425.425,0,0,1,.3.123l2.051,2.051.467-.463L19.558,19.1a.425.425,0,0,1,0-.6l2.056-2.051-.467-.467L19.095,18.03a.425.425,0,0,1-.6,0L16.44,15.979l-.467.467L18.029,18.5a.425.425,0,0,1,0,.6l-2.056,2.056.467.463,2.051-2.051A.425.425,0,0,1,18.793,19.44Z" transform="translate(-9.794 -9.447)"/><path d="M19.03,3.7H18.01V2.425A.425.425,0,0,0,17.586,2H15.955a.425.425,0,0,0-.425.425V3.7h-.9V2.425A.425.425,0,0,0,14.2,2H12.574a.425.425,0,0,0-.425.425V3.7h-.892V2.425A.425.425,0,0,0,10.833,2H9.2a.425.425,0,0,0-.425.425V3.7h-.9V2.425A.425.425,0,0,0,7.448,2H5.817a.425.425,0,0,0-.425.425V3.7h-.8A1.771,1.771,0,0,0,2.81,5.483v12.9a1.771,1.771,0,0,0,1.78,1.771H19.03A1.771,1.771,0,0,0,20.8,18.385V5.483A1.771,1.771,0,0,0,19.03,3.7Zm-2.65-.849h.786V3.7h-.786Zm-3.4,0h.786V3.7H13Zm-3.359,0h.786V3.7H9.622Zm-3.4,0H7.01V3.7H6.242ZM19.943,18.385a.926.926,0,0,1-.913.922H4.589a.926.926,0,0,1-.922-.922v-.527a1.75,1.75,0,0,0,.951.28h14.44a1.758,1.758,0,0,0,.888-.238Zm0-1.763a.917.917,0,0,1-.871.667H4.632a.922.922,0,0,1-.913-.79c0-.047-.047-11.042-.047-11.042a.922.922,0,0,1,.917-.909h.8V5.568a.425.425,0,1,0,.849,0V4.548H8.79V5.568a.425.425,0,1,0,.849,0V4.548h2.51V5.568a.425.425,0,1,0,.849,0V4.548h2.548V5.568a.425.425,0,1,0,.849,0V4.548H19.03a.922.922,0,0,1,.922.922l-.008,11.153Z" transform="translate(-2.81 -2)"/><path d="M17.625,18.528" transform="translate(-11.333 -11.509)" fill="#fff" stroke="#000" stroke-width="1" opacity="0.5"/></g></g></g></svg>