<svg xmlns="http://www.w3.org/2000/svg" width="46" height="44" viewBox="0 0 46 44">
  <g id="Group_8065" data-name="Group 8065" transform="translate(-178.057 -1810.387)">
    <g id="Group_8064" data-name="Group 8064" transform="translate(178.057 1810.387)">
      <g id="Group_8062" data-name="Group 8062">
        <path id="Path_9366" data-name="Path 9366" d="M509.312,1906.5a.815.815,0,0,1-.06-.056,1.245,1.245,0,0,1-.265-.427c-.148-.353-.294-.884-.647-1.725-.538,1.284-.6,1.847-.912,2.152s-.868.374-2.152.912c1.284.539,1.848.6,2.152.912s.374.868.912,2.152c.353-.842.5-1.374.647-1.726a1.243,1.243,0,0,1,.265-.426.762.762,0,0,1,.06-.056,13.218,13.218,0,0,1,2.092-.856A13.236,13.236,0,0,1,509.312,1906.5Z" transform="translate(-470.346 -1903.018)" fill="#f94"/>
        <path id="Path_9367" data-name="Path 9367" d="M260.956,1997.935c-.015-.012-.028-.025-.041-.038a.857.857,0,0,1-.182-.293c-.1-.242-.2-.605-.443-1.182-.369.88-.408,1.265-.625,1.474s-.594.256-1.474.624c.88.369,1.265.408,1.474.625s.256.594.625,1.474c.242-.576.342-.94.443-1.182a.852.852,0,0,1,.181-.292.561.561,0,0,1,.041-.039.836.836,0,1,0,0-1.172Z" transform="translate(-258.192 -1982.105)" fill="#f94"/>
        <path id="Path_9368" data-name="Path 9368" d="M563.6,2067.179c-.011-.009-.021-.019-.03-.029a.632.632,0,0,1-.135-.216c-.075-.178-.149-.448-.328-.874-.273.651-.3.936-.462,1.09s-.44.189-1.09.462c.651.273.936.3,1.09.462s.189.439.462,1.091c.179-.427.253-.7.328-.875a.625.625,0,0,1,.134-.216l.03-.029a.619.619,0,1,0,0-.867Z" transform="translate(-518.664 -2041.887)" fill="#fc6076"/>
        <path id="Path_9369" data-name="Path 9369" d="M346.208,1896.381l-.03-.029a.631.631,0,0,1-.134-.216c-.075-.179-.149-.448-.328-.874-.273.651-.3.936-.462,1.091s-.44.189-1.09.462c.651.273.936.3,1.09.462s.189.44.462,1.091c.179-.427.253-.7.328-.875a.626.626,0,0,1,.134-.216l.03-.029a.619.619,0,1,0,0-.867Z" transform="translate(-332.007 -1895.262)" fill="#00b3bf"/>
      </g>
      <g id="Group_8063" data-name="Group 8063" transform="translate(5.729 4.809)">
        <path id="Path_9370" data-name="Path 9370" d="M311.885,2081.27h5.238l-1.4-3.062-.035-2.176a1.54,1.54,0,0,0-1.54-1.515h-2.263Z" transform="translate(-310.015 -2054.254)" fill="#f94"/>
        <path id="Path_9371" data-name="Path 9371" d="M351.182,1985.84v3.287c0,2.285-1.27,4.143-2.832,4.143s-2.832-1.859-2.832-4.143v-3.287Z" transform="translate(-338.896 -1977.948)" fill="#ffceb3"/>
        <rect id="Rectangle_2426" data-name="Rectangle 2426" width="35.399" height="4.795" transform="translate(1.1 34.308)" fill="#fff"/>
        <path id="Path_9372" data-name="Path 9372" d="M331.057,2129.227H306.448v-7.55h21.279a3.33,3.33,0,0,1,3.33,3.33v4.22Z" transform="translate(-305.347 -2094.919)" fill="#ffceb3"/>
        <path id="Path_9373" data-name="Path 9373" d="M483.3,2137.431l-1.736,1.066a2.568,2.568,0,0,1-2.687-4.377l1.736-1.066Z" transform="translate(-452.356 -2104.686)" fill="#f5cdb3"/>
        <path id="Path_9374" data-name="Path 9374" d="M325.785,2144.944a.9.9,0,0,1-.179-.018.85.85,0,0,1-.171-.052.92.92,0,0,1-.3-.2.954.954,0,0,1-.113-.139.909.909,0,0,1-.084-.157.959.959,0,0,1-.052-.172.916.916,0,0,1,0-.356.928.928,0,0,1,.136-.329.952.952,0,0,1,.113-.138.92.92,0,0,1,.3-.2.885.885,0,0,1,.171-.052.92.92,0,0,1,.824.249.9.9,0,0,1,.2.3.916.916,0,0,1,.052.17.873.873,0,0,1,0,.356.948.948,0,0,1-.052.172.909.909,0,0,1-.084.157.893.893,0,0,1-.113.139A.919.919,0,0,1,325.785,2144.944Z" transform="translate(-321.164 -2113.231)"/>
        <path id="Path_9375" data-name="Path 9375" d="M429,2138.11l-7.5-1.412a2.83,2.83,0,0,1-1.988-1.516l-2.553-5.637c-.324-.716.208-1.656,1.189-2.1h0a1.75,1.75,0,0,1,2.363.491l2.591,5.721,6.513,1.544a1.487,1.487,0,0,1,1.145,1.447h0A1.488,1.488,0,0,1,429,2138.11Z" transform="translate(-400.166 -2099.672)" fill="#ffceb3"/>
        <path id="Path_9376" data-name="Path 9376" d="M451.554,2095.9l2.393-1.31,2.931,4.257c2.445-1.541,3.546-3.984,1.958-6.291-1.761-2.557-4.81-2.6-7.5-1.126l-6.226,3.589,4,4.761C449.42,2098.087,448.953,2097.328,451.554,2095.9Z" transform="translate(-424.421 -2067.996)" fill="#fc6076"/>
        <path id="Path_9377" data-name="Path 9377" d="M349.3,2055.389a1.792,1.792,0,0,1-2.262,1.188l-5.177-1.658a4.433,4.433,0,0,1-2.471-2.1l-4.008-7.475a1.95,1.95,0,0,1,.8-2.64h0a1.95,1.95,0,0,1,2.64.8l4.068,7.586,5.356,2.115a1.792,1.792,0,0,1,1.057,2.185Z" transform="translate(-329.991 -2026.748)" fill="#ffceb3"/>
        <path id="Path_9378" data-name="Path 9378" d="M434.938,2125.839a1.779,1.779,0,0,1,.082.324h.16Z" transform="translate(-415.673 -2098.353)"/>
        <path id="Path_9379" data-name="Path 9379" d="M307.547,1949.009v-2.578h4.482c-.178-2.743-1.863-4.92-4.649-4.92-3.089,0-4.592,2.361-4.592,5.264v8.161h6.519C308.68,1954.344,307.547,1953.011,307.547,1949.009Z" transform="translate(-302.204 -1939.774)" fill="#f94"/>
        <path id="Path_9380" data-name="Path 9380" d="M335.5,1961.891h-4.577l1.267-.769a.912.912,0,0,0,.186-.151,8.2,8.2,0,0,0,3.136-4.1,6.157,6.157,0,0,0-.723-5.23c-2.164-3.487-6.13-4.181-10.1-1.77l-.018.011-6.741,4.311a2.61,2.61,0,0,0-.358-.172l-5.04-1.968-3.905-7.2a2.854,2.854,0,0,0-.273-.413,5.014,5.014,0,0,0,3.84-4.849v-2.9a.891.891,0,0,0,.071-.408c-.276-4.212-3.022-7.042-6.832-7.042-4.107,0-6.761,2.957-6.761,7.533v10.282a.9.9,0,0,0,.516.811v19.664a.906.906,0,0,0,.911.9h35.4a.906.906,0,0,0,.911-.9v-4.738A.906.906,0,0,0,335.5,1961.891Zm-11.818-2.137c.16-.883.552-1.486,2.221-2.5l2.045-1.242.4.641,2.113,3.4-2.045,1.242a3.286,3.286,0,0,1-4.487-1.062A3.193,3.193,0,0,1,323.683,1959.754Zm1.968-8.352c1.181-.715,5.17-2.709,7.586,1.182,1.564,2.52.463,4.861-1.292,6.418l-2.918-4.7a.917.917,0,0,0-1.254-.3l-2.822,1.713h0c-2.143,1.3-2.766,2.306-3.024,3.533l-2.788-3.685Zm-7.816,7.47a2.676,2.676,0,0,0,.929-.792l.42.556,1.928,4.209a.908.908,0,0,0,.62.505l6.506,1.525a.568.568,0,0,1,.442.553.559.559,0,0,1-.208.438.571.571,0,0,1-.473.121l-7.462-1.391a1.922,1.922,0,0,1-1.35-.989l-2.054-4.485A2.719,2.719,0,0,0,317.835,1958.872Zm-16.826-4.44v-6.476h2.812l3.511,6.476Zm0,1.8h7.6a5.336,5.336,0,0,0,1.954,1.173l.017.006,2.9.918h-7.03a.9.9,0,1,0,0,1.8h9.135l.813,1.757H301.01Zm10.072-3.038a.909.909,0,0,0,.468.412l5.35,2.089a.872.872,0,0,1,.519,1.06h0a.865.865,0,0,1-.433.518.882.882,0,0,1-.677.058l-5.163-1.635a3.5,3.5,0,0,1-1.952-1.644l-3.306-6.1h2a.916.916,0,0,0,.324-.059Zm-.713-13.609a3.214,3.214,0,0,1-3.228,3.192,3.348,3.348,0,0,1-.336-.017,17.994,17.994,0,0,1-.251-3.175v-2.346h3.814v2.346Zm-9.877-2.814c0-1.344.356-5.73,4.938-5.73,3,0,4.458,2.2,4.888,4.4h-4.675a.907.907,0,0,0-.911.9v3.247a13.258,13.258,0,0,0,1.305,6.566h-5.545Zm.517,26.921h16.213l.3.658a3.7,3.7,0,0,0,2.6,2l.048.01,1.423.265H301.01Zm33.579,2.935h-4.417a2.351,2.351,0,0,0-.434-2.935h4.851v2.935h0Z" transform="translate(-298.67 -1929.24)"/>
      </g>
    </g>
  </g>
</svg>
