<svg xmlns="http://www.w3.org/2000/svg" width="40" height="43" viewBox="0 0 40 43">
  <g id="Group_8058" data-name="Group 8058" transform="translate(1587.302 -1770.968)">
    <g id="Group_8057" data-name="Group 8057" transform="translate(-1587.302 1770.968)">
      <path id="Path_9343" data-name="Path 9343" d="M-1258.834,1850.161c-.019-.016-.037-.033-.054-.05a1.105,1.105,0,0,1-.236-.38c-.132-.314-.262-.787-.576-1.536-.48,1.144-.531,1.645-.812,1.916s-.773.333-1.916.812c1.144.479,1.645.531,1.916.812s.333.772.812,1.916c.314-.749.444-1.223.576-1.536a1.107,1.107,0,0,1,.236-.38c.017-.018.035-.034.054-.05a11.8,11.8,0,0,1,1.862-.762A11.783,11.783,0,0,1-1258.834,1850.161Z" transform="translate(1292.572 -1847.057)" fill="#f94"/>
      <path id="Path_9344" data-name="Path 9344" d="M-1507.05,1941.669l-.037-.034a.759.759,0,0,1-.162-.26c-.09-.215-.179-.539-.394-1.052-.328.783-.363,1.126-.556,1.312s-.529.228-1.312.556c.783.328,1.126.363,1.312.556s.228.529.556,1.312c.215-.513.3-.837.395-1.052a.758.758,0,0,1,.161-.26c.012-.012.024-.023.037-.034a8.08,8.08,0,0,1,1.275-.522A8.11,8.11,0,0,1-1507.05,1941.669Z" transform="translate(1509.511 -1927.729)" fill="#f94"/>
      <path id="Path_9345" data-name="Path 9345" d="M-1204.323,2010.956a.268.268,0,0,1-.027-.026.557.557,0,0,1-.12-.193c-.067-.159-.133-.4-.292-.778-.243.579-.269.833-.411.97s-.392.169-.971.412c.579.243.833.269.971.411s.168.391.411.971c.159-.38.225-.62.292-.778a.56.56,0,0,1,.12-.192l.027-.026a5.958,5.958,0,0,1,.944-.386A5.982,5.982,0,0,1-1204.323,2010.956Z" transform="translate(1243.38 -1988.692)" fill="#fc6076"/>
      <path id="Path_9346" data-name="Path 9346" d="M-1421.719,1840.158a.3.3,0,0,1-.027-.025.561.561,0,0,1-.12-.193c-.067-.159-.133-.4-.292-.778-.243.579-.269.833-.411.971s-.391.169-.971.412c.579.243.833.269.971.411s.168.391.411.971c.159-.38.225-.62.292-.779a.564.564,0,0,1,.12-.192l.027-.025a5.951,5.951,0,0,1,.943-.386A5.942,5.942,0,0,1-1421.719,1840.158Z" transform="translate(1434.092 -1839.162)" fill="#00b3bf"/>
      <g id="Group_8056" data-name="Group 8056" transform="translate(1.931 4.14)">
        <g id="Group_8055" data-name="Group 8055" transform="translate(6.159 0.842)">
          <path id="Path_9347" data-name="Path 9347" d="M-1435.006,2054.921a4.187,4.187,0,0,0-2.471,3.82h0a4.189,4.189,0,0,0,4.189,4.189h4.321l.883-2.605A10.809,10.809,0,0,1-1435.006,2054.921Z" transform="translate(1437.477 -2032.719)" fill="#fc6076"/>
          <path id="Path_9348" data-name="Path 9348" d="M-1383.961,1900.9a4.157,4.157,0,0,0-1.254-.343v-9.276a12.658,12.658,0,0,0-11.293-12.583,12.659,12.659,0,0,0-11.277,11.947l5.421-4s1.662.835,3.829,1.879c3.5,1.689,8.326,3.926,9.577,4.074v2.817a11.137,11.137,0,0,1-7.55,10.675q-.37.12-.751.212l.751,2.217.132.389h10.7a4.189,4.189,0,0,0,4.189-4.189h0A4.188,4.188,0,0,0-1383.961,1900.9Z" transform="translate(1411.526 -1878.701)" fill="#fc6076"/>
        </g>
        <path id="Path_9349" data-name="Path 9349" d="M-1391.441,2118.487l.383,1.131-.23.137a6.946,6.946,0,0,1-7.206-.05l.413-1.219h-3.124V2126h17.7v-7.513Z" transform="translate(1412.348 -2087.908)" fill="#f94"/>
        <path id="Path_9350" data-name="Path 9350" d="M-1408.944,1954.563v2.817a11.094,11.094,0,0,0,8.3,10.887l-1.3,3.823h0a6.944,6.944,0,0,0,1.983.831,6.937,6.937,0,0,0,1.9-.781l.23-.137-1.266-3.736a11.093,11.093,0,0,0,8.3-10.887v-2.817c-1.492-.176-8.064-3.325-11.42-4.97Z" transform="translate(1419.149 -1940.109)" fill="#ffdaae"/>
        <path id="Path_9351" data-name="Path 9351" d="M-1277.892,2151.613a.771.771,0,0,1-.15-.014.809.809,0,0,1-.144-.044.774.774,0,0,1-.133-.071.766.766,0,0,1-.117-.1.773.773,0,0,1-.225-.543.759.759,0,0,1,.015-.15.8.8,0,0,1,.044-.144.744.744,0,0,1,.071-.133.737.737,0,0,1,.1-.117.763.763,0,0,1,.117-.095.757.757,0,0,1,.133-.071.752.752,0,0,1,.144-.044.775.775,0,0,1,.693.21.756.756,0,0,1,.1.117.768.768,0,0,1,.071.133.782.782,0,0,1,.044.144.767.767,0,0,1,.015.15.769.769,0,0,1-.225.543A.772.772,0,0,1-1277.892,2151.613Z" transform="translate(1305.079 -2115.518)"/>
        <path id="Path_9352" data-name="Path 9352" d="M-1460.85,1893.818v-8.532a13.186,13.186,0,0,0-13.076-13.263h-3.554a13.186,13.186,0,0,0-13.076,13.263v8.532a4.876,4.876,0,0,0-3.628,4.744,4.868,4.868,0,0,0,4.828,4.9h1.943v6.664a.754.754,0,0,0,.748.759h21.925a.754.754,0,0,0,.748-.759v-6.664h1.943a4.869,4.869,0,0,0,4.828-4.9A4.876,4.876,0,0,0-1460.85,1893.818Zm-4.639,15.547h-20.428v-1.214h15.818a.754.754,0,0,0,.748-.759.754.754,0,0,0-.748-.759h-15.818v-3.173h5.937l-.067.2a.765.765,0,0,0,.316.89,7.4,7.4,0,0,0,7.8.055l.224-.136a.765.765,0,0,0,.325-.9l-.038-.114h5.937Zm-8.016-9.975a.749.749,0,0,0-.48.371.768.768,0,0,0-.053.61l.86,2.574.176.527a5.917,5.917,0,0,1-5.428.076l.2-.6.86-2.574a.769.769,0,0,0-.053-.61.749.749,0,0,0-.48-.371,10.126,10.126,0,0,1-7.513-10.018v-2.4l7.187-5.378c2.032,1.028,9.493,4.764,12.235,5.593v2.184A10.126,10.126,0,0,1-1473.505,1899.389Zm11.456,2.553h-9.883l-.435-1.3a11.271,11.271,0,0,0,5.411-3.888,12.233,12.233,0,0,0,2.462-7.38v-2.783a.755.755,0,0,0-.661-.754c-1.342-.16-8.569-3.646-12.81-5.806a.74.74,0,0,0-.78.067l-7.86,5.881a.763.763,0,0,0-.3.611v2.783a12.231,12.231,0,0,0,2.462,7.38,11.269,11.269,0,0,0,5.41,3.888l-.435,1.3h-9.883a3.359,3.359,0,0,1-3.332-3.379,3.355,3.355,0,0,1,2.962-3.358.755.755,0,0,0,.667-.754v-9.164a11.676,11.676,0,0,1,11.58-11.745h3.554a11.677,11.677,0,0,1,11.58,11.745v9.164a.755.755,0,0,0,.667.754,3.355,3.355,0,0,1,2.962,3.358A3.36,3.36,0,0,1-1462.05,1901.941Z" transform="translate(1494.185 -1872.022)"/>
        <path id="Path_9353" data-name="Path 9353" d="M-1372.556,2045.124a6.59,6.59,0,0,1-3.857-1.246.768.768,0,0,1-.175-1.073.769.769,0,0,1,1.073-.174,5.058,5.058,0,0,0,5.919,0,.768.768,0,0,1,1.072.174.768.768,0,0,1-.174,1.073A6.59,6.59,0,0,1-1372.556,2045.124Z" transform="translate(1391.038 -2021.286)"/>
        <path id="Path_9354" data-name="Path 9354" d="M-1319.15,1995.875a.765.765,0,0,1-.448-.145,2.068,2.068,0,0,0-2.421,0,.768.768,0,0,1-1.073-.174.768.768,0,0,1,.174-1.072,3.6,3.6,0,0,1,4.217,0,.768.768,0,0,1,.174,1.072A.767.767,0,0,1-1319.15,1995.875Z" transform="translate(1344.133 -1978.654)"/>
        <path id="Path_9355" data-name="Path 9355" d="M-1398.377,1995.874a.766.766,0,0,1-.448-.145,2.068,2.068,0,0,0-2.421,0,.769.769,0,0,1-1.072-.174.768.768,0,0,1,.174-1.073,3.6,3.6,0,0,1,4.216,0,.768.768,0,0,1,.174,1.073A.766.766,0,0,1-1398.377,1995.874Z" transform="translate(1413.675 -1978.654)"/>
      </g>
    </g>
  </g>
</svg>
