<svg xmlns="http://www.w3.org/2000/svg" width="46" height="44" viewBox="0 0 46 44">
  <g id="Group_8061" data-name="Group 8061" transform="translate(402.495 -1796.844)">
    <g id="Group_8059" data-name="Group 8059" transform="translate(-399.003 1801.854)">
      <path id="Path_9356" data-name="Path 9356" d="M-198.811,1932.04l-.326,2.5a5.31,5.31,0,0,0,1.323,4.246l.257.285a5.344,5.344,0,0,0,7.532.4,5.31,5.31,0,0,0,1.607-5.245,30.779,30.779,0,0,1,1.694-19.914l2.9-6.572-6.688,6.986a30.855,30.855,0,0,0-5.977,8.964l2.242,2.238h-3.117A30.81,30.81,0,0,0-198.811,1932.04Z" transform="translate(213.095 -1907.086)" fill="#fc6076"/>
      <path id="Path_9357" data-name="Path 9357" d="M-253.709,1981.336l-2.606,5.863h8.469Z" transform="translate(262.177 -1970.295)" fill="#fc6076"/>
      <path id="Path_9358" data-name="Path 9358" d="M-258.7,2054.937h-13.656l1.829,6.6a7.994,7.994,0,0,1-2.756,8.417h0a7.961,7.961,0,0,1-9.852,0l-.232-.183a7.993,7.993,0,0,1-2.857-8.012l1.512-6.819h-13.006v17.589H-258.7Z" transform="translate(297.714 -2033.536)" fill="#f94"/>
      <path id="Path_9359" data-name="Path 9359" d="M-272.353,2050.336a.652.652,0,0,0-.651.651.634.634,0,0,0,.024.175l1.829,6.6a7.336,7.336,0,0,1-5.095,9.031,7.311,7.311,0,0,1-6.485-1.3l-.232-.182a7.381,7.381,0,0,1-2.625-7.361l1.513-6.819a.652.652,0,0,0-.5-.776.666.666,0,0,0-.139-.015h-13.006v1.3h12.195l-1.335,6.026a8.694,8.694,0,0,0,3.091,8.667l.232.182a8.611,8.611,0,0,0,12.106-1.458,8.65,8.65,0,0,0,1.527-7.646l-1.6-5.771h12.8v-1.3Z" transform="translate(297.714 -2029.587)"/>
      <path id="Path_9360" data-name="Path 9360" d="M-203.724,1930.52a5.944,5.944,0,0,0,1.486,4.764l.257.284a6,6,0,0,0,8.452.446,5.958,5.958,0,0,0,1.8-5.886,30.294,30.294,0,0,1,1.659-19.5l2.9-6.574a.648.648,0,0,0-.339-.854.653.653,0,0,0-.729.146l-6.688,6.987a31.408,31.408,0,0,0-6.1,9.16.648.648,0,0,0,.137.719l1.129,1.123H-201.3a.652.652,0,0,0-.616.436,31.53,31.53,0,0,0-1.479,6.246Zm1.292.168.326-2.5a30.133,30.133,0,0,1,1.271-5.55h2.649a.651.651,0,0,0,.651-.649.649.649,0,0,0-.191-.459l-1.924-1.919a30.1,30.1,0,0,1,5.668-8.376l4.129-4.311-1.405,3.183a31.583,31.583,0,0,0-1.733,20.333,4.67,4.67,0,0,1-3.41,5.663,4.691,4.691,0,0,1-4.614-1.406l-.256-.285a4.65,4.65,0,0,1-1.163-3.723Z" transform="translate(217.037 -1903.149)"/>
      <path id="Path_9361" data-name="Path 9361" d="M-260.266,1983.9h8.469a.652.652,0,0,0,.651-.652.65.65,0,0,0-.191-.46l-5.863-5.863a.651.651,0,0,0-.921,0,.654.654,0,0,0-.135.2l-2.606,5.863a.651.651,0,0,0,.33.86A.663.663,0,0,0-260.266,1983.9Zm2.815-5.383,4.081,4.08h-5.893Z" transform="translate(266.129 -1966.345)"/>
    </g>
    <g id="Group_8060" data-name="Group 8060" transform="translate(-402.495 1796.844)">
      <path id="Path_9362" data-name="Path 9362" d="M-71.245,1879.015c-.021-.018-.041-.037-.06-.057a1.24,1.24,0,0,1-.266-.427c-.148-.353-.294-.885-.647-1.726-.539,1.285-.6,1.849-.913,2.153s-.868.374-2.154.913c1.285.539,1.849.6,2.154.913s.374.868.913,2.154c.353-.842.5-1.375.648-1.727a1.239,1.239,0,0,1,.265-.426.821.821,0,0,1,.06-.057,13.221,13.221,0,0,1,2.093-.856A13.268,13.268,0,0,1-71.245,1879.015Z" transform="translate(110.207 -1875.526)" fill="#f94"/>
      <path id="Path_9363" data-name="Path 9363" d="M-319.6,1970.445a.515.515,0,0,1-.041-.038.85.85,0,0,1-.182-.293c-.1-.241-.2-.606-.443-1.182-.369.88-.408,1.266-.625,1.475s-.595.256-1.475.625c.88.369,1.266.408,1.475.625s.256.594.625,1.475c.242-.577.342-.941.444-1.183a.851.851,0,0,1,.182-.292c.013-.014.027-.026.041-.039a9.092,9.092,0,0,1,1.433-.586A9.021,9.021,0,0,1-319.6,1970.445Z" transform="translate(322.368 -1954.606)" fill="#f94"/>
      <path id="Path_9364" data-name="Path 9364" d="M-16.954,2039.689l-.031-.029a.633.633,0,0,1-.135-.217c-.075-.178-.149-.448-.328-.875-.273.651-.3.937-.462,1.091s-.44.19-1.091.462c.651.273.937.3,1.091.463s.189.44.462,1.091c.179-.427.253-.7.328-.875a.628.628,0,0,1,.134-.216.289.289,0,0,1,.031-.029,6.688,6.688,0,0,1,1.061-.434A6.782,6.782,0,0,1-16.954,2039.689Z" transform="translate(61.894 -2014.381)" fill="#fc6076"/>
      <path id="Path_9365" data-name="Path 9365" d="M-234.35,1868.891c-.011-.009-.021-.019-.031-.028a.631.631,0,0,1-.135-.217c-.075-.179-.149-.448-.328-.874-.273.651-.3.937-.462,1.091s-.44.189-1.091.462c.651.273.937.3,1.091.463s.189.44.462,1.091c.179-.427.253-.7.328-.875a.629.629,0,0,1,.134-.216l.031-.029a6.725,6.725,0,0,1,1.061-.434A6.7,6.7,0,0,1-234.35,1868.891Z" transform="translate(248.552 -1867.771)" fill="#00b3bf"/>
    </g>
  </g>
</svg>
