<svg xmlns="http://www.w3.org/2000/svg" width="45" height="49" viewBox="0 0 45 49">
  <g id="Group_8054" data-name="Group 8054" transform="translate(1006.069 -1786.43)">
    <g id="Group_8053" data-name="Group 8053" transform="translate(-1006.069 1786.43)">
      <path id="Path_9336" data-name="Path 9336" d="M-674.719,1868.7c-.021-.018-.041-.036-.06-.056a1.236,1.236,0,0,1-.263-.423c-.146-.349-.291-.875-.64-1.707-.533,1.271-.59,1.828-.9,2.13s-.859.37-2.13.9c1.271.533,1.829.59,2.13.9s.37.859.9,2.13c.349-.833.494-1.359.64-1.708a1.23,1.23,0,0,1,.262-.422.757.757,0,0,1,.06-.056,13.078,13.078,0,0,1,2.07-.847A13.075,13.075,0,0,1-674.719,1868.7Z" transform="translate(712.758 -1865.254)" fill="#f94"/>
      <path id="Path_9337" data-name="Path 9337" d="M-923.061,1960.143c-.014-.012-.028-.025-.041-.038a.839.839,0,0,1-.18-.29c-.1-.239-.2-.6-.438-1.169-.365.87-.4,1.252-.618,1.459s-.588.253-1.459.618c.87.365,1.252.4,1.459.618s.253.588.618,1.458c.239-.57.338-.931.438-1.17a.837.837,0,0,1,.18-.289.517.517,0,0,1,.041-.038,8.955,8.955,0,0,1,1.418-.58A9.031,9.031,0,0,1-923.061,1960.143Z" transform="translate(925.797 -1944.478)" fill="#f94"/>
      <path id="Path_9338" data-name="Path 9338" d="M-620.406,2029.39l-.03-.028a.626.626,0,0,1-.133-.214c-.074-.177-.147-.443-.324-.865-.27.644-.3.927-.457,1.079s-.435.187-1.079.458c.644.27.926.3,1.079.457s.187.435.457,1.079c.177-.422.25-.689.324-.865a.623.623,0,0,1,.133-.214l.03-.028a6.619,6.619,0,0,1,1.049-.429A6.648,6.648,0,0,1-620.406,2029.39Z" transform="translate(664.357 -2004.362)" fill="#fc6076"/>
      <path id="Path_9339" data-name="Path 9339" d="M-837.8,1858.593l-.03-.028a.623.623,0,0,1-.133-.214c-.074-.177-.147-.443-.324-.865-.27.644-.3.926-.457,1.079s-.435.187-1.079.457c.644.27.926.3,1.079.457s.187.435.457,1.079c.177-.422.25-.689.325-.865a.626.626,0,0,1,.133-.214l.03-.028a6.635,6.635,0,0,1,1.049-.429A6.677,6.677,0,0,1-837.8,1858.593Z" transform="translate(851.708 -1857.485)" fill="#00b3bf"/>
    </g>
    <path id="Path_9340" data-name="Path 9340" d="M-769.209,1922.461l-.073-.024c-.018,0-.072-.008-.089-.008l.071,39.2h.053a32.935,32.935,0,0,0,10.577-1.521l.034-27.209C-758.541,1926.7-763.349,1922.461-769.209,1922.461Z" transform="translate(-215.142 -127.167)" fill="#f94"/>
    <path id="Path_9341" data-name="Path 9341" d="M-830.036,1955.964h-.04a31.527,31.527,0,0,1-10.529-1.814l-.466-.165v-28.235a11.047,11.047,0,0,1,11.034-11.034A11.047,11.047,0,0,1-819,1925.749v28.234l-.466.165A31.489,31.489,0,0,1-830.036,1955.964Zm-9.634-2.973a30.116,30.116,0,0,0,9.583,1.572h.04a30.125,30.125,0,0,0,9.644-1.572v-27.241a9.645,9.645,0,0,0-9.634-9.634,9.644,9.644,0,0,0-9.634,9.634Z" transform="translate(-153.416 -120.534)"/>
    <path id="Path_9342" data-name="Path 9342" d="M-811.954,1897.895v16.848A6.956,6.956,0,0,0-805,1921.7a6.956,6.956,0,0,0,6.956-6.956v-16.848Z" transform="translate(-178.454 -105.806)" fill="#fc6076"/>
  </g>
</svg>
