<?xml version="1.0" standalone="no"?>
<!DOCTYPE svg PUBLIC "-//W3C//DTD SVG 20010904//EN"
 "http://www.w3.org/TR/2001/REC-SVG-20010904/DTD/svg10.dtd">
<svg version="1.0" xmlns="http://www.w3.org/2000/svg"
 width="255.000000pt" height="255.000000pt" viewBox="0 0 255.000000 255.000000"
 preserveAspectRatio="xMidYMid meet">

<g transform="translate(0.000000,255.000000) scale(0.100000,-0.100000)"
fill="#000000" stroke="none">
<path d="M489 2283 c-52 -8 -132 -66 -164 -117 l-30 -49 -3 -866 c-3 -781 -1
-869 13 -897 34 -65 24 -64 539 -64 l467 -1 10 -27 c43 -116 84 -202 99 -207
24 -8 48 3 55 25 3 10 -15 68 -42 131 l-48 114 -3 227 -4 226 26 17 c43 29 60
9 106 -129 34 -104 47 -130 76 -155 41 -37 70 -45 130 -38 32 3 55 14 76 33
58 54 58 58 58 481 l1 388 58 -62 c65 -69 110 -148 138 -238 16 -53 18 -98 18
-395 0 -357 -3 -382 -56 -517 -23 -58 -22 -91 4 -107 28 -18 49 4 79 80 54
141 59 198 56 580 l-3 349 -27 73 c-36 99 -92 182 -188 277 -53 53 -80 87 -80
102 0 23 0 23 155 23 169 0 195 6 234 56 20 25 21 39 21 261 0 251 -3 271 -56
340 -14 18 -49 46 -77 61 l-52 27 -780 1 c-429 1 -792 -1 -806 -3z m1303 -135
l-27 -52 -3 -753 -3 -752 -26 -21 c-27 -21 -63 -21 -90 2 -6 5 -30 65 -53 133
-34 103 -47 129 -76 155 -29 25 -43 30 -86 30 -45 0 -54 -4 -88 -37 -28 -29
-39 -49 -44 -85 l-7 -48 -118 0 c-130 0 -149 -8 -137 -55 l6 -25 124 0 124 0
4 -127 c2 -71 2 -131 1 -135 -2 -4 -200 -7 -441 -8 -383 0 -440 2 -460 15
l-22 16 0 822 c0 507 4 835 10 856 12 41 54 88 95 107 24 11 160 13 687 14
l657 0 -27 -52z m275 41 c42 -15 92 -68 103 -109 13 -47 13 -406 0 -431 -10
-18 -23 -19 -165 -19 l-155 0 0 218 c0 206 1 220 23 262 35 71 122 107 194 79z"/>
<path d="M545 2025 c-24 -23 -25 -29 -25 -154 0 -123 1 -131 24 -158 l24 -28
132 0 132 0 24 28 c23 26 24 35 24 153 0 125 0 126 -29 155 -29 29 -30 29
-156 29 -120 0 -127 -1 -150 -25z m245 -160 l0 -95 -95 0 -95 0 0 95 0 95 95
0 95 0 0 -95z"/>
<path d="M1042 1758 c-18 -18 -14 -56 7 -68 12 -6 116 -10 268 -10 209 0 252
2 271 16 24 17 29 43 10 62 -17 17 -539 17 -556 0z"/>
<path d="M574 1520 c-46 -19 -54 -46 -54 -180 1 -174 7 -180 185 -180 115 0
117 0 146 29 29 29 29 30 29 155 0 118 -1 127 -24 153 -24 27 -27 28 -143 30
-65 2 -128 -2 -139 -7z m216 -175 l0 -95 -95 0 -95 0 0 95 0 95 95 0 95 0 0
-95z"/>
<path d="M1048 1239 c-21 -12 -24 -49 -6 -67 9 -9 85 -12 280 -12 254 0 268 1
278 19 14 27 13 37 -6 55 -13 14 -52 16 -272 16 -156 0 -264 -5 -274 -11z"/>
<path d="M545 975 c-24 -23 -25 -29 -25 -155 0 -126 1 -132 25 -155 23 -24 29
-25 155 -25 126 0 132 1 155 25 24 23 25 30 25 145 0 125 -11 171 -45 184 -9
3 -73 6 -141 6 -119 0 -126 -1 -149 -25z m245 -155 l0 -101 -92 3 -93 3 -3 84
c-2 46 -1 90 2 98 4 9 30 13 96 13 l90 0 0 -100z"/>
</g>
</svg>
