<svg xmlns="http://www.w3.org/2000/svg" width="24" height="24" viewBox="0 0 24 24"><g transform="translate(-35 -196)"><g transform="translate(37 198)"><path d="M17.656,1.563h-.937V0H15.156V1.563H4.844V0H3.281V1.563H2.344A2.346,2.346,0,0,0,0,3.906v13.75A2.346,2.346,0,0,0,2.344,20H17.656A2.346,2.346,0,0,0,20,17.656V3.906A2.346,2.346,0,0,0,17.656,1.563Zm.781,16.094a.782.782,0,0,1-.781.781H2.344a.782.782,0,0,1-.781-.781V7.344H18.438Zm0-11.875H1.563V3.906a.782.782,0,0,1,.781-.781h.938V4.688H4.844V3.125H15.156V4.688h1.563V3.125h.938a.782.782,0,0,1,.781.781Z" fill="#fff"/><g transform="translate(2.969 8.984)"><rect width="1.563" height="1.563" fill="#fff"/></g><g transform="translate(6.094 8.984)"><rect width="1.563" height="1.563" fill="#fff"/></g><g transform="translate(9.219 8.984)"><rect width="1.563" height="1.563" fill="#fff"/></g><g transform="translate(12.344 8.984)"><rect width="1.563" height="1.563" fill="#fff"/></g><g transform="translate(15.469 8.984)"><rect width="1.563" height="1.563" fill="#fff"/></g><g transform="translate(2.969 12.109)"><rect width="1.563" height="1.563" fill="#fff"/></g><g transform="translate(6.094 12.109)"><rect width="1.563" height="1.563" fill="#fff"/></g><g transform="translate(9.219 12.109)"><rect width="1.563" height="1.563" fill="#fff"/></g><g transform="translate(12.344 12.109)"><rect width="1.563" height="1.563" fill="#fff"/></g><g transform="translate(2.969 15.234)"><rect width="1.563" height="1.563" fill="#fff"/></g><g transform="translate(6.094 15.234)"><rect width="1.563" height="1.563" fill="#fff"/></g><g transform="translate(9.219 15.234)"><rect width="1.563" height="1.563" fill="#fff"/></g><g transform="translate(12.344 15.234)"><rect width="1.563" height="1.563" fill="#fff"/></g><g transform="translate(15.469 12.109)"><rect width="1.563" height="1.563" fill="#fff"/></g></g><rect width="24" height="24" transform="translate(35 196)" fill="none"/></g></svg>