<svg xmlns="http://www.w3.org/2000/svg" width="23" height="23" viewBox="0 0 23 23">
  <g id="Group_9481" data-name="Group 9481" transform="translate(-302 -314)">
    <path id="Path_11233" data-name="Path 11233" d="M11.5,0A11.5,11.5,0,1,1,0,11.5,11.5,11.5,0,0,1,11.5,0Z" transform="translate(302 314)" fill="#00b3bf"/>
    <g id="photo-camera" transform="translate(307 285.981)">
      <path id="Path_9245" data-name="Path 9245" d="M11.5,45.019H1.5A1.484,1.484,0,0,1,0,43.556V37.624a1.484,1.484,0,0,1,1.5-1.463H3.542l.179-.586a.737.737,0,0,1,.728-.556h4.1a.752.752,0,0,1,.73.559l0,.02.163.563H11.5A1.484,1.484,0,0,1,13,37.624v5.932A1.485,1.485,0,0,1,11.5,45.019Zm-10-8.37a.99.99,0,0,0-1,.975v5.932a.99.99,0,0,0,1,.975h10a.99.99,0,0,0,1-.975V37.624a.99.99,0,0,0-1-.975H9.069L8.795,35.7a.25.25,0,0,0-.244-.191h-4.1A.247.247,0,0,0,4.2,35.7l-.289.952Zm5,6.9a3.1,3.1,0,1,1,0-6.188,3.1,3.1,0,1,1,0,6.188Zm0-5.7a2.607,2.607,0,1,0,2.677,2.607A2.646,2.646,0,0,0,6.5,37.845Zm4.674-.291a.45.45,0,1,0,.462.45A.456.456,0,0,0,11.174,37.554Z" fill="#fff"/>
    </g>
  </g>
</svg>
