<svg xmlns="http://www.w3.org/2000/svg" width="24" height="24" viewBox="0 0 24 24"><g transform="translate(-1049 -135)"><rect width="24" height="24" transform="translate(1049 135)" fill="none"/><g transform="translate(990 137)"><g transform="translate(64)"><path d="M214.015,280.34l-.263,2.364a.417.417,0,0,0,.414.463h1.667a.417.417,0,0,0,.414-.463l-.263-2.364a1.649,1.649,0,0,0,.682-1.34,1.667,1.667,0,0,0-3.333,0A1.649,1.649,0,0,0,214.015,280.34Zm.985-2.174a.83.83,0,0,1,.36,1.58.417.417,0,0,0-.233.421l.241,2.165h-.736l.241-2.165a.417.417,0,0,0-.233-.421.83.83,0,0,1,.36-1.58Z" transform="translate(-207.5 -266.5)" fill="#f94"/><path d="M78.583,7.5h-1.25V5.833a5.833,5.833,0,0,0-11.667,0V7.5h-1.25A.416.416,0,0,0,64,7.917V18.333A1.668,1.668,0,0,0,65.667,20H77.333A1.668,1.668,0,0,0,79,18.333V7.917A.416.416,0,0,0,78.583,7.5ZM66.5,5.833a5,5,0,1,1,10,0V7.5h-.833V5.833a4.167,4.167,0,1,0-8.333,0V7.5H66.5Zm8.333,0V7.5H68.167V5.833a3.333,3.333,0,0,1,6.667,0Zm3.333,12.5a.834.834,0,0,1-.833.833H65.667a.834.834,0,0,1-.833-.833v-10H78.167Z" transform="translate(-64)" fill="#f94"/></g></g></g></svg>