<?xml version="1.0"?>
<svg xmlns="http://www.w3.org/2000/svg" xmlns:xlink="http://www.w3.org/1999/xlink" xmlns:svgjs="http://svgjs.com/svgjs" version="1.1" width="512" height="512" x="0" y="0" viewBox="0 0 32 32" style="enable-background:new 0 0 512 512" xml:space="preserve" class=""><g><g xmlns="http://www.w3.org/2000/svg" id="Layer_22" data-name="Layer 22"><path d="m21 12.46-3.59 3.54 3.59 3.54a1 1 0 0 1 0 1.46 1 1 0 0 1 -.71.29 1 1 0 0 1 -.7-.29l-3.59-3.59-3.54 3.59a1 1 0 0 1 -.7.29 1 1 0 0 1 -.71-.29 1 1 0 0 1 0-1.41l3.54-3.59-3.54-3.54a1 1 0 0 1 1.41-1.41l3.54 3.54 3.54-3.54a1 1 0 0 1 1.46 1.41zm4.9 13.44a14 14 0 1 1 0-19.8 14 14 0 0 1 0 19.8zm-1.41-18.39a12 12 0 1 0 0 17 12 12 0 0 0 0-17z" fill="#ffffff" data-original="#000000" style=""/></g></g></svg>
