<svg xmlns="http://www.w3.org/2000/svg" xmlns:xlink="http://www.w3.org/1999/xlink" width="24" height="24" viewBox="0 0 24 24"><defs><clipPath id="a"><rect width="24" height="24" transform="translate(-12306 9749)" fill="#fff" stroke="#707070" stroke-width="1"/></clipPath></defs><g transform="translate(12315 -4164)"><g transform="translate(-9 -5585)" clip-path="url(#a)"><g transform="translate(-12303.6 9751.4)"><path d="M24.75,10.35v3.2h-18v-3.2a1.6,1.6,0,0,1,1.6-1.6h14.8A1.6,1.6,0,0,1,24.75,10.35Z" transform="translate(-6.15 -7.15)" fill="#68b0b6"/><path d="M24.75,14.75v10a1.6,1.6,0,0,1-1.6,1.6H8.35a1.6,1.6,0,0,1-1.6-1.6v-10Z" transform="translate(-6.15 -8.35)" fill="#f3f3f1"/><path d="M10.15,8.75H8.35a1.6,1.6,0,0,0-1.6,1.6v3.2h1.8v-3.2A1.6,1.6,0,0,1,10.15,8.75Z" transform="translate(-6.15 -7.15)" fill="#5aafb6"/><path d="M8.55,24.75v-10H6.75v10a1.6,1.6,0,0,0,1.6,1.6h1.8A1.6,1.6,0,0,1,8.55,24.75Z" transform="translate(-6.15 -8.35)" fill="#5aafb6"/><path d="M16.329,24.344a.434.434,0,0,1-.046,0,.6.6,0,0,1-.438-.244l-2.2-3,.968-.71L16.4,22.825l4.106-4.106.849.849-4.6,4.6a.6.6,0,0,1-.425.176Z" transform="translate(-7.529 -9.144)"/><path d="M23,25.6H8.2A2.2,2.2,0,0,1,6,23.4V10.2A2.2,2.2,0,0,1,8.2,8H23a2.2,2.2,0,0,1,2.2,2.2V23.4A2.2,2.2,0,0,1,23,25.6ZM8.2,9.2a1,1,0,0,0-1,1V23.4a1,1,0,0,0,1,1H23a1,1,0,0,0,1-1V10.2a1,1,0,0,0-1-1Z" transform="translate(-6 -7)"/><path d="M6.75,14h18v1.2h-18Z" transform="translate(-6.15 -8.2)"/><path d="M11,6.75h1.2v3.6H11Z" transform="translate(-7 -6.75)"/><path d="M23.5,6.75h1.2v3.6H23.5Z" transform="translate(-9.5 -6.75)"/></g></g></g></svg>