<svg xmlns="http://www.w3.org/2000/svg" width="44" height="45" viewBox="0 0 44 45"><g transform="translate(-1120 -549)"><g transform="translate(1120.001 549)"><path d="M38.785,9.927H32.064V1.21A1.213,1.213,0,0,0,30.849,0H1.214A1.213,1.213,0,0,0,0,1.21V35.834A5.18,5.18,0,0,0,5.181,41H34.817A5.18,5.18,0,0,0,40,35.834v-24.7a1.213,1.213,0,0,0-1.215-1.211ZM37.57,35.834a2.753,2.753,0,0,1-5.506,0V12.348H37.57ZM5.182,38.579a2.752,2.752,0,0,1-2.753-2.744V2.421H29.635V35.834a5.121,5.121,0,0,0,.795,2.744Zm0,0" fill="#00b3bf"/><path d="M90.134,70.551H71.77a1.219,1.219,0,0,0-1.219,1.219v8.613A1.219,1.219,0,0,0,71.77,81.6H90.134a1.219,1.219,0,0,0,1.219-1.219V71.77A1.219,1.219,0,0,0,90.134,70.551Zm-1.219,8.613H72.989V72.989H88.915Zm0,0" transform="translate(-64.864 -64.863)" fill="#00b3bf"/><path d="M90.134,411.211H71.77a1.219,1.219,0,0,0,0,2.438H90.134a1.219,1.219,0,0,0,0-2.438Zm0,0" transform="translate(-64.864 -378.337)" fill="#00b3bf"/><path d="M90.134,352.758H71.77a1.219,1.219,0,1,0,0,2.438H90.134a1.219,1.219,0,1,0,0-2.438Zm0,0" transform="translate(-64.864 -324.522)" fill="#00b3bf"/><path d="M90.134,294.3H71.77a1.219,1.219,0,0,0,0,2.438H90.134a1.219,1.219,0,0,0,0-2.438Zm0,0" transform="translate(-64.864 -270.744)" fill="#00b3bf"/><path d="M90.134,235.844H71.77a1.219,1.219,0,1,0,0,2.438H90.134a1.219,1.219,0,1,0,0-2.438Zm0,0" transform="translate(-64.864 -216.966)" fill="#00b3bf"/></g><g transform="translate(23 19)"><circle cx="9.5" cy="9.5" r="9.5" transform="translate(1122 556)" fill="#f94"/><path d="M3.6,8.23V5.657H1.029a1.029,1.029,0,1,1,0-2.057H3.6V1.029a1.029,1.029,0,1,1,2.057,0V3.6H8.23a1.029,1.029,0,0,1,0,2.057H5.657V8.23a1.029,1.029,0,0,1-2.057,0Z" transform="translate(1126.871 561.219)" fill="#fff"/></g></g></svg>