<svg xmlns="http://www.w3.org/2000/svg" width="116.481" height="117.996" viewBox="0 0 116.481 117.996"><g transform="translate(-6.022 -58.782)"><path d="M114.315,156.069c-1.687-.009-3.377,0-5.066-.009-2.184-.009-2.662-.474-2.664-2.612q-.012-9.327-.014-18.654c0-2.256-.633-2.9-2.853-2.91q-4.319-.018-8.637,0c-2.27.008-2.8.531-2.8,2.759V153.3c0,2.23-.543,2.756-2.805,2.764-1.5,0-2.994-.013-4.492.009-.629.01-1.428-.217-1.763.5-.317.674.382,1.108.736,1.564,3.527,4.549,7.055,9.1,10.633,13.6a37.4,37.4,0,0,0,4.17,5.043h1.152a5.358,5.358,0,0,0,1.252-1.176l13.961-17.872c.279-.356.683-.722.418-1.221C115.3,156.046,114.776,156.071,114.315,156.069Z" fill="#00b3bf" fill-rule="evenodd"/><path d="M120.4,83c-.457-.463-.883-.957-1.344-1.418Q109.3,71.827,99.542,62.065c-.568-.568-1.168-1.1-1.783-1.624-1.52-1.293-3.391-1.388-5.217-1.659H41.377c-.236.189-.516.081-.775.117a10.913,10.913,0,0,0-4.354,1c-4.6,2.747-7.469,6.6-7.875,12.027H8.024a2.081,2.081,0,0,0-2,2.151V105.27a2.08,2.08,0,0,0,2,2.151h20.86v48.368a16.489,16.489,0,0,0,.636,5.118A14.48,14.48,0,0,0,43.592,170.99c9.794.025,19.589.007,29.384.007,4.075,0,4.561-.493,4.52-4.6-.027-2.615-.85-3.428-3.48-3.428q-15.094,0-30.19-.006a9.072,9.072,0,0,1-1.945-.141c-3.175-.7-5.1-3.247-5.1-6.753q-.01-24.324,0-48.649h41.58a2.079,2.079,0,0,0,2-2.151v-31.2a2.08,2.08,0,0,0-2-2.151H36.941a6.615,6.615,0,0,1,6.721-5.172c14.787.077,29.575.042,44.362.013,1.137,0,1.541.326,1.53,1.506-.053,5.531-.026,11.062-.02,16.593a7.965,7.965,0,0,0,.143,1.946,6.672,6.672,0,0,0,6.8,5.117c5.57.024,11.138.031,16.709-.01,1.056-.008,1.5.35,1.4,1.391-.024.265,0,.537,0,.805V145.85c0,.691-.016,1.383.025,2.073a2.345,2.345,0,0,0,2.27,2.444c.8.1,1.609.044,2.414.073a3.117,3.117,0,0,0,3.209-1.775V88.743C122.233,86.673,121.987,84.6,120.4,83ZM27.462,93.337a2.757,2.757,0,0,0,2.6-1.64h4.221a6.511,6.511,0,0,1-6.761,5.241c-4.241,0-7.022-2.961-7.022-7.182,0-4.2,2.781-7.161,7.022-7.161a6.511,6.511,0,0,1,6.761,5.241h-4.22a2.757,2.757,0,0,0-2.6-1.64c-1.8,0-2.98,1.4-2.98,3.56C24.482,91.937,25.662,93.337,27.462,93.337ZM53.7,82.735l3.2,10.182,3.181-10.182h4.181L59.4,96.838H54.381l-4.88-14.1Zm-11.659-.22c3.241,0,5.361,1.58,5.5,4.381h-4.26a1.21,1.21,0,0,0-1.3-1.28.934.934,0,0,0-1.04,1c0,2.1,6.782,1.42,6.782,5.941,0,2.481-1.921,4.421-5.262,4.421-3.14,0-5.581-1.5-5.741-4.521H40.9a1.335,1.335,0,0,0,1.42,1.42c.7,0,1.241-.36,1.241-1.02-.021-2.26-6.862-1.2-6.8-6.1,0-2.757,2.3-4.242,5.281-4.242Z" fill="#00b3bf" fill-rule="evenodd"/></g></svg>