<svg xmlns="http://www.w3.org/2000/svg" width="19.611" height="19.084" viewBox="0 0 19.611 19.084">
  <g id="Group_8166" data-name="Group 8166" transform="translate(-25.995 -259)">
    <g id="Group_8164" data-name="Group 8164" transform="translate(1.995)">
      <path id="Path_9261" data-name="Path 9261" d="M340.6,167.636v2.135a1.535,1.535,0,0,0,.424,1.059v.725a.553.553,0,1,0,1.105,0v-.985a.564.564,0,0,0-.246-.464.4.4,0,0,1-.179-.334v-2.135a1.353,1.353,0,0,1,1.34-1.359h.452a1.353,1.353,0,0,1,1.34,1.359v2.135a.4.4,0,0,1-.179.334.55.55,0,0,0-.246.464v2.055a.663.663,0,0,0,.363.589,16.1,16.1,0,0,1,2.886,1.874.476.476,0,0,1,.167.368v.9h-3.874a.561.561,0,0,0,0,1.121h4.426a.554.554,0,0,0,.553-.561v-1.461a1.591,1.591,0,0,0-.575-1.234,17.594,17.594,0,0,0-2.841-1.885v-1.512a1.535,1.535,0,0,0,.424-1.059V167.63a2.465,2.465,0,0,0-2.445-2.48h-.452A2.474,2.474,0,0,0,340.6,167.636Z" transform="translate(-305.322 93.85)" fill="#00b3bf"/>
      <path id="Path_9263" data-name="Path 9263" d="M127.366,112.853V110.1a3.026,3.026,0,0,0-3-3.046h-.586a3.026,3.026,0,0,0-3,3.046v2.757a1.819,1.819,0,0,0,.547,1.3v2.123a21.853,21.853,0,0,0-3.74,2.469,1.894,1.894,0,0,0-.681,1.466V122.1a.554.554,0,0,0,.553.561h13.229a.554.554,0,0,0,.553-.561v-1.891a1.894,1.894,0,0,0-.681-1.466,22.212,22.212,0,0,0-3.74-2.469v-2.123A1.792,1.792,0,0,0,127.366,112.853Zm2.49,6.76a.775.775,0,0,1,.279.6v1.331H118.011v-1.331a.775.775,0,0,1,.279-.6,20.873,20.873,0,0,1,3.762-2.452.692.692,0,0,0,.38-.611v-2.661a.564.564,0,0,0-.246-.464.684.684,0,0,1-.3-.566V110.1a1.914,1.914,0,0,1,1.9-1.925h.586a1.914,1.914,0,0,1,1.9,1.925v2.757a.677.677,0,0,1-.3.566.55.55,0,0,0-.246.464v2.661a.686.686,0,0,0,.38.611A21.47,21.47,0,0,1,129.855,119.614Z" transform="translate(-92.9 155.419)" fill="#00b3bf"/>
    </g>
  </g>
</svg>
