<svg xmlns="http://www.w3.org/2000/svg" width="24" height="24" viewBox="0 0 24 24"><g transform="translate(424 -17291)"><rect width="24" height="24" transform="translate(-424 17291)" fill="none"/><g transform="translate(-448 17225.264)"><path d="M17.071,3.425A10,10,0,0,0,0,10.5,9.966,9.966,0,0,0,.59,13.889a.591.591,0,1,0,1.112-.4,8.732,8.732,0,0,1-.5-2.4H3.02a.591.591,0,1,0,0-1.183H1.2A8.753,8.753,0,0,1,2.086,6.61l1.574.909a.591.591,0,0,0,.591-1.024L2.679,5.587A8.89,8.89,0,0,1,5.09,3.175L6,4.748a.591.591,0,1,0,1.024-.591L6.113,2.583A8.75,8.75,0,0,1,9.408,1.7V3.517a.591.591,0,0,0,1.183,0V1.7a8.753,8.753,0,0,1,3.295.884l-.909,1.574A.591.591,0,1,0,14,4.748l.908-1.572A8.888,8.888,0,0,1,17.32,5.587l-1.572.908a.591.591,0,1,0,.591,1.024l1.574-.909A8.752,8.752,0,0,1,18.8,9.9H16.979a.591.591,0,1,0,0,1.183H18.8a8.72,8.72,0,0,1-.455,2.273.591.591,0,0,0,1.119.384,10.014,10.014,0,0,0-2.389-10.32Zm0,0" transform="translate(26 70.24)" fill="#666"/><path d="M217.892,145.327l-2.521,2.717a1.662,1.662,0,1,0,.757.922l2.631-2.835a.591.591,0,1,0-.867-.8Zm-3.34,4.639a.478.478,0,1,1,.479-.479A.479.479,0,0,1,214.552,149.966Zm0,0" transform="translate(-178.575 -68.751)" fill="#666"/></g></g></svg>