<svg xmlns="http://www.w3.org/2000/svg" width="18.961" height="13.067" viewBox="0 0 18.961 13.067">
  <g id="dashboard_2_" data-name="dashboard (2)" transform="translate(0 -0.496)">
    <path id="Path_18" data-name="Path 18" d="M16.184,3.273A9.481,9.481,0,0,0,0,9.977a9.448,9.448,0,0,0,.56,3.217.561.561,0,1,0,1.055-.38,8.278,8.278,0,0,1-.474-2.276H2.863a.561.561,0,1,0,0-1.121H1.14a8.3,8.3,0,0,1,.838-3.124l1.492.861a.561.561,0,0,0,.561-.971L2.54,5.322A8.428,8.428,0,0,1,4.826,3.036l.861,1.491a.561.561,0,1,0,.971-.561L5.8,2.474a8.3,8.3,0,0,1,3.124-.838V3.36a.561.561,0,0,0,1.121,0V1.637a8.3,8.3,0,0,1,3.124.838L12.3,3.966a.561.561,0,1,0,.971.561l.861-1.491A8.426,8.426,0,0,1,16.42,5.322l-1.491.861a.561.561,0,1,0,.561.971l1.492-.861a8.3,8.3,0,0,1,.838,3.124H16.1a.561.561,0,1,0,0,1.121H17.82a8.267,8.267,0,0,1-.432,2.155.561.561,0,0,0,1.061.364,9.494,9.494,0,0,0-2.265-9.784Zm0,0" transform="translate(0)" fill="#00b3bf"/>
    <path id="Path_19" data-name="Path 19" d="M217.632,145.317l-2.39,2.576a1.576,1.576,0,1,0,.718.874l2.494-2.687a.561.561,0,1,0-.822-.763Zm-3.167,4.4a.454.454,0,1,1,.454-.454A.454.454,0,0,1,214.466,149.715Zm0,0" transform="translate(-205.007 -139.285)" fill="#00b3bf"/>
  </g>
</svg>
