<svg xmlns="http://www.w3.org/2000/svg" width="10.886" height="15.108" viewBox="0 0 10.886 15.108">
  <g id="Group_9325" data-name="Group 9325" transform="translate(-1027.547 -301.317)">
    <path id="Path_10066" data-name="Path 10066" d="M26.195,195.621v8.162a1.278,1.278,0,0,1-1.282,1.325H18.852a1.278,1.278,0,0,1-1.282-1.325v-8.162Zm0,0" transform="translate(1011.27 111.067)" fill="#fc6076"/>
    <path id="Path_10067" data-name="Path 10067" d="M9.914,187.8a.266.266,0,0,0-.188.073.247.247,0,0,0-.078.181v8.134a1.6,1.6,0,0,0,.446,1.131,1.525,1.525,0,0,0,1.094.455h6.026a1.516,1.516,0,0,0,1.091-.455,1.594,1.594,0,0,0,.442-1.131v-8.134a.241.241,0,0,0-.073-.18.26.26,0,0,0-.185-.073Zm8.3,8.388a1.01,1.01,0,0,1-1,1.068H11.188a1.015,1.015,0,0,1-1-1.068v-7.869H18.21Zm0,0" transform="translate(1018.952 118.651)" fill="#333"/>
    <path id="Path_10068" data-name="Path 10068" d="M193.891,237.476a.243.243,0,0,0,.243-.243V231.5a.243.243,0,1,0-.486,0v5.732A.243.243,0,0,0,193.891,237.476Zm0,0" transform="translate(841.005 77.133)" fill="#333"/>
    <path id="Path_10069" data-name="Path 10069" d="M80.891,237.476a.243.243,0,0,0,.243-.243V231.5a.243.243,0,1,0-.486,0v5.732A.243.243,0,0,0,80.891,237.476Zm0,0" transform="translate(950.52 77.133)" fill="#333"/>
    <g id="Group_9324" data-name="Group 9324" transform="translate(1027.471 301.424)">
      <path id="Path_10065" data-name="Path 10065" d="M8.839,1.664A.85.85,0,0,1,9.5,2.671L9.158,4.21.037,2.22.376.681A.852.852,0,0,1,1.395.039L3.038.4,7.2,1.305Zm0,0" transform="matrix(0.985, -0.174, 0.174, 0.985, 0.445, 2.856)" fill="#f94"/>
      <path id="Path_10070" data-name="Path 10070" d="M9.41,5.65a.238.238,0,0,0,.234-.186l.337-1.539a1.091,1.091,0,0,0-.841-1.291L7.736,2.326l.087-.395A1.091,1.091,0,0,0,6.982.64L4.5.1A1.091,1.091,0,0,0,3.2.92l-.087.395L1.709,1.007a1.09,1.09,0,0,0-1.3.822L.068,3.368a.239.239,0,0,0,.184.283L9.359,5.644a.241.241,0,0,0,.052.006ZM3.671,1.023A.612.612,0,0,1,4.4.562L6.88,1.1a.612.612,0,0,1,.472.724l-.087.395L3.585,1.418ZM.589,3.239.876,1.932a.611.611,0,0,1,.731-.461L7.4,2.738,9.039,3.1a.612.612,0,0,1,.472.725L9.225,5.129Zm0,0" transform="matrix(0.978, -0.208, 0.208, 0.978, 0, 1.902)" fill="#333"/>
    </g>
    <path id="Path_10071" data-name="Path 10071" d="M137.891,237.476a.243.243,0,0,0,.243-.243V231.5a.243.243,0,1,0-.486,0v5.732A.243.243,0,0,0,137.891,237.476Zm0,0" transform="translate(895.278 77.133)" fill="#333"/>
  </g>
</svg>
