<svg xmlns="http://www.w3.org/2000/svg" xmlns:xlink="http://www.w3.org/1999/xlink" width="66.764" height="59" viewBox="0 0 66.764 59">
  <defs>
    <linearGradient id="linear-gradient" x1="0.5" x2="0.5" y2="1" gradientUnits="objectBoundingBox">
      <stop offset="0" stop-color="#fc6076"/>
      <stop offset="1" stop-color="#f94"/>
    </linearGradient>
    <clipPath id="clip-path">
      <rect id="Rectangle_2510" data-name="Rectangle 2510" width="43" height="41" stroke="#707070" stroke-width="1" opacity="0.6" fill="url(#linear-gradient)"/>
    </clipPath>
  </defs>
  <g id="Group_9452" data-name="Group 9452" transform="translate(-3232 -14320)">
    <g id="Group_8194" data-name="Group 8194" transform="translate(-4383 -893)">
      <g id="Group_8193" data-name="Group 8193" transform="translate(7615 15213)">
        <g id="Symbol_1_4" data-name="Symbol 1 – 4" transform="translate(-3510.989 -15054.925)">
          <path id="Path_9526" data-name="Path 9526" d="M-1375.817,2486.718c-.024-.021-.047-.042-.069-.065a1.417,1.417,0,0,1-.3-.488c-.169-.4-.336-1.01-.738-1.97-.615,1.467-.681,2.111-1.042,2.458s-.991.427-2.458,1.042c1.467.615,2.11.682,2.458,1.042s.427.991,1.042,2.458c.4-.961.57-1.569.739-1.971a1.416,1.416,0,0,1,.3-.487.787.787,0,0,1,.069-.064,15.062,15.062,0,0,1,2.389-.979A15.176,15.176,0,0,1-1375.817,2486.718Z" transform="translate(4934.428 12570.729)" fill="#f94"/>
        </g>
        <path id="Path_9527" data-name="Path 9527" d="M-1623.414,2578.563c-.021-.018-.042-.037-.061-.057a1.259,1.259,0,0,1-.27-.433c-.149-.357-.3-.9-.656-1.751-.546,1.3-.6,1.875-.925,2.184s-.881.379-2.185.926c1.3.547,1.875.6,2.185.926s.379.88.925,2.185c.359-.854.507-1.395.657-1.751a1.249,1.249,0,0,1,.269-.433c.02-.02.04-.039.061-.057a13.528,13.528,0,0,1,2.123-.869A13.443,13.443,0,0,1-1623.414,2578.563Z" transform="translate(1627.511 -2549.876)" fill="#4d4d4d"/>
        <path id="Path_9528" data-name="Path 9528" d="M-1195.421,2640.625c-.016-.013-.031-.028-.045-.042a.94.94,0,0,1-.2-.322c-.111-.264-.221-.663-.486-1.294-.4.964-.448,1.387-.685,1.616s-.652.281-1.616.685c.964.4,1.387.448,1.616.685s.281.652.685,1.617c.265-.632.375-1.032.486-1.3a.931.931,0,0,1,.2-.32c.014-.015.03-.029.045-.042a10.058,10.058,0,0,1,1.571-.642A10.03,10.03,0,0,1-1195.421,2640.625Z" transform="translate(1260.614 -2610.62)" fill="#00b3bf"/>
        <path id="Path_9529" data-name="Path 9529" d="M-1538.509,2476.82a.514.514,0,0,1-.045-.042.95.95,0,0,1-.2-.321c-.111-.265-.221-.664-.486-1.3-.4.965-.448,1.388-.685,1.616s-.652.281-1.616.685c.964.4,1.387.448,1.616.685s.281.652.685,1.616c.265-.632.375-1.031.486-1.3a.949.949,0,0,1,.2-.32.59.59,0,0,1,.045-.042,9.984,9.984,0,0,1,1.571-.643A10.046,10.046,0,0,1-1538.509,2476.82Z" transform="translate(1554.248 -2466.014)" fill="#00b3bf"/>
      </g>
    </g>
    <g id="Mask_Group_8" data-name="Mask Group 8" transform="translate(3241 14338)" clip-path="url(#clip-path)">
      <g id="negative-thinking" transform="translate(0.992)">
        <path id="Path_10112" data-name="Path 10112" d="M39.585,28.069a.663.663,0,0,0-.55-.294h-.969l-1.127-1.69a.663.663,0,0,0-.55-.294h-.969L34.292,24.1a.663.663,0,0,0-.55-.294H32.419a.663.663,0,0,0-.55.294l-.111.167V23.029a10.573,10.573,0,1,0-3.969.778V25.13A11.9,11.9,0,1,1,35.1,22.624l.813,1.044A13.224,13.224,0,1,0,15.988,7.275H13.895a9.271,9.271,0,0,0-9.261,9.109L.064,26.173a.662.662,0,0,0,.6.941H4.633v7.935a.661.661,0,0,0,.662.661H11.91V41h1.323V35.049a.661.661,0,0,0-.662-.661H5.956V26.452a.661.661,0,0,0-.662-.661H1.7l4.192-8.978a.66.66,0,0,0,.062-.28A7.946,7.946,0,0,1,13.895,8.6h1.514A13.168,13.168,0,0,0,24.1,25.919l-2.867,6.208a.669.669,0,0,0-.06.277V41H22.5V32.55l2.919-6.322a13.253,13.253,0,0,0,2.374.225v1.323a.658.658,0,0,0,.034.209l.5,1.5-1.564,1.042a.662.662,0,0,0-.282.68l.662,3.306a.659.659,0,0,0,.132.284l2.646,3.306a.66.66,0,0,0,.517.249h7.277a.663.663,0,0,0,.517-.248L40.874,34.8a.662.662,0,0,0,.145-.413V30.42a.666.666,0,0,0-.111-.367Zm-11.8-8.891v3.306a9.272,9.272,0,1,1,3.969-.9V19.178a1.985,1.985,0,0,0-3.969,0ZM39.7,34.156l-2.3,2.877H30.751L28.4,34.1l-.543-2.714.9-.6.388,1.162,1.255-.418-1.29-3.866v-8.49a.662.662,0,0,1,1.323,0v7.274a.662.662,0,0,0,1.212.367l1.127-1.69h.615l1.127,1.69a.663.663,0,0,0,.55.294h.969l1.127,1.69a.663.663,0,0,0,.55.294h.969L39.7,30.621Zm0,0" transform="translate(-0.002 -0.001)" fill="url(#linear-gradient)"/>
        <path id="Path_10113" data-name="Path 10113" d="M646.361,360.581v-2.645a.661.661,0,0,0-.661-.661H631.145a.661.661,0,0,0-.662.661v2.645a.661.661,0,0,0,.662.661H645.7A.661.661,0,0,0,646.361,360.581Zm-1.323-.661H631.807V358.6h13.231Zm0,0" transform="translate(-610.637 -346.032)" fill="url(#linear-gradient)"/>
      </g>
    </g>
  </g>
</svg>
