<svg xmlns="http://www.w3.org/2000/svg" xmlns:xlink="http://www.w3.org/1999/xlink" width="75" height="65" viewBox="0 0 75 65"><defs><linearGradient id="a" x1="0.5" x2="0.5" y2="1" gradientUnits="objectBoundingBox"><stop offset="0" stop-color="#fc6076"/><stop offset="1" stop-color="#f94"/></linearGradient></defs><g transform="translate(-14560 -15793)"><g transform="translate(11054.388 738.076)"><path d="M-1375.817,2486.718c-.024-.021-.047-.042-.069-.065a1.417,1.417,0,0,1-.3-.488c-.169-.4-.336-1.01-.738-1.97-.615,1.467-.681,2.111-1.042,2.458s-.991.427-2.458,1.042c1.467.615,2.11.682,2.458,1.042s.427.991,1.042,2.458c.4-.961.57-1.569.739-1.971a1.416,1.416,0,0,1,.3-.487.787.787,0,0,1,.069-.064,15.062,15.062,0,0,1,2.389-.979A15.176,15.176,0,0,1-1375.817,2486.718Z" transform="translate(4934.428 12570.729)" fill="#f94"/></g><path d="M-1622.966,2578.808c-.024-.02-.046-.041-.068-.063a1.4,1.4,0,0,1-.3-.48c-.166-.4-.331-1-.728-1.942-.606,1.446-.671,2.08-1.027,2.423s-.977.42-2.423,1.027c1.447.606,2.08.671,2.423,1.027s.421.977,1.027,2.423c.4-.948.563-1.547.729-1.943a1.384,1.384,0,0,1,.3-.48c.022-.022.044-.043.068-.064a15.014,15.014,0,0,1,2.355-.964A14.879,14.879,0,0,1-1622.966,2578.808Z" transform="translate(16187.512 13246.016)" fill="#4d4d4d"/><path d="M-1195.089,2640.806c-.017-.015-.034-.031-.05-.047a1.05,1.05,0,0,1-.221-.357c-.123-.293-.245-.736-.539-1.436-.448,1.07-.5,1.539-.76,1.793s-.723.311-1.793.76c1.069.448,1.539.5,1.793.76s.312.723.76,1.794c.294-.7.416-1.145.539-1.439a1.035,1.035,0,0,1,.221-.355c.016-.016.033-.032.05-.047a11.163,11.163,0,0,1,1.743-.712A11.144,11.144,0,0,1-1195.089,2640.806Z" transform="translate(15828.347 13185.479)" fill="#00b3bf"/><path d="M-1538.177,2477a.611.611,0,0,1-.05-.047,1.055,1.055,0,0,1-.221-.356c-.123-.294-.245-.737-.539-1.437-.448,1.07-.5,1.54-.76,1.793s-.723.312-1.793.76c1.07.449,1.539.5,1.793.76s.311.723.76,1.792c.294-.7.416-1.144.539-1.437a1.052,1.052,0,0,1,.221-.355c.016-.016.033-.032.05-.046a11.091,11.091,0,0,1,1.743-.714A11.162,11.162,0,0,1-1538.177,2477Z" transform="translate(16115.83 13327.986)" fill="#00b3bf"/><g transform="translate(13462 15261)"><g transform="translate(1120 549)"><path d="M38.785,9.927H32.064V1.21A1.213,1.213,0,0,0,30.849,0H1.214A1.213,1.213,0,0,0,0,1.21V35.834A5.18,5.18,0,0,0,5.181,41H34.817A5.18,5.18,0,0,0,40,35.834v-24.7a1.213,1.213,0,0,0-1.215-1.211ZM37.57,35.834a2.753,2.753,0,0,1-5.506,0V12.348H37.57ZM5.182,38.579a2.752,2.752,0,0,1-2.753-2.744V2.421H29.635V35.834a5.121,5.121,0,0,0,.795,2.744Zm0,0" transform="translate(0.001 0)" fill="url(#a)"/><path d="M90.134,70.551H71.77a1.219,1.219,0,0,0-1.219,1.219v8.613A1.219,1.219,0,0,0,71.77,81.6H90.134a1.219,1.219,0,0,0,1.219-1.219V71.77A1.219,1.219,0,0,0,90.134,70.551Zm-1.219,8.613H72.989V72.989H88.915Zm0,0" transform="translate(-64.863 -64.863)" fill="url(#a)"/><path d="M90.134,411.211H71.77a1.219,1.219,0,0,0,0,2.438H90.134a1.219,1.219,0,0,0,0-2.438Zm0,0" transform="translate(-64.863 -378.337)" fill="url(#a)"/><path d="M90.134,352.758H71.77a1.219,1.219,0,1,0,0,2.438H90.134a1.219,1.219,0,1,0,0-2.438Zm0,0" transform="translate(-64.863 -324.522)" fill="url(#a)"/><path d="M90.134,294.3H71.77a1.219,1.219,0,0,0,0,2.438H90.134a1.219,1.219,0,0,0,0-2.438Zm0,0" transform="translate(-64.863 -270.744)" fill="url(#a)"/><path d="M90.134,235.844H71.77a1.219,1.219,0,1,0,0,2.438H90.134a1.219,1.219,0,1,0,0-2.438Zm0,0" transform="translate(-64.863 -216.966)" fill="url(#a)"/></g><g transform="translate(1153.565 570.13) rotate(45)"><g transform="translate(0 0)" fill="#fff" stroke="#fd7762" stroke-width="2"><circle cx="9.5" cy="9.5" r="9.5" stroke="none"/><circle cx="9.5" cy="9.5" r="8.5" fill="none"/></g><g transform="translate(4.871 5.219)" fill="url(#a)"><path d="M 4.628699779510498 8.258299827575684 C 4.613140106201172 8.258299827575684 4.599999904632568 8.245160102844238 4.599999904632568 8.229599952697754 L 4.599999904632568 5.657400131225586 L 4.599999904632568 4.657400131225586 L 3.599999904632568 4.657400131225586 L 1.02869987487793 4.657400131225586 C 1.012609958648682 4.657400131225586 0.9999999403953552 4.644789695739746 0.9999999403953552 4.628699779510498 C 0.9999999403953552 4.613140106201172 1.013139963150024 4.599999904632568 1.02869987487793 4.599999904632568 L 3.599999904632568 4.599999904632568 L 4.599999904632568 4.599999904632568 L 4.599999904632568 3.599999904632568 L 4.599999904632568 1.02869987487793 C 4.599999904632568 1.013139963150024 4.613140106201172 0.9999999403953552 4.628699779510498 0.9999999403953552 C 4.644789695739746 0.9999999403953552 4.657400131225586 1.012609958648682 4.657400131225586 1.02869987487793 L 4.657400131225586 3.599999904632568 L 4.657400131225586 4.599999904632568 L 5.657400131225586 4.599999904632568 L 8.229599952697754 4.599999904632568 C 8.245160102844238 4.599999904632568 8.258299827575684 4.613140106201172 8.258299827575684 4.628699779510498 C 8.258299827575684 4.644789695739746 8.24569034576416 4.657400131225586 8.229599952697754 4.657400131225586 L 5.657400131225586 4.657400131225586 L 4.657400131225586 4.657400131225586 L 4.657400131225586 5.657400131225586 L 4.657400131225586 8.229599952697754 C 4.657400131225586 8.24569034576416 4.644789695739746 8.258299827575684 4.628699779510498 8.258299827575684 Z" stroke="none"/><path d="M 4.628699779510498 9.258299827575684 C 4.060800075531006 9.258299827575684 3.599999904632568 8.797499656677246 3.599999904632568 8.229599952697754 L 3.599999904632568 5.657400131225586 L 1.02869987487793 5.657400131225586 C 0.460799902677536 5.657400131225586 -8.621216096571516e-08 5.197499752044678 -8.621216096571516e-08 4.628699779510498 C -8.621216096571516e-08 4.060800075531006 0.460799902677536 3.599999904632568 1.02869987487793 3.599999904632568 L 3.599999904632568 3.599999904632568 L 3.599999904632568 1.02869987487793 C 3.599999904632568 0.460799902677536 4.060800075531006 -8.621216096571516e-08 4.628699779510498 -8.621216096571516e-08 C 5.197499752044678 -8.621216096571516e-08 5.657400131225586 0.460799902677536 5.657400131225586 1.02869987487793 L 5.657400131225586 3.599999904632568 L 8.229599952697754 3.599999904632568 C 8.797499656677246 3.599999904632568 9.258299827575684 4.060800075531006 9.258299827575684 4.628699779510498 C 9.258299827575684 5.197499752044678 8.797499656677246 5.657400131225586 8.229599952697754 5.657400131225586 L 5.657400131225586 5.657400131225586 L 5.657400131225586 8.229599952697754 C 5.657400131225586 8.797499656677246 5.197499752044678 9.258299827575684 4.628699779510498 9.258299827575684 Z" stroke="none" fill="#fd7762"/></g></g></g></g></svg>