<svg xmlns="http://www.w3.org/2000/svg" width="48" height="47.589" viewBox="0 0 48 47.589"><g transform="translate(0 -125.856)"><g transform="translate(14.023 125.856)"><g transform="translate(0 0)"><path d="M192.294,127.354a1.717,1.717,0,0,1-1.224-.478,4.418,4.418,0,0,0-2.867-1.014h0a4.417,4.417,0,0,0-2.864,1.009,1.719,1.719,0,0,1-1.223.476h0a1.719,1.719,0,0,1-1.225-.478,4.419,4.419,0,0,0-2.867-1.014h0a4.418,4.418,0,0,0-2.864,1.009,1.719,1.719,0,0,1-1.223.476h0l-2.014,0,3.462,10.706v.111h13.4v-.111l3.552-10.69Z" transform="translate(-173.911 -125.856)" fill="#00b3bf"/></g></g><path d="M47.128,338.284a32.224,32.224,0,0,0-5.406-14.771,42.583,42.583,0,0,0-10.8-10.479H17.443A44.819,44.819,0,0,0,6.473,323.5a31.364,31.364,0,0,0-5.6,14.789L0,345.53H48Z" transform="translate(0 -172.085)" fill="#00b3bf"/><g transform="translate(17.041 148.947)"><path d="M224.613,426.194a7.424,7.424,0,0,1-3.044.694,4.465,4.465,0,0,1-3.447-1.364,4.175,4.175,0,0,1-.882-1.87h6.706v-1.9h-7.079v-.428c0-.295,0-.559.025-.828h7.055v-1.9h-6.653a4.073,4.073,0,0,1,.856-1.736,4.126,4.126,0,0,1,3.26-1.444,8.048,8.048,0,0,1,2.991.642l.746-3.044a10.226,10.226,0,0,0-4.007-.8,7.934,7.934,0,0,0-6.169,2.752,8.117,8.117,0,0,0-1.844,3.632h-1.791v1.9h1.5c0,.269-.027.536-.027.8v.453h-1.47v1.9h1.738a7.5,7.5,0,0,0,1.495,3.472,8.006,8.006,0,0,0,6.517,3.046,9.022,9.022,0,0,0,4.168-1.014Z" transform="translate(-211.336 -412.223)" fill="#fff"/></g></g></svg>