<svg xmlns="http://www.w3.org/2000/svg" width="36.443" height="30.369" viewBox="0 0 36.443 30.369"><path d="M30.887,32.425a1.321,1.321,0,0,0,.934-2.255l-5.283-5.283a1.313,1.313,0,0,0-.2-.165c-.033-.022-.069-.038-.1-.057a1.28,1.28,0,0,0-.123-.065,1.247,1.247,0,0,0-.136-.042c-.037-.011-.073-.025-.111-.033a1.314,1.314,0,0,0-.518,0,1.073,1.073,0,0,0-.111.033,1.236,1.236,0,0,0-.135.042,1.222,1.222,0,0,0-.123.065c-.034.019-.071.034-.1.056a1.313,1.313,0,0,0-.2.165L19.386,30.17a1.321,1.321,0,0,0,1.868,1.868l3.029-3.029v12a1.321,1.321,0,0,0,2.642,0v-12l3.029,3.029A1.314,1.314,0,0,0,30.887,32.425Z" transform="translate(-6.737 -11.963)" fill="#e8e8e8"/><path d="M31.129,14.76a12.121,12.121,0,0,0-3.048,0,.642.642,0,1,1-.2-1.269,12.6,12.6,0,0,1,2.657-.08A9.769,9.769,0,0,0,20.88,4.5a10.358,10.358,0,0,0-7.995,3.933,5.731,5.731,0,0,1,2.082,4.41.651.651,0,0,1-1.3,0,4.476,4.476,0,0,0-2.088-3.771,4.6,4.6,0,0,0-.457-.254c-.045-.022-.09-.044-.137-.065a4.471,4.471,0,0,0-.543-.206l-.069-.017a4.631,4.631,0,0,0-.513-.114l-.152-.023a4.712,4.712,0,0,0-.6-.042,4.53,4.53,0,0,0-4.555,4.492c0,.053,0,.1.008.157l.008.135-.006.1c0,.083-.01.166-.01.248v.4l-.369.174A7.62,7.62,0,0,0,0,20.643,7.017,7.017,0,0,0,7.058,27.6h9.23V24.817l-.762.752a2.629,2.629,0,0,1-3.682,0,2.542,2.542,0,0,1,0-3.63L17.05,16.8h0a2.637,2.637,0,0,1,.4-.32c.064-.042.133-.071.2-.107a2.522,2.522,0,0,1,.249-.129,2.555,2.555,0,0,1,.264-.081c.074-.021.145-.049.221-.065a2.646,2.646,0,0,1,1.02,0,2.3,2.3,0,0,1,.221.065,2.555,2.555,0,0,1,.264.081,2.669,2.669,0,0,1,.249.129c.066.036.136.065.2.107a2.6,2.6,0,0,1,.4.32h0l5.206,5.134a2.542,2.542,0,0,1,0,3.63,2.629,2.629,0,0,1-3.682,0l-.762-.752V27.6h1.512c.038,0,.075,0,.113-.006l.129-.007.176.007c.038,0,.075.006.113.006h6.379a6.489,6.489,0,0,0,6.526-6.436A6.6,6.6,0,0,0,31.129,14.76Z" transform="translate(0 -4.5)" fill="#e8e8e8"/></svg>