<svg xmlns="http://www.w3.org/2000/svg" width="13.623" height="14.001" viewBox="0 0 13.623 14.001">
  <g id="edit" transform="translate(-6.907 0)">
    <path id="Path_10060" data-name="Path 10060" d="M20.2,2.745a1.145,1.145,0,0,1,0,1.617L17.932,6.626v6.636a.74.74,0,0,1-.739.739H7.646a.74.74,0,0,1-.739-.739V3.137a.337.337,0,0,1,.1-.239L9.806.1a.337.337,0,0,1,.239-.1h7.149a.74.74,0,0,1,.739.739V2.6l.249-.249a1.145,1.145,0,0,1,1.617,0Zm-.478,1.139a.468.468,0,0,0,0-.661l-.4-.4a.468.468,0,0,0-.661,0l-.426.426L19.292,4.31Zm-6.308,6.308,5.4-5.4L17.755,3.73l-5.4,5.4ZM15.025,5.5l2.246-2.246a.324.324,0,0,1-.014-.1V.739a.063.063,0,0,0-.063-.063H10.382V2.737a.74.74,0,0,1-.739.739H7.583v9.786a.063.063,0,0,0,.063.063h9.548a.063.063,0,0,0,.063-.063V7.3L13.648,10.91A.338.338,0,0,1,13.5,11l-2.133.592c-.011,0-.085.011-.085.011H9.55a.338.338,0,1,1,0-.676h1.475l.522-1.88a.336.336,0,0,1,.087-.149l.005-.005H9.55a.338.338,0,1,1,0-.676h2.765L14.349,6.18H9.55a.338.338,0,1,1,0-.676h5.475Zm-3.257,5.272.994-.276-.718-.718ZM9.707,2.737V1.154L8.061,2.8H9.644A.063.063,0,0,0,9.707,2.737Z" fill="#333"/>
    <path id="Path_10061" data-name="Path 10061" d="M422.577,98.869a.468.468,0,0,1,0,.661l-.426.426L421.092,98.9l.426-.426a.468.468,0,0,1,.661,0Z" transform="translate(-402.859 -95.645)" fill="#f94"/>
    <rect id="Rectangle_2503" data-name="Rectangle 2503" width="7.644" height="1.497" transform="translate(18.814 4.789) rotate(135)" fill="#f94"/>
    <path id="Path_10062" data-name="Path 10062" d="M41.311,27.3l-2.246,2.246H33.59a.338.338,0,1,0,0,.676h4.8l-2.034,2.034H33.59a.338.338,0,1,0,0,.676h2.089l-.005.005a.336.336,0,0,0-.087.149l-.522,1.88H33.59a.338.338,0,1,0,0,.676h1.732s.074-.008.085-.011l2.133-.592a.338.338,0,0,0,.149-.087L41.3,31.343V37.3a.063.063,0,0,1-.063.063H31.686a.063.063,0,0,1-.063-.063V27.517h2.061a.74.74,0,0,0,.739-.739V24.717h6.811a.063.063,0,0,1,.063.063V27.2A.324.324,0,0,0,41.311,27.3Z" transform="translate(-24.04 -24.041)" fill="#00b3bf"/>
    <path id="Path_10063" data-name="Path 10063" d="M185.636,358.463l-.994.276.276-.994Z" transform="translate(-172.875 -347.962)" fill="#f94"/>
    <path id="Path_10064" data-name="Path 10064" d="M50.755,42.2v1.583a.063.063,0,0,1-.063.063H49.11Z" transform="translate(-41.049 -41.049)" fill="#00b3bf"/>
  </g>
</svg>
