<svg xmlns="http://www.w3.org/2000/svg" width="22" height="22" viewBox="0 0 22 22">
  <g id="pencil" transform="translate(-0.001)">
    <g id="Group_9464" data-name="Group 9464" transform="translate(0.001)">
      <path id="Path_10120" data-name="Path 10120" d="M11,0A11,11,0,1,0,22,11,11,11,0,0,0,11,0ZM16.23,7.916,15.185,8.961,13.058,6.834l-.807.807,2.127,2.127L9.162,14.984,7.035,12.857l-.807.807,2.127,2.127-.52.52-.01-.01a.412.412,0,0,1-.263.189l-1.983.442a.412.412,0,0,1-.492-.492l.442-1.983a.413.413,0,0,1,.189-.263l-.01-.01L14.1,5.789a.316.316,0,0,1,.446,0L16.23,7.47A.315.315,0,0,1,16.23,7.916Z" transform="translate(-0.001)" fill="#999"/>
    </g>
  </g>
</svg>
