<svg xmlns="http://www.w3.org/2000/svg" width="22" height="21.854" viewBox="0 0 22 21.854"><path d="M-130.405,68.389c.307.386.608.729.869,1.1a6.331,6.331,0,0,1,1.154,2.624,2.434,2.434,0,0,1-2.368,2.821q-4.957.027-9.913,0a2.44,2.44,0,0,1-2.309-3.067,7.613,7.613,0,0,1,4.08-4.933c.057-.029.115-.056.172-.086.012-.007.021-.022.03-.033a4.087,4.087,0,0,1,.079-5.95,4.087,4.087,0,0,1,5.935.1l1.272-.7a4.09,4.09,0,0,1-1.17-3.675,4.225,4.225,0,0,1,1.65-2.61,4.04,4.04,0,0,1,5.506.433,4.081,4.081,0,0,1-.017,5.862c.235.125.471.239.7.373a7.6,7.6,0,0,1,3.589,4.646,2.441,2.441,0,0,1-2.391,3.1c-2.163.008-4.326,0-6.488,0Zm-6.04-.345a3.549,3.549,0,0,1-.526-.159.827.827,0,0,0-.672,0,6.1,6.1,0,0,0-4,4.206,1.161,1.161,0,0,0,1.139,1.509c2.564-.034,5.128-.013,7.692-.013.675,0,1.351-.017,2.026,0a1.132,1.132,0,0,0,1.059-1.373,6.065,6.065,0,0,0-4.207-4.385.447.447,0,0,0-.234-.029c-.306.085-.608.185-.92.283,0,.084,0,.164,0,.244,0,1.166,0,2.331,0,3.5a.668.668,0,0,1-.662.708.682.682,0,0,1-.692-.708c0-.088,0-.177,0-.265Zm3.67-1.165a4.758,4.758,0,0,0,.806.148c2.821.01,5.642-.009,8.463.017a1.149,1.149,0,0,0,1.082-1.3,6.027,6.027,0,0,0-4.26-4.473.393.393,0,0,0-.21-.02c-.283.083-.561.179-.86.277v.3q0,1.664,0,3.327a1.071,1.071,0,0,1-.033.309.664.664,0,0,1-.756.454.675.675,0,0,1-.565-.7q0-1.724,0-3.448v-.211a1.722,1.722,0,0,0-1.884.024c-.049.027-.1.048-.151.075-.247.142-.493.285-.738.426A4.14,4.14,0,0,1-132.775,66.879Zm4.368-6.683a2.761,2.761,0,0,0,2.865-2.88,2.775,2.775,0,0,0-2.882-2.87,2.769,2.769,0,0,0-2.863,2.886A2.76,2.76,0,0,0-128.407,60.2Zm-7.289.8a2.757,2.757,0,0,0-2.879,2.839,2.762,2.762,0,0,0,2.838,2.906,2.771,2.771,0,0,0,2.908-2.865A2.766,2.766,0,0,0-135.7,61Z" transform="translate(143.058 -53.093)" fill="#fff"/></svg>