<svg xmlns="http://www.w3.org/2000/svg" xmlns:xlink="http://www.w3.org/1999/xlink" width="13" height="10" viewBox="0 0 13 10">
  <defs>
    <linearGradient id="linear-gradient" x1="0.5" x2="0.5" y2="1" gradientUnits="objectBoundingBox">
      <stop offset="0" stop-color="#fc6076"/>
      <stop offset="1" stop-color="#f94"/>
    </linearGradient>
  </defs>
  <g id="email" transform="translate(0 -61)">
    <g id="Group_8354" data-name="Group 8354" transform="translate(0 61)">
      <path id="Path_11225" data-name="Path 11225" d="M11.857,61H1.143A1.15,1.15,0,0,0,0,62.154v7.692A1.15,1.15,0,0,0,1.143,71H11.857A1.15,1.15,0,0,0,13,69.846V62.154A1.15,1.15,0,0,0,11.857,61Zm-.158.769L6.524,67,1.3,61.769ZM.762,69.687V62.309L4.43,65.982Zm.539.544,3.671-3.707,1.286,1.288a.378.378,0,0,0,.537,0l1.254-1.266L11.7,70.231Zm10.938-.544L8.587,66l3.651-3.687Z" transform="translate(0 -61)" fill="url(#linear-gradient)"/>
    </g>
  </g>
</svg>
