<svg xmlns="http://www.w3.org/2000/svg" width="48" height="48.119" viewBox="0 0 48 48.119"><g transform="translate(-187.986 -312.874)"><path d="M235.986,337.017a24,24,0,1,1-23.829-24.142A23.981,23.981,0,0,1,235.986,337.017Zm-10.331,11.626a18.013,18.013,0,0,0-.314-23.869,17.8,17.8,0,0,0-22.516-3.276Zm-27.288-23.388a17.919,17.919,0,0,0,.043,23.557c6.8,7.789,17.467,7.288,22.741,3.53Z" transform="translate(0 0)" fill="#999" fill-rule="evenodd"/><path d="M278.6,370.04,255.772,342.9a17.8,17.8,0,0,1,22.516,3.276A18.013,18.013,0,0,1,278.6,370.04Z" transform="translate(-52.947 -21.398)" fill="#666" fill-rule="evenodd"/><path d="M219.735,369.432l22.784,27.086c-5.274,3.758-15.937,4.259-22.741-3.53A17.919,17.919,0,0,1,219.735,369.432Z" transform="translate(-21.368 -44.177)" fill="#666" fill-rule="evenodd"/></g></svg>