<svg xmlns="http://www.w3.org/2000/svg" width="115.545" height="118.005" viewBox="0 0 115.545 118.005"><g transform="translate(-165.062 -48.881)"><path d="M272.418,146.172c-1.688-.009-3.377,0-5.066-.01-2.184-.009-2.663-.473-2.665-2.611q-.011-9.327-.013-18.654c0-2.256-.633-2.9-2.854-2.911q-4.318-.017-8.636,0c-2.27.008-2.8.532-2.8,2.759V143.4c0,2.231-.543,2.756-2.8,2.765-1.5.005-2.994-.014-4.492.009-.629.01-1.428-.217-1.764.5-.316.674.383,1.107.736,1.563,3.528,4.549,7.055,9.1,10.633,13.606a37.552,37.552,0,0,0,4.17,5.043h1.152a5.319,5.319,0,0,0,1.252-1.176l13.961-17.872c.28-.357.684-.723.418-1.222C273.4,146.148,272.879,146.174,272.418,146.172Z" fill="#999" fill-rule="evenodd"/><path d="M278.508,73.1c-.457-.463-.883-.958-1.344-1.419q-9.765-9.754-19.52-19.518c-.568-.568-1.167-1.1-1.783-1.623-1.519-1.294-3.39-1.388-5.217-1.659H199.48c-.236.189-.517.081-.775.117-1.482.2-3.014.194-4.355,1-4.717,2.815-7.614,6.789-7.907,12.423a3.907,3.907,0,0,1-.135.913H167.062a2,2,0,0,0-2,2v29a2,2,0,0,0,2,2H187a2.217,2.217,0,0,1-.006.352c-.027.3,0,.614,0,.921v48.282a16.491,16.491,0,0,0,.635,5.118A14.483,14.483,0,0,0,201.7,161.09c9.8.024,19.59.007,29.385.007,4.074,0,4.561-.493,4.52-4.6-.028-2.614-.85-3.428-3.481-3.428H201.936a9.141,9.141,0,0,1-1.946-.141c-3.173-.7-5.1-3.247-5.1-6.753q-.009-24.429,0-48.858c0-.415,0-.726.023-.978H237.4a2,2,0,0,0,2-2v-29a2,2,0,0,0-2-2H194.889a6.6,6.6,0,0,1,6.875-6.481c14.787.078,29.576.042,44.363.014,1.137,0,1.541.325,1.529,1.506-.053,5.53-.025,11.061-.019,16.592a7.97,7.97,0,0,0,.142,1.947,6.672,6.672,0,0,0,6.8,5.116c5.57.025,11.139.032,16.709-.009,1.057-.008,1.5.349,1.4,1.39-.023.266,0,.537,0,.806v51.738c0,.692-.015,1.384.026,2.073a2.345,2.345,0,0,0,2.269,2.445c.8.1,1.61.044,2.414.073a3.119,3.119,0,0,0,3.209-1.775V78.846C280.336,76.775,280.09,74.7,278.508,73.1Zm-97.037,2.928h-5.1v2.3h4.5v2.981h-4.5v2.54h5.1V87h-9.022V72.9h9.022Zm42.838-3.14h3.92v11.1h4.381v3h-8.3Zm-10.96,0h9.022v3.14h-5.1v2.3h4.5v2.981h-4.5v2.54h5.1V87h-9.022Zm-8.619-.14a6.511,6.511,0,0,1,6.762,5.241h-4.221a2.759,2.759,0,0,0-2.6-1.641c-1.8,0-2.981,1.4-2.981,3.561,0,2.181,1.181,3.581,2.981,3.581a2.758,2.758,0,0,0,2.6-1.64h4.221a6.512,6.512,0,0,1-6.762,5.25c-4.24,0-7.021-2.961-7.021-7.182s2.781-7.166,7.021-7.166Zm-8.177.14-4.522,7.1,4.821,7H192.23l-2.74-3.981L187.15,87h-4.461l4.58-7.222-4.74-6.881h4.621l2.66,3.881,2.282-3.881Z" fill="#999" fill-rule="evenodd"/></g></svg>