<svg xmlns="http://www.w3.org/2000/svg" width="20.182" height="20.182" viewBox="0 0 20.182 20.182"><g transform="translate(2486 2196)"><g transform="translate(7 11)"><g transform="translate(-2493 -2207)"><g transform="translate(0 6.859)"><path d="M13.639,179.716a.394.394,0,0,0-.394.394v2.72a1.973,1.973,0,0,1-1.971,1.971H7.018a.394.394,0,0,0-.394.394v.784l-.941-.941a.394.394,0,0,0-.362-.237H2.759A1.973,1.973,0,0,1,.788,182.83v-6.07a1.973,1.973,0,0,1,1.971-1.971H6.741a.394.394,0,1,0,0-.788H2.759A2.762,2.762,0,0,0,0,176.759v6.07a2.762,2.762,0,0,0,2.759,2.759h2.36l1.619,1.619a.394.394,0,0,0,.673-.278v-1.341h3.862a2.762,2.762,0,0,0,2.759-2.759v-2.72A.394.394,0,0,0,13.639,179.716Z" transform="translate(0 -174)" fill="#666"/></g><g transform="translate(7.726)"><path d="M202.727,0h-1a5.729,5.729,0,0,0,0,11.459h1a5.74,5.74,0,0,0,1.454-.186l1.474,1.473a.394.394,0,0,0,.673-.279V10.186a5.784,5.784,0,0,0,1.506-1.857,5.668,5.668,0,0,0,.623-2.6A5.736,5.736,0,0,0,202.727,0ZM205.7,9.679a.394.394,0,0,0-.157.315v1.522l-.965-.964a.394.394,0,0,0-.394-.1,4.942,4.942,0,0,1-1.453.217h-1a4.941,4.941,0,1,1,0-9.882h1a4.941,4.941,0,0,1,2.969,8.89Z" transform="translate(-196)" fill="#666"/></g><g transform="translate(12.396 2.762)"><path d="M317.8,71.615a1.673,1.673,0,0,0-1.547-1.547,1.656,1.656,0,0,0-1.256.445,1.675,1.675,0,0,0-.53,1.22.394.394,0,0,0,.788,0,.881.881,0,0,1,.944-.878.881.881,0,0,1,.13,1.738.746.746,0,0,0-.588.731v.947a.394.394,0,1,0,.788,0v-.916A1.66,1.66,0,0,0,317.8,71.615Z" transform="translate(-314.462 -70.063)" fill="#666"/></g><g transform="translate(13.67 8.133)"><path d="M347.473,206.445a.394.394,0,1,0,.116.279A.4.4,0,0,0,347.473,206.445Z" transform="translate(-346.8 -206.33)" fill="#666"/></g><g transform="translate(2.129 12.22)"><path d="M62.712,310H54.394a.394.394,0,1,0,0,.788h8.317a.394.394,0,1,0,0-.788Z" transform="translate(-54 -310)" fill="#666"/></g><g transform="translate(10.446 14.427)"><path d="M265.673,366.115a.394.394,0,1,0,.116.279A.4.4,0,0,0,265.673,366.115Z" transform="translate(-265 -366)" fill="#666"/></g><g transform="translate(2.129 14.427)"><path d="M61.161,366H54.394a.394.394,0,1,0,0,.788h6.767a.394.394,0,1,0,0-.788Z" transform="translate(-54 -366)" fill="#666"/></g><g transform="translate(2.129 10.012)"><path d="M60.149,254H54.394a.394.394,0,1,0,0,.788h5.755a.394.394,0,1,0,0-.788Z" transform="translate(-54 -254)" fill="#666"/></g></g></g></g></svg>