<svg xmlns="http://www.w3.org/2000/svg" xmlns:xlink="http://www.w3.org/1999/xlink" width="24" height="24" viewBox="0 0 24 24"><defs><linearGradient id="a" x1="1.057" y1="0.171" x2="-0.837" y2="1.653" gradientUnits="objectBoundingBox"><stop offset="0" stop-color="#fc6076"/><stop offset="1" stop-color="#f94"/></linearGradient></defs><g transform="translate(-531 -873)"><path d="M19.967,7.119a5.544,5.544,0,0,0-5.413-5.293,5.433,5.433,0,0,0-4.61,2.535,5.23,5.23,0,0,0-4.5-2.536A5.543,5.543,0,0,0,.034,7.119,5.217,5.217,0,0,0,.2,9.13a8.563,8.563,0,0,0,2.769,4.411L9.94,19.577l7.087-6.036A8.563,8.563,0,0,0,19.8,9.13,5.229,5.229,0,0,0,19.967,7.119Z" transform="translate(533 874.174)" fill="url(#a)"/><rect width="24" height="24" transform="translate(531 873)" fill="none"/></g></svg>