<svg xmlns="http://www.w3.org/2000/svg" width="27" height="22" viewBox="0 0 27 22"><g transform="translate(0 -48)"><g transform="translate(0 48)"><path d="M27,50.6a11.515,11.515,0,0,1-3.189.877,5.517,5.517,0,0,0,2.435-3.068,11.043,11.043,0,0,1-3.51,1.344,5.532,5.532,0,0,0-9.575,3.8,5.731,5.731,0,0,0,.128,1.266A15.653,15.653,0,0,1,1.88,49.012a5.563,5.563,0,0,0,1.7,7.419,5.455,5.455,0,0,1-2.5-.684v.061a5.573,5.573,0,0,0,4.435,5.454,5.51,5.51,0,0,1-1.451.183,4.88,4.88,0,0,1-1.048-.095,5.59,5.59,0,0,0,5.172,3.867,11.1,11.1,0,0,1-6.863,2.368A10.338,10.338,0,0,1,0,67.509,15.551,15.551,0,0,0,8.491,70c10.186,0,15.754-8.462,15.754-15.8,0-.245-.008-.482-.02-.718A11.06,11.06,0,0,0,27,50.6Z" transform="translate(0 -48)" fill="#fff"/></g></g></svg>