<svg xmlns="http://www.w3.org/2000/svg" width="22" height="22" viewBox="0 0 22 22"><g transform="translate(-1067 -2486)"><g transform="translate(1067 2486)"><path d="M15.929,0H6.071A6.078,6.078,0,0,0,0,6.071v9.858A6.078,6.078,0,0,0,6.071,22h9.858A6.078,6.078,0,0,0,22,15.929V6.071A6.078,6.078,0,0,0,15.929,0Zm4.12,15.929a4.124,4.124,0,0,1-4.119,4.119H6.071a4.124,4.124,0,0,1-4.119-4.119V6.071A4.124,4.124,0,0,1,6.071,1.952h9.858a4.124,4.124,0,0,1,4.119,4.119v9.858Z" fill="#fff"/><path d="M46.567,40.97a5.6,5.6,0,1,0,5.6,5.6A5.605,5.605,0,0,0,46.567,40.97Zm0,9.27a3.671,3.671,0,1,1,3.671-3.671A3.675,3.675,0,0,1,46.567,50.24Z" transform="translate(-35.567 -35.569)" fill="#fff"/><path d="M120.371,28.251a1.449,1.449,0,1,0,1.026.425A1.456,1.456,0,0,0,120.371,28.251Z" transform="translate(-103.476 -24.582)" fill="#fff"/></g></g></svg>