<svg xmlns="http://www.w3.org/2000/svg" width="18" height="22" viewBox="0 0 18 22"><g transform="translate(-41.245 -3.18)"><g transform="translate(41.245 3.18)"><path d="M61.929,219.09a2.339,2.339,0,0,0-.7-1.255,2.183,2.183,0,0,0-1.245-.6,65.35,65.35,0,0,0-6.741-.253,64.989,64.989,0,0,0-6.729.253,2.164,2.164,0,0,0-1.251.6,2.431,2.431,0,0,0-.7,1.255,22.9,22.9,0,0,0-.316,4.436,22.427,22.427,0,0,0,.316,4.436,2.341,2.341,0,0,0,.7,1.255,2.112,2.112,0,0,0,1.245.583,62.252,62.252,0,0,0,6.741.266,62.241,62.241,0,0,0,6.741-.266,2.086,2.086,0,0,0,1.239-.583,2.429,2.429,0,0,0,.7-1.255,22.9,22.9,0,0,0,.316-4.436A22.44,22.44,0,0,0,61.929,219.09Zm-12.546,1.28h-1.3v7.212H46.869V220.37H45.594v-1.191h3.789v1.191Zm3.279,7.212H51.581V226.9a1.763,1.763,0,0,1-1.239.773.655.655,0,0,1-.7-.469,3.266,3.266,0,0,1-.1-.925V221.32h1.081v4.613a3.65,3.65,0,0,0,.012.444q.036.266.255.266.328,0,.692-.532V221.32h1.081v6.261Zm4.129-1.876a4.879,4.879,0,0,1-.109,1.268.848.848,0,0,1-.862.7,1.5,1.5,0,0,1-1.13-.7v.608H53.61v-8.4h1.081v2.75a1.451,1.451,0,0,1,1.13-.684.852.852,0,0,1,.862.71,4.717,4.717,0,0,1,.109,1.255Zm4.105-1.039H58.723v1.1q0,.875.559.874.4,0,.486-.456a6.593,6.593,0,0,0,.024-.773H60.9v.165a5.855,5.855,0,0,1-.024.735,1.574,1.574,0,0,1-.255.684,1.461,1.461,0,0,1-1.312.672,1.536,1.536,0,0,1-1.312-.646,2.461,2.461,0,0,1-.352-1.47v-2.193a2.53,2.53,0,0,1,.34-1.47,1.618,1.618,0,0,1,2.587,0,2.6,2.6,0,0,1,.328,1.47v1.306Z" transform="translate(-44.245 -208.066)" fill="#fff"/><path d="M290.357,336.043a.814.814,0,0,0-.57.279v3.815a.813.813,0,0,0,.57.279q.494,0,.495-.849v-2.674Q290.852,336.043,290.357,336.043Z" transform="translate(-279.369 -321.705)" fill="#fff"/><path d="M385.151,336.043q-.57,0-.57.862v.583h1.141V336.9Q385.722,336.043,385.151,336.043Z" transform="translate(-370.257 -321.625)" fill="#fff"/><path d="M114.094,5.057V8.492h1.267V5.057L116.895,0H115.6l-.862,3.333L113.84,0H112.5q.355,1.065.824,2.37A21.483,21.483,0,0,1,114.094,5.057Z" transform="translate(-109.632)" fill="#fff"/><path d="M213.534,53.6a1.559,1.559,0,0,0,1.343-.646,2.5,2.5,0,0,0,.355-1.5V49.237a2.473,2.473,0,0,0-.355-1.483,1.706,1.706,0,0,0-2.674,0,2.473,2.473,0,0,0-.355,1.483v2.218a2.533,2.533,0,0,0,.355,1.5A1.567,1.567,0,0,0,213.534,53.6Zm-.545-4.588q0-.875.545-.875t.545.875v2.662q0,.887-.545.887t-.545-.887Z" transform="translate(-204.786 -45.017)" fill="#fff"/><path d="M310.047,55.235a1.824,1.824,0,0,0,1.306-.786v.7h1.153V48.822h-1.153v4.829q-.38.545-.723.545-.228,0-.266-.279a3.31,3.31,0,0,1-.013-.444V48.822H309.2v4.994a3.258,3.258,0,0,0,.1.95A.7.7,0,0,0,310.047,55.235Z" transform="translate(-298.032 -46.655)" fill="#fff"/></g></g></svg>