<svg xmlns="http://www.w3.org/2000/svg" width="22" height="22" viewBox="0 0 22 22"><g transform="translate(0 -0.01)"><g transform="translate(0 0.01)"><path d="M16.521,1.485A10.759,10.759,0,0,0,11,.01,10.759,10.759,0,0,0,5.478,1.485a10.953,10.953,0,0,0-4,4A10.761,10.761,0,0,0,0,11.01a10.662,10.662,0,0,0,1.819,6.059,10.96,10.96,0,0,0,4.77,4.025,9.471,9.471,0,0,1,.186-2.535l1.418-5.987a3.821,3.821,0,0,1-.358-1.747A3.28,3.28,0,0,1,8.45,8.79a1.83,1.83,0,0,1,1.5-.817,1.343,1.343,0,0,1,1.1.473,1.816,1.816,0,0,1,.387,1.189,4.46,4.46,0,0,1-.165,1.082q-.165.637-.43,1.475t-.38,1.339a1.625,1.625,0,0,0,.329,1.5,1.751,1.751,0,0,0,1.4.623,2.881,2.881,0,0,0,2.514-1.7,8.173,8.173,0,0,0,.981-4.14,4.062,4.062,0,0,0-1.21-3.051,4.642,4.642,0,0,0-3.373-1.175A5.215,5.215,0,0,0,5.7,10.852a3.259,3.259,0,0,0,.73,2.163.653.653,0,0,1,.158.616q-.029.086-.115.43c-.057.229-.1.377-.115.444q-.115.459-.544.286A3.231,3.231,0,0,1,4.139,13.2a5.726,5.726,0,0,1-.573-2.621,6.252,6.252,0,0,1,.308-1.919,6.545,6.545,0,0,1,.96-1.855A7.542,7.542,0,0,1,6.4,5.223a7.335,7.335,0,0,1,2.213-1.1A9.2,9.2,0,0,1,11.416,3.7a7.372,7.372,0,0,1,3.652.9,6.451,6.451,0,0,1,2.471,2.335,5.9,5.9,0,0,1,.852,3.065,9.638,9.638,0,0,1-.745,3.867,6.352,6.352,0,0,1-2.106,2.7,5.159,5.159,0,0,1-3.094.981,3.393,3.393,0,0,1-1.633-.408,2.387,2.387,0,0,1-1.046-.967q-.644,2.535-.773,3.022a8.818,8.818,0,0,1-1.117,2.349,11,11,0,0,0,8.644-1.017,10.954,10.954,0,0,0,4-4A10.762,10.762,0,0,0,22,11.01a10.763,10.763,0,0,0-1.475-5.522A10.959,10.959,0,0,0,16.521,1.485Z" transform="translate(0 -0.01)" fill="#fff"/></g></g></svg>