<svg xmlns="http://www.w3.org/2000/svg" width="23.61" height="22" viewBox="0 0 23.61 22"><g transform="translate(-11.25 -10)"><path d="M81.958,94.83h4.713V79.12H81.958Zm18.363-16.254a7.075,7.075,0,0,0-5.786,2.679V79.068H89.8V94.83h4.731V86.306a3.742,3.742,0,0,1,3.717-3.559c2.067,0,2.577,1.757,2.577,3.515v8.566h4.713V85.911C105.542,79.718,102.61,78.575,100.321,78.575ZM84.293,77.55a2.36,2.36,0,1,0-2.36-2.36A2.361,2.361,0,0,0,84.293,77.55Z" transform="translate(-70.683 -62.83)" fill="#fff"/></g></svg>