<svg xmlns="http://www.w3.org/2000/svg" width="24" height="24" viewBox="0 0 24 24"><g transform="translate(-2143 -4509)"><path d="M10.588,18.839a1.242,1.242,0,0,1-.819-.308c-.855-.748-1.68-1.451-2.408-2.071l0,0A44.779,44.779,0,0,1,2.1,11.523,7.882,7.882,0,0,1,0,6.364a6.618,6.618,0,0,1,1.68-4.52A5.694,5.694,0,0,1,5.915,0,5.326,5.326,0,0,1,9.243,1.149a6.807,6.807,0,0,1,1.345,1.4,6.808,6.808,0,0,1,1.345-1.4A5.326,5.326,0,0,1,15.26,0,5.694,5.694,0,0,1,19.5,1.844a6.618,6.618,0,0,1,1.68,4.52,7.881,7.881,0,0,1-2.1,5.159,44.774,44.774,0,0,1-5.257,4.934c-.729.621-1.555,1.325-2.412,2.075a1.243,1.243,0,0,1-.818.307ZM5.915,1.24A4.467,4.467,0,0,0,2.592,2.684,5.384,5.384,0,0,0,1.24,6.364a6.631,6.631,0,0,0,1.815,4.368,44.066,44.066,0,0,0,5.107,4.782l0,0c.73.622,1.558,1.328,2.42,2.082.867-.755,1.7-1.462,2.428-2.085a44.077,44.077,0,0,0,5.106-4.782,6.632,6.632,0,0,0,1.815-4.368,5.384,5.384,0,0,0-1.351-3.679A4.467,4.467,0,0,0,15.26,1.24a4.114,4.114,0,0,0-2.568.889A6.019,6.019,0,0,0,11.26,3.786a.783.783,0,0,1-1.345,0A6.013,6.013,0,0,0,8.484,2.13,4.114,4.114,0,0,0,5.915,1.24Zm0,0" transform="translate(2144.404 4511.47)" fill="#666"/><rect width="24" height="24" transform="translate(2143 4509)" fill="none"/></g></svg>