<svg id="Layer_1" data-name="Layer 1" xmlns="http://www.w3.org/2000/svg" viewBox="0 0 200 46"><defs><style>.cls-1{fill:#fff;}.cls-2{fill:#333;}.cls-3,.cls-4{fill:#4d4d4d;}.cls-4{fill-rule:evenodd;}.cls-5{fill:none;stroke:#4d4d4d;stroke-width:0.25px;}.cls-6{fill:#00b3bf;}</style></defs><title>Artboard 2</title><path class="cls-1" d="M39.43,25.91A19.72,19.72,0,1,1,19.71,6.2,19.71,19.71,0,0,1,39.43,25.91"/><path class="cls-1" d="M35.64,25.91A15.93,15.93,0,1,1,19.71,10,15.93,15.93,0,0,1,35.64,25.91"/><path class="cls-1" d="M39.47,26A19.72,19.72,0,1,1,19.75,6.25,19.72,19.72,0,0,1,39.47,26"/><path class="cls-1" d="M19.85,11.85a.3.3,0,0,1-.3-.31v-5a.3.3,0,1,1,.59,0v5a.3.3,0,0,1-.29.31"/><path class="cls-1" d="M19.85,45.29a.3.3,0,0,1-.3-.32v-5a.3.3,0,1,1,.59,0v5a.3.3,0,0,1-.29.32"/><path class="cls-1" d="M39,26.15H33.91c-.17,0-.31-.26-.31-.44s.14-.44.31-.44H39c.17,0,.31.27.31.44s-.14.44-.31.44"/><path class="cls-1" d="M5.52,26.15h-5c-.17,0-.31-.26-.31-.44s.14-.44.31-.44H5.52c.18,0,.32.27.32.44s-.14.44-.32.44"/><path class="cls-1" d="M11.73,13.15a.33.33,0,0,1-.28-.15l-2-3.28A.31.31,0,0,1,10,9.39l2,3.28a.32.32,0,0,1-.1.44.32.32,0,0,1-.16,0"/><path class="cls-1" d="M30,42.59a.31.31,0,0,1-.27-.15l-2-3.28a.31.31,0,0,1,.1-.43.32.32,0,0,1,.44.1l2,3.28a.31.31,0,0,1-.11.43.25.25,0,0,1-.16.05"/><path class="cls-1" d="M32.9,18.13a.32.32,0,0,1-.27-.15.31.31,0,0,1,.11-.43l3.27-2a.32.32,0,1,1,.34.54l-3.28,2a.35.35,0,0,1-.17,0"/><path class="cls-1" d="M3.46,36.36a.32.32,0,0,1-.27-.15.31.31,0,0,1,.11-.43l3.28-2a.3.3,0,0,1,.43.1.31.31,0,0,1-.1.43l-3.28,2a.26.26,0,0,1-.17,0"/><path class="cls-1" d="M6.39,18.73a.34.34,0,0,1-.16,0L2.87,16.81a.31.31,0,0,1-.12-.43.32.32,0,0,1,.43-.12l3.37,1.88a.33.33,0,0,1,.12.43.31.31,0,0,1-.28.16"/><path class="cls-1" d="M36.62,35.61a.28.28,0,0,1-.15,0L33.1,33.69a.31.31,0,0,1-.12-.43.32.32,0,0,1,.43-.12L36.77,35a.32.32,0,0,1,.13.43.31.31,0,0,1-.28.16"/><path class="cls-1" d="M27.32,12.8a.28.28,0,0,1-.15,0,.32.32,0,0,1-.13-.43L28.93,9a.32.32,0,0,1,.43-.12.32.32,0,0,1,.12.43L27.6,12.64a.33.33,0,0,1-.28.16"/><path class="cls-1" d="M10.44,43a.28.28,0,0,1-.15,0,.32.32,0,0,1-.13-.43l1.89-3.36a.31.31,0,0,1,.43-.13.32.32,0,0,1,.12.43l-1.88,3.37a.33.33,0,0,1-.28.16"/><path class="cls-1" d="M16.81,10.94a.12.12,0,0,1-.11-.09L16,7.07A.1.1,0,0,1,16,7a.09.09,0,0,1,.12.08l.76,3.78a.12.12,0,0,1-.08.13h0"/><path class="cls-1" d="M23.59,44.89a.1.1,0,0,1-.1-.09L22.73,41a.1.1,0,0,1,.09-.12.1.1,0,0,1,.12.08l.76,3.78a.11.11,0,0,1-.09.13h0"/><path class="cls-1" d="M34.91,23a.12.12,0,0,1-.11-.09.11.11,0,0,1,.09-.12L38.67,22a.11.11,0,0,1,.12.08.1.1,0,0,1-.08.13L34.93,23h0"/><path class="cls-1" d="M1,29.79a.1.1,0,0,1-.11-.08.12.12,0,0,1,.08-.13l3.79-.75a.1.1,0,0,1,.12.08.1.1,0,0,1-.08.12L1,29.79H1"/><path class="cls-1" d="M15.36,11.3a.11.11,0,0,1-.1-.08L14.14,7.53a.1.1,0,0,1,.07-.13.11.11,0,0,1,.13.07l1.12,3.69a.09.09,0,0,1-.07.13h0"/><path class="cls-1" d="M25.4,44.43a.09.09,0,0,1-.1-.07l-1.12-3.69a.1.1,0,0,1,.07-.13.1.1,0,0,1,.13.07L25.5,44.3c0,.06,0,.12-.07.13h0"/><path class="cls-1" d="M34.54,21.56a.12.12,0,0,1-.1-.07.11.11,0,0,1,.07-.13l3.69-1.12a.11.11,0,0,1,.14.07.12.12,0,0,1-.07.13l-3.69,1.12h0"/><path class="cls-1" d="M1.41,31.6a.1.1,0,0,1-.1-.07.09.09,0,0,1,.07-.13l3.69-1.12a.1.1,0,0,1,.13.07.11.11,0,0,1-.07.13L1.44,31.6h0"/><path class="cls-1" d="M18.31,10.55c-.06,0-.1,0-.11,0l-.38-3.8c0-.06,0-.09.1-.1a.13.13,0,0,1,.12.11l.37,3.77c0,.05,0,0-.09,0h0"/><path class="cls-1" d="M21.71,45.17a.11.11,0,0,1-.1-.09l-.38-3.85s0-.1.09-.11a.11.11,0,0,1,.12.1l.38,3.83a.12.12,0,0,1-.09.12h0"/><path class="cls-1" d="M35.13,24.39c-.06,0-.1,0-.11,0s0-.08.1-.08L39,23.9a.12.12,0,0,1,.11.11c0,.06,0,0-.09.06l-3.84.32h0"/><path class="cls-1" d="M.67,27.91a.1.1,0,0,1-.1-.09.09.09,0,0,1,.09-.11l3.84-.39a.11.11,0,0,1,0,.22l-3.84.37h0"/><path class="cls-1" d="M12.71,12.38a.11.11,0,0,1-.1-.06L10.83,8.9a.11.11,0,0,1,.05-.14.11.11,0,0,1,.14.05l1.78,3.42a.1.1,0,0,1,0,.14h0"/><path class="cls-1" d="M28.72,43.08a.12.12,0,0,1-.1,0l-1.78-3.42a.11.11,0,0,1,.05-.15.11.11,0,0,1,.14,0l1.78,3.42a.1.1,0,0,1,0,.14h-.05"/><path class="cls-1" d="M33.46,18.91a.1.1,0,0,1-.09-.06.1.1,0,0,1,0-.14l3.42-1.78A.11.11,0,0,1,37,17a.12.12,0,0,1,0,.15L33.51,18.9h0"/><path class="cls-1" d="M2.76,34.92a.09.09,0,0,1-.09-.06.1.1,0,0,1,0-.14l3.42-1.78a.1.1,0,0,1,.14,0,.1.1,0,0,1,0,.14L2.81,34.91H2.76"/><path class="cls-1" d="M14,11.79a.11.11,0,0,1-.1-.06L12.42,8.16A.1.1,0,0,1,12.48,8a.1.1,0,0,1,.13.06l1.47,3.56a.11.11,0,0,1-.06.14h0"/><path class="cls-1" d="M27.13,43.82a.09.09,0,0,1-.1-.07l-1.46-3.56a.1.1,0,0,1,.05-.14.11.11,0,0,1,.14.06l1.46,3.57a.1.1,0,0,1,0,.13h0"/><path class="cls-1" d="M34.05,20.18a.1.1,0,0,1,0-.2l3.57-1.47a.12.12,0,0,1,.14.06.1.1,0,0,1-.06.14l-3.57,1.46h0"/><path class="cls-1" d="M2,33.33a.1.1,0,0,1-.09-.07A.09.09,0,0,1,2,33.13l3.57-1.47a.11.11,0,0,1,.14.06.12.12,0,0,1-.06.14L2.06,33.32H2"/><path class="cls-1" d="M25.19,11.6h0a.11.11,0,0,1-.06-.14l1.35-3.61a.1.1,0,0,1,.13-.06.1.1,0,0,1,.07.13l-1.35,3.62a.11.11,0,0,1-.1.06"/><path class="cls-1" d="M13.11,44.05h0a.1.1,0,0,1-.06-.14l1.35-3.61a.1.1,0,0,1,.13-.07.12.12,0,0,1,.06.14L13.2,44a.09.09,0,0,1-.09.07"/><path class="cls-1" d="M37.85,32.74h0L34.2,31.38a.1.1,0,0,1-.06-.13.1.1,0,0,1,.13-.06l3.62,1.34a.11.11,0,0,1,.06.14.11.11,0,0,1-.1.07"/><path class="cls-1" d="M5.4,20.65h0L1.75,19.3a.11.11,0,1,1,.08-.2l3.61,1.35a.1.1,0,0,1,.06.13.09.09,0,0,1-.1.07"/><path class="cls-1" d="M23.77,11.15h0a.1.1,0,0,1-.07-.13l1-3.73a.1.1,0,1,1,.2.06l-1,3.73a.09.09,0,0,1-.1.07"/><path class="cls-1" d="M14.88,44.62h0a.11.11,0,0,1-.08-.13l1-3.73a.1.1,0,0,1,.13-.07.1.1,0,0,1,.08.12l-1,3.73a.1.1,0,0,1-.1.08"/><path class="cls-1" d="M38.42,31h0l-3.73-1a.11.11,0,0,1-.07-.13.11.11,0,0,1,.13-.08l3.72,1a.1.1,0,0,1,.08.12.11.11,0,0,1-.1.08"/><path class="cls-1" d="M5,22.07h0l-3.72-1A.11.11,0,0,1,1.12,21a.1.1,0,0,1,.13-.07l3.73,1a.09.09,0,0,1,.07.12.1.1,0,0,1-.1.08"/><path class="cls-1" d="M26.31,12.08l0,0a.1.1,0,0,1-.05-.13l1.63-3.5a.1.1,0,0,1,.14,0,.11.11,0,0,1,.05.14L26.41,12a.13.13,0,0,1-.1.06"/><path class="cls-1" d="M11.7,43.46h0a.12.12,0,0,1-.06-.15l1.63-3.49a.11.11,0,0,1,.14,0,.1.1,0,0,1,.05.14l-1.62,3.5a.12.12,0,0,1-.1.05"/><path class="cls-1" d="M37.26,34.14h0l-3.5-1.62a.11.11,0,0,1,0-.14.1.1,0,0,1,.14,0l3.5,1.62a.11.11,0,0,1,0,.14.11.11,0,0,1-.1.06"/><path class="cls-1" d="M5.88,19.53h0l-3.5-1.63a.11.11,0,0,1-.05-.14.11.11,0,0,1,.14-.05l3.5,1.63a.11.11,0,0,1,0,.14.1.1,0,0,1-.09.06"/><path class="cls-1" d="M21,10.55h0c-.06,0-.1,0-.1-.05l.28-3.81a.09.09,0,0,1,.11-.08.11.11,0,0,1,.1.12l-.28,3.79c0,.05-.05,0-.1,0"/><path class="cls-1" d="M18.42,45h0c-.06,0-.1.06-.1,0l.28-3.79c0-.06.06-.08.12-.07s.09.07.09.12L18.52,45c0,.06-.05,0-.1,0"/><path class="cls-1" d="M39,27.62h0l-3.84-.37c-.06,0-.1-.11-.1-.17a.13.13,0,0,1,.11-.12l3.85.27c.06,0,.1.14.1.2s-.06.19-.11.19"/><path class="cls-1" d="M4.48,25h0L.62,24.65a.12.12,0,0,1-.09-.13.1.1,0,0,1,.11-.1l3.85.27a.15.15,0,0,1,.09.15c0,.05,0,.13-.1.13"/><path class="cls-1" d="M22.34,10.85h0a.13.13,0,0,1-.09-.13l.64-3.8A.1.1,0,0,1,23,6.83a.1.1,0,0,1,.08.12l-.63,3.81a.11.11,0,0,1-.1.09"/><path class="cls-1" d="M16.67,45h0a.1.1,0,0,1-.09-.12l.63-3.81a.11.11,0,0,1,.21,0l-.63,3.8a.11.11,0,0,1-.11.1"/><path class="cls-1" d="M38.81,29.17h0L35,28.54a.11.11,0,0,1-.09-.12.11.11,0,0,1,.13-.09l3.8.63a.11.11,0,0,1,.09.12.12.12,0,0,1-.1.09"/><path class="cls-1" d="M4.65,23.51h0L.82,22.87a.12.12,0,0,1-.09-.12.1.1,0,0,1,.13-.08l3.8.62a.12.12,0,0,1,.09.13.11.11,0,0,1-.1.09"/><path class="cls-2" d="M31.41,15.9a.11.11,0,0,1-.08,0,.1.1,0,0,1,0-.15l2.91-2.54a.09.09,0,0,1,.14,0,.1.1,0,0,1,0,.15l-2.9,2.54-.07,0"/><path class="cls-1" d="M5.33,38.68a.12.12,0,0,1-.08,0,.1.1,0,0,1,0-.14L8.16,36a.11.11,0,1,1,.14.16L5.4,38.65l-.07,0"/><path class="cls-1" d="M32.48,40.52a.12.12,0,0,1-.08,0l-2.54-2.91a.1.1,0,0,1,0-.14.11.11,0,0,1,.15,0l2.54,2.91a.12.12,0,0,1,0,.15l-.07,0"/><path class="cls-1" d="M9.7,14.43a.11.11,0,0,1-.08,0L7.09,11.49a.1.1,0,0,1,0-.15.1.1,0,0,1,.14,0l2.54,2.9a.1.1,0,0,1,0,.15l-.07,0"/><path class="cls-1" d="M30.37,14.83l-.07,0a.11.11,0,0,1,0-.15l2.64-2.81a.11.11,0,0,1,.15,0,.1.1,0,0,1,0,.15L30.45,14.8a.11.11,0,0,1-.08,0"/><path class="cls-1" d="M6.62,40l-.07,0a.11.11,0,0,1,0-.15L9.19,37a.1.1,0,0,1,.15,0,.11.11,0,0,1,0,.15L6.7,40a.11.11,0,0,1-.08,0"/><path class="cls-1" d="M33.82,39.22l-.07,0-2.81-2.64a.11.11,0,0,1,0-.15.1.1,0,0,1,.14,0L33.89,39a.11.11,0,0,1,0,.15.11.11,0,0,1-.08,0"/><path class="cls-1" d="M8.63,15.47l-.07,0L5.75,12.8a.1.1,0,0,1,0-.15.09.09,0,0,1,.14,0L8.7,15.29a.11.11,0,0,1,0,.15.13.13,0,0,1-.08,0"/><path class="cls-1" d="M32.24,16.94a.11.11,0,0,1-.09,0,.11.11,0,0,1,0-.15l3.11-2.28a.11.11,0,0,1,.15,0,.1.1,0,0,1,0,.14L32.3,16.92l-.06,0"/><path class="cls-1" d="M4.29,37.38a.12.12,0,0,1-.08,0,.1.1,0,0,1,0-.15l3.11-2.28a.12.12,0,0,1,.15,0,.11.11,0,0,1,0,.15L4.35,37.36l-.06,0"/><path class="cls-1" d="M31.18,41.55a.1.1,0,0,1-.09,0L28.82,38.4a.1.1,0,0,1,0-.15.11.11,0,0,1,.15,0l2.27,3.11a.1.1,0,0,1,0,.15l-.06,0"/><path class="cls-1" d="M10.74,13.6a.09.09,0,0,1-.08,0L8.38,10.45a.12.12,0,0,1,0-.15.12.12,0,0,1,.15,0l2.28,3.12a.11.11,0,0,1,0,.15h-.06"/><path class="cls-1" d="M28.25,13.15l-.06,0a.1.1,0,0,1,0-.14l2.11-3.23a.11.11,0,0,1,.18.11L28.33,13.1a.1.1,0,0,1-.08.05"/><path class="cls-1" d="M9.28,42.12l0,0a.1.1,0,0,1,0-.14l2.12-3.23a.1.1,0,0,1,.14,0,.1.1,0,0,1,0,.14L9.37,42.07a.11.11,0,0,1-.09,0"/><path class="cls-1" d="M35.92,36.56l-.06,0-3.23-2.11a.11.11,0,0,1,0-.14.11.11,0,0,1,.15,0L36,36.37a.1.1,0,0,1,0,.14.11.11,0,0,1-.09.05"/><path class="cls-1" d="M7,17.59H6.89L3.67,15.46a.09.09,0,0,1,0-.14.1.1,0,0,1,.14,0L7,17.4a.11.11,0,0,1,0,.15.11.11,0,0,1-.09,0"/><path class="cls-1" d="M29.26,13.88l-.06,0a.09.09,0,0,1,0-.14l2.36-3.05a.11.11,0,0,1,.15,0,.1.1,0,0,1,0,.15l-2.37,3a.1.1,0,0,1-.08.05"/><path class="cls-1" d="M8,41.22l-.07,0a.11.11,0,0,1,0-.15l2.37-3a.1.1,0,0,1,.14,0,.1.1,0,0,1,0,.15l-2.36,3a.1.1,0,0,1-.08,0"/><path class="cls-1" d="M35,37.83l-.06,0L31.9,35.44a.12.12,0,0,1,0-.15.11.11,0,0,1,.15,0l3,2.37a.11.11,0,0,1-.07.19"/><path class="cls-1" d="M7.68,16.58l-.07,0L4.56,14.19a.1.1,0,0,1,0-.14.09.09,0,0,1,.14,0l3.05,2.36a.11.11,0,0,1,0,.15.09.09,0,0,1-.08,0"/><path class="cls-3" d="M39.47,25.91A19.72,19.72,0,1,0,19.75,45.62,19.71,19.71,0,0,0,39.47,25.91"/><path class="cls-1" d="M19.62,6.18a.29.29,0,0,0-.3.31v5a.3.3,0,1,0,.59,0v-5a.29.29,0,0,0-.29-.31"/><path class="cls-1" d="M19.62,39.61a.3.3,0,0,0-.3.32v5a.3.3,0,1,0,.59,0v-5a.3.3,0,0,0-.29-.32"/><path class="cls-1" d="M5.55,25.27h-5c-.18,0-.32.27-.32.44s.14.44.32.44h5c.18,0,.32-.26.32-.44s-.14-.44-.32-.44"/><path class="cls-1" d="M39,25.27H33.94c-.17,0-.32.27-.32.44s.15.44.32.44H39c.17,0,.31-.26.31-.44s-.14-.44-.31-.44"/><path class="cls-1" d="M29.77,9.24a.32.32,0,0,0-.27.15l-2,3.28a.33.33,0,0,0,.1.44A.32.32,0,0,0,28,13l2-3.28a.32.32,0,0,0-.1-.43.34.34,0,0,0-.17,0"/><path class="cls-1" d="M11.54,38.68a.32.32,0,0,0-.26.15l-2,3.28a.3.3,0,0,0,.1.43.31.31,0,0,0,.43-.1l2-3.28a.3.3,0,0,0-.1-.43.34.34,0,0,0-.17,0"/><path class="cls-1" d="M3.28,15.47a.34.34,0,0,0-.27.15.33.33,0,0,0,.11.44l3.28,2a.32.32,0,0,0,.33-.54l-3.28-2a.34.34,0,0,0-.17,0"/><path class="cls-1" d="M32.72,33.7a.32.32,0,0,0-.27.15.31.31,0,0,0,.11.43l3.28,2a.31.31,0,0,0,.33-.53l-3.28-2a.26.26,0,0,0-.17,0"/><path class="cls-1" d="M36.44,16.22a.42.42,0,0,0-.15,0l-3.37,1.88a.32.32,0,1,0,.31.55l3.37-1.88a.32.32,0,0,0,.12-.43.33.33,0,0,0-.28-.16"/><path class="cls-1" d="M6.21,33.1a.26.26,0,0,0-.15,0L2.69,35a.31.31,0,0,0-.12.43.3.3,0,0,0,.42.12l3.37-1.88a.32.32,0,0,0,.13-.43.33.33,0,0,0-.28-.16"/><path class="cls-1" d="M10.26,8.8a.28.28,0,0,0-.15,0,.31.31,0,0,0-.12.43l1.88,3.37a.31.31,0,0,0,.43.12.32.32,0,0,0,.12-.43L10.54,9a.33.33,0,0,0-.28-.16"/><path class="cls-1" d="M27.14,39a.42.42,0,0,0-.15,0,.31.31,0,0,0-.12.43l1.88,3.37a.3.3,0,0,0,.42.12.31.31,0,0,0,.13-.43L27.42,39.2a.32.32,0,0,0-.28-.17"/><path class="cls-1" d="M23.41,6.94a.12.12,0,0,0-.1.09l-.75,3.78a.1.1,0,0,0,.08.13.11.11,0,0,0,.12-.09l.76-3.78A.1.1,0,0,0,23.44,7h0"/><path class="cls-1" d="M16.63,40.9a.09.09,0,0,0-.1.08l-.76,3.78a.11.11,0,0,0,.08.13A.12.12,0,0,0,16,44.8L16.73,41a.1.1,0,0,0-.08-.12h0"/><path class="cls-1" d="M.77,22a.12.12,0,0,0-.1.08.11.11,0,0,0,.08.13L4.54,23a.09.09,0,0,0,.12-.08.11.11,0,0,0-.08-.12L.79,22h0"/><path class="cls-1" d="M34.73,28.82a.13.13,0,0,0-.11.09.1.1,0,0,0,.09.12l3.78.76a.11.11,0,0,0,0-.21l-3.78-.75h0"/><path class="cls-1" d="M25.22,7.4a.11.11,0,0,0-.1.07L24,11.16a.11.11,0,0,0,.07.13.09.09,0,0,0,.13-.07l1.12-3.69a.1.1,0,0,0-.07-.13h0"/><path class="cls-1" d="M15.18,40.54a.1.1,0,0,0-.1.07L14,44.3a.11.11,0,0,0,.21.06l1.11-3.69a.1.1,0,0,0-.07-.13h0"/><path class="cls-1" d="M1.23,20.23a.1.1,0,0,0-.1.08.1.1,0,0,0,.07.13l3.69,1.12A.11.11,0,0,0,5,21.49.1.1,0,0,0,5,21.36L1.26,20.24h0"/><path class="cls-1" d="M34.36,30.27a.09.09,0,0,0-.09.08.1.1,0,0,0,.07.13L38,31.6a.12.12,0,0,0,.13-.07.11.11,0,0,0-.07-.13L34.4,30.28h0"/><path class="cls-1" d="M21.54,6.66c-.06,0-.1,0-.11,0l-.38,3.79c0,.06,0,.09.1.1a.13.13,0,0,0,.11-.11l.38-3.76c0-.06,0,0-.09,0h0"/><path class="cls-1" d="M18.13,41.12a.11.11,0,0,0-.11.1l-.37,3.83a.1.1,0,0,0,.09.12.1.1,0,0,0,.11-.09l.39-3.85a.12.12,0,0,0-.1-.11h0"/><path class="cls-1" d="M.5,23.91c-.06,0-.1,0-.11,0s0,.08.09.09l3.84.36a.13.13,0,0,0,.12-.1c0-.06,0-.06-.1-.06L.51,23.91h0"/><path class="cls-1" d="M35,27.32a.11.11,0,0,0-.1.1.1.1,0,0,0,.09.12l3.84.37a.1.1,0,1,0,0-.2L35,27.33h0"/><path class="cls-1" d="M28.54,8.75a.11.11,0,0,0-.1.06l-1.78,3.42a.11.11,0,0,0,.19.09L28.63,8.9a.1.1,0,0,0,0-.14h-.05"/><path class="cls-1" d="M12.53,39.45a.1.1,0,0,0-.09.06l-1.79,3.42a.11.11,0,0,0,0,.14.1.1,0,0,0,.14,0l1.78-3.42a.11.11,0,0,0,0-.15h-.05"/><path class="cls-1" d="M2.58,16.92a.11.11,0,0,0-.09,0,.11.11,0,0,0,0,.15L6,18.9a.12.12,0,0,0,.15,0,.11.11,0,0,0,0-.14L2.63,16.93h0"/><path class="cls-1" d="M33.28,32.93a.1.1,0,0,0-.09,0,.1.1,0,0,0,.05.14l3.42,1.79a.11.11,0,1,0,.09-.19l-3.42-1.78h0"/><path class="cls-1" d="M27,8a.1.1,0,0,0-.1.07l-1.46,3.56a.11.11,0,0,0,.19.09L27,8.16A.1.1,0,0,0,27,8h0"/><path class="cls-1" d="M13.8,40a.12.12,0,0,0-.1.07l-1.46,3.57a.1.1,0,0,0,.06.13.09.09,0,0,0,.13-.06l1.47-3.56a.1.1,0,0,0-.06-.14h0"/><path class="cls-1" d="M1.84,18.51a.11.11,0,0,0-.1.06.11.11,0,0,0,.06.14l3.57,1.46a.11.11,0,0,0,.14-.06A.1.1,0,0,0,5.45,20L1.88,18.51h0"/><path class="cls-1" d="M33.87,31.65a.09.09,0,0,0-.09.07.11.11,0,0,0,0,.14l3.57,1.46a.11.11,0,0,0,.14-.06.1.1,0,0,0-.06-.13l-3.56-1.47h-.05"/><path class="cls-1" d="M12.93,7.78h0a.1.1,0,0,0-.06.13l1.34,3.62a.12.12,0,0,0,.14.06.11.11,0,0,0,.06-.14L13,7.85a.12.12,0,0,0-.1-.07"/><path class="cls-1" d="M25,40.23h0a.12.12,0,0,0-.07.14L26.26,44a.11.11,0,0,0,.14.07.12.12,0,0,0,.06-.14L25.11,40.3a.1.1,0,0,0-.1-.07"/><path class="cls-1" d="M5.23,31.18h0L1.58,32.53a.11.11,0,0,0-.07.14.11.11,0,0,0,.14.06l3.61-1.35a.1.1,0,0,0,.07-.13.12.12,0,0,0-.1-.07"/><path class="cls-1" d="M37.67,19.1h0L34,20.45a.1.1,0,0,0-.06.13.12.12,0,0,0,.14.07l3.61-1.35a.11.11,0,0,0,.06-.14.09.09,0,0,0-.1-.06"/><path class="cls-1" d="M14.71,7.21h0a.11.11,0,0,0-.08.13l1,3.72a.11.11,0,0,0,.13.08.09.09,0,0,0,.07-.13l-1-3.73a.09.09,0,0,0-.09-.08"/><path class="cls-1" d="M23.59,40.68h0a.1.1,0,0,0-.08.12l1,3.73a.11.11,0,0,0,.13.08.12.12,0,0,0,.08-.13l-1-3.73a.12.12,0,0,0-.11-.08"/><path class="cls-1" d="M4.78,29.76h0L1,30.76a.1.1,0,0,0-.08.12.12.12,0,0,0,.13.08L4.8,30a.12.12,0,0,0,.08-.13.11.11,0,0,0-.1-.08"/><path class="cls-1" d="M38.24,20.87h0l-3.73,1a.12.12,0,0,0-.07.13.11.11,0,0,0,.13.08l3.73-1a.11.11,0,0,0,.07-.13.1.1,0,0,0-.1-.08"/><path class="cls-1" d="M11.52,8.37h0a.09.09,0,0,0-.05.14L13.05,12a.11.11,0,0,0,.15.05.09.09,0,0,0,0-.13l-1.62-3.5a.11.11,0,0,0-.1-.06"/><path class="cls-1" d="M26.14,39.76h-.05a.1.1,0,0,0-.05.14l1.63,3.5a.11.11,0,0,0,.19-.1l-1.63-3.49a.09.09,0,0,0-.09-.06"/><path class="cls-1" d="M5.7,32.3l0,0-3.5,1.62a.1.1,0,0,0,0,.14.09.09,0,0,0,.13.05l3.5-1.62a.11.11,0,0,0,0-.15.13.13,0,0,0-.09-.06"/><path class="cls-1" d="M37.09,17.69H37l-3.49,1.63a.1.1,0,0,0,0,.14.1.1,0,0,0,.13.05l3.5-1.63a.1.1,0,0,0,0-.14.1.1,0,0,0-.09-.06"/><path class="cls-1" d="M18.24,6.61h0c-.06,0-.1,0-.1,0l.28,3.82c0,.06.06.08.12.08a.1.1,0,0,0,.09-.12l-.28-3.79c0-.06-.05,0-.1,0"/><path class="cls-1" d="M20.77,41.16h0c-.06,0-.1-.06-.1,0L20.94,45c0,.06.06.07.12.06a.11.11,0,0,0,.1-.12l-.29-3.74c0-.06-.05,0-.1,0"/><path class="cls-1" d="M4.3,27h0l-3.85.38s-.09.1-.09.16.05.13.11.12l3.85-.27c.06,0,.1-.14.1-.2s0-.19-.11-.19"/><path class="cls-1" d="M38.83,24.42h0L35,24.74a.11.11,0,0,0-.1.13A.1.1,0,0,0,35,25l3.85-.27c.06,0,.1-.09.1-.15s0-.13-.11-.13"/><path class="cls-1" d="M16.49,6.83h0a.1.1,0,0,0-.09.12L17,10.76a.12.12,0,0,0,.12.09.12.12,0,0,0,.09-.13l-.63-3.8a.12.12,0,0,0-.11-.09"/><path class="cls-1" d="M22.16,41h0a.09.09,0,0,0-.08.12l.63,3.8a.1.1,0,0,0,.12.09.09.09,0,0,0,.08-.12l-.63-3.81a.09.09,0,0,0-.1-.08"/><path class="cls-1" d="M4.47,28.33h0L.64,29a.11.11,0,0,0-.08.12.1.1,0,0,0,.12.09l3.81-.63a.11.11,0,0,0,.08-.12.11.11,0,0,0-.1-.09"/><path class="cls-1" d="M38.63,22.67h0l-3.81.62a.13.13,0,0,0-.09.13.11.11,0,0,0,.13.08l3.8-.63a.1.1,0,0,0,.09-.12.1.1,0,0,0-.1-.08"/><path class="cls-1" d="M5.15,13.15a.09.09,0,0,0-.08,0,.11.11,0,0,0,0,.15L8,15.88a.12.12,0,0,0,.15,0,.11.11,0,0,0,0-.15l-2.9-2.54-.07,0"/><path class="cls-1" d="M31.23,35.93a.09.09,0,0,0-.08,0,.11.11,0,0,0,0,.15l2.9,2.53a.1.1,0,0,0,.15,0,.09.09,0,0,0,0-.14L31.3,36l-.07,0"/><path class="cls-1" d="M9.52,37.4a.09.09,0,0,0-.07,0L6.91,40.34a.1.1,0,0,0,0,.15.11.11,0,0,0,.14,0L9.6,37.57a.09.09,0,0,0,0-.14l-.07,0"/><path class="cls-1" d="M32.3,11.32a.09.09,0,0,0-.08,0l-2.54,2.9a.11.11,0,0,0,.16.14l2.54-2.91a.11.11,0,0,0,0-.15l-.07,0"/><path class="cls-1" d="M6.44,11.81l-.07,0a.11.11,0,0,0,0,.15L9,14.8a.11.11,0,0,0,.16-.15L6.52,11.84a.11.11,0,0,0-.08,0"/><path class="cls-1" d="M30.2,37l-.07,0a.1.1,0,0,0,0,.15L32.77,40a.1.1,0,0,0,.14,0,.1.1,0,0,0,0-.15L30.27,37a.11.11,0,0,0-.07,0"/><path class="cls-1" d="M8.45,36.37l-.07,0L5.57,39a.11.11,0,0,0,.15.15l2.8-2.64a.1.1,0,0,0,0-.15.11.11,0,0,0-.08,0"/><path class="cls-1" d="M33.64,12.61l-.07,0-2.81,2.65a.11.11,0,0,0,.15.15l2.81-2.64a.11.11,0,0,0,0-.15.09.09,0,0,0-.08,0"/><path class="cls-1" d="M4.11,14.45A.1.1,0,0,0,4,14.5a.09.09,0,0,0,0,.14l3.11,2.28a.11.11,0,0,0,.15,0,.12.12,0,0,0,0-.15L4.17,14.47l-.06,0"/><path class="cls-1" d="M32.06,34.89a.12.12,0,0,0-.08,0,.1.1,0,0,0,0,.15l3.11,2.28a.12.12,0,0,0,.15,0,.11.11,0,0,0,0-.15l-3.12-2.28-.06,0"/><path class="cls-1" d="M10.56,38.23a.09.09,0,0,0-.08,0L8.2,41.38a.12.12,0,0,0,0,.15.1.1,0,0,0,.15,0l2.28-3.11a.11.11,0,0,0,0-.15l-.06,0"/><path class="cls-1" d="M31,10.28a.09.09,0,0,0-.08,0l-2.28,3.12a.1.1,0,1,0,.17.12l2.27-3.11a.1.1,0,0,0,0-.15l-.06,0"/><path class="cls-1" d="M9.1,9.71,9,9.73a.11.11,0,0,0,0,.14l2.11,3.23a.1.1,0,0,0,.14,0,.09.09,0,0,0,0-.14L9.19,9.76a.11.11,0,0,0-.09,0"/><path class="cls-1" d="M28.07,38.68l-.06,0a.1.1,0,0,0,0,.14l2.11,3.23a.1.1,0,0,0,.15,0,.1.1,0,0,0,0-.14l-2.11-3.23a.12.12,0,0,0-.09,0"/><path class="cls-1" d="M6.77,34.24H6.71L3.49,36.37a.1.1,0,0,0,0,.14.11.11,0,0,0,.15,0l3.23-2.11a.1.1,0,0,0,0-.14.1.1,0,0,0-.09,0"/><path class="cls-1" d="M35.74,15.27l-.06,0L32.46,17.4a.1.1,0,0,0,0,.15.1.1,0,0,0,.14,0l3.23-2.12a.1.1,0,0,0,0-.14.11.11,0,0,0-.09-.05"/><path class="cls-1" d="M7.83,10.62l-.06,0a.11.11,0,0,0,0,.15l2.37,3a.1.1,0,0,0,.15,0,.11.11,0,0,0,0-.14L7.92,10.66a.1.1,0,0,0-.09,0"/><path class="cls-1" d="M29.08,38,29,38a.11.11,0,0,0,0,.15l2.37,3a.09.09,0,0,0,.14,0,.1.1,0,0,0,0-.15l-2.36-3a.1.1,0,0,0-.09,0"/><path class="cls-1" d="M7.5,35.25l-.07,0-3,2.36a.1.1,0,0,0,0,.15.11.11,0,0,0,.15,0l3-2.37a.11.11,0,0,0,0-.15.09.09,0,0,0-.08,0"/><path class="cls-1" d="M34.84,14l-.07,0-3.05,2.36a.11.11,0,0,0,0,.15.09.09,0,0,0,.14,0l3-2.37a.1.1,0,0,0,0-.14.1.1,0,0,0-.08-.05"/><path class="cls-4" d="M8.52,6.7c-1.07.57-.72-1.7-2.36,0L6,6l.35.27L7.7,7.1,7,6.8l.64,1.27s-.82,1.46-.36,1.25l.29.46a19.07,19.07,0,0,1,2.53-1.56l-.19-.3c.42-.27-1.63-.65-1.65-.7L7.65,6,9.12,7.56a2.83,2.83,0,0,0-2.3.07ZM19.71.32a16,16,0,0,1,4.41.34h0V4.93a7.6,7.6,0,0,1-2.77.33v.68q-.83-.06-1.65-.06c-.56,0-1.11,0-1.66.06V5.26a7.6,7.6,0,0,1-2.77-.33V.66h0A16.06,16.06,0,0,1,19.71.32Zm0,9.88c-8.31,0-15,6.23-15,13.92S11.4,38,19.71,38s15-6.23,15-13.91S28,10.2,19.71,10.2Zm0-3.25C30,7,38.26,14.64,38.26,24.12S30,41.28,19.71,41.28,1.15,33.6,1.15,24.12,9.46,7,19.71,7ZM7.3,24.12a1,1,0,0,1-2,0,1,1,0,0,1,1-.94,1,1,0,0,1,1,.94Zm26.85,0a1,1,0,1,1-1-.94,1,1,0,0,1,1,.94ZM19.71,35.6a.94.94,0,1,1-1,.94,1,1,0,0,1,1-.94Zm0-24.85a.94.94,0,1,1-1,.94,1,1,0,0,1,1-.94Zm-6.64,2.73a.63.63,0,0,1-.8-.2.53.53,0,0,1,.21-.74.61.61,0,0,1,.8.2.52.52,0,0,1-.21.74ZM26.93,35.69a.61.61,0,0,1-.8-.2.51.51,0,0,1,.22-.73.61.61,0,0,1,.79.19.52.52,0,0,1-.21.74ZM8.2,18a.6.6,0,0,1-.79.2.52.52,0,0,1-.21-.74A.59.59,0,0,1,8,17.24.51.51,0,0,1,8.2,18Zm24,12.83a.62.62,0,0,1-.8.2.52.52,0,0,1-.21-.74.6.6,0,0,1,.79-.2.52.52,0,0,1,.22.74Zm-24-.54A.52.52,0,0,1,8,31a.61.61,0,0,1-.79-.2.52.52,0,0,1,.21-.74.6.6,0,0,1,.79.2Zm24-12.83a.52.52,0,0,1-.22.74.6.6,0,0,1-.79-.2.51.51,0,0,1,.21-.73.61.61,0,0,1,.8.19ZM13.07,34.76a.51.51,0,0,1,.21.73.61.61,0,0,1-.8.2.53.53,0,0,1-.21-.74.62.62,0,0,1,.8-.19ZM26.93,12.54a.52.52,0,0,1,.21.74.62.62,0,0,1-.79.2.52.52,0,0,1-.22-.74.61.61,0,0,1,.8-.2ZM16,12a.39.39,0,0,1-.3-.48.42.42,0,0,1,.52-.27.38.38,0,0,1,.29.47A.42.42,0,0,1,16,12ZM23.23,37a.39.39,0,0,1-.3-.48.43.43,0,0,1,.51-.28.39.39,0,0,1,.3.48.43.43,0,0,1-.51.28ZM9.9,15.32A.43.43,0,0,1,9.38,15a.39.39,0,0,1,.3-.48.43.43,0,0,1,.52.28.39.39,0,0,1-.3.48ZM29.73,33.67a.39.39,0,0,0,.3-.48.43.43,0,0,0-.52-.28.4.4,0,0,0-.3.48.44.44,0,0,0,.52.28ZM6.46,21a.46.46,0,0,1-.6,0,.38.38,0,0,1,0-.55.46.46,0,0,1,.6,0,.38.38,0,0,1,0,.55Zm27.09,6.72a.46.46,0,0,1-.6,0,.38.38,0,0,1,0-.55.43.43,0,0,1,.6,0,.36.36,0,0,1,0,.55Zm-27-.17a.43.43,0,0,1-.52.27.39.39,0,0,1-.3-.48.42.42,0,0,1,.52-.27.39.39,0,0,1,.3.48Zm27.09-6.72a.42.42,0,0,1-.52.27.38.38,0,0,1-.3-.47.43.43,0,0,1,.52-.28.39.39,0,0,1,.3.48ZM10.2,33.19a.39.39,0,0,1-.3.48.43.43,0,0,1-.52-.28.39.39,0,0,1,.3-.48.43.43,0,0,1,.52.28ZM30,14.84a.39.39,0,0,1-.3.48.44.44,0,0,1-.52-.28.4.4,0,0,1,.3-.48.43.43,0,0,1,.52.28ZM16.38,36.37a.39.39,0,0,1,0,.56.46.46,0,0,1-.6,0,.37.37,0,0,1,0-.56.46.46,0,0,1,.6,0Zm7.25-25.06a.36.36,0,0,1,0,.55.44.44,0,0,1-.59,0,.36.36,0,0,1,0-.55.42.42,0,0,1,.59,0Zm-3.92,14.2a1.4,1.4,0,0,0,1.38-1.93,1.34,1.34,0,0,0-.56-.62,1.31,1.31,0,0,0-.55-.21,1.65,1.65,0,0,0-.9.1,1.39,1.39,0,0,0-.88,1.27,1.46,1.46,0,0,0,1.51,1.39Zm.62-3.18a2.16,2.16,0,0,1,.83.48l9-4.11,0,.07L21.73,24v.14a2,2,0,0,1-2,1.87,2.27,2.27,0,0,1-.88-.18l-5.08,8.13-.41-.23,5.08-8.14a1.84,1.84,0,0,1-.74-1.45,1.89,1.89,0,0,1,1.41-1.79l.58-5.54h.07ZM31.89,9.78l.27-1.93c.16-1.69.15-.64.18-.69l.7-1-1.11.14c-3.77,1.17,1.31.21.24-.37s.37.29.23.33L32,5.73,31.1,7.82s-2-.17-1.55.1l-.18.3a19.63,19.63,0,0,1,2.52,1.56"/><path class="cls-4" d="M32.3,6.68c1.07.57-3,2.35.16.43l-.7-.49.93-.26L33,6.7l-1.09-.6.27,1.21c0,.05.45,2.22,0,2l-.29.46a19.07,19.07,0,0,0-2.53-1.56l.19-.3c-.42-.27,1.75.46,1.78.41l.94-1L32,5.73c.13-.05-.48-.42.59.16ZM19.71.32a16.06,16.06,0,0,0-4.42.34h0V4.93a7.6,7.6,0,0,0,2.77.33v.68c.55,0,1.1-.06,1.66-.06s1.1,0,1.65.06V5.26a7.6,7.6,0,0,0,2.77-.33V.66h0A16,16,0,0,0,19.71.32Zm0,9.88c8.3,0,15,6.23,15,13.92S28,38,19.71,38s-15-6.23-15-13.91,6.73-13.92,15-13.92Zm0-3.25C9.46,7,1.15,14.64,1.15,24.12S9.46,41.28,19.71,41.28,38.26,33.6,38.26,24.12,30,7,19.71,7ZM32.12,24.12a1,1,0,1,0,1-.94,1,1,0,0,0-1,.94Zm-26.86,0a1,1,0,0,0,2,0,1,1,0,0,0-1-.94,1,1,0,0,0-1,.94ZM19.71,35.6a.94.94,0,1,0,1,.94,1,1,0,0,0-1-.94Zm0-24.85a.94.94,0,1,0,1,.94,1,1,0,0,0-1-.94Zm6.64,2.73a.62.62,0,0,0,.79-.2.52.52,0,0,0-.21-.74.61.61,0,0,0-.8.2.52.52,0,0,0,.22.74ZM12.48,35.69a.61.61,0,0,0,.8-.2.51.51,0,0,0-.21-.73.62.62,0,0,0-.8.19.53.53,0,0,0,.21.74ZM31.21,18a.6.6,0,0,0,.79.2.52.52,0,0,0,.22-.74.61.61,0,0,0-.8-.19.51.51,0,0,0-.21.73ZM7.2,30.8A.61.61,0,0,0,8,31a.52.52,0,0,0,.21-.74.6.6,0,0,0-.79-.2.51.51,0,0,0-.21.74Zm24-.54a.52.52,0,0,0,.21.74.62.62,0,0,0,.8-.2.52.52,0,0,0-.22-.74.6.6,0,0,0-.79.2ZM7.2,17.43a.51.51,0,0,0,.21.74A.6.6,0,0,0,8.2,18,.51.51,0,0,0,8,17.24a.59.59,0,0,0-.79.19ZM26.35,34.76a.51.51,0,0,0-.22.73.61.61,0,0,0,.8.2.52.52,0,0,0,.21-.74.61.61,0,0,0-.79-.19ZM12.48,12.54a.53.53,0,0,0-.21.74.63.63,0,0,0,.8.2.52.52,0,0,0,.21-.74.61.61,0,0,0-.8-.2Zm11-.58a.39.39,0,0,0,.3-.48.41.41,0,0,0-.51-.27.38.38,0,0,0-.3.47.42.42,0,0,0,.51.28ZM16.18,37a.39.39,0,0,0,.3-.48.43.43,0,0,0-.51-.28.39.39,0,0,0-.3.48.43.43,0,0,0,.51.28ZM29.51,15.32A.43.43,0,0,0,30,15a.39.39,0,0,0-.3-.48.44.44,0,0,0-.52.28.4.4,0,0,0,.3.48ZM9.68,33.67a.39.39,0,0,1-.3-.48.43.43,0,0,1,.52-.28.4.4,0,0,1,.3.48.43.43,0,0,1-.52.28ZM33,21a.46.46,0,0,0,.6,0,.36.36,0,0,0,0-.55.46.46,0,0,0-.6,0A.38.38,0,0,0,33,21ZM5.86,27.75a.46.46,0,0,0,.6,0,.38.38,0,0,0,0-.55.43.43,0,0,0-.6,0,.38.38,0,0,0,0,.55Zm27-.17a.44.44,0,0,0,.52.27.38.38,0,0,0,.3-.48.42.42,0,0,0-.52-.27.39.39,0,0,0-.3.48ZM5.75,20.86a.42.42,0,0,0,.52.27.38.38,0,0,0,.3-.47.43.43,0,0,0-.52-.28.4.4,0,0,0-.3.48ZM29.21,33.19a.4.4,0,0,0,.3.48.43.43,0,0,0,.52-.28.39.39,0,0,0-.3-.48.44.44,0,0,0-.52.28ZM9.38,14.84a.39.39,0,0,0,.3.48A.43.43,0,0,0,10.2,15a.4.4,0,0,0-.3-.48.43.43,0,0,0-.52.28ZM23,36.37a.39.39,0,0,0,0,.56.46.46,0,0,0,.6,0,.37.37,0,0,0,0-.56.46.46,0,0,0-.6,0ZM15.78,11.31a.36.36,0,0,0,0,.55.46.46,0,0,0,.6,0,.38.38,0,0,0,0-.55.43.43,0,0,0-.6,0Zm3.93,14.2a1.4,1.4,0,0,1-1.39-1.93,1.34,1.34,0,0,1,.56-.62,1.37,1.37,0,0,1,.55-.21,1.64,1.64,0,0,1,.9.1,1.39,1.39,0,0,1,.88,1.27,1.46,1.46,0,0,1-1.5,1.39Zm-.63-3.18a2.16,2.16,0,0,0-.83.48l-9-4.11,0,.07L17.68,24v.14a2,2,0,0,0,2,1.87,2.34,2.34,0,0,0,.88-.18l5.07,8.13.41-.23L21,25.57a1.84,1.84,0,0,0,.74-1.45,1.9,1.9,0,0,0-1.4-1.79l-.59-5.54h-.07ZM7.52,9.78l-.29-.46c-.46.21,1-2.07,1-2.12L6.5,6.58,7,6.83c1.2.37-.68.44.39-.13s-.28,1.39-.06-.63l.28-.22L8.5,7.3c0,.06,1.78.35,1.36.62l.18.3A19.63,19.63,0,0,0,7.52,9.78"/><path class="cls-4" d="M6.27,5a5.67,5.67,0,0,0-1.49,1h0l.28.56L7,9.43s.26,0,.61-.2l.22.36a16.26,16.26,0,0,1,2-1.21L9.6,8.15c.33-.21.52-.35.5-.39L7.92,4.26h0A6.4,6.4,0,0,0,6.27,5ZM17.19,2.29a12,12,0,0,1,3.4.27h0V5.85c0,.11-.7-1.54-2-1.5l1-.8c-.42,0,2.79-1.29.11,1.16-.31.29.59-1,.17-.91l-.18.73c-1.25,0,0-2.24-.08-2.23l-3.14.58.6.16,2.72,1.08C20,4,15.39,2.29,17.19,2.29Zm0,7.62c-6.4,0-11.6,4.8-11.6,10.73s5.2,10.73,11.6,10.73,11.6-4.8,11.6-10.73S23.6,9.91,17.19,9.91Zm0-2.51c7.9,0,14.31,5.93,14.31,13.24S25.09,33.88,17.19,33.88,2.89,28,2.89,20.64,9.29,7.4,17.19,7.4ZM7.62,20.64a.79.79,0,1,1-.78-.73.76.76,0,0,1,.78.73Zm20.71,0a.76.76,0,0,1-.78.73.73.73,0,1,1,0-1.46.76.76,0,0,1,.78.73ZM17.19,29.5a.73.73,0,1,1-.78.72.75.75,0,0,1,.78-.72Zm0-19.17a.73.73,0,1,1-.78.73.76.76,0,0,1,.78-.73Zm-5.12,2.1a.46.46,0,0,1-.61-.15.4.4,0,0,1,.16-.57.48.48,0,0,1,.62.16.39.39,0,0,1-.17.56ZM22.76,29.57a.46.46,0,0,1-.61-.16.39.39,0,0,1,.17-.56.46.46,0,0,1,.61.15.4.4,0,0,1-.17.57ZM8.32,15.9a.46.46,0,0,1-.61.15.4.4,0,0,1-.17-.56.48.48,0,0,1,.62-.16.4.4,0,0,1,.16.57Zm18.52,9.9a.47.47,0,0,1-.61.15.4.4,0,0,1-.17-.57.47.47,0,0,1,.62-.15.4.4,0,0,1,.16.57ZM8.32,25.38a.4.4,0,0,1-.16.57.48.48,0,0,1-.62-.15.41.41,0,0,1,.17-.57.46.46,0,0,1,.61.15Zm18.52-9.89a.39.39,0,0,1-.16.56.47.47,0,0,1-.62-.15.4.4,0,0,1,.17-.57.47.47,0,0,1,.61.16ZM12.07,28.85a.39.39,0,0,1,.17.56.47.47,0,0,1-.62.16.4.4,0,0,1-.16-.57.46.46,0,0,1,.61-.15ZM22.76,11.71a.4.4,0,0,1,.17.57.46.46,0,0,1-.61.15.39.39,0,0,1-.17-.56.47.47,0,0,1,.61-.16Zm-8.45-.44a.3.3,0,0,1-.23-.37.34.34,0,0,1,.4-.22.3.3,0,0,1,.23.37.34.34,0,0,1-.4.22Zm5.6,19.33a.3.3,0,0,1-.23-.37.31.31,0,0,1,.39-.21.3.3,0,0,1,.24.37.35.35,0,0,1-.4.21ZM9.63,13.86a.33.33,0,0,1-.4-.22.31.31,0,0,1,.23-.37.34.34,0,0,1,.4.22.3.3,0,0,1-.23.37ZM24.93,28a.3.3,0,0,0,.22-.37.31.31,0,0,0-.39-.21.3.3,0,0,0-.24.37.34.34,0,0,0,.41.21ZM7,18.26a.34.34,0,0,1-.46,0,.27.27,0,0,1,0-.42.34.34,0,0,1,.46,0,.29.29,0,0,1,0,.42Zm20.89,5.18a.34.34,0,0,1-.46,0,.27.27,0,0,1,0-.42.34.34,0,0,1,.46,0,.27.27,0,0,1,0,.42ZM7.06,23.31a.32.32,0,0,1-.4.21.31.31,0,0,1-.23-.37.34.34,0,0,1,.4-.21.3.3,0,0,1,.23.37ZM28,18.13a.32.32,0,0,1-.39.21.31.31,0,0,1-.24-.37.34.34,0,0,1,.4-.21.29.29,0,0,1,.23.37ZM9.86,27.64a.3.3,0,0,1-.23.37.34.34,0,0,1-.4-.21.3.3,0,0,1,.23-.37.32.32,0,0,1,.4.21ZM25.15,13.49a.3.3,0,0,1-.22.37.34.34,0,0,1-.41-.22.31.31,0,0,1,.24-.37.33.33,0,0,1,.39.22ZM14.62,30.09a.29.29,0,0,1,0,.43.34.34,0,0,1-.46,0,.3.3,0,0,1,0-.43.36.36,0,0,1,.46,0Zm5.6-19.33a.29.29,0,0,1,0,.43.34.34,0,0,1-.46,0,.3.3,0,0,1,0-.43.36.36,0,0,1,.46,0Zm-3,11a1.08,1.08,0,0,0,1.07-1.48,1,1,0,0,0-.43-.48,1.18,1.18,0,0,0-.42-.16,1.29,1.29,0,0,0-.7.07,1.09,1.09,0,0,0-.68,1,1.12,1.12,0,0,0,1.16,1.07Zm.48-2.44a1.46,1.46,0,0,1,.64.37l6.93-3.17,0,0-6.52,4v.1a1.5,1.5,0,0,1-1.56,1.45,1.72,1.72,0,0,1-.68-.14L12.6,28.21,12.28,28l3.92-6.28a1.41,1.41,0,0,1-.57-1.12,1.45,1.45,0,0,1,1.08-1.37L17.16,15h.06Zm8.92-9.69.22-.35c.36.16.59.24.62.2l.47-1.07-.45-.08c-2,2.3.22.12-.61-.32s-.84-.65-.94-.61l-.41.15-1.2.26s.17.18.5.39l-.15.23a15.9,15.9,0,0,1,1.95,1.2"/><path class="cls-4" d="M33.14,5a5.62,5.62,0,0,1,1.5,1h0l-.28.56-1.9,2.92s-.26,0-.61-.2l-.22.36a15.5,15.5,0,0,0-1.95-1.21l.15-.23c-.33-.21-.53-.35-.5-.39l2.18-3.5h0A6.25,6.25,0,0,1,33.14,5ZM22.22,2.29a12,12,0,0,0-3.4.27h0V5.85c0,.11.7-1.54,2-1.5l-1-.8c.42,0-2.79-1.29-.11,1.16.32.29-.58-1-.16-.91l.18.73c1.25,0,0-2.24.08-2.23l3.13.58-.6.16L19.54,4.12C19.41,4,24,2.29,22.22,2.29Zm0,7.62c6.41,0,11.6,4.8,11.6,10.73s-5.19,10.73-11.6,10.73-11.6-4.8-11.6-10.73S15.81,9.91,22.22,9.91Zm0-2.51c-7.9,0-14.31,5.93-14.31,13.24s6.41,13.24,14.31,13.24S36.53,28,36.53,20.64,30.12,7.4,22.22,7.4Zm9.57,13.24a.79.79,0,1,0,.79-.73.76.76,0,0,0-.79.73Zm-20.71,0a.79.79,0,1,0,.79-.73.76.76,0,0,0-.79.73ZM22.22,29.5a.73.73,0,1,0,0,1.45.73.73,0,1,0,0-1.45Zm0-19.17a.73.73,0,1,0,0,1.46.73.73,0,1,0,0-1.46Zm5.12,2.1a.47.47,0,0,0,.62-.15.4.4,0,0,0-.17-.57.47.47,0,0,0-.61.16.39.39,0,0,0,.16.56ZM16.65,29.57a.46.46,0,0,0,.61-.16.38.38,0,0,0-.16-.56.46.46,0,0,0-.61.15.4.4,0,0,0,.16.57ZM31.09,15.9a.47.47,0,0,0,.62.15.4.4,0,0,0,.16-.56.48.48,0,0,0-.62-.16.41.41,0,0,0-.16.57ZM12.57,25.8a.48.48,0,0,0,.62.15.41.41,0,0,0,.16-.57.46.46,0,0,0-.61-.15.4.4,0,0,0-.17.57Zm18.52-.42a.41.41,0,0,0,.16.57.48.48,0,0,0,.62-.15.41.41,0,0,0-.16-.57.47.47,0,0,0-.62.15ZM12.57,15.49a.39.39,0,0,0,.17.56.46.46,0,0,0,.61-.15.41.41,0,0,0-.16-.57.48.48,0,0,0-.62.16ZM27.34,28.85a.39.39,0,0,0-.16.56.46.46,0,0,0,.61.16A.4.4,0,0,0,28,29a.47.47,0,0,0-.62-.15ZM16.65,11.71a.4.4,0,0,0-.16.57.46.46,0,0,0,.61.15.38.38,0,0,0,.16-.56.47.47,0,0,0-.61-.16Zm8.46-.44a.3.3,0,0,0,.22-.37.33.33,0,0,0-.39-.22.3.3,0,0,0-.23.37.33.33,0,0,0,.4.22ZM19.51,30.6a.31.31,0,0,0,.23-.37.33.33,0,0,0-.4-.21.29.29,0,0,0-.23.37.34.34,0,0,0,.4.21ZM29.78,13.86a.32.32,0,0,0,.4-.22.3.3,0,0,0-.23-.37.33.33,0,0,0-.39.22.3.3,0,0,0,.22.37ZM14.49,28a.3.3,0,0,1-.23-.37.32.32,0,0,1,.4-.21.3.3,0,0,1,.23.37.34.34,0,0,1-.4.21Zm17.95-9.75a.34.34,0,0,0,.46,0,.29.29,0,0,0,0-.42.34.34,0,0,0-.46,0,.27.27,0,0,0,0,.42Zm-20.9,5.18a.35.35,0,0,0,.47,0A.29.29,0,0,0,12,23a.35.35,0,0,0-.47,0,.29.29,0,0,0,0,.42Zm20.81-.13a.33.33,0,0,0,.4.21.29.29,0,0,0,.23-.37.33.33,0,0,0-.4-.21.31.31,0,0,0-.23.37ZM11.46,18.13a.34.34,0,0,0,.4.21.31.31,0,0,0,.23-.37.34.34,0,0,0-.4-.21.31.31,0,0,0-.23.37Zm18.1,9.51a.3.3,0,0,0,.22.37.33.33,0,0,0,.4-.21.29.29,0,0,0-.23-.37.31.31,0,0,0-.39.21ZM14.26,13.49a.3.3,0,0,0,.23.37.33.33,0,0,0,.4-.22.31.31,0,0,0-.23-.37.34.34,0,0,0-.4.22Zm10.53,16.6a.29.29,0,0,0,0,.43.34.34,0,0,0,.46,0,.29.29,0,0,0,0-.43.36.36,0,0,0-.46,0Zm-5.6-19.33a.29.29,0,0,0,0,.43.34.34,0,0,0,.46,0,.29.29,0,0,0,0-.43.36.36,0,0,0-.46,0Zm3,11a1.08,1.08,0,0,1-1.07-1.48,1.11,1.11,0,0,1,.43-.48,1.31,1.31,0,0,1,.43-.16,1.25,1.25,0,0,1,.69.07,1.09,1.09,0,0,1,.68,1,1.12,1.12,0,0,1-1.16,1.07Zm-.47-2.44a1.56,1.56,0,0,0-.65.37l-6.93-3.17,0,0,6.51,4v.1a1.51,1.51,0,0,0,1.56,1.45A1.72,1.72,0,0,0,22.9,22l3.91,6.26.33-.17-3.93-6.28a1.42,1.42,0,0,0,.58-1.12,1.46,1.46,0,0,0-1.09-1.37L22.25,15h-.06ZM12.82,9.58l-.22-.35c-.35.16-.59.24-.61.2l-.89-.7.37-.58c3-.21.41.27,1.23-.17s.37.29.47.33l.37-1.07,1.59.52s-.18.18-.5.39l.14.23a17.57,17.57,0,0,0-1.95,1.2"/><path class="cls-3" d="M39.47,25.91A19.72,19.72,0,1,0,19.75,45.62,19.71,19.71,0,0,0,39.47,25.91"/><path class="cls-5" d="M39.47,25.91A19.72,19.72,0,1,0,19.75,45.62,19.71,19.71,0,0,0,39.47,25.91"/><path class="cls-6" d="M37.87,25.91A18.11,18.11,0,1,1,32.56,13.1a18.12,18.12,0,0,1,5.31,12.81Zm0,0"/><path class="cls-1" d="M16.29,9.36c0,.11.12.22.66.59a3.31,3.31,0,0,1,1.38,1.85c.37,1.6-.64,3.33-2.7,4.59l-1.29.72a35,35,0,0,0-3.26,2c-.94.66-1.13.83-1.08,1a6.35,6.35,0,0,0,1.56,1.07,3,3,0,0,0,.62-.43c.29-.23,1.21-.91,2.05-1.52,2.85-2,3.71-2.81,4.57-4.15a4.78,4.78,0,0,0,.86-2.67,2.16,2.16,0,0,0-.27-1,2,2,0,0,0-.62-1,5.18,5.18,0,0,0-2.1-1.15c-.33-.07-.39-.06-.38.08Zm0,0"/><path class="cls-1" d="M13.69,14.05a16.14,16.14,0,0,0,.85,2.37.28.28,0,0,0,.17.11,4.4,4.4,0,0,0,.9-.5c.07-.11-.07-.33-.7-1.09-.85-1-1.18-1.25-1.22-.89Zm0,0"/><path class="cls-1" d="M23,10.63a16,16,0,0,1-4.89,6.56c-.33.27-1.32,1-2.19,1.58a36.62,36.62,0,0,0-3.36,2.5c-.36.35-.32.42.7,1.09a5.57,5.57,0,0,0,1,.56,3.76,3.76,0,0,0,.57-.41c.25-.23,1-.8,1.57-1.29A35.35,35.35,0,0,0,20.1,18a16.66,16.66,0,0,0,3.45-7.84,1,1,0,0,0,0-.51c-.07-.1-.14,0-.54,1Zm0,0"/><path class="cls-1" d="M7.18,19.44c-.11.28,1.94,2.79,3.5,4.28a41.54,41.54,0,0,0,6.46,5c3.29,2.13,3.43,2.22,4.79,2.69a15.69,15.69,0,0,1,1.74,1l2.88,1.78,2.07,1.27c1.31.84,1.74.92,2.89.59.29-.08-.88-1.22.16-.8s.12,0,.83,0c.46,0-4.86-1.34-1,.11.15-.25,1.17-1,.56-1.25s1.19.92.62.46.46-.22.56-.83A2.41,2.41,0,0,0,33,32a1.59,1.59,0,0,0-.55-.83c-.28-.24-2.76-1.8-3.59-2.26a2.73,2.73,0,0,0-1.3-.24,3.54,3.54,0,0,0-1.5.64,4.4,4.4,0,0,0-.85,1.05c-.19.35-.3.32-1.5-.42-3.68-2.28-11.46-7.25-11.51-7.36s-.54-.37-1.19-.8c-1.59-1-2.1-1.39-2.8-1.87s-1-.65-1.07-.46Zm13.21,9.14a.58.58,0,0,1-.34,1.11.52.52,0,0,1-.49-.37.59.59,0,0,1,.83-.74ZM28,30.41a14,14,0,0,1,1.28.74l1.59,1c.47.3.57.38.7.64a.8.8,0,0,1,.12.61,1.19,1.19,0,0,1-1,1c-.27,0-.53-.14-2.33-1.28a12.28,12.28,0,0,1-1.49-1,1.11,1.11,0,0,1,.59-1.7.68.68,0,0,1,.54,0Zm0,0"/><path class="cls-1" d="M7.61,22.47a9.1,9.1,0,0,0-.53,1.08,8.07,8.07,0,0,0-.32,4.63c.28,1.57.5,1.47.75-.33A6.52,6.52,0,0,1,8,25.91a9,9,0,0,1,.88-1.7c.37-.54.48-.75.45-.84A8.06,8.06,0,0,0,8.1,22c-.16,0-.22,0-.49.43Zm0,0"/><path class="cls-1" d="M22.76,16.28c-.1.13-.38.53-.63.9a16.42,16.42,0,0,1-2.31,2.64c-.21.19-1.28,1.09-2.37,2s-2,1.67-2,1.72,0,.28.52.62.79.49.9.44,2.94-3,3.52-3.63a13.81,13.81,0,0,0,2.25-3.4c.37-.82.58-1.6.39-1.52a1,1,0,0,0-.22.25Zm0,0"/><path class="cls-1" d="M9.56,24.49a7.05,7.05,0,0,0,0,8.35,12.47,12.47,0,0,0,2.69,2.74c.84.72,1.72,1.5,2,1.74a9.16,9.16,0,0,1,2,3.12c.36,1.06.59,1,1.22-.38A6.3,6.3,0,0,0,18,36.65a5.19,5.19,0,0,0-.47-1.59,11.79,11.79,0,0,0-1.66-3,8,8,0,0,1-1.1-2.48,6.41,6.41,0,0,1-.06-1.47c.05-.26-.09-.45-.76-.94l-.74-.54c-.28-.14-.52.32-.71,1.35a11,11,0,0,0,.41,4.82c.28,1,.22,1-.46.08a5.33,5.33,0,0,1-.85-1.54,4.53,4.53,0,0,1-.48-1.49,7,7,0,0,1,.59-3.66,1.63,1.63,0,0,0,.2-.55,2.51,2.51,0,0,0-.37-.36l-.88-.76c-.52-.47-.63-.55-.76-.49a1.68,1.68,0,0,0-.33.42Zm0,0"/><path class="cls-1" d="M18.51,23.78a7.28,7.28,0,0,0-.74.85c-.06.13-.05.23.09.54l.16.38.85.55c1.9,1.24,2.32,1.48,2.4,1.35A37.24,37.24,0,0,0,19.57,23c-.17-.08-.36.07-1.06.78Zm0,0"/><path class="cls-1" d="M20.42,32c.07.23.2.57.28.77.24.57.2.67-.42.91a2.59,2.59,0,0,0-1.18.82,2.89,2.89,0,0,0-.6,1.39c-.06.6.06,1,1,3.19.82,2,.86,2,1.13,2.34a2.68,2.68,0,0,0,2.93.71,2.74,2.74,0,0,0,1.26-.87A2.53,2.53,0,0,0,25.28,39c-.09-.37-.83-2.33-2-5.18l-.48-1.22-.38-.25a6,6,0,0,0-.72-.4,6.11,6.11,0,0,0-1.36-.39c-.06,0,0,.17.05.42Zm1,3.17a1.27,1.27,0,0,1,.46.21c.21.18.23.24,1,2.13.89,2.15.92,2.25.66,2.65a1.15,1.15,0,0,1-1.5.32c-.28-.2-.45-.54-1.27-2.63-.63-1.6-.65-1.65-.6-1.89a1.12,1.12,0,0,1,1.24-.79Zm0,0"/><path class="cls-1" d="M23.82,30a6.77,6.77,0,0,1,.7.41c.52.33.63.3,1-.26a2.63,2.63,0,0,1,1-1A2.94,2.94,0,0,1,28,28.73c.6,0,1,.23,3,1.51,1.79,1.14,1.85,1.19,2.11,1.51a2.68,2.68,0,0,1,.2,3,2.71,2.71,0,0,1-1.06,1.09,2.55,2.55,0,0,1-2.3.09c-.34-.15-2.15-1.21-4.77-2.82L24,32.44,23.83,32a5,5,0,0,1-.26-.77,5.89,5.89,0,0,1-.16-1.41c0-.05.17,0,.41.12Zm2.94,1.54a1.18,1.18,0,0,0,.14.49c.14.24.19.27,1.92,1.36,2,1.24,2.05,1.28,2.5,1.1A1.15,1.15,0,0,0,31.89,33c-.15-.3-.46-.52-2.37-1.69-1.48-.9-1.52-.92-1.76-.91a1.11,1.11,0,0,0-1,1.08Zm0,0"/><path class="cls-3" d="M55.59,18.79l-1.83,1.9A5.82,5.82,0,0,0,50,18.79a2.5,2.5,0,0,0-1.79.7,2.09,2.09,0,0,0-.73,1.65,2.36,2.36,0,0,0,.8,1.73,16.33,16.33,0,0,0,2.89,1.82,10.47,10.47,0,0,1,3.18,2.38,4.79,4.79,0,0,1,1.14,3.21,5.49,5.49,0,0,1-1.69,4.07A5.58,5.58,0,0,1,49.72,36,7,7,0,0,1,44,33.11l1.79-2a5.15,5.15,0,0,0,3.8,2.17,3.16,3.16,0,0,0,2.24-.86,2.66,2.66,0,0,0,.93-2,2.43,2.43,0,0,0-.86-1.93A12.42,12.42,0,0,0,49,26.66a10.11,10.11,0,0,1-3.11-2.28,5.13,5.13,0,0,1-1-3.31,4.77,4.77,0,0,1,1.48-3.52,5.51,5.51,0,0,1,4-1.44q2.49,0,5.25,2.68Zm0,0"/><path class="cls-3" d="M67.79,19.07H64.06V32.25q0,.72.21.9a2.38,2.38,0,0,0,1,.13H67v2.45a16,16,0,0,1-2.52.28,3.34,3.34,0,0,1-2.45-.8,3.61,3.61,0,0,1-.79-2.58V19.07H58V16.58H61.2V9.51h2.86v7.07h3.73Zm0,0"/><path class="cls-3" d="M86.89,16.58,75.75,42h-3l3.63-8.27L68.78,16.58h3l6.18,13.77,6-13.77Zm0,0"/><rect class="cls-3" x="88.97" y="9.51" width="2.83" height="25.87"/><path class="cls-3" d="M114.78,26.49H98.29a7.38,7.38,0,0,0,2.07,5A6.4,6.4,0,0,0,105,33.35q4.51,0,6.9-4.45l2.41,1.24a11.93,11.93,0,0,1-3.83,4.45A9.5,9.5,0,0,1,105.16,36a9.26,9.26,0,0,1-7-2.9,9.9,9.9,0,0,1-2.76-7,9.89,9.89,0,0,1,2.76-7,9.12,9.12,0,0,1,6.9-2.93,9.27,9.27,0,0,1,6.87,2.79,10.6,10.6,0,0,1,2.86,7.59ZM111.61,24a6.09,6.09,0,0,0-2.35-3.76,6.9,6.9,0,0,0-4.21-1.35c-3.22,0-5.36,1.71-6.42,5.11Zm0,0"/><path class="cls-6" d="M127.35,19.07h-3.73V32.25q0,.72.21.9a2.38,2.38,0,0,0,1,.13h1.66v2.45A15.92,15.92,0,0,1,124,36a3.3,3.3,0,0,1-2.44-.8,3.56,3.56,0,0,1-.8-2.58V19.07h-3.24V16.58h3.24V9.51h2.86v7.07h3.73Zm0,0"/><path class="cls-6" d="M131.48,9.51a2.24,2.24,0,0,1,2.21,2.21,2.19,2.19,0,0,1-3.76,1.52,2.16,2.16,0,0,1-.62-1.52,2.21,2.21,0,0,1,.62-1.55,2.13,2.13,0,0,1,1.55-.66Zm1.45,25.88h-2.86V16.58h2.86Zm0,0"/><path class="cls-6" d="M165.16,35.39h-2.9V25.14a14.82,14.82,0,0,0-.31-3.59,3.34,3.34,0,0,0-1.27-1.9,4,4,0,0,0-2.59-.79,5,5,0,0,0-3,1,5.36,5.36,0,0,0-2,2.83,18.59,18.59,0,0,0-.55,5.24v7.42h-2.79V25.76a18.43,18.43,0,0,0-.32-4.07,3.52,3.52,0,0,0-1.27-2,4,4,0,0,0-2.52-.79,5,5,0,0,0-2.9,1,5.61,5.61,0,0,0-2,2.48,14,14,0,0,0-.65,5.07v8h-2.83V16.58h2.83v2.66a7.32,7.32,0,0,1,6-3.13,6.26,6.26,0,0,1,3.56,1.06,5.66,5.66,0,0,1,2.31,3,8.36,8.36,0,0,1,2.93-3,7.23,7.23,0,0,1,3.72-1A6.21,6.21,0,0,1,163.26,18q1.91,1.91,1.9,7.14Zm0,0"/><path class="cls-6" d="M188.15,26.49H171.66a7.42,7.42,0,0,0,2.07,5,6.4,6.4,0,0,0,4.59,1.86q4.53,0,6.9-4.45l2.42,1.24a11.93,11.93,0,0,1-3.83,4.45A9.54,9.54,0,0,1,178.53,36a9.28,9.28,0,0,1-7-2.9,9.89,9.89,0,0,1-2.75-7,9.88,9.88,0,0,1,2.75-7,9.16,9.16,0,0,1,6.91-2.93,9.27,9.27,0,0,1,6.86,2.79,10.56,10.56,0,0,1,2.86,7.59ZM185,24a6.09,6.09,0,0,0-2.35-3.76,6.89,6.89,0,0,0-4.2-1.35c-3.23,0-5.36,1.71-6.42,5.11Zm0,0"/><path class="cls-6" d="M200,16.86l-1.48,2.42a2.39,2.39,0,0,0-1.14-.31A2.45,2.45,0,0,0,195.45,20a6.83,6.83,0,0,0-1.31,2.76,29.67,29.67,0,0,0-.42,6.14v6.45h-2.89V16.58h2.89v2a7.36,7.36,0,0,1,1.73-1.89,3.38,3.38,0,0,1,2-.62,5.53,5.53,0,0,1,2.55.75Zm0,0"/></svg>