<svg id="Layer_1" data-name="Layer 1" xmlns="http://www.w3.org/2000/svg" viewBox="0 0 294.67 79.33"><defs><style>.cls-1{fill:#00b3bf;isolation:isolate;}.cls-2{fill:#4d4d4d;}.cls-3{fill:#fff;}</style></defs><title>footer_logo_icon</title><circle class="cls-1" cx="35.06" cy="44.4" r="30.42"/><path class="cls-2" d="M31.11,1.7a25,25,0,0,0-3,.33l-.4.1,0,3.6c0,3.47,0,3.59.1,3.64a15.47,15.47,0,0,0,3.53.4l.89.05,0,.56,0,.57.67,0c.88-.06,3.13-.06,4.08,0l.75,0V9.81l.92,0a14,14,0,0,0,3.53-.42l.14-.09V2.17l-.26-.09a14.21,14.21,0,0,0-2.33-.33c-1-.08-7.47-.12-8.64-.05Z"/><path class="cls-2" d="M14.74,8.36a26.28,26.28,0,0,0-4.17,2.27.85.85,0,0,0-.22.28A14.66,14.66,0,0,0,12,13.75c1.89,2.91,1.92,3,2,3a1.22,1.22,0,0,0,.26-.06c.18,0,.19,0,.39.3s.23.32.28.3l.8-.55c.8-.55,1.75-1.14,2.65-1.63.33-.18.62-.35.65-.38s0-.13-.07-.23l-.12-.2.36-.3L17.39,11a26.07,26.07,0,0,0-1.94-2.93,4.56,4.56,0,0,0-.71.24Z"/><path class="cls-2" d="M52.66,10.91c-1,1.55-1.78,2.86-1.8,2.92s0,.15.11.28l.15.17-.12.2-.13.2.3.15a37,37,0,0,1,3.65,2.26c.18.13.29.19.32.15s.12-.2.21-.36.2-.28.26-.26l.26.07c.17,0,.19,0,1.06-1.35l1.62-2.51c.4-.62.82-1.32.93-1.55l.2-.42-.23-.2a24,24,0,0,0-4.84-2.54l-.19,0Z"/><path class="cls-2" d="M33.16,11.14l-1.28.12A32.62,32.62,0,0,0,8.49,24.9,33.52,33.52,0,0,0,2.37,42.09a52.73,52.73,0,0,0,.1,5.76,33.37,33.37,0,0,0,7.5,18,43,43,0,0,0,3.76,3.88,32.71,32.71,0,0,0,18.93,7.92c1.05.07,3.77.07,4.77,0A32.07,32.07,0,0,0,49.7,74.19,31.44,31.44,0,0,0,58.15,68a27.77,27.77,0,0,0,3.06-3.53,33.32,33.32,0,0,0,6.52-17.62c.08-1,.08-3.82,0-4.85A33.39,33.39,0,0,0,57.11,19.77,32.34,32.34,0,0,0,38,11.22c-.61-.05-4.24-.11-4.85-.07Zm5.13,2.69A29.86,29.86,0,0,1,59,25.78a31.08,31.08,0,0,1,5,10.54,28.6,28.6,0,0,1,.95,7.07,29.41,29.41,0,0,1-1.5,10.24,30.23,30.23,0,0,1-5.28,9.72,38.63,38.63,0,0,1-4.11,4.18,29.59,29.59,0,0,1-41.68-3.68,30.46,30.46,0,0,1-2.62-3.66,30.79,30.79,0,0,1,.45-33A29.81,29.81,0,0,1,33,13.73c.72-.06,4.46,0,5.25.1Z"/><path class="cls-3" d="M29.4,16.45c0,.21.1.3,1,1a5.87,5.87,0,0,1,2.31,2.93,3.4,3.4,0,0,1,.13,1.27,4.47,4.47,0,0,1-.57,2.4,9.66,9.66,0,0,1-3.49,3.77c-.27.18-1.47.88-2.66,1.53s-2.56,1.45-3.06,1.75a32.92,32.92,0,0,0-3.79,2.64c-.35.33-.34.45.09.8a19.07,19.07,0,0,0,1.93,1.29l.28.14.3-.2c.16-.11.66-.47,1.1-.82s1.78-1.33,3-2.2a40,40,0,0,0,5.77-4.62A11.53,11.53,0,0,0,34.75,23a6.24,6.24,0,0,0,.13-1.88,7.29,7.29,0,0,0-.68-1.86,2.84,2.84,0,0,0-.65-.88,8.15,8.15,0,0,0-3.85-2.07l-.3,0Z"/><path class="cls-3" d="M41,17.43c-.13.3-.4,1-.62,1.46a25.57,25.57,0,0,1-6,8.75,36.67,36.67,0,0,1-5.82,4.56c-3.45,2.37-5.7,4.13-5.7,4.46s.4.54,1.3,1.14a8.62,8.62,0,0,0,1.85,1c.15,0,.31-.13,1.59-1.18L29.67,36A44.77,44.77,0,0,0,36.18,30a24,24,0,0,0,3.71-6.93,31.49,31.49,0,0,0,1.46-5.83c0-.53-.11-.48-.39.16Z"/><path class="cls-3" d="M25.15,24.1c-.08.14,0,.46.32,1.47a20,20,0,0,0,1.05,2.65.41.41,0,0,0,.21.15,8.5,8.5,0,0,0,1.37-.72c.27-.22.16-.45-.9-1.73a12.62,12.62,0,0,0-1.63-1.72c-.25-.18-.35-.21-.42-.1Z"/><path class="cls-3" d="M40.19,27.92c-.11.13-.47.63-.8,1.11-2.08,3-3.2,4.14-7.63,7.77-2.34,1.92-3.67,3-3.8,3.21s-.11.26.05.45a7.24,7.24,0,0,0,2.1,1.3c.15,0,.33-.15,1.44-1.28,1.53-1.55,3.62-3.73,4.29-4.49a22.93,22.93,0,0,0,4.09-6.26c.43-1,.68-2.05.5-2.05a1,1,0,0,0-.25.24Z"/><path class="cls-3" d="M14.39,33.5c-.09.11,0,.27.22.69a43.39,43.39,0,0,0,5.33,6.24c3.1,3,6.11,5.3,12.11,9.18,3.83,2.47,4.36,2.78,6.07,3.41A28.77,28.77,0,0,1,43,55.76c1.31.82,3.55,2.19,5,3.06,3.8,2.34,3.67,2.28,5.28,2.28a3.77,3.77,0,0,0,1.6-.17A4.44,4.44,0,0,0,57.4,58.7,4.72,4.72,0,0,0,57.92,56a5.24,5.24,0,0,0-2.71-3.7c-.47-.31-1.53-1-2.37-1.51-2.74-1.71-3-1.83-3.87-2A3.8,3.8,0,0,0,47.2,49a5.11,5.11,0,0,0-2.93,2.41c-.31.49-.33.51-.54.51s-.28,0-1.59-.78C39.55,49.62,25,40.35,22.76,38.78c-.4-.28-1.77-1.2-3.05-2.05l-3.35-2.24a8.17,8.17,0,0,0-1.82-1.08.24.24,0,0,0-.15.09Zm21.9,15.24a.85.85,0,0,1,.32,1.16,1,1,0,0,1-1.4.45.93.93,0,0,1-.33-.26,1,1,0,0,1,0-1.23.9.9,0,0,1,.83-.3.82.82,0,0,1,.56.18Zm12.65,3.12c.65.31,4.57,2.7,5.14,3.14a1.91,1.91,0,0,1,.48.58,1.21,1.21,0,0,1,.2.76,2,2,0,0,1-.61,1.42,1.34,1.34,0,0,1-1.09.52,61.16,61.16,0,0,1-5.84-3.62,1.63,1.63,0,0,1-.46-1.81,2.15,2.15,0,0,1,1-1.07,1.25,1.25,0,0,1,1.17.08Z"/><path class="cls-3" d="M15.48,37.88a11.44,11.44,0,0,0-1.82,4,15.2,15.2,0,0,0,.13,6.61c.39,1.77.65,1.51,1-1a11.46,11.46,0,0,1,.83-3.19,15.79,15.79,0,0,1,1.53-3c.7-1.08.76-1.21.71-1.39a13.88,13.88,0,0,0-1.61-1.82c-.41-.4-.59-.45-.8-.24Z"/><path class="cls-3" d="M34.32,39.42a17.61,17.61,0,0,0-2.45,2.51c-.15.25-.13.39.11,1l.22.54.5.33c1.52,1,3.76,2.44,4.33,2.72s.58.22.45-.27c-.23-.83-2.16-5.86-2.54-6.61-.19-.39-.29-.42-.62-.23Z"/><path class="cls-3" d="M18.75,41.65a6,6,0,0,0-.57.76,11.53,11.53,0,0,0-1,11.75c1.07,2.24,2.18,3.52,5.71,6.57a35,35,0,0,1,4.13,4,14.6,14.6,0,0,1,2.2,3.78c.36,1,.56,1.3.8,1.3s.56-.45,1-1.41a10.11,10.11,0,0,0,1.2-5.2,8.37,8.37,0,0,0-.83-3.44,21.77,21.77,0,0,0-2.76-4.94,13.41,13.41,0,0,1-1.82-4.24A11.35,11.35,0,0,1,26.73,49v-1.1l-.16-.21a10.39,10.39,0,0,0-2.46-1.82c-.4,0-.74.82-1,2.45a21.34,21.34,0,0,0,0,4.59,25.91,25.91,0,0,0,.66,3c.28,1.05.33,1.33.21,1.33A9.29,9.29,0,0,1,22.24,55,30.66,30.66,0,0,1,21,52.11a7.54,7.54,0,0,1-.25-2.59,11.22,11.22,0,0,1,1-4.26c.21-.53.4-1,.4-1a6.32,6.32,0,0,0-.6-.56L20.09,42.4c-1-.85-1.11-.93-1.34-.76Z"/><path class="cls-3" d="M36.07,54a4.93,4.93,0,0,0,.44,1.54c.38,1,.4,1.1.31,1.33s-.06.18-1.3.76A4.11,4.11,0,0,0,33.2,60.3,2.69,2.69,0,0,0,33,61.42c0,.88.23,1.56,1.79,5.28a14.31,14.31,0,0,0,1.63,3.39,4.29,4.29,0,0,0,3.85,1.46,4.74,4.74,0,0,0,2.79-1.32,3.89,3.89,0,0,0,1-1.62,5.08,5.08,0,0,0,.11-2.26c-.15-.66-1.07-3.09-3.08-8.22l-1-2.47-.48-.32a9.25,9.25,0,0,0-2.39-1.1c-.89-.28-1.16-.32-1.21-.25Zm2.06,6c.68.25.77.4,1.83,3,1.38,3.32,1.63,4,1.64,4.5a1.56,1.56,0,0,1-1.16,1.36,1.62,1.62,0,0,1-1.72-.32c-.34-.34-.7-1.09-1.7-3.61-1.31-3.29-1.35-3.43-1.07-4A1.79,1.79,0,0,1,38.13,60Z"/><path class="cls-2" d="M91.59,24.73l-2.51,2.62c-1.87-1.74-3.58-2.62-5.13-2.62a3.43,3.43,0,0,0-2.47,1,3,3,0,0,0-1,2.28,3.21,3.21,0,0,0,1.09,2.37,24,24,0,0,0,4,2.52,14.2,14.2,0,0,1,4.38,3.27,6.49,6.49,0,0,1,1.56,4.42,7.56,7.56,0,0,1-2.33,5.61,7.7,7.7,0,0,1-5.65,2.27,9.57,9.57,0,0,1-7.83-4l2.47-2.75q2.57,3,5.22,3a4.38,4.38,0,0,0,3.09-1.19,3.68,3.68,0,0,0,1.28-2.75,3.39,3.39,0,0,0-1.19-2.66,17.08,17.08,0,0,0-4-2.51,14.06,14.06,0,0,1-4.27-3.14,7,7,0,0,1-1.43-4.56,6.56,6.56,0,0,1,2-4.84,7.53,7.53,0,0,1,5.46-2c2.28,0,4.68,1.24,7.21,3.7Z"/><path class="cls-2" d="M108.47,24.69h-5.13V42.82c0,.67.1,1.08.29,1.23a3.13,3.13,0,0,0,1.42.2h2.28v3.37a23.76,23.76,0,0,1-3.47.38,4.57,4.57,0,0,1-3.37-1.1,5,5,0,0,1-1.09-3.56V24.69H94.94V21.26H99.4V11.53h3.94v9.73h5.13Z"/><path class="cls-2" d="M134.85,21.8l-15.33,35h-4.08l5-11.4L109.92,21.8H114l8.5,18.94,8.21-18.94Z"/><rect class="cls-2" x="137.79" y="11.53" width="3.9" height="35.61"/><path class="cls-2" d="M173.41,35.32h-22.7a10.13,10.13,0,0,0,2.85,6.89,8.78,8.78,0,0,0,6.31,2.57q6.23,0,9.5-6.13l3.33,1.71a16.59,16.59,0,0,1-5.27,6.13,13.3,13.3,0,0,1-7.27,1.94,12.73,12.73,0,0,1-9.64-4,14.24,14.24,0,0,1,0-19.37,12.62,12.62,0,0,1,9.5-4,12.76,12.76,0,0,1,9.45,3.85q3.79,3.8,3.94,10.44ZM169,31.86a8.35,8.35,0,0,0-3.23-5.17A9.51,9.51,0,0,0,160,24.83q-6.65,0-8.83,7Z"/><path class="cls-1" d="M190.81,24.69h-5.13V42.82c0,.67.09,1.08.28,1.23a3.19,3.19,0,0,0,1.43.2h2.28v3.37a23.61,23.61,0,0,1-3.47.38,4.61,4.61,0,0,1-3.37-1.1,5,5,0,0,1-1.09-3.56V24.69h-4.47V21.26h4.47V11.53h3.94v9.73h5.13Z"/><path class="cls-1" d="M196.55,11.53a3.08,3.08,0,0,1,3,3,3,3,0,1,1-5.17-2.14,2.92,2.92,0,0,1,2.14-.9Zm2,35.61H194.6V21.26h3.94Z"/><path class="cls-1" d="M243.06,47.57h-4V33.47a20.46,20.46,0,0,0-.42-4.94,4.55,4.55,0,0,0-1.76-2.61,5.42,5.42,0,0,0-3.56-1.09,6.86,6.86,0,0,0-4.13,1.42,7.29,7.29,0,0,0-2.7,3.9,25.44,25.44,0,0,0-.77,7.21V47.57h-3.84V34.32a25.7,25.7,0,0,0-.43-5.6,4.87,4.87,0,0,0-1.75-2.8,5.42,5.42,0,0,0-3.47-1.09,6.83,6.83,0,0,0-4,1.33,7.65,7.65,0,0,0-2.75,3.41,19.21,19.21,0,0,0-.9,7v11h-3.9V21.69h3.9v3.66a10.09,10.09,0,0,1,8.3-4.32,8.5,8.5,0,0,1,4.9,1.47A7.85,7.85,0,0,1,225,26.58a11.56,11.56,0,0,1,4-4.13A10,10,0,0,1,234.13,21a8.59,8.59,0,0,1,6.32,2.61q2.61,2.61,2.61,9.83Z"/><path class="cls-1" d="M274.93,35.32H252.24a10.13,10.13,0,0,0,2.85,6.89,8.78,8.78,0,0,0,6.32,2.57q6.21,0,9.49-6.13l3.32,1.71A16.58,16.58,0,0,1,269,46.49a13.16,13.16,0,0,1-7.26,1.94,12.71,12.71,0,0,1-9.64-4,14.26,14.26,0,0,1,0-19.37,12.6,12.6,0,0,1,9.49-4A12.78,12.78,0,0,1,271,24.88q3.79,3.8,3.93,10.44Zm-4.37-3.46a8.29,8.29,0,0,0-3.22-5.17,9.54,9.54,0,0,0-5.8-1.86q-6.65,0-8.83,7Z"/><path class="cls-1" d="M291.24,22.07l-2,3.32A3.14,3.14,0,0,0,285,26.44a9.8,9.8,0,0,0-1.8,3.8,41.23,41.23,0,0,0-.57,8.45v8.88h-4V21.69h4v2.8A10.38,10.38,0,0,1,285,21.88a4.82,4.82,0,0,1,2.75-.86,7.6,7.6,0,0,1,3.51,1.05Z"/><path class="cls-2" d="M133.21,59.43v2.14h-.9v1h.9V66.6a2.7,2.7,0,0,0,.54,1.94,2.84,2.84,0,0,0,2,.54H137V68h-1.27a1.39,1.39,0,0,1-1-.26,1.87,1.87,0,0,1-.25-1.18V62.53H137v-1h-2.54V59.43Zm5.4,9.65h1.24V61.57h-1.23v7.51Zm0-8.88h1.24V58.64h-1.23v1.57Zm8.81,1.6a2.27,2.27,0,0,0-1.39-.41,2.86,2.86,0,0,0-1.4.33,2.75,2.75,0,0,0-1,1V61.57h-1.24v7.51h1.24V64.83a2.54,2.54,0,0,1,.56-1.73,1.89,1.89,0,0,1,1.5-.64,1.39,1.39,0,0,1,1.18.52,2.75,2.75,0,0,1,.38,1.61v4.49h1.24V64.84A2.5,2.5,0,0,1,149,63.1a1.89,1.89,0,0,1,1.51-.64,1.39,1.39,0,0,1,1.17.52,2.74,2.74,0,0,1,.38,1.6v4.5h1.24V64.54a3.71,3.71,0,0,0-.64-2.33,2.15,2.15,0,0,0-1.81-.82,2.76,2.76,0,0,0-1.51.4A3.26,3.26,0,0,0,148.27,63a2.4,2.4,0,0,0-.85-1.2Zm13.92.56a3,3,0,0,0-2.4-1,3.46,3.46,0,0,0-2.68,1.08,4.13,4.13,0,0,0-1,2.93,3.57,3.57,0,0,0,3.9,3.87,6.08,6.08,0,0,0,1.41-.14,7.69,7.69,0,0,0,1.36-.43V67.53a5.76,5.76,0,0,1-1.32.52,5.33,5.33,0,0,1-1.38.18,2.63,2.63,0,0,1-1.91-.67,2.86,2.86,0,0,1-.77-1.94h5.67V65a3.77,3.77,0,0,0-.88-2.65Zm-4.75,2.3a2.49,2.49,0,0,1,.72-1.64,2.31,2.31,0,0,1,1.65-.58,1.87,1.87,0,0,1,1.47.6,2.36,2.36,0,0,1,.56,1.61ZM175,61.57h-1.31l-2.35,5.88L169,61.57h-1.31l3,7.39-.22.57a3.2,3.2,0,0,1-.63,1.14,1.22,1.22,0,0,1-.79.24h-.72v1h1a2,2,0,0,0,1.33-.41,4.49,4.49,0,0,0,1-1.75l3.3-8.21Zm6.18,1.65a4.21,4.21,0,0,1,0,4.23,2,2,0,0,1-2.77.38,1.91,1.91,0,0,1-.37-.38,4.18,4.18,0,0,1,0-4.24,2,2,0,0,1,2.75-.37,1.71,1.71,0,0,1,.38.38Zm-4.1-.78a5,5,0,0,0,0,5.79,3.57,3.57,0,0,0,5.06,0h0a5,5,0,0,0,0-5.79A3.57,3.57,0,0,0,177.12,62.44Zm8.57,6a2.39,2.39,0,0,0,2,.8,2.76,2.76,0,0,0,1.38-.33,3.14,3.14,0,0,0,1-1v1.15h1.24V61.57h-1.24v4.26a2.43,2.43,0,0,1-.58,1.73,2,2,0,0,1-1.58.64,1.45,1.45,0,0,1-1.24-.53,2.59,2.59,0,0,1-.42-1.6v-4.5H185v4.54a3.61,3.61,0,0,0,.67,2.36Zm12.5-7-.34-.05-.28,0a3.31,3.31,0,0,0-1.52.33,2.54,2.54,0,0,0-1,1V61.57H193.8v7.51H195v-4a3,3,0,0,1,.56-2,2,2,0,0,1,1.61-.68,2.48,2.48,0,0,1,.54.06,1.77,1.77,0,0,1,.45.18V61.46Zm9.34,0a9.08,9.08,0,0,0-1.28-.1,3.52,3.52,0,0,0-2.14.58,2,2,0,0,0-.75,1.64,1.85,1.85,0,0,0,.51,1.37,3.43,3.43,0,0,0,1.66.74l.43.1a4.14,4.14,0,0,1,1.48.51.93.93,0,0,1,.34.78,1,1,0,0,1-.47.84,2.59,2.59,0,0,1-1.34.3,4.87,4.87,0,0,1-1.31-.18,7.14,7.14,0,0,1-1.35-.53v1.27a9.3,9.3,0,0,0,1.38.35,6.54,6.54,0,0,0,1.25.12,3.81,3.81,0,0,0,2.28-.61,2,2,0,0,0,.83-1.67,1.87,1.87,0,0,0-.55-1.43,4,4,0,0,0-1.87-.79l-.42-.1a3.84,3.84,0,0,1-1.32-.46.79.79,0,0,1-.33-.68.91.91,0,0,1,.46-.84,2.62,2.62,0,0,1,1.38-.28,5,5,0,0,1,1.16.13,5.28,5.28,0,0,1,1.09.4V61.78a7,7,0,0,0-1.11-.3ZM211,59.44v2.13h-.9v1h.9v4.08a2.71,2.71,0,0,0,.55,1.94,2.77,2.77,0,0,0,2,.53h1.26V68h-1.26a1.4,1.4,0,0,1-1-.26,1.87,1.87,0,0,1-.25-1.18V62.53h2.54v-1h-2.54V59.43Zm11.83,2.13h-1.31l-2.34,5.88-2.35-5.88h-1.31l3,7.39-.22.57a3.33,3.33,0,0,1-.62,1.14,1.26,1.26,0,0,1-.8.24h-.72v1h1a2,2,0,0,0,1.32-.41,4.49,4.49,0,0,0,1-1.75l3.3-8.21Zm1.7,7.51h1.23V58.64h-1.23V69.08Zm9.36-6.71a3.11,3.11,0,0,0-2.4-1,3.5,3.5,0,0,0-2.69,1.09,4.15,4.15,0,0,0-1,2.92,3.62,3.62,0,0,0,3.33,3.88,5.42,5.42,0,0,0,.57,0,6.78,6.78,0,0,0,1.42-.15,7.4,7.4,0,0,0,1.36-.43V67.53a5.86,5.86,0,0,1-1.33.53,5.78,5.78,0,0,1-1.37.17,2.64,2.64,0,0,1-1.92-.67,2.84,2.84,0,0,1-.77-1.94h5.68V65a3.83,3.83,0,0,0-.89-2.65Zm-4.75,2.3a2.4,2.4,0,0,1,.71-1.64,2.29,2.29,0,0,1,1.65-.59A1.92,1.92,0,0,1,233,63a2.4,2.4,0,0,1,.57,1.62h-4.4Z"/><rect class="cls-2" x="75.73" y="63.92" width="52.33" height="1.13"/><rect class="cls-2" x="240.01" y="63.92" width="52.33" height="1.13"/></svg>