<?xml version="1.0" encoding="utf-8"?>
<!-- Generator: Adobe Illustrator 16.0.0, SVG Export Plug-In . SVG Version: 6.00 Build 0)  -->
<!DOCTYPE svg PUBLIC "-//W3C//DTD SVG 1.1//EN" "http://www.w3.org/Graphics/SVG/1.1/DTD/svg11.dtd">
<svg version="1.1" id="Layer_1" xmlns="http://www.w3.org/2000/svg" xmlns:xlink="http://www.w3.org/1999/xlink" x="0px" y="0px"
	 width="175px" height="47px" viewBox="0 0 175 47" enable-background="new 0 0 175 47" xml:space="preserve">
<g>
	<g>
		<path fill="#4D4D4D" d="M20.473,1.521c-0.582,0.025-1.161,0.089-1.734,0.189l-0.231,0.058l-0.012,2.083
			c-0.009,2.013-0.009,2.079,0.058,2.111c0.67,0.153,1.354,0.229,2.042,0.23l0.517,0.025l0.009,0.326l0.011,0.329l0.389-0.025
			c0.512-0.035,1.812-0.035,2.362,0l0.433,0.02V6.215l0.533-0.024c0.687,0.008,1.373-0.073,2.039-0.242l0.083-0.05V1.794
			L26.815,1.74c-0.443-0.101-0.893-0.167-1.347-0.191c-0.567-0.047-4.314-0.068-4.99-0.027H20.473z"/>
		<path fill="#4D4D4D" d="M11.011,5.373C10.17,5.738,9.363,6.181,8.603,6.691c-0.055,0.043-0.1,0.097-0.128,0.16
			c0.256,0.583,0.578,1.134,0.958,1.645c1.091,1.686,1.109,1.712,1.152,1.712c0.05-0.005,0.1-0.016,0.147-0.03
			c0.105-0.031,0.109-0.026,0.226,0.17c0.083,0.131,0.136,0.189,0.165,0.175c0.021-0.02,0.227-0.16,0.458-0.318
			c0.468-0.321,1.016-0.66,1.533-0.945c0.192-0.105,0.363-0.204,0.377-0.219c0.014-0.014-0.004-0.074-0.042-0.135L13.381,8.79
			l0.21-0.175L12.542,6.93c-0.333-0.592-0.708-1.158-1.12-1.696C11.281,5.266,11.144,5.313,11.011,5.373L11.011,5.373z"/>
		<path fill="#4D4D4D" d="M32.936,6.852c-0.558,0.895-1.029,1.659-1.044,1.692c-0.022,0.046-0.011,0.084,0.065,0.159l0.085,0.099
			l-0.068,0.115l-0.075,0.116l0.174,0.086c0.728,0.397,1.431,0.835,2.108,1.313c0.107,0.075,0.171,0.105,0.187,0.084
			s0.072-0.116,0.125-0.205c0.067-0.116,0.115-0.167,0.146-0.152c0.049,0.017,0.1,0.029,0.15,0.037c0.099,0.014,0.111,0,0.613-0.78
			c0.283-0.438,0.706-1.093,0.936-1.451c0.23-0.359,0.476-0.764,0.539-0.896l0.116-0.246L36.86,6.707
			c-0.875-0.594-1.815-1.086-2.801-1.468l-0.105-0.018L32.936,6.852z"/>
		<g>
			<ellipse fill="#00b3bf" cx="22.761" cy="26.245" rx="17.581" ry="17.606"/>
			<path fill="#4D4D4D" d="M21.639,7.262c-0.104,0.007-0.441,0.037-0.749,0.068c-5.537,0.539-10.56,3.401-13.767,7.84
				c-2.114,2.904-3.361,6.323-3.602,9.878c-0.043,1.104-0.024,2.211,0.054,3.313c0.39,3.792,1.926,7.386,4.415,10.323
				c0.691,0.786,1.429,1.529,2.212,2.229c3.119,2.645,7.026,4.241,11.144,4.555c0.616,0.043,2.215,0.043,2.808,0
				c2.518-0.176,4.972-0.845,7.219-1.969c1.853-0.906,3.534-2.111,4.975-3.568c0.656-0.624,1.259-1.303,1.799-2.027
				c2.248-2.947,3.581-6.465,3.838-10.131c0.047-0.557,0.047-2.192,0-2.783c-0.344-4.878-2.58-9.444-6.251-12.769
				c-3.086-2.813-7.043-4.543-11.247-4.918c-0.357-0.029-2.498-0.063-2.852-0.041H21.639z M24.659,8.807
				c4.857,0.536,9.265,3.025,12.164,6.866c1.371,1.819,2.376,3.875,2.963,6.06c0.358,1.327,0.546,2.691,0.561,4.064
				c0.06,1.996-0.24,3.99-0.887,5.886c-0.673,2.035-1.726,3.931-3.106,5.591c-0.744,0.858-1.551,1.659-2.417,2.399
				c-7.371,6.032-18.352,5.085-24.527-2.113c-0.569-0.664-1.084-1.366-1.544-2.106c-3.672-5.836-3.571-13.217,0.262-18.951
				c2.993-4.497,7.968-7.367,13.444-7.756c0.422-0.035,2.625,0.011,3.089,0.061H24.659z"/>
		</g>
		<path fill="#FFFFFF" d="M19.489,10.062c0,0.121,0.058,0.174,0.569,0.556c0.621,0.4,1.09,0.998,1.337,1.693
			c0.072,0.238,0.097,0.488,0.075,0.736c0.021,0.484-0.092,0.965-0.328,1.388c-0.464,0.897-1.162,1.652-2.019,2.185
			c-0.154,0.105-0.85,0.506-1.536,0.888c-0.686,0.382-1.483,0.836-1.771,1.013c-0.765,0.457-1.497,0.965-2.192,1.523
			c-0.2,0.193-0.193,0.267,0.051,0.464c0.357,0.273,0.731,0.521,1.119,0.748l0.163,0.083l0.173-0.116
			c0.093-0.063,0.38-0.275,0.636-0.475c0.255-0.201,1.03-0.768,1.717-1.271c1.191-0.79,2.308-1.684,3.336-2.676
			c0.832-0.809,1.439-1.824,1.759-2.94c0.081-0.357,0.108-0.723,0.079-1.089c-0.081-0.376-0.213-0.74-0.392-1.081
			c-0.092-0.192-0.22-0.364-0.378-0.509c-0.62-0.593-1.388-1.007-2.223-1.2l-0.177-0.022L19.489,10.062z"/>
		<path fill="#FFFFFF" d="M26.168,10.627c-0.071,0.171-0.231,0.554-0.358,0.847c-0.78,1.909-1.951,3.634-3.437,5.063
			c-1.032,0.991-2.16,1.877-3.369,2.643c-1.992,1.371-3.291,2.392-3.291,2.581c0,0.114,0.231,0.313,0.752,0.657
			c0.328,0.248,0.686,0.452,1.068,0.605c0.083,0,0.181-0.074,0.92-0.684c0.355-0.295,0.891-0.733,1.187-0.972
			c1.364-1.021,2.626-2.176,3.767-3.442c0.93-1.213,1.655-2.57,2.144-4.019c0.39-1.094,0.672-2.224,0.847-3.37
			c0-0.307-0.066-0.281-0.228,0.093L26.168,10.627z"/>
		<path fill="#FFFFFF" d="M17.032,14.489c-0.048,0.08-0.012,0.265,0.185,0.848c0.164,0.525,0.366,1.039,0.604,1.533
			c0.029,0.043,0.072,0.073,0.122,0.089c0.279-0.112,0.544-0.252,0.796-0.417c0.155-0.129,0.086-0.258-0.521-0.997
			c-0.283-0.361-0.599-0.695-0.944-1c-0.143-0.1-0.205-0.12-0.242-0.058V14.489z"/>
		<path fill="#FFFFFF" d="M25.724,16.698c-0.064,0.079-0.272,0.367-0.463,0.646c-1.2,1.736-1.851,2.395-4.41,4.494
			c-1.351,1.111-2.121,1.762-2.197,1.859c-0.071,0.088-0.063,0.152,0.026,0.262c0.359,0.315,0.77,0.571,1.214,0.751
			c0.09,0,0.193-0.087,0.838-0.739c0.884-0.896,2.091-2.157,2.479-2.601c0.982-1.071,1.779-2.296,2.363-3.625
			c0.249-0.598,0.392-1.187,0.289-1.187c-0.019,0-0.083,0.065-0.144,0.14L25.724,16.698z"/>
		<path fill="#FFFFFF" d="M10.812,19.932c-0.054,0.062-0.028,0.152,0.125,0.397c0.911,1.299,1.941,2.509,3.079,3.614
			c1.792,1.746,3.536,3.067,7.005,5.313c2.211,1.434,2.522,1.61,3.507,1.977c0.997,0.432,1.947,0.962,2.838,1.584
			c0.758,0.474,2.054,1.27,2.868,1.773c2.201,1.353,2.126,1.318,3.054,1.318c0.312,0.038,0.628,0.003,0.925-0.099
			c0.638-0.221,1.163-0.682,1.463-1.288c0.253-0.481,0.357-1.031,0.299-1.572c-0.165-0.918-0.743-1.708-1.566-2.142
			c-0.269-0.178-0.885-0.571-1.371-0.873c-1.585-0.991-1.721-1.059-2.24-1.134c-0.341-0.055-0.69-0.024-1.018,0.085
			c-0.723,0.23-1.33,0.729-1.695,1.396c-0.182,0.282-0.191,0.293-0.313,0.293c-0.144,0-0.166-0.011-0.922-0.449
			c-1.498-0.863-9.917-6.231-11.202-7.141c-0.231-0.158-1.027-0.692-1.766-1.186c-0.739-0.492-1.612-1.073-1.936-1.296
			c-0.323-0.255-0.677-0.463-1.053-0.623c-0.033,0.004-0.063,0.022-0.083,0.048L10.812,19.932z M23.472,28.754
			c0.233,0.135,0.316,0.434,0.186,0.67c-0.151,0.297-0.515,0.416-0.812,0.264c-0.074-0.038-0.14-0.09-0.192-0.156
			c-0.159-0.21-0.154-0.502,0.011-0.709c0.118-0.138,0.3-0.206,0.479-0.174C23.263,28.64,23.381,28.677,23.472,28.754
			 M30.785,30.558c0.376,0.181,2.641,1.566,2.974,1.82c0.113,0.093,0.207,0.207,0.275,0.338c0.087,0.127,0.128,0.281,0.116,0.438
			c0.002,0.31-0.125,0.609-0.354,0.819c-0.149,0.196-0.383,0.309-0.63,0.303c-1.164-0.635-2.292-1.333-3.376-2.097
			c-0.296-0.259-0.403-0.677-0.268-1.047c0.118-0.271,0.327-0.488,0.589-0.616c0.218-0.101,0.472-0.085,0.677,0.042H30.785z"/>
		<path fill="#FFFFFF" d="M11.44,22.466c-0.499,0.699-0.857,1.491-1.053,2.328c-0.253,1.265-0.229,2.569,0.072,3.822
			c0.226,1.027,0.382,0.879,0.601-0.562c0.066-0.636,0.226-1.258,0.476-1.848c0.232-0.611,0.529-1.196,0.885-1.742
			c0.405-0.628,0.439-0.699,0.412-0.806c-0.28-0.378-0.591-0.73-0.932-1.056c-0.238-0.231-0.34-0.26-0.462-0.139L11.44,22.466z"/>
		<path fill="#FFFFFF" d="M22.331,23.356c-0.519,0.438-0.992,0.925-1.416,1.455c-0.087,0.144-0.075,0.222,0.064,0.578l0.125,0.311
			l0.289,0.193c0.879,0.593,2.179,1.411,2.503,1.571c0.305,0.156,0.34,0.132,0.263-0.152c-0.131-0.479-1.249-3.396-1.467-3.827
			c-0.11-0.227-0.17-0.246-0.359-0.132L22.331,23.356z"/>
		<path fill="#FFFFFF" d="M13.328,24.647c-0.121,0.138-0.23,0.285-0.329,0.442c-1.428,1.985-1.654,4.597-0.588,6.799
			c0.619,1.297,1.261,2.041,3.302,3.806c0.855,0.697,1.653,1.461,2.386,2.286c0.53,0.663,0.959,1.4,1.272,2.189
			c0.208,0.555,0.325,0.754,0.462,0.754c0.138,0,0.321-0.261,0.589-0.817c0.495-0.923,0.736-1.963,0.694-3.011
			c-0.016-0.691-0.18-1.37-0.48-1.992c-0.407-1.019-0.943-1.978-1.596-2.857c-0.488-0.753-0.845-1.585-1.055-2.457
			c-0.033-0.297-0.047-0.594-0.044-0.894l-0.005-0.636l-0.095-0.121c-0.419-0.419-0.898-0.775-1.421-1.055
			c-0.228,0-0.423,0.476-0.589,1.422c-0.091,0.882-0.085,1.774,0.016,2.655c0.092,0.587,0.219,1.166,0.378,1.737
			c0.165,0.605,0.193,0.768,0.12,0.768c-0.396-0.375-0.733-0.808-1-1.285c-0.262-0.547-0.497-1.105-0.703-1.675
			c-0.134-0.489-0.184-0.996-0.148-1.501c0.024-0.85,0.216-1.688,0.563-2.464c0.124-0.311,0.231-0.57,0.231-0.594
			c-0.107-0.119-0.223-0.228-0.348-0.327c-0.18-0.159-0.558-0.489-0.837-0.733c-0.555-0.498-0.643-0.543-0.774-0.443L13.328,24.647z
			"/>
		<path fill="#FFFFFF" d="M23.341,31.794c0.037,0.309,0.123,0.608,0.256,0.889c0.219,0.563,0.231,0.637,0.179,0.771
			c-0.047,0.116-0.034,0.106-0.751,0.438c-0.658,0.289-1.15,0.859-1.34,1.555c-0.079,0.205-0.116,0.425-0.107,0.645
			c0.005,0.516,0.136,0.908,1.035,3.059c0.224,0.693,0.542,1.354,0.943,1.962c0.549,0.644,1.389,0.966,2.227,0.851
			c0.608-0.071,1.176-0.34,1.615-0.767c0.269-0.262,0.471-0.583,0.589-0.938c0.118-0.426,0.139-0.875,0.064-1.312
			c-0.087-0.378-0.618-1.788-1.781-4.754l-0.567-1.429l-0.278-0.189c-0.43-0.274-0.894-0.49-1.383-0.637
			C23.53,31.778,23.371,31.75,23.341,31.794L23.341,31.794z M24.534,35.241c0.393,0.147,0.445,0.232,1.061,1.72
			c0.792,1.921,0.939,2.315,0.942,2.608c-0.035,0.377-0.301,0.691-0.667,0.786c-0.339,0.138-0.728,0.065-0.996-0.185
			c-0.197-0.196-0.401-0.633-0.983-2.091c-0.758-1.904-0.781-1.988-0.619-2.321C23.502,35.295,24.041,35.072,24.534,35.241
			L24.534,35.241z"/>
	</g>
	<path fill="#4D4D4D" d="M55.443,14.855l-1.453,1.512c-1.08-1.005-2.068-1.512-2.967-1.512c-0.529-0.013-1.042,0.185-1.425,0.551
		c-0.38,0.333-0.591,0.815-0.579,1.319c0.006,0.529,0.236,1.028,0.631,1.377c0.717,0.561,1.491,1.05,2.306,1.455
		c0.958,0.461,1.816,1.106,2.529,1.896c0.608,0.711,0.931,1.621,0.906,2.558c0.024,1.224-0.464,2.4-1.348,3.247
		c-0.861,0.87-2.042,1.347-3.264,1.318c-1.795,0.008-3.481-0.852-4.53-2.311l1.426-1.594c0.988,1.151,1.996,1.729,3.02,1.731
		c0.662,0.015,1.303-0.234,1.785-0.688c0.466-0.399,0.735-0.983,0.741-1.597c0.014-0.589-0.239-1.153-0.687-1.537
		c-0.699-0.59-1.475-1.08-2.307-1.455c-0.931-0.442-1.769-1.058-2.469-1.814c-0.576-0.756-0.869-1.692-0.826-2.643
		c-0.016-1.059,0.414-2.073,1.181-2.8c0.857-0.792,1.993-1.208,3.158-1.157c1.318,0,2.709,0.713,4.172,2.141L55.443,14.855z"/>
	<path fill="#4D4D4D" d="M65.203,14.827h-2.968v10.5c0,0.386,0.059,0.624,0.166,0.714c0.262,0.1,0.545,0.137,0.823,0.11h1.317v1.954
		c-0.661,0.123-1.33,0.196-2.003,0.22c-0.709,0.06-1.411-0.171-1.949-0.637c-0.468-0.58-0.693-1.317-0.629-2.06V14.827h-2.583v-1.98
		h2.583V7.211h2.274v5.636h2.968V14.827z"/>
	<polygon fill="#4D4D4D" points="80.455,13.157 71.588,33.445 69.229,33.445 72.111,26.846 66.041,13.156 68.403,13.156 
		73.318,24.124 78.066,13.156 	"/>
	<rect x="82.149" y="7.211" fill="#4D4D4D" width="2.254" height="20.617"/>
	<path fill="#4D4D4D" d="M102.744,20.986H89.62c0.026,1.49,0.616,2.915,1.65,3.986c0.966,0.969,2.283,1.502,3.648,1.485
		c2.397,0,4.229-1.184,5.493-3.549l1.921,0.991c-0.706,1.417-1.753,2.637-3.046,3.549c-1.262,0.774-2.721,1.164-4.202,1.127
		c-2.102,0.062-4.129-0.779-5.573-2.312c-2.93-3.163-2.93-8.053,0-11.216c1.413-1.529,3.412-2.38,5.492-2.336
		c2.05-0.051,4.029,0.755,5.461,2.226C101.93,16.405,102.689,18.42,102.744,20.986L102.744,20.986z M100.219,18.98
		c-0.222-1.199-0.89-2.269-1.867-2.994c-0.971-0.715-2.145-1.092-3.348-1.073c-2.563,0-4.266,1.355-5.106,4.067H100.219z"/>
	<path fill="#00b3bf" d="M112.803,14.827h-2.964v10.5c0,0.386,0.055,0.624,0.163,0.714c0.264,0.1,0.547,0.137,0.825,0.11h1.319
		v1.954c-0.661,0.123-1.331,0.196-2.004,0.22c-0.71,0.059-1.413-0.171-1.952-0.637c-0.467-0.581-0.692-1.317-0.629-2.06V14.827
		h-2.582v-1.98h2.582V7.211h2.278v5.636h2.963V14.827z"/>
	<path fill="#00b3bf" d="M116.123,7.211c0.963,0.013,1.74,0.793,1.754,1.758c-0.017,0.962-0.811,1.729-1.773,1.712
		c-0.938-0.017-1.693-0.774-1.71-1.712c-0.007-0.462,0.171-0.907,0.493-1.235c0.323-0.337,0.769-0.527,1.236-0.521V7.211z
		 M117.273,27.827h-2.275v-14.98h2.275V27.827z"/>
	<path fill="#00b3bf" d="M143.012,28.076h-2.307v-8.164c0.03-0.959-0.052-1.919-0.247-2.859c-0.149-0.61-0.511-1.146-1.019-1.512
		c-0.59-0.446-1.319-0.671-2.057-0.633c-0.863,0.008-1.702,0.298-2.39,0.824c-0.756,0.559-1.306,1.354-1.561,2.258
		c-0.346,1.364-0.494,2.771-0.442,4.178v5.91h-2.225v-7.672c0.035-1.087-0.046-2.177-0.245-3.246
		c-0.138-0.642-0.497-1.215-1.015-1.619c-0.576-0.435-1.283-0.657-2.004-0.633c-0.83,0.008-1.638,0.277-2.305,0.772
		c-0.713,0.49-1.266,1.177-1.593,1.977c-0.421,1.304-0.598,2.673-0.521,4.04v6.38h-2.256V13.095h2.256v2.115
		c1.094-1.571,2.886-2.504,4.798-2.502c1.01-0.011,1.999,0.285,2.834,0.854c0.863,0.557,1.512,1.39,1.839,2.363
		c0.562-0.983,1.364-1.806,2.332-2.393c0.896-0.54,1.922-0.823,2.967-0.824c1.373-0.022,2.693,0.523,3.652,1.512
		c1.006,1.01,1.509,2.906,1.509,5.691L143.012,28.076z"/>
	<path fill="#00b3bf" d="M161.441,20.986h-13.119c0.023,1.49,0.612,2.915,1.646,3.986c0.968,0.969,2.285,1.502,3.653,1.485
		c2.396,0,4.226-1.184,5.488-3.549l1.92,0.991c-0.705,1.417-1.752,2.637-3.045,3.549c-1.263,0.774-2.722,1.165-4.202,1.127
		c-2.101,0.061-4.128-0.779-5.572-2.312c-2.927-3.163-2.927-8.053,0-11.216c1.415-1.528,3.412-2.378,5.49-2.336
		c2.051-0.051,4.031,0.755,5.465,2.226C160.629,16.405,161.389,18.42,161.441,20.986L161.441,20.986z M158.915,18.98
		c-0.22-1.199-0.886-2.269-1.864-2.994c-0.97-0.715-2.148-1.093-3.353-1.073c-2.56,0-4.261,1.355-5.104,4.067H158.915z"/>
	<path fill="#00b3bf" d="M170.869,13.313l-1.181,1.925c-0.845-0.492-1.925-0.224-2.442,0.604c-0.503,0.647-0.858,1.399-1.041,2.201
		c-0.278,1.615-0.39,3.255-0.331,4.896v5.139h-2.306V13.095h2.306v1.621c0.367-0.579,0.833-1.092,1.373-1.514
		c0.467-0.326,1.022-0.499,1.593-0.494C169.556,12.739,170.255,12.946,170.869,13.313L170.869,13.313z"/>
	<path fill="#4D4D4D" d="M79.504,34.945v1.233h-0.522v0.556h0.522v2.36c-0.043,0.4,0.069,0.803,0.315,1.123
		c0.327,0.241,0.734,0.354,1.139,0.309h0.733v-0.598h-0.733c-0.209,0.026-0.42-0.027-0.591-0.151
		c-0.125-0.205-0.175-0.445-0.145-0.683v-2.36h1.469v-0.556h-1.468v-1.233H79.504z M82.626,40.526h0.719v-4.348h-0.714v4.348H82.626
		z M82.626,35.391h0.719v-0.902h-0.714v0.903L82.626,35.391z M87.723,36.317c-0.236-0.164-0.519-0.251-0.805-0.24
		c-0.282-0.009-0.56,0.058-0.81,0.189c-0.243,0.143-0.445,0.346-0.584,0.59v-0.675h-0.718v4.347h0.718V38.07
		c-0.021-0.361,0.094-0.72,0.32-1.001c0.219-0.25,0.538-0.388,0.868-0.373c0.263-0.02,0.518,0.094,0.681,0.303
		c0.169,0.279,0.245,0.603,0.222,0.929v2.601h0.718v-2.457c-0.022-0.363,0.094-0.722,0.32-1.005c0.223-0.249,0.544-0.386,0.877-0.37
		c0.261-0.019,0.515,0.096,0.675,0.304c0.167,0.279,0.244,0.602,0.22,0.926v2.602h0.717v-2.624c0.032-0.48-0.098-0.954-0.367-1.354
		c-0.251-0.318-0.641-0.496-1.047-0.474c-0.309-0.008-0.613,0.074-0.877,0.231c-0.271,0.177-0.491,0.422-0.639,0.711
		c-0.088-0.279-0.258-0.523-0.491-0.699L87.723,36.317z M95.77,36.642c-0.356-0.386-0.864-0.591-1.388-0.564
		c-0.583-0.028-1.151,0.2-1.553,0.626c-0.403,0.469-0.609,1.075-0.578,1.694c-0.087,1.153,0.776,2.157,1.927,2.245
		c0.109,0.008,0.219,0.008,0.328-0.001c0.275,0,0.549-0.028,0.818-0.086c0.27-0.057,0.533-0.14,0.787-0.248v-0.676
		c-0.242,0.13-0.5,0.232-0.766,0.303c-0.261,0.066-0.528,0.104-0.796,0.101c-0.407,0.026-0.806-0.115-1.108-0.385
		c-0.284-0.307-0.442-0.708-0.444-1.125h3.28v-0.345c0.03-0.56-0.151-1.109-0.51-1.538L95.77,36.642z M93.024,37.972
		c0.012-0.357,0.159-0.696,0.411-0.949c0.263-0.235,0.607-0.357,0.955-0.338c0.321-0.016,0.63,0.112,0.848,0.346
		c0.224,0.26,0.34,0.595,0.327,0.936l-2.543,0.004L93.024,37.972z M103.688,36.184h-0.756l-1.357,3.399l-1.357-3.399h-0.755
		l1.757,4.276l-0.129,0.327c-0.071,0.242-0.195,0.468-0.361,0.659c-0.13,0.102-0.292,0.149-0.457,0.14h-0.417v0.598h0.57
		c0.274,0.015,0.547-0.069,0.768-0.236c0.271-0.288,0.472-0.634,0.588-1.013L103.688,36.184L103.688,36.184z M107.258,37.136
		c0.444,0.757,0.444,1.696,0,2.452c-0.381,0.501-1.097,0.597-1.596,0.216c-0.082-0.063-0.153-0.135-0.216-0.216
		c-0.443-0.759-0.443-1.697,0-2.458c0.38-0.499,1.092-0.596,1.591-0.215c0.084,0.063,0.157,0.137,0.219,0.219L107.258,37.136z
		 M104.891,36.685c-0.705,1.006-0.705,2.346,0,3.354c0.807,0.806,2.115,0.807,2.924,0h0.002c0.707-1.008,0.707-2.35,0-3.354
		C107.008,35.876,105.7,35.876,104.891,36.685 M109.844,40.178c0.287,0.322,0.706,0.492,1.136,0.462
		c0.277,0.007,0.552-0.06,0.797-0.191c0.244-0.144,0.452-0.345,0.602-0.588v0.668h0.714v-4.347h-0.714v2.464
		c0.021,0.366-0.1,0.726-0.335,1.006c-0.234,0.251-0.569,0.387-0.913,0.369c-0.275,0.019-0.544-0.096-0.722-0.31
		c-0.179-0.273-0.263-0.599-0.239-0.926v-2.604h-0.71v2.632c-0.034,0.484,0.104,0.968,0.388,1.362L109.844,40.178z M117.074,36.116
		c-0.073-0.012-0.139-0.022-0.197-0.028c-0.056-0.007-0.109-0.009-0.163-0.009c-0.305-0.011-0.604,0.056-0.877,0.191
		c-0.248,0.136-0.451,0.34-0.585,0.588v-0.675h-0.718v4.348h0.718v-2.292c-0.028-0.401,0.086-0.803,0.323-1.132
		c0.23-0.269,0.574-0.415,0.928-0.394c0.106-0.001,0.211,0.011,0.313,0.033c0.092,0.022,0.181,0.058,0.263,0.105L117.074,36.116z
		 M122.474,36.137c-0.246-0.039-0.495-0.059-0.745-0.058c-0.436-0.027-0.869,0.09-1.232,0.335c-0.291,0.225-0.452,0.578-0.434,0.946
		c-0.017,0.294,0.092,0.581,0.295,0.794c0.272,0.229,0.604,0.377,0.957,0.429l0.248,0.058c0.303,0.043,0.594,0.146,0.859,0.299
		c0.133,0.109,0.204,0.276,0.194,0.447c0.006,0.198-0.099,0.385-0.269,0.486c-0.237,0.128-0.507,0.188-0.776,0.173
		c-0.258,0-0.512-0.035-0.761-0.104c-0.27-0.073-0.531-0.176-0.778-0.308v0.737c0.261,0.086,0.527,0.154,0.798,0.203
		c0.238,0.045,0.481,0.067,0.726,0.069c0.464,0.025,0.925-0.099,1.315-0.354c0.313-0.218,0.494-0.581,0.48-0.964
		c0.018-0.308-0.098-0.611-0.319-0.828c-0.313-0.243-0.685-0.402-1.08-0.461l-0.244-0.053c-0.268-0.044-0.527-0.136-0.762-0.271
		c-0.126-0.09-0.197-0.235-0.19-0.392c-0.012-0.199,0.092-0.388,0.265-0.487c0.246-0.125,0.521-0.18,0.797-0.163
		c0.227-0.002,0.453,0.024,0.675,0.077c0.217,0.053,0.429,0.129,0.626,0.231v-0.676c-0.207-0.079-0.423-0.139-0.643-0.174
		L122.474,36.137z M124.474,34.948v1.235h-0.523v0.555h0.523v2.359c-0.044,0.401,0.068,0.805,0.313,1.125
		c0.329,0.243,0.736,0.352,1.14,0.309h0.733v-0.603h-0.733c-0.207,0.026-0.42-0.027-0.591-0.151
		c-0.123-0.205-0.175-0.445-0.146-0.683v-2.36h1.471v-0.556h-1.471v-1.233L124.474,34.948z M131.312,36.184h-0.755l-1.356,3.399
		l-1.357-3.399h-0.755l1.756,4.276l-0.128,0.327c-0.072,0.242-0.195,0.468-0.361,0.659c-0.13,0.102-0.293,0.149-0.457,0.14h-0.419
		v0.598h0.571c0.274,0.015,0.547-0.069,0.767-0.236c0.271-0.288,0.473-0.634,0.59-1.013l1.908-4.751H131.312z M132.296,40.531h0.713
		v-6.043h-0.713v6.039V40.531z M137.705,36.644c-0.356-0.385-0.865-0.591-1.387-0.564c-0.586-0.028-1.152,0.2-1.555,0.626
		c-0.402,0.469-0.609,1.075-0.577,1.694c-0.088,1.153,0.774,2.157,1.926,2.246c0.11,0.007,0.219,0.007,0.328-0.001
		c0.276,0,0.551-0.029,0.818-0.086c0.27-0.058,0.532-0.141,0.787-0.249v-0.675c-0.243,0.13-0.497,0.231-0.766,0.303
		c-0.26,0.066-0.528,0.101-0.796,0.101c-0.407,0.023-0.804-0.115-1.106-0.387c-0.286-0.304-0.445-0.706-0.445-1.124h3.28v-0.347
		c0.03-0.558-0.152-1.107-0.51-1.536L137.705,36.644z M134.958,37.974c0.014-0.356,0.16-0.695,0.413-0.95
		c0.262-0.234,0.605-0.355,0.955-0.338c0.32-0.014,0.629,0.114,0.848,0.348c0.222,0.26,0.34,0.593,0.328,0.936l-2.545,0.003
		L134.958,37.974z"/>
	<rect x="46.274" y="37.542" fill="#4D4D4D" width="30.251" height="0.655"/>
	<rect x="141.247" y="37.542" fill="#4D4D4D" width="30.253" height="0.655"/>
</g>
</svg>
