<svg xmlns="http://www.w3.org/2000/svg" width="290" height="76" viewBox="0 0 290 76"><g transform="translate(-73.576 -84.998)"><path d="M149.741,85.036a23.077,23.077,0,0,0-3,.326l-.4.1-.02,3.6c-.014,3.473-.014,3.59.1,3.643a16.011,16.011,0,0,0,3.531.4l.894.045.014.562.02.568.672-.045c.887-.06,3.134-.06,4.086,0l.75.038V93.143l.921-.045a13.757,13.757,0,0,0,3.527-.418l.143-.085v-7.09l-.269-.092a13.848,13.848,0,0,0-2.33-.332c-.979-.079-7.462-.117-8.631-.045Zm0,0" transform="translate(-47.391 0)" fill="#fff"/><path d="M100.981,103.749a25.71,25.71,0,0,0-4.165,2.278.708.708,0,0,0-.222.274,14.484,14.484,0,0,0,1.658,2.841c1.887,2.911,1.919,2.957,1.99,2.957a1.133,1.133,0,0,0,.256-.052c.182-.052.189-.045.391.294.144.227.236.326.287.3.033-.032.391-.274.791-.548.809-.555,1.756-1.141,2.651-1.631.332-.184.627-.353.651-.379s-.007-.13-.072-.234l-.117-.2.366-.3-1.815-2.913a25,25,0,0,0-1.939-2.93,4.093,4.093,0,0,0-.712.241Zm0,0" transform="translate(-14.998 -12.061)" fill="#fff"/><path d="M214.621,106.276c-.966,1.548-1.781,2.866-1.808,2.925-.038.078-.018.144.112.274l.149.17-.117.2-.13.2.3.15a37.566,37.566,0,0,1,3.649,2.266c.184.131.294.182.321.144s.124-.2.215-.353c.117-.2.2-.287.254-.262a2.156,2.156,0,0,0,.261.065c.17.02.191,0,1.058-1.35.49-.757,1.222-1.887,1.62-2.507s.822-1.319.932-1.548l.2-.424-.229-.2a24.174,24.174,0,0,0-4.845-2.534l-.182-.032Zm0,0" transform="translate(-90.714 -12.036)" fill="#fff"/><path d="M104.4,112.178c-.176.013-.75.066-1.272.119a32.585,32.585,0,0,0-23.392,13.641,33.454,33.454,0,0,0-6.119,17.184,52.975,52.975,0,0,0,.092,5.762,33.418,33.418,0,0,0,7.5,17.96,44.618,44.618,0,0,0,3.76,3.876,32.773,32.773,0,0,0,18.935,7.925c1.045.073,3.765.073,4.771,0a32,32,0,0,0,12.267-3.424,31.327,31.327,0,0,0,8.453-6.207,27.711,27.711,0,0,0,3.057-3.531,33.3,33.3,0,0,0,6.522-17.622c.079-.968.079-3.816,0-4.844a33.389,33.389,0,0,0-10.623-22.21,32.29,32.29,0,0,0-19.108-8.555c-.607-.053-4.244-.112-4.845-.073Zm5.132,2.688A29.836,29.836,0,0,1,130.2,126.813a31.059,31.059,0,0,1,5.034,10.54,28.836,28.836,0,0,1,.953,7.07,29.586,29.586,0,0,1-1.508,10.241,30.082,30.082,0,0,1-5.276,9.724,39.021,39.021,0,0,1-4.107,4.175,29.585,29.585,0,0,1-44.3-7.342,30.8,30.8,0,0,1,.445-32.968,29.827,29.827,0,0,1,22.844-13.493c.718-.061,4.459.019,5.249.105Zm0,0" transform="translate(0 -17.702)" fill="#fff"/><path d="M131.841,126.311c0,.209.1.3.986.959a5.78,5.78,0,0,1,2.311,2.925,3.333,3.333,0,0,1,.13,1.273,4.514,4.514,0,0,1-.568,2.395,9.683,9.683,0,0,1-3.493,3.774c-.267.184-1.469.876-2.656,1.534s-2.567,1.442-3.062,1.75a33.364,33.364,0,0,0-3.794,2.631c-.346.333-.333.458.092.8a18.765,18.765,0,0,0,1.932,1.292l.281.144.3-.2c.162-.111.658-.476,1.1-.822s1.782-1.325,2.97-2.195a40.891,40.891,0,0,0,5.771-4.621,11.517,11.517,0,0,0,3.043-5.079,6.269,6.269,0,0,0,.137-1.88,7.351,7.351,0,0,0-.68-1.868,2.885,2.885,0,0,0-.652-.881,8.285,8.285,0,0,0-3.846-2.069l-.307-.04Zm0,0" transform="translate(-31.195 -26.525)" fill="#fff"/><path d="M150.617,128.381c-.124.294-.4.954-.62,1.463a25.547,25.547,0,0,1-5.946,8.743,36.824,36.824,0,0,1-5.825,4.563c-3.446,2.37-5.693,4.133-5.693,4.459,0,.2.4.541,1.3,1.137a8.258,8.258,0,0,0,1.848,1.045c.144,0,.313-.13,1.593-1.181.613-.51,1.541-1.267,2.051-1.678a45.337,45.337,0,0,0,6.515-5.948,23.977,23.977,0,0,0,3.709-6.939,31.4,31.4,0,0,0,1.462-5.823c0-.53-.112-.485-.393.162Zm0,0" transform="translate(-38.416 -27.618)" fill="#fff"/><path d="M139.011,148.3c-.084.137-.018.456.321,1.462a19.04,19.04,0,0,0,1.045,2.651.394.394,0,0,0,.209.15,7.927,7.927,0,0,0,1.377-.719c.268-.222.151-.445-.9-1.723a13,13,0,0,0-1.633-1.725c-.247-.175-.353-.209-.418-.1Zm0,0" transform="translate(-42.615 -40.865)" fill="#fff"/><path d="M159.215,158.576c-.11.137-.47.633-.8,1.116-2.076,3-3.2,4.138-7.626,7.762-2.336,1.921-3.668,3.044-3.8,3.213-.124.15-.11.261.045.451a7.383,7.383,0,0,0,2.1,1.3c.157,0,.333-.151,1.449-1.28,1.528-1.546,3.617-3.727,4.29-4.491a22.941,22.941,0,0,0,4.086-6.261c.431-1.031.678-2.05.5-2.05-.033,0-.144.112-.249.242Zm0,0" transform="translate(-47.785 -47.327)" fill="#fff"/><path d="M108.112,174.161c-.092.105-.047.262.216.685a43.615,43.615,0,0,0,5.326,6.242c3.1,3.017,6.117,5.3,12.117,9.179,3.826,2.474,4.362,2.781,6.065,3.414a28.2,28.2,0,0,1,4.91,2.736c1.312.816,3.551,2.193,4.96,3.062,3.807,2.336,3.677,2.278,5.283,2.278a3.654,3.654,0,0,0,1.6-.17,4.454,4.454,0,0,0,2.532-2.226,4.739,4.739,0,0,0,.516-2.716,5.222,5.222,0,0,0-2.709-3.7c-.465-.306-1.528-.985-2.37-1.508-2.743-1.71-2.978-1.828-3.873-1.959a3.725,3.725,0,0,0-1.762.15,5.1,5.1,0,0,0-2.931,2.41c-.314.488-.332.508-.541.508-.249,0-.287-.02-1.594-.777-2.591-1.494-17.156-10.765-19.376-12.333-.4-.274-1.777-1.2-3.055-2.049s-2.788-1.855-3.349-2.24a8.067,8.067,0,0,0-1.822-1.076.221.221,0,0,0-.144.084Zm21.9,15.237a.86.86,0,0,1,.321,1.157,1.044,1.044,0,0,1-1.736.189,1,1,0,0,1,.018-1.227.888.888,0,0,1,.829-.3.8.8,0,0,1,.568.182Zm12.647,3.115c.652.313,4.569,2.709,5.144,3.147a1.874,1.874,0,0,1,.476.58,1.189,1.189,0,0,1,.2.757,1.911,1.911,0,0,1-.613,1.417,1.33,1.33,0,0,1-1.09.522,60.078,60.078,0,0,1-5.838-3.622,1.648,1.648,0,0,1-.463-1.81,2.128,2.128,0,0,1,1.018-1.063,1.246,1.246,0,0,1,1.17.072Zm0,0" transform="translate(-22.475 -57.326)" fill="#fff"/><path d="M107.348,186.948a11.361,11.361,0,0,0-1.822,4.021,15.339,15.339,0,0,0,.125,6.606c.391,1.77.658,1.516,1.038-.973a11.255,11.255,0,0,1,.822-3.192,15.937,15.937,0,0,1,1.534-3.01c.7-1.083.757-1.207.712-1.391a14.207,14.207,0,0,0-1.613-1.822c-.411-.4-.588-.449-.8-.241Zm0,0" transform="translate(-20.622 -65.737)" fill="#fff"/><path d="M160.625,191.413a18.085,18.085,0,0,0-2.448,2.514c-.15.247-.13.384.11,1l.216.535.5.334c1.521,1.024,3.767,2.435,4.329,2.715.528.268.587.228.456-.262-.228-.829-2.161-5.868-2.539-6.613-.189-.391-.294-.425-.62-.227Zm0,0" transform="translate(-55.063 -68.664)" fill="#fff"/><path d="M115.559,196.482a6.145,6.145,0,0,0-.568.764,11.512,11.512,0,0,0-1.018,11.744c1.071,2.24,2.181,3.525,5.712,6.575a35.508,35.508,0,0,1,4.127,3.949,14.716,14.716,0,0,1,2.2,3.781c.359.959.562,1.3.8,1.3s.555-.449,1.018-1.411a10.115,10.115,0,0,0,1.2-5.2,8.3,8.3,0,0,0-.829-3.441,21.9,21.9,0,0,0-2.761-4.936,13.642,13.642,0,0,1-1.822-4.244,12.945,12.945,0,0,1-.079-1.541l-.007-1.1-.164-.209a10.457,10.457,0,0,0-2.46-1.822c-.393,0-.732.822-1.019,2.455a21.217,21.217,0,0,0,.027,4.589,26.563,26.563,0,0,0,.654,3c.286,1.045.333,1.325.207,1.325a9.386,9.386,0,0,1-1.73-2.22,31.346,31.346,0,0,1-1.214-2.893,7.65,7.65,0,0,1-.256-2.591,11.2,11.2,0,0,1,.973-4.257c.216-.537.4-.986.4-1.026a4.928,4.928,0,0,0-.6-.562c-.312-.279-.966-.847-1.449-1.272-.959-.856-1.11-.934-1.339-.764Zm0,0" transform="translate(-25.568 -71.503)" fill="#fff"/><path d="M164.7,231.993a4.923,4.923,0,0,0,.443,1.534c.379.973.4,1.1.308,1.332-.079.2-.059.184-1.3.757a4.127,4.127,0,0,0-2.317,2.684,2.8,2.8,0,0,0-.184,1.116c.007.888.236,1.566,1.79,5.282a14.057,14.057,0,0,0,1.631,3.388,4.3,4.3,0,0,0,3.852,1.469,4.785,4.785,0,0,0,2.794-1.325,4.015,4.015,0,0,0,1.018-1.618,5.209,5.209,0,0,0,.112-2.266c-.151-.654-1.071-3.089-3.082-8.213l-.98-2.468-.483-.326a9.519,9.519,0,0,0-2.39-1.1c-.887-.274-1.161-.321-1.213-.249Zm2.062,5.955c.679.254.771.4,1.835,2.97,1.371,3.318,1.625,4,1.631,4.506a1.548,1.548,0,0,1-1.155,1.357,1.628,1.628,0,0,1-1.723-.319c-.341-.339-.694-1.092-1.7-3.61-1.312-3.291-1.352-3.435-1.071-4.01a1.786,1.786,0,0,1,2.181-.894Zm0,0" transform="translate(-57.389 -94.669)" fill="#fff"/><path d="M299.112,143.034l-2.514,2.612c-1.867-1.736-3.578-2.612-5.131-2.612a3.456,3.456,0,0,0-2.468.953,2.939,2.939,0,0,0-1,2.28,3.224,3.224,0,0,0,1.092,2.377,23.521,23.521,0,0,0,3.988,2.513,14.155,14.155,0,0,1,4.375,3.276,6.5,6.5,0,0,1,1.566,4.414,7.547,7.547,0,0,1-2.33,5.609,7.7,7.7,0,0,1-5.647,2.278,9.6,9.6,0,0,1-7.835-3.989l2.469-2.754q2.564,2.986,5.223,2.99a4.368,4.368,0,0,0,3.087-1.188,3.671,3.671,0,0,0,1.28-2.756,3.393,3.393,0,0,0-1.188-2.656,17.089,17.089,0,0,0-3.989-2.514,13.959,13.959,0,0,1-4.269-3.134,7,7,0,0,1-1.43-4.564,6.516,6.516,0,0,1,2.044-4.837,7.57,7.57,0,0,1,5.463-2q3.419,0,7.215,3.7Zm0,0" transform="translate(-136.275 -34.969)" fill="#4d4d4d"/><path d="M351.759,126.464h-5.133V144.6c0,.667.1,1.078.287,1.233a3.21,3.21,0,0,0,1.424.191h2.278V149.4a23.522,23.522,0,0,1-3.466.379,4.572,4.572,0,0,1-3.369-1.1,4.976,4.976,0,0,1-1.09-3.558V126.464h-4.466v-3.421h4.466v-9.734h3.936v9.734h5.133Zm0,0" transform="translate(-172.043 -18.447)" fill="#4d4d4d"/><path d="M405.918,141.247l-15.336,35.044H386.5l4.987-11.4-10.5-23.646h4.087l8.5,18.946,8.213-18.946Zm0,0" transform="translate(-199.821 -36.115)" fill="#4d4d4d"/><rect width="3.898" height="35.614" transform="translate(209.03 94.862)" fill="#4d4d4d"/><path d="M512.8,153.624H490.1a10.162,10.162,0,0,0,2.853,6.887,8.772,8.772,0,0,0,6.313,2.566q6.219,0,9.5-6.131l3.322,1.711a16.522,16.522,0,0,1-5.268,6.131,13.253,13.253,0,0,1-7.267,1.945,12.744,12.744,0,0,1-9.642-3.989,14.25,14.25,0,0,1,0-19.377,12.605,12.605,0,0,1,9.5-4.035,12.758,12.758,0,0,1,9.446,3.846q3.8,3.8,3.944,10.446Zm-4.367-3.466a8.351,8.351,0,0,0-3.232-5.171,9.528,9.528,0,0,0-5.791-1.853q-6.648,0-8.833,7.025Zm0,0" transform="translate(-268.148 -34.969)" fill="#4d4d4d"/><path d="M587.055,126.464H581.93V144.6c0,.667.092,1.078.281,1.233a3.217,3.217,0,0,0,1.429.191h2.28V149.4a23.532,23.532,0,0,1-3.466.379,4.6,4.6,0,0,1-3.376-1.1,5,5,0,0,1-1.09-3.558V126.464h-4.466v-3.421h4.466v-9.734h3.943v9.734h5.124Zm0,0" transform="translate(-325.006 -18.447)" fill="#fff"/><path d="M623.115,113.309a3.076,3.076,0,0,1,3.035,3.035,3.013,3.013,0,0,1-6.025,0,2.981,2.981,0,0,1,.854-2.134,2.915,2.915,0,0,1,2.136-.9Zm1.99,35.612H621.17V123.043h3.936Zm0,0" transform="translate(-355.324 -18.447)" fill="#fff"/><path d="M689.991,165.878H686v-14.1a20.826,20.826,0,0,0-.424-4.942,4.576,4.576,0,0,0-1.762-2.612,5.448,5.448,0,0,0-3.558-1.089,6.908,6.908,0,0,0-4.133,1.422,7.329,7.329,0,0,0-2.7,3.9,25.528,25.528,0,0,0-.764,7.215v10.21h-3.846V152.631a26.137,26.137,0,0,0-.425-5.607,4.853,4.853,0,0,0-1.756-2.8,5.436,5.436,0,0,0-3.466-1.089,6.817,6.817,0,0,0-3.988,1.332,7.691,7.691,0,0,0-2.756,3.414,19.267,19.267,0,0,0-.9,6.978v11.021h-3.9V140h3.9v3.655a10.1,10.1,0,0,1,8.3-4.322,8.528,8.528,0,0,1,4.9,1.476,7.813,7.813,0,0,1,3.181,4.082,11.534,11.534,0,0,1,4.035-4.133,9.969,9.969,0,0,1,5.131-1.424,8.6,8.6,0,0,1,6.315,2.612q2.612,2.615,2.61,9.832Zm0,0" transform="translate(-375.692 -34.976)" fill="#fff"/><path d="M802.672,153.624H779.979a10.156,10.156,0,0,0,2.847,6.887,8.787,8.787,0,0,0,6.319,2.566q6.218,0,9.493-6.131l3.323,1.711a16.536,16.536,0,0,1-5.268,6.131,13.226,13.226,0,0,1-7.267,1.945,12.747,12.747,0,0,1-9.637-3.989,14.255,14.255,0,0,1,0-19.377,12.6,12.6,0,0,1,9.493-4.035,12.772,12.772,0,0,1,9.453,3.846q3.8,3.8,3.938,10.446Zm-4.369-3.466a8.3,8.3,0,0,0-3.224-5.171,9.537,9.537,0,0,0-5.8-1.853q-6.641,0-8.826,7.025Zm0,0" transform="translate(-456.495 -34.969)" fill="#fff"/><path d="M875.754,140.377l-2.042,3.324a3.127,3.127,0,0,0-4.225,1.045,9.725,9.725,0,0,0-1.8,3.8,41.131,41.131,0,0,0-.573,8.455v8.878h-3.989V140h3.989v2.8a10.37,10.37,0,0,1,2.375-2.612,4.751,4.751,0,0,1,2.756-.856,7.539,7.539,0,0,1,3.511,1.045Zm0,0" transform="translate(-513.27 -34.976)" fill="#fff"/><path d="M445.158,246.189v2.132h-.905v.959h.905v4.077a2.7,2.7,0,0,0,.543,1.941,2.809,2.809,0,0,0,1.971.533h1.267V254.8h-1.267a1.446,1.446,0,0,1-1.023-.262,1.84,1.84,0,0,1-.251-1.18v-4.077h2.541v-.959H446.4v-2.132Zm5.4,9.642H451.8v-7.51h-1.234v7.51Zm0-8.871H451.8V245.4h-1.234v1.563Zm8.814,1.6a2.308,2.308,0,0,0-1.392-.416,2.836,2.836,0,0,0-1.4.329,2.8,2.8,0,0,0-1.012,1.019v-1.167h-1.241v7.51h1.241v-4.245a2.551,2.551,0,0,1,.556-1.733,1.889,1.889,0,0,1,1.5-.64,1.367,1.367,0,0,1,1.18.52,2.718,2.718,0,0,1,.382,1.606v4.493h1.241v-4.245a2.549,2.549,0,0,1,.556-1.737,1.91,1.91,0,0,1,1.516-.637,1.351,1.351,0,0,1,1.167.523,2.724,2.724,0,0,1,.382,1.6v4.493h1.24V251.3a3.742,3.742,0,0,0-.637-2.337,2.157,2.157,0,0,0-1.811-.821,2.836,2.836,0,0,0-1.515.4,3.25,3.25,0,0,0-1.107,1.227,2.418,2.418,0,0,0-.848-1.207Zm13.92.56a3.069,3.069,0,0,0-2.4-.976,3.47,3.47,0,0,0-2.686,1.083,4.155,4.155,0,0,0-1,2.927,3.615,3.615,0,0,0,3.9,3.876,6.823,6.823,0,0,0,1.415-.148,7.381,7.381,0,0,0,1.361-.429v-1.167a6.12,6.12,0,0,1-1.324.523,5.42,5.42,0,0,1-1.378.174,2.635,2.635,0,0,1-1.915-.667,2.849,2.849,0,0,1-.768-1.941h5.673v-.6a3.808,3.808,0,0,0-.882-2.652Zm-4.751,2.3a2.461,2.461,0,0,1,.714-1.643,2.313,2.313,0,0,1,1.653-.584,1.893,1.893,0,0,1,1.465.6,2.345,2.345,0,0,1,.566,1.616l-4.4.007Zm18.446-3.091h-1.308l-2.347,5.874-2.347-5.874h-1.307l3.038,7.389-.221.563a3.083,3.083,0,0,1-.624,1.14,1.179,1.179,0,0,1-.791.241h-.724v1.033h.986a2.023,2.023,0,0,0,1.328-.409,4.469,4.469,0,0,0,1.019-1.75l3.3-8.207Zm6.176,1.646a4.176,4.176,0,0,1,0,4.235,1.971,1.971,0,0,1-3.135,0,4.205,4.205,0,0,1,0-4.245,1.965,1.965,0,0,1,3.131.007Zm-4.094-.781a5.036,5.036,0,0,0,0,5.79,3.574,3.574,0,0,0,5.059,0,5.021,5.021,0,0,0,0-5.79,3.582,3.582,0,0,0-5.059,0Zm8.566,6.035a2.411,2.411,0,0,0,1.964.8,2.777,2.777,0,0,0,1.378-.332,3.041,3.041,0,0,0,1.042-1.016v1.154h1.234v-7.51h-1.234v4.258a2.482,2.482,0,0,1-.58,1.737,2.029,2.029,0,0,1-1.579.637,1.485,1.485,0,0,1-1.247-.533,2.576,2.576,0,0,1-.415-1.6v-4.5H496.97v4.546a3.592,3.592,0,0,0,.671,2.354Zm12.505-7.014c-.125-.022-.239-.039-.342-.05a2.619,2.619,0,0,0-.281-.017,3.19,3.19,0,0,0-1.516.332,2.533,2.533,0,0,0-1.013,1.016v-1.167h-1.24v7.51h1.24v-3.956a3,3,0,0,1,.56-1.955,1.96,1.96,0,0,1,1.606-.681,2.387,2.387,0,0,1,.54.057,1.634,1.634,0,0,1,.453.178l-.007-1.268Zm9.34.034a7.842,7.842,0,0,0-1.287-.1,3.439,3.439,0,0,0-2.132.577,1.942,1.942,0,0,0-.751,1.636,1.832,1.832,0,0,0,.51,1.371,3.328,3.328,0,0,0,1.656.741l.429.1a4.14,4.14,0,0,1,1.485.516.926.926,0,0,1,.339.771.943.943,0,0,1-.469.841,2.5,2.5,0,0,1-1.341.3,5.069,5.069,0,0,1-1.314-.178,6.675,6.675,0,0,1-1.348-.533v1.274a10.468,10.468,0,0,0,1.378.352,7.135,7.135,0,0,0,1.257.117,3.768,3.768,0,0,0,2.276-.61A1.95,1.95,0,0,0,521,253.76a1.856,1.856,0,0,0-.553-1.432,4.007,4.007,0,0,0-1.867-.795l-.423-.094a3.874,3.874,0,0,1-1.321-.466.794.794,0,0,1-.329-.674.926.926,0,0,1,.459-.845,2.683,2.683,0,0,1,1.378-.281,5.015,5.015,0,0,1,1.167.134,4.81,4.81,0,0,1,1.086.4v-1.167a5.5,5.5,0,0,0-1.113-.3Zm3.46-2.052v2.132h-.905v.959h.905v4.077a2.7,2.7,0,0,0,.543,1.941,2.81,2.81,0,0,0,1.971.533h1.268V254.8h-1.268a1.445,1.445,0,0,1-1.023-.262,1.84,1.84,0,0,1-.252-1.18v-4.077h2.542v-.959h-2.542v-2.132Zm11.828,2.132h-1.307l-2.347,5.874-2.347-5.874h-1.307l3.038,7.389-.221.563a3.083,3.083,0,0,1-.624,1.14,1.179,1.179,0,0,1-.791.241h-.724v1.033h.986a2.023,2.023,0,0,0,1.328-.409,4.468,4.468,0,0,0,1.019-1.75l3.3-8.207Zm1.7,7.51h1.234V245.4h-1.234v10.434Zm9.357-6.715a3.069,3.069,0,0,0-2.4-.976,3.47,3.47,0,0,0-2.686,1.083,4.158,4.158,0,0,0-1,2.927,3.615,3.615,0,0,0,3.9,3.876,6.831,6.831,0,0,0,1.415-.148,7.38,7.38,0,0,0,1.361-.429v-1.167a6.117,6.117,0,0,1-1.324.523,5.417,5.417,0,0,1-1.378.174,2.633,2.633,0,0,1-1.914-.667,2.847,2.847,0,0,1-.768-1.941h5.673v-.6a3.808,3.808,0,0,0-.882-2.652Zm-4.751,2.3a2.46,2.46,0,0,1,.714-1.643,2.314,2.314,0,0,1,1.653-.584,1.893,1.893,0,0,1,1.465.6,2.347,2.347,0,0,1,.567,1.616l-4.4.007Z" transform="translate(-240.704 -103.424)" fill="#fff"/><rect width="52.327" height="1.13" transform="translate(146.975 147.254)" fill="#fff"/><rect width="52.327" height="1.13" transform="translate(311.249 147.254)" fill="#fff"/></g></svg>