<svg xmlns="http://www.w3.org/2000/svg" width="16" height="16" viewBox="0 0 16 16"><path d="M14.667,1.5H12.5V.5a.5.5,0,0,0-1,0v1h-3V.5a.5.5,0,0,0-1,0v1h-3V.5a.5.5,0,0,0-1,0v1H1.334A1.333,1.333,0,0,0,0,2.833V14.667A1.333,1.333,0,0,0,1.334,16H14.667A1.333,1.333,0,0,0,16,14.667V2.833A1.333,1.333,0,0,0,14.667,1.5ZM15,14.667a.334.334,0,0,1-.333.333H1.334A.334.334,0,0,1,1,14.667V2.833A.334.334,0,0,1,1.334,2.5H3.5v1a.5.5,0,0,0,1,0v-1h3v1a.5.5,0,0,0,1,0v-1h3v1a.5.5,0,0,0,1,0v-1h2.167A.334.334,0,0,1,15,2.833Z" fill="#242424"/><rect width="1.569" height="1.177" transform="translate(3.608 6.134)" fill="#242424"/><rect width="1.569" height="1.177" transform="translate(3.608 8.69)" fill="#242424"/><rect width="1.569" height="1.177" transform="translate(3.608 11.245)" fill="#242424"/><rect width="1.569" height="1.177" transform="translate(7.216 11.245)" fill="#242424"/><rect width="1.569" height="1.177" transform="translate(7.216 8.69)" fill="#242424"/><rect width="1.569" height="1.177" transform="translate(7.216 6.134)" fill="#242424"/><rect width="1.569" height="1.177" transform="translate(10.823 11.245)" fill="#242424"/><rect width="1.569" height="1.177" transform="translate(10.823 8.69)" fill="#242424"/><rect width="1.569" height="1.177" transform="translate(10.823 6.134)" fill="#242424"/></svg>