<svg xmlns="http://www.w3.org/2000/svg" width="16" height="16" viewBox="0 0 16 16"><g transform="translate(0 0)"><path d="M8,16a8,8,0,1,1,8-8A8.009,8.009,0,0,1,8,16ZM8,.914A7.086,7.086,0,1,0,15.086,8,7.093,7.093,0,0,0,8,.914Z" transform="translate(0 0)" fill="#242424"/></g><g transform="translate(7.492 2.412)"><path d="M17.626,13.34a.466.466,0,0,1-.332-.137l-2.515-2.515a.468.468,0,0,1-.137-.332V5.035a.469.469,0,0,1,.937,0v5.127l2.378,2.378a.469.469,0,0,1-.331.8Z" transform="translate(-14.642 -4.567)" fill="#242424"/></g></svg>