<svg xmlns="http://www.w3.org/2000/svg" width="16" height="16" viewBox="0 0 16 16"><g transform="translate(10998 -7600)"><g transform="translate(-10998 7600)"><g transform="translate(0)"><g transform="translate(0)"><path d="M15.791.208l0,0a.717.717,0,0,0-.5-.206h0a.711.711,0,0,0-.443.156c-1.7,1.359-3.409,2.762-5.076,4.169q-.608.513-1.216,1.034L3.924.732a1.173,1.173,0,0,0-1.657,0l-2.2,2.2A.234.234,0,0,0,.4,3.261L1.935,1.726l.335.335L.736,3.6a.234.234,0,0,0,.331.331L2.6,2.393l.335.335L1.4,4.263a.234.234,0,0,0,.331.331L3.269,3.06,3.6,3.4,2.069,4.93a.234.234,0,0,0,.331.331L3.936,3.727l.335.335L2.736,5.6a.234.234,0,0,0,.331.331L4.6,4.393l.335.335L3.4,6.264a.234.234,0,0,0,.331.331L5.269,5.06,5.6,5.4,4.07,6.931a.234.234,0,0,0,.331.331L5.936,5.727l.335.335L4.737,7.6a.234.234,0,0,0,.331.331L6.6,6.394l.347.347q-1.079.94-2.143,1.888h0c-.21.187-.44.4-.666.607a.236.236,0,0,0-.043.345h0a1.566,1.566,0,0,1-.107,2.093l-.707.707a1.639,1.639,0,1,1,.1-2.176.235.235,0,0,0,.339.026l0,0,0,0a.234.234,0,0,0-.021-.364,2.106,2.106,0,0,0-1.6-.734h0a2.108,2.108,0,1,0,.646,4.115A2.109,2.109,0,0,0,4.76,16h0A2.108,2.108,0,0,0,6.27,12.417l.479-.544q1.267-1.409,2.5-2.83l.353.353L8.071,10.932a.234.234,0,0,0,.331.331L9.938,9.728l.335.335L8.738,11.6a.234.234,0,0,0,.332.331L10.6,10.4l.335.335L9.405,12.265a.234.234,0,0,0,.331.331l1.535-1.535.335.335-1.535,1.535a.234.234,0,0,0,.332.331l1.535-1.535.335.335L10.739,13.6a.234.234,0,0,0,.331.331L12.605,12.4l.335.335-1.535,1.535a.234.234,0,0,0,.331.331l1.535-1.535.335.335-1.535,1.535a.234.234,0,0,0,.331.331l1.535-1.535.335.335L12.74,15.6a.234.234,0,0,0,.331.331l1.7-1.7h0l.5-.5a1.172,1.172,0,0,0,0-1.657L10.636,7.444c1.8-2.1,3.539-4.2,5.208-6.288A.711.711,0,0,0,15.791.208ZM2.267,1.394,2.6,1.063a.7.7,0,0,1,.994,0l4.6,4.6q-.445.383-.89.768ZM14.937,12.408a.7.7,0,0,1,0,.994l-.331.331L9.562,8.689q.386-.444.769-.889ZM6.53,11.415a.9.9,0,0,1-.467-.665A.234.234,0,0,0,5.6,10.8h0a1.278,1.278,0,0,0,.569.927l.05.035c-.163.185-.3.342-.451.512a.235.235,0,0,0,.026.339,1.64,1.64,0,1,1-2.672,1.275,1.676,1.676,0,0,1,.506-1.19l.7-.7a2.035,2.035,0,0,0,.594-1.442,2,2,0,0,0-.327-1.1c.184-.168.343-.317.528-.482h0C10.2,4.448,15.077.553,15.168.5c-.063.063-9.207,9.2-9.25,9.251a.234.234,0,1,0,.351.311C6.3,10.031,15.433.9,15.5.832,15.48.865,11.706,5.646,6.53,11.415Z" transform="translate(0)"/></g></g><g transform="translate(0.938 10.064)"><path d="M32.007,322.407a1.171,1.171,0,1,0,0,1.657A1.174,1.174,0,0,0,32.007,322.407Zm-.331,1.325a.7.7,0,1,1-.5-1.2A.7.7,0,0,1,31.675,323.732Z" transform="translate(-30.006 -322.063)"/></g><g transform="translate(3.588 12.72)"><path d="M115.991,407.051a1.173,1.173,0,0,0-.01,2.345,1.191,1.191,0,0,0,.456-.092,1.154,1.154,0,0,0,.725-1.081A1.173,1.173,0,0,0,115.991,407.051Zm.267,1.82a.7.7,0,1,1-.267-1.351.7.7,0,0,1,.7.7A.693.693,0,0,1,116.259,408.871Z" transform="translate(-114.818 -407.051)"/></g></g></g></svg>