<svg xmlns="http://www.w3.org/2000/svg" width="12.572" height="16" viewBox="0 0 12.572 16"><g transform="translate(-47.2)"><g transform="translate(47.2)"><path d="M53.482,0A6.357,6.357,0,0,0,47.2,6.413a6.44,6.44,0,0,0,.112,1.2c0,.023.016.094.043.215A6.407,6.407,0,0,0,47.775,9.1a17.926,17.926,0,0,0,5.431,6.8.438.438,0,0,0,.559,0A17.961,17.961,0,0,0,59.2,9.1a6.335,6.335,0,0,0,.421-1.265c.026-.121.039-.191.043-.215a6.729,6.729,0,0,0,.112-1.2A6.367,6.367,0,0,0,53.482,0Zm5.3,7.46c0,.007,0,.013,0,.02s-.013.067-.03.144v.007a5.4,5.4,0,0,1-.365,1.094s0,.01-.007.013a16.737,16.737,0,0,1-4.893,6.226A16.737,16.737,0,0,1,48.59,8.738s0-.01-.007-.013a5.762,5.762,0,0,1-.365-1.094V7.624c-.02-.077-.026-.127-.03-.144s0-.013,0-.023a5.588,5.588,0,0,1-.1-1.047,5.4,5.4,0,1,1,10.791,0A5.571,5.571,0,0,1,58.779,7.46Z" transform="translate(-47.2)" fill="#242424"/><path d="M120.905,71.9a4.141,4.141,0,1,0,3.905,4.134A4.031,4.031,0,0,0,120.905,71.9Zm0,7.349a3.22,3.22,0,1,1,3.037-3.215A3.133,3.133,0,0,1,120.905,79.249Z" transform="translate(-114.623 -69.526)" fill="#242424"/></g></g></svg>