<svg xmlns="http://www.w3.org/2000/svg" width="11" height="14" viewBox="0 0 11 14">
  <g id="Group_7844" data-name="Group 7844" transform="translate(0)">
    <path id="Path_9247" data-name="Path 9247" d="M52.7,0a5.563,5.563,0,0,0-5.5,5.612,5.635,5.635,0,0,0,.1,1.054c0,.021.014.082.037.188A5.606,5.606,0,0,0,47.7,7.96a15.686,15.686,0,0,0,4.752,5.952.383.383,0,0,0,.489,0A15.715,15.715,0,0,0,57.7,7.96a5.543,5.543,0,0,0,.368-1.106c.023-.106.035-.167.037-.188a5.888,5.888,0,0,0,.1-1.054A5.571,5.571,0,0,0,52.7,0Zm4.635,6.527c0,.006,0,.012,0,.018s-.011.059-.026.126v.006a4.726,4.726,0,0,1-.319.957s0,.009-.006.012A14.645,14.645,0,0,1,52.7,13.093a14.645,14.645,0,0,1-4.281-5.447s0-.009-.006-.012a5.041,5.041,0,0,1-.319-.957V6.671c-.017-.068-.023-.112-.026-.126s0-.012,0-.021a4.89,4.89,0,0,1-.086-.916,4.722,4.722,0,1,1,9.442,0A4.875,4.875,0,0,1,57.332,6.527Z" transform="translate(-47.2)" fill="#242424"/>
    <path id="Path_9248" data-name="Path 9248" d="M120.417,71.9a3.623,3.623,0,1,0,3.417,3.617A3.527,3.527,0,0,0,120.417,71.9Zm0,6.43a2.817,2.817,0,1,1,2.657-2.813A2.742,2.742,0,0,1,120.417,78.33Z" transform="translate(-114.92 -69.823)" fill="#242424"/>
  </g>
</svg>
