<svg xmlns="http://www.w3.org/2000/svg" width="20.667" height="26.105" viewBox="0 0 20.667 26.105">
  <g id="Group_9550" data-name="Group 9550" transform="translate(-4807 250)">
    <path id="Path_11256" data-name="Path 11256" d="M1120.632,82.981a10.323,10.323,0,0,0-10.333,10.29c0,2.325.664,4.1,4.217,8.912,3.2,3.944,5.626,6.528,5.65,6.559.167.217.282.354.466.344.155-.01.3-.127.467-.344.024-.031,2.97-3.311,6.057-7.023,2.971-3.6,3.81-6.123,3.81-8.447A10.324,10.324,0,0,0,1120.632,82.981Z" transform="translate(3696.701 -332.981)" fill="#0ca6b1"/>
    <g id="Group_9549" data-name="Group 9549" transform="translate(4810.096 -248.261)">
      <path id="Path_9474" data-name="Path 9474" d="M1185.7,97.8a5.152,5.152,0,0,0-.671.072l-.09.024,0,.8c0,.777,0,.8.022.816a3.611,3.611,0,0,0,.788.089l.2.01,0,.127,0,.125.151-.01c.2-.013.7-.013.912,0l.167.009v-.252l.207-.01a3.019,3.019,0,0,0,.789-.094l.03-.019V97.906l-.059-.021a3.285,3.285,0,0,0-.522-.073c-.218-.018-1.666-.026-1.928-.011Zm0,0" transform="translate(-1179.348 -97.793)" fill="#fff"/>
      <path id="Path_9475" data-name="Path 9475" d="M1152.922,110.133a5.839,5.839,0,0,0-.93.51c-.028.024-.051.051-.051.062a3.326,3.326,0,0,0,.371.633c.421.651.429.662.446.662a.293.293,0,0,0,.056-.012c.04-.011.042-.01.089.065.03.051.051.073.063.067s.088-.06.177-.121a6.829,6.829,0,0,1,.593-.366c.074-.041.14-.078.146-.085s0-.029-.016-.053l-.026-.042.04-.034.042-.034-.407-.65a5.49,5.49,0,0,0-.432-.654.718.718,0,0,0-.16.052Zm0,0" transform="translate(-1150.15 -108.639)" fill="#fff"/>
      <path id="Path_9476" data-name="Path 9476" d="M1229.447,110.677c-.217.346-.4.64-.406.652s0,.033.025.062l.035.038-.028.045-.028.046.066.033a8.189,8.189,0,0,1,.817.507c.04.029.066.04.071.031s.026-.043.047-.079.045-.063.058-.058a.443.443,0,0,0,.058.014c.037.006.043,0,.236-.3.11-.169.272-.421.361-.56s.185-.294.209-.346l.045-.094-.051-.044a5.3,5.3,0,0,0-1.082-.567l-.041-.008Zm0,0" transform="translate(-1218.353 -108.61)" fill="#fff"/>
      <path id="Path_9477" data-name="Path 9477" d="M1143.494,115.817l-.281.026a7.221,7.221,0,0,0-5.172,3,7.331,7.331,0,0,0-1.352,3.779,11.5,11.5,0,0,0,.019,1.267,7.319,7.319,0,0,0,1.66,3.948,9.444,9.444,0,0,0,.831.851,7.247,7.247,0,0,0,4.187,1.743c.23.016.833.016,1.055,0a7.07,7.07,0,0,0,2.712-.752,6.965,6.965,0,0,0,1.87-1.364,6.244,6.244,0,0,0,.676-.776,7.308,7.308,0,0,0,1.443-3.874c.016-.213.016-.84,0-1.066a7.336,7.336,0,0,0-2.349-4.882,7.159,7.159,0,0,0-4.225-1.88c-.134-.013-.938-.027-1.072-.017Zm1.135.591a6.609,6.609,0,0,1,4.572,2.626,6.814,6.814,0,0,1,1.112,2.317,6.294,6.294,0,0,1,.212,1.555,6.456,6.456,0,0,1-.334,2.251,6.588,6.588,0,0,1-1.165,2.137,8.594,8.594,0,0,1-.909.919,6.565,6.565,0,0,1-9.8-1.614,6.74,6.74,0,0,1,.1-7.249,6.609,6.609,0,0,1,5.051-2.966c.159-.012.987,0,1.161.024Zm0,0" transform="translate(-1136.679 -113.698)" fill="#fff"/>
      <path id="Path_9478" data-name="Path 9478" d="M1170.761,125.127c0,.047.022.068.22.214a1.289,1.289,0,0,1,.517.654.735.735,0,0,1,.03.284,1.019,1.019,0,0,1-.127.536,2.186,2.186,0,0,1-.781.844c-.061.041-.328.194-.595.343s-.573.323-.684.391a7.448,7.448,0,0,0-.848.587c-.077.075-.075.1.021.18a4.2,4.2,0,0,0,.433.291l.062.031.067-.044c.036-.025.148-.106.247-.183s.4-.3.665-.491a9.156,9.156,0,0,0,1.29-1.034,2.563,2.563,0,0,0,.679-1.135,1.408,1.408,0,0,0,.03-.42,1.653,1.653,0,0,0-.15-.418.683.683,0,0,0-.146-.2,1.873,1.873,0,0,0-.86-.463l-.068-.009Zm0,0" transform="translate(-1164.763 -121.885)" fill="#fff"/>
      <path id="Path_9479" data-name="Path 9479" d="M1179.843,126.346c-.029.066-.09.212-.138.327a5.727,5.727,0,0,1-1.33,1.955,8.257,8.257,0,0,1-1.3,1.019,6.362,6.362,0,0,0-1.27,1c0,.044.088.122.289.254a1.79,1.79,0,0,0,.413.233c.031,0,.07-.029.355-.264.138-.114.345-.283.458-.374a10.22,10.22,0,0,0,1.457-1.329,5.368,5.368,0,0,0,.828-1.551,6.978,6.978,0,0,0,.328-1.3c0-.119-.025-.108-.088.036Zm0,0" transform="translate(-1171.278 -122.891)" fill="#fff"/>
      <path id="Path_9480" data-name="Path 9480" d="M1180.069,139.762c-.019.031,0,.1.072.327a4.112,4.112,0,0,0,.234.592.083.083,0,0,0,.046.033,1.7,1.7,0,0,0,.308-.16c.061-.048.033-.1-.2-.385a2.814,2.814,0,0,0-.365-.386c-.054-.04-.079-.046-.093-.022Zm0,0" transform="translate(-1175.027 -134.823)" fill="#fff"/>
      <path id="Path_9481" data-name="Path 9481" d="M1188.077,146.5c-.025.031-.1.142-.178.249a7,7,0,0,1-1.7,1.735c-.522.428-.82.681-.85.718s-.024.059.01.1a1.64,1.64,0,0,0,.471.291c.034,0,.073-.033.324-.286.341-.346.808-.833.959-1a5.135,5.135,0,0,0,.912-1.4c.1-.229.152-.458.11-.458a.235.235,0,0,0-.055.054Zm0,0" transform="translate(-1179.693 -140.732)" fill="#fff"/>
      <path id="Path_9482" data-name="Path 9482" d="M1159.57,156.911c-.02.023-.009.058.048.153a9.74,9.74,0,0,0,1.172,1.395,15.657,15.657,0,0,0,2.664,2.052,5.787,5.787,0,0,0,1.334.763,6.194,6.194,0,0,1,1.079.611c.289.182.78.491,1.092.684.837.523.808.509,1.162.509a.8.8,0,0,0,.351-.037.983.983,0,0,0,.557-.5,1.077,1.077,0,0,0,.114-.607,1.167,1.167,0,0,0-.6-.826c-.1-.068-.335-.22-.521-.337-.6-.382-.655-.407-.851-.438a.8.8,0,0,0-.387.034,1.13,1.13,0,0,0-.645.538c-.068.109-.072.113-.119.113s-.062,0-.35-.173c-.569-.334-3.772-2.406-4.261-2.756-.087-.062-.39-.268-.671-.458s-.614-.414-.736-.5a1.756,1.756,0,0,0-.4-.241.05.05,0,0,0-.031.019Zm4.817,3.405a.194.194,0,0,1,.071.258.228.228,0,0,1-.382.043.225.225,0,0,1,0-.273.192.192,0,0,1,.183-.068.179.179,0,0,1,.125.04Zm2.782.7c.144.069,1,.6,1.131.7a.4.4,0,0,1,.1.129.253.253,0,0,1,.043.168.427.427,0,0,1-.134.318.29.29,0,0,1-.24.116,12.93,12.93,0,0,1-1.284-.81.372.372,0,0,1-.1-.4.477.477,0,0,1,.225-.239.269.269,0,0,1,.257.017Zm0,0" transform="translate(-1156.875 -149.955)" fill="#fff"/>
      <path id="Path_9483" data-name="Path 9483" d="M1158.146,165.385a2.535,2.535,0,0,0-.407.9,3.42,3.42,0,0,0,.027,1.477c.088.4.148.338.232-.218a2.518,2.518,0,0,1,.185-.713,3.549,3.549,0,0,1,.342-.672c.156-.243.171-.269.16-.311a3.244,3.244,0,0,0-.361-.408c-.092-.088-.132-.1-.178-.052Zm0,0" transform="translate(-1155.235 -157.428)" fill="#fff"/>
      <path id="Path_9484" data-name="Path 9484" d="M1193.313,168.345a3.965,3.965,0,0,0-.546.562c-.033.055-.03.086.023.224l.049.12.11.075c.341.229.843.543.967.607s.132.051.1-.058c-.052-.186-.483-1.312-.568-1.479-.042-.087-.066-.094-.138-.05Zm0,0" transform="translate(-1186.241 -160.041)" fill="#fff"/>
      <path id="Path_9485" data-name="Path 9485" d="M1163.323,171.726a1.25,1.25,0,0,0-.127.17,2.572,2.572,0,0,0-.228,2.624,4.159,4.159,0,0,0,1.278,1.47,8.074,8.074,0,0,1,.921.882,3.315,3.315,0,0,1,.491.846c.08.214.126.29.178.29s.124-.1.229-.315a2.258,2.258,0,0,0,.265-1.163,1.843,1.843,0,0,0-.184-.768,4.869,4.869,0,0,0-.617-1.1,3.02,3.02,0,0,1-.408-.949,2.932,2.932,0,0,1-.018-.344l0-.247-.036-.047a2.314,2.314,0,0,0-.55-.408q-.131,0-.229.549a4.7,4.7,0,0,0,.007,1.026,5.969,5.969,0,0,0,.146.671c.065.233.075.3.047.3a2.07,2.07,0,0,1-.386-.5c-.068-.13-.233-.524-.272-.646a1.733,1.733,0,0,1-.057-.581,2.517,2.517,0,0,1,.217-.95c.048-.119.088-.221.088-.228a.972.972,0,0,0-.131-.127l-.324-.284c-.215-.191-.249-.209-.3-.17Zm0,0" transform="translate(-1159.697 -163.033)" fill="#fff"/>
      <path id="Path_9486" data-name="Path 9486" d="M1195.791,195.3a1.1,1.1,0,0,0,.1.344c.084.216.091.246.069.3s-.012.04-.291.168a.919.919,0,0,0-.517.6.608.608,0,0,0-.042.251,3.448,3.448,0,0,0,.4,1.181,3.118,3.118,0,0,0,.365.756.961.961,0,0,0,.86.329,1.06,1.06,0,0,0,.625-.3.871.871,0,0,0,.229-.362,1.167,1.167,0,0,0,.025-.507c-.033-.146-.239-.689-.689-1.835l-.218-.552-.109-.072a2.076,2.076,0,0,0-.534-.246c-.2-.06-.259-.071-.271-.055Zm.461,1.33c.152.057.172.09.411.665a4.006,4.006,0,0,1,.365,1.007.347.347,0,0,1-.259.3.365.365,0,0,1-.385-.071,3,3,0,0,1-.38-.807c-.292-.735-.3-.767-.24-.9a.4.4,0,0,1,.489-.2Zm0,0" transform="translate(-1188.339 -183.853)" fill="#fff"/>
    </g>
  </g>
</svg>
