<svg xmlns="http://www.w3.org/2000/svg" width="20" height="18.25" viewBox="0 0 20 18.25"><g transform="translate(-1327 -143)"><g transform="translate(1327 120.603)"><g transform="translate(5.828 29.427)"><g transform="translate(0 0)"><path d="M163.12,203.975l-2.14-1.509a.586.586,0,0,0-.924.479v.923H149.781a.586.586,0,1,0,0,1.172h10.275v.923a.587.587,0,0,0,.924.479l2.14-1.509A.587.587,0,0,0,163.12,203.975Z" transform="translate(-149.195 -202.358)" fill="#666"/></g></g><g transform="translate(0 22.397)"><g transform="translate(0 0)"><path d="M16.815,35.285a.586.586,0,0,0-.8.214,7.953,7.953,0,1,1,0-7.953.586.586,0,1,0,1.014-.587,9.125,9.125,0,1,0,0,9.126A.586.586,0,0,0,16.815,35.285Z" transform="translate(0 -22.397)" fill="#666"/></g></g></g></g></svg>