<svg xmlns="http://www.w3.org/2000/svg" width="14.173" height="22.51" viewBox="0 0 14.173 22.51"><g transform="translate(753.18 -932)"><path d="M-752.536,954.51h12.884a.652.652,0,0,0,.644-.659V936.616a.652.652,0,0,0-.644-.66h-5.067l2.341-2.875a.67.67,0,0,0-.083-.929.634.634,0,0,0-.907.084l-2.726,3.349-2.726-3.349a.634.634,0,0,0-.907-.084.67.67,0,0,0-.082.929l2.341,2.875h-5.067a.652.652,0,0,0-.644.66v17.235a.652.652,0,0,0,.644.659Zm.644-1.319V941.232h11.6v11.959Zm5.154-15.916h1.289v.386l-.644.659-.644-.659Zm-1.288,0v.66a.668.668,0,0,0,.189.466l1.288,1.319a.635.635,0,0,0,.456.193.634.634,0,0,0,.456-.193l1.288-1.319a.666.666,0,0,0,.189-.466v-.66h3.865v2.638h-11.6v-2.638Zm0,0" transform="translate(0)" fill="#fff"/><path d="M-684.937,1175.561l-2.3-.365-1.034-2.286a.634.634,0,0,0-.575-.379.634.634,0,0,0-.575.379l-1.034,2.286-2.3.365a.642.642,0,0,0-.507.443.678.678,0,0,0,.148.67l1.683,1.79-.4,2.535a.671.671,0,0,0,.261.645.616.616,0,0,0,.673.038l2.049-1.176,2.049,1.176a.616.616,0,0,0,.673-.038.671.671,0,0,0,.261-.645l-.4-2.535,1.682-1.79a.678.678,0,0,0,.148-.67.642.642,0,0,0-.507-.443Zm-2.457,2.219a.675.675,0,0,0-.172.567l.239,1.523-1.211-.695a.617.617,0,0,0-.307-.082.617.617,0,0,0-.307.082l-1.211.695.239-1.523a.675.675,0,0,0-.172-.567l-1.043-1.109,1.412-.224a.639.639,0,0,0,.479-.372l.6-1.333.6,1.333a.638.638,0,0,0,.479.372l1.412.224Zm0,0" transform="translate(-57.247 -229.936)" fill="#fff"/></g></svg>