<?xml version="1.0"?>
<svg xmlns="http://www.w3.org/2000/svg" height="512px" viewBox="0 0 64 64" width="512px"><g><g id="id_card-passport-badge" data-name="id card-passport-badge"><path d="m32 5a3 3 0 1 0 3 3 3 3 0 0 0 -3-3zm0 4a1 1 0 1 1 1-1 1 1 0 0 1 -1 1z" data-original="#000000" class="active-path" data-old_color="#000000" fill="#FF9944"/><path d="m30 13h4v2h-4z" data-original="#000000" class="active-path" data-old_color="#000000" fill="#FF9944"/><path d="m61 42.83v-26.83a3.009 3.009 0 0 0 -3-3h-20v-10a1 1 0 0 0 -1-1h-10a1 1 0 0 0 -1 1v10h-20a3.009 3.009 0 0 0 -3 3v32a3.009 3.009 0 0 0 3 3h28.33a14 14 0 0 0 27.67-3 13.877 13.877 0 0 0 -1-5.17zm-33-38.83h8v13h-8zm6.05 45h-28.05a1 1 0 0 1 -1-1v-32a1 1 0 0 1 1-1h20v3a1 1 0 0 0 1 1h10a1 1 0 0 0 1-1v-3h20a1 1 0 0 1 1 1v23.37a13.984 13.984 0 0 0 -25 8.63c0 .34.03.67.05 1zm13.95 11a12 12 0 1 1 12-12 12.01 12.01 0 0 1 -12 12z" data-original="#000000" class="active-path" data-old_color="#000000" fill="#FF9944"/><path d="m45 52.586-4.293-4.293-1.414 1.414 5 5a1 1 0 0 0 1.414 0l11-11-1.414-1.414z" data-original="#000000" class="active-path" data-old_color="#000000" fill="#FF9944"/><path d="m24 21h-16a1 1 0 0 0 -1 1v16a1 1 0 0 0 1 1h16a1 1 0 0 0 1-1v-16a1 1 0 0 0 -1-1zm-13.91 16a5.993 5.993 0 0 1 11.82 0zm3.91-9a2 2 0 1 1 2 2 2.006 2.006 0 0 1 -2-2zm9 6.14a8.038 8.038 0 0 0 -3.98-3.54 4 4 0 1 0 -6.04 0 8.038 8.038 0 0 0 -3.98 3.54v-11.14h14z" data-original="#000000" class="active-path" data-old_color="#000000" fill="#FF9944"/><path d="m27 22h30v2h-30z" data-original="#000000" class="active-path" data-old_color="#000000" fill="#FF9944"/><path d="m27 27h30v2h-30z" data-original="#000000" class="active-path" data-old_color="#000000" fill="#FF9944"/><path d="m27 32h10v2h-10z" data-original="#000000" class="active-path" data-old_color="#000000" fill="#FF9944"/></g></g> </svg>
