<svg xmlns="http://www.w3.org/2000/svg" width="24" height="24" viewBox="0 0 24 24">
  <g id="Group_14104" data-name="Group 14104" transform="translate(-348 -773)">
    <g id="Ellipse_232" data-name="Ellipse 232" transform="translate(348 773)" fill="none" stroke="#333" stroke-width="1">
      <circle cx="12" cy="12" r="12" stroke="none"/>
      <circle cx="12" cy="12" r="11.5" fill="none"/>
    </g>
    <path id="Subtraction_3" data-name="Subtraction 3" d="M-20659.312,2021c-.461,0-.971-.021-1.473-.062-2.957-.218-4.729-1.386-5.125-3.376a7.682,7.682,0,0,1,1.307-5.233,10.14,10.14,0,0,1,3.641-3.755,4.465,4.465,0,0,1-1.748-2.7.822.822,0,0,1,.125-.669.572.572,0,0,1,.451-.2,2.318,2.318,0,0,1,.877.28l.063.021a2.567,2.567,0,0,0,1.063.316.557.557,0,0,0,.131-.01,5.291,5.291,0,0,0,.74-.185l.182-.054a6.629,6.629,0,0,1,1.576-.337,1.315,1.315,0,0,1,.225.021c.061.01.1.059.123.145a5.057,5.057,0,0,1-1.611,3.278,10.2,10.2,0,0,1,4.039,3.817,7.761,7.761,0,0,1,1.494,5.42C-20653.547,2019.21-20654.852,2021-20659.312,2021Zm-3.2-5.026a3.26,3.26,0,0,0,1.152,1.857,3.313,3.313,0,0,0,2.121.69,3.454,3.454,0,0,0,2.152-.653,3.218,3.218,0,0,0,1.156-1.784h-1.213a2.06,2.06,0,0,1-.789,1.006,2.3,2.3,0,0,1-1.328.374,2.1,2.1,0,0,1-1.26-.394,2.176,2.176,0,0,1-.783-1.094h2.23v-.56h-2.359a3.734,3.734,0,0,1-.031-.482c0-.072,0-.166.012-.287l.008-.113h2.371v-.571h-2.246a2.176,2.176,0,0,1,.773-1.157,2.092,2.092,0,0,1,1.285-.415,2.282,2.282,0,0,1,1.334.379,2.069,2.069,0,0,1,.783,1.011h1.213a3.257,3.257,0,0,0-1.156-1.789,3.427,3.427,0,0,0-2.152-.659,3.279,3.279,0,0,0-2.146.716,3.38,3.38,0,0,0-1.148,1.914h-.906v.571h.83c-.018.193-.021.323-.021.4s0,.238.021.482h-.83v.56Z" transform="translate(21019.998 -1229)" fill="#333"/>
  </g>
</svg>
