<svg xmlns="http://www.w3.org/2000/svg" width="24" height="24" viewBox="0 0 24 24"><g transform="translate(-16 -398.001)"><rect width="24" height="24" transform="translate(16 398.001)" fill="none"/><g transform="translate(18.001 400.001)"><path d="M18.858,4.842H15.59V.59A.591.591,0,0,0,15,0H.59A.591.591,0,0,0,0,.59V17.48A2.523,2.523,0,0,0,2.519,20H16.928a2.523,2.523,0,0,0,2.52-2.52V5.433a.591.591,0,0,0-.591-.591ZM18.267,17.48a1.339,1.339,0,1,1-2.677,0V6.023h2.677ZM2.519,18.819A1.34,1.34,0,0,1,1.18,17.48V1.181H14.409v16.3a2.5,2.5,0,0,0,.387,1.339Zm0,0" fill="#fff"/><path d="M80.039,70.551h-8.9a.591.591,0,0,0-.591.591v4.173a.591.591,0,0,0,.591.591h8.9a.591.591,0,0,0,.591-.591V71.141A.591.591,0,0,0,80.039,70.551Zm-.591,4.173H71.732V71.732h7.717Zm0,0" transform="translate(-67.796 -67.795)" fill="#fff"/><path d="M80.039,411.211h-8.9a.591.591,0,0,0,0,1.181h8.9a.591.591,0,0,0,0-1.181Zm0,0" transform="translate(-67.796 -395.148)" fill="#fff"/><path d="M80.039,352.758h-8.9a.591.591,0,1,0,0,1.181h8.9a.591.591,0,0,0,0-1.181Zm0,0" transform="translate(-67.796 -338.979)" fill="#fff"/><path d="M80.039,294.3h-8.9a.591.591,0,1,0,0,1.181h8.9a.591.591,0,1,0,0-1.181Zm0,0" transform="translate(-67.796 -282.805)" fill="#fff"/><path d="M80.039,235.844h-8.9a.591.591,0,1,0,0,1.181h8.9a.591.591,0,0,0,0-1.181Zm0,0" transform="translate(-67.796 -226.632)" fill="#fff"/></g></g></svg>