<?xml version="1.0" encoding="UTF-8" standalone="no"?>
<!-- Created with Inkscape (http://www.inkscape.org/) -->

<svg
   xmlns:dc="http://purl.org/dc/elements/1.1/"
   xmlns:cc="http://creativecommons.org/ns#"
   xmlns:rdf="http://www.w3.org/1999/02/22-rdf-syntax-ns#"
   xmlns:svg="http://www.w3.org/2000/svg"
   xmlns="http://www.w3.org/2000/svg"
   xmlns:sodipodi="http://sodipodi.sourceforge.net/DTD/sodipodi-0.dtd"
   xmlns:inkscape="http://www.inkscape.org/namespaces/inkscape"
   id="svg2"
   version="1.1"
   inkscape:version="0.91 r13725"
   width="800"
   height="800"
   viewBox="0 0 800 800"
   sodipodi:docname="phone.svg">
  <metadata
     id="metadata8">
    <rdf:RDF>
      <cc:Work
         rdf:about="">
        <dc:format>image/svg+xml</dc:format>
        <dc:type
           rdf:resource="http://purl.org/dc/dcmitype/StillImage" />
        <dc:title></dc:title>
      </cc:Work>
    </rdf:RDF>
  </metadata>
  <defs
     id="defs6" />
  <sodipodi:namedview
     pagecolor="#ffffff"
     bordercolor="#666666"
     borderopacity="1"
     objecttolerance="10"
     gridtolerance="10"
     guidetolerance="10"
     inkscape:pageopacity="0"
     inkscape:pageshadow="2"
     inkscape:window-width="1366"
     inkscape:window-height="668"
     id="namedview4"
     showgrid="false"
     inkscape:zoom="0.45046327"
     inkscape:cx="-104.33703"
     inkscape:cy="84.357599"
     inkscape:window-x="0"
     inkscape:window-y="1"
     inkscape:window-maximized="1"
     inkscape:current-layer="svg2" />
  <g
     id="g3338"
     transform="matrix(1.2043119,0,0,1.2043119,-597.04277,23.060962)"
     style="fill:#1a1a1a">
    <path
       style="fill:#1a1a1a"
       d="M 922.26545,561.95211 C 888.56153,559.72909 855.57083,545.9255 830.08935,523.3849 822.38962,516.5738 618.86398,312.59046 614.62951,307.44051 583.78702,269.92993 572.10143,221.36606 582.50129,173.91964 c 4.59964,-20.98454 14.30057,-42.11843 27.2409,-59.34541 5.70884,-7.59998 11.77075,-14.16965 26.28412,-28.485772 14.04306,-13.852201 17.6341,-16.867919 22.64861,-19.020119 9.41728,-4.041841 19.77358,-4.311895 29.55985,-0.77081 7.47907,2.706244 7.88477,3.06713 44.68489,39.748761 18.4807,18.4212 34.50873,34.69405 35.61783,36.16189 2.73414,3.61848 5.02991,8.12687 6.3872,12.54307 1.04384,3.39635 1.12948,4.20422 1.12948,10.65492 0,6.44559 -0.0862,7.26034 -1.12597,10.64278 -1.21184,3.94224 -3.21042,8.21296 -5.27212,11.26589 -0.70764,1.04786 -9.07779,9.75762 -18.60034,19.35502 -9.52255,9.5974 -18.18052,18.67969 -19.23994,20.18286 -5.42956,7.70386 -8.27342,18.22585 -7.29489,26.99036 0.53233,4.76796 1.46978,8.47947 3.14801,12.46338 3.01589,7.15942 1.30107,5.34331 71.3041,75.51558 71.44373,71.61645 67.93909,68.31754 76.122,71.65367 5.61184,2.28793 10.43299,3.11861 16.78722,2.89245 8.26912,-0.29432 14.96224,-2.42608 21.60444,-6.881 1.585,-1.06306 9.59451,-8.6758 20.27512,-19.27075 9.84868,-9.76971 18.6536,-18.16023 19.91332,-18.97613 7.16996,-4.6439 13.42456,-6.49561 21.94043,-6.49561 8.00427,0 14.95509,2.11587 21.65993,6.59341 3.07462,2.05327 67.51832,66.13252 71.60102,71.19619 3.0784,3.81793 5.4363,8.38757 6.9997,13.56532 1.0116,3.35034 1.1163,4.30844 1.1224,10.2646 0.01,5.51176 -0.1387,7.09814 -0.8962,9.85402 -1.0021,3.64582 -3.4484,9.03264 -5.4557,12.01344 -1.6375,2.4316 -29.9045,30.92821 -35.4865,35.77475 -25.4227,22.07303 -56.55451,35.11141 -90.26962,37.80599 -4.84958,0.38759 -17.66716,0.46675 -22.62513,0.13972 z m 27.9197,-17.1429 c 27.36493,-3.76592 51.06455,-14.23786 72.46805,-32.02083 3.6692,-3.0485 4.0894,-3.47181 4.0996,-4.12977 0.01,-0.58332 -92.43532,-92.9634 -93.30551,-93.24062 -0.50437,-0.16069 -1.87922,0.76028 -4.51642,3.02538 -8.8315,7.58539 -17.44331,11.81441 -28.22108,13.85857 -5.28348,1.0021 -15.24114,1.01508 -20.30901,0.0265 -9.94017,-1.93906 -17.73391,-5.47555 -25.4711,-11.5578 -4.68692,-3.68442 -133.39247,-132.68715 -135.98114,-136.29512 -15.90874,-22.1729 -14.7528,-51.52843 2.82297,-71.69052 1.45549,-1.66966 2.98792,-3.55776 3.4054,-4.19576 l 0.75907,-1.16001 -46.56363,-46.57037 c -25.61,-25.61372 -46.87249,-46.57039 -47.24997,-46.57039 -1.47856,0 -11.3412,12.81935 -16.89985,21.96624 -10.27744,16.91175 -16.26042,34.3347 -19.24556,56.04471 -0.83122,6.04522 -0.70305,26.37514 0.20708,32.84671 3.88572,27.62965 14.30436,51.36695 31.53697,71.85219 4.89577,5.81984 210.1148,211.3808 215.30173,215.66044 22.83647,18.84203 47.12063,29.26848 75.76382,32.52925 6.8288,0.77744 24.55054,0.56361 31.39858,-0.3788 z m 97.99055,-56.78672 c 7.7846,-7.8722 8.555,-8.78481 10.1376,-12.00958 3.1497,-6.41787 3.1554,-12.78735 0.017,-19.29744 -1.1764,-2.44046 -4.2418,-5.62521 -35.8291,-37.22303 -30.57929,-30.5895 -34.83664,-34.70031 -37.10462,-35.82724 -4.84887,-2.40932 -10.35832,-3.09732 -15.03938,-1.87806 -5.19427,1.35293 -6.48087,2.29283 -15.96393,11.66198 -4.91149,4.85262 -8.93008,9.10901 -8.93008,9.45866 0,0.83766 92.80391,93.63433 93.64171,93.63433 0.3551,0 4.4369,-3.83383 9.0705,-8.51962 z M 746.23864,188.09094 c 4.15505,-4.12124 8.38917,-8.65241 9.40914,-10.06926 4.76227,-6.6153 5.41285,-14.9045 1.7425,-22.20166 -1.51695,-3.01591 -2.95226,-4.51058 -35.77959,-37.2595 -21.3006,-21.249706 -34.90201,-34.515959 -36.06255,-35.173904 -6.93557,-3.932001 -15.26832,-3.927565 -22.14019,0.01178 -2.23571,1.281642 -18.90253,17.640804 -18.90253,18.553614 0,0.8017 92.79082,93.63207 93.59218,93.63207 0.32252,0 3.98598,-3.37192 8.14104,-7.49315 z"
       id="path3340"
       inkscape:connector-curvature="0" />
  </g>
</svg>
