<?xml version="1.0" encoding="UTF-8" standalone="no"?>
<svg
   xmlns:dc="http://purl.org/dc/elements/1.1/"
   xmlns:cc="http://creativecommons.org/ns#"
   xmlns:rdf="http://www.w3.org/1999/02/22-rdf-syntax-ns#"
   xmlns:svg="http://www.w3.org/2000/svg"
   xmlns="http://www.w3.org/2000/svg"
   xmlns:sodipodi="http://sodipodi.sourceforge.net/DTD/sodipodi-0.dtd"
   xmlns:inkscape="http://www.inkscape.org/namespaces/inkscape"
   height="800pt"
   viewBox="0 -1 801.04317 800"
   width="800pt"
   id="svg2"
   version="1.1"
   inkscape:version="0.91 r13725"
   sodipodi:docname="edit.svg">
  <metadata
     id="metadata12">
    <rdf:RDF>
      <cc:Work
         rdf:about="">
        <dc:format>image/svg+xml</dc:format>
        <dc:type
           rdf:resource="http://purl.org/dc/dcmitype/StillImage" />
        <dc:title></dc:title>
      </cc:Work>
    </rdf:RDF>
  </metadata>
  <defs
     id="defs10" />
  <sodipodi:namedview
     pagecolor="#ffffff"
     bordercolor="#666666"
     borderopacity="1"
     objecttolerance="10"
     gridtolerance="10"
     guidetolerance="10"
     inkscape:pageopacity="0"
     inkscape:pageshadow="2"
     inkscape:window-width="1366"
     inkscape:window-height="668"
     id="namedview8"
     showgrid="false"
     inkscape:zoom="0.47082294"
     inkscape:cx="494.87818"
     inkscape:cy="590.45551"
     inkscape:window-x="0"
     inkscape:window-y="1"
     inkscape:window-maximized="1"
     inkscape:current-layer="svg2" />
  <path
     d="m 603.80682,459.99879 c -6.61158,0 -11.97006,5.35847 -11.97006,11.97006 l 0,106.28102 c -0.0233,19.82541 -16.08476,35.89147 -35.91017,35.91018 l -335.86767,0 c -19.82541,-0.0187 -35.88679,-16.08477 -35.91017,-35.91018 l 0,-311.92755 c 0.0234,-19.82074 16.08476,-35.8868 35.91017,-35.91018 l 106.28102,0 c 6.61159,0 11.97006,-5.35848 11.97006,-11.97005 0,-6.60691 -5.35847,-11.97006 -11.97006,-11.97006 l -106.28102,0 c -33.03923,0.0373 -59.81288,26.81105 -59.85029,59.85029 l 0,311.93222 c 0.0374,33.03924 26.81106,59.81288 59.85029,59.85029 l 335.86767,0 c 33.03924,-0.0373 59.81288,-26.81105 59.85029,-59.85029 l 0,-106.28569 c 0,-6.61159 -5.35847,-11.97006 -11.97006,-11.97006 z m 0,0"
     id="path4"
     inkscape:connector-curvature="0"
     style="fill:#1a1a1a" />
  <path
     d="m 611.03562,175.67251 c -21.03644,-21.03645 -55.14176,-21.03645 -76.1782,0 L 321.3041,389.22582 c -1.46353,1.46352 -2.52026,3.27774 -3.07201,5.26963 l -28.08287,101.38546 c -1.15493,4.15678 0.0187,8.60815 3.06733,11.66146 3.0533,3.04861 7.50467,4.22224 11.66145,3.07199 l 101.38546,-28.08755 c 1.9919,-0.55175 3.8061,-1.60847 5.26964,-3.07201 L 625.08173,265.89682 c 21.00372,-21.05047 21.00372,-55.12773 0,-76.17821 z M 347.38573,397.00636 522.16261,222.2248 578.52944,278.59163 403.74788,453.37317 Z m -11.25933,22.59349 45.03267,45.03734 -62.29107,17.25838 z M 608.15533,248.9704 595.46052,261.66521 539.08903,205.29372 551.7885,192.59891 c 11.68484,-11.68484 30.6312,-11.68484 42.31603,0 l 14.0508,14.04612 c 11.66613,11.69887 11.66613,30.63119 0,42.32537 z m 0,0"
     id="path6"
     inkscape:connector-curvature="0"
     style="fill:#1a1a1a" />
</svg>
