<?xml version="1.0" encoding="UTF-8" standalone="no"?>
<!-- Created with Inkscape (http://www.inkscape.org/) -->

<svg
   xmlns:dc="http://purl.org/dc/elements/1.1/"
   xmlns:cc="http://creativecommons.org/ns#"
   xmlns:rdf="http://www.w3.org/1999/02/22-rdf-syntax-ns#"
   xmlns:svg="http://www.w3.org/2000/svg"
   xmlns="http://www.w3.org/2000/svg"
   xmlns:sodipodi="http://sodipodi.sourceforge.net/DTD/sodipodi-0.dtd"
   xmlns:inkscape="http://www.inkscape.org/namespaces/inkscape"
   width="800"
   height="800"
   viewBox="0 0 800.00001 800.00001"
   id="svg2"
   version="1.1"
   inkscape:version="0.91 r13725"
   sodipodi:docname="adresse.svg">
  <defs
     id="defs4" />
  <sodipodi:namedview
     id="base"
     pagecolor="#ffffff"
     bordercolor="#666666"
     borderopacity="1.0"
     inkscape:pageopacity="0.0"
     inkscape:pageshadow="2"
     inkscape:zoom="0.35"
     inkscape:cx="132.14286"
     inkscape:cy="462.682"
     inkscape:document-units="px"
     inkscape:current-layer="g3338"
     showgrid="false"
     units="px"
     inkscape:window-width="1366"
     inkscape:window-height="668"
     inkscape:window-x="0"
     inkscape:window-y="1"
     inkscape:window-maximized="1" />
  <metadata
     id="metadata7">
    <rdf:RDF>
      <cc:Work
         rdf:about="">
        <dc:format>image/svg+xml</dc:format>
        <dc:type
           rdf:resource="http://purl.org/dc/dcmitype/StillImage" />
        <dc:title></dc:title>
      </cc:Work>
    </rdf:RDF>
  </metadata>
  <g
     inkscape:label="Ebene 1"
     inkscape:groupmode="layer"
     id="layer1"
     transform="translate(0,-252.36216)">
    <g
       transform="matrix(0.97747192,0,0,0.97747192,-310.98533,308.49172)"
       id="g3338"
       style="fill:#1a1a1a">
      <path
         inkscape:connector-curvature="0"
         id="path3340"
         d="m 765.37133,659.22102 c -21.44057,-4.59923 -37.99027,-20.21344 -43.8143,-41.33774 l -1.33009,-4.82432 -0.12068,-55.01645 c -0.0664,-30.25905 -0.23796,-55.51604 -0.38129,-56.12665 -0.14752,-0.62847 -0.6312,-1.10661 -1.11469,-1.10194 -0.46974,0.004 -5.71694,4.45516 -11.66043,9.89026 -5.9435,5.43509 -11.06731,9.81667 -11.38626,9.73683 -0.94534,-0.23669 -18.5645,-19.76566 -18.4098,-20.4053 0.17724,-0.73278 178.11598,-163.10508 178.54786,-162.92813 0.52277,0.21418 178.58415,162.77954 178.58415,163.04262 0,0.67937 -18.515,20.4112 -19.0375,20.28869 -0.3358,-0.0787 -5.4102,-4.52837 -11.2766,-9.88816 -6.31394,-5.76864 -11.06351,-9.74507 -11.63987,-9.74507 -0.96326,0 -0.97372,0.56981 -0.97658,53.16612 -0.005,58.38672 -0.008,58.5044 -2.96828,67.3391 -6.13169,18.30193 -20.23139,31.59326 -39.51542,37.24999 l -4.6351,1.35962 -87.33552,0.10012 c -82.86813,0.0949 -87.55006,0.054 -91.5296,-0.79959 z m 175.5363,-27.90746 c 10.07852,-2.37626 18.52263,-10.64585 21.41102,-20.96842 0.90962,-3.2508 1.19699,-135.4292 0.29793,-137.0495 -1.13837,-2.05169 -106.08634,-97.32776 -107.17236,-97.29547 -0.62774,0.0187 -21.09882,18.38352 -54.05316,48.49176 l -53.04276,48.46172 0,68.07896 c 0,65.06334 0.0407,68.19918 0.91755,70.7928 1.21328,3.5885 3.45369,7.60199 5.84677,10.47389 3.48945,4.18772 11.09567,8.4831 16.67318,9.41571 0.67845,0.11344 38.31414,0.23324 83.63486,0.26615 71.03354,0.0517 82.82699,-0.0405 85.48697,-0.6676 z M 829.84929,559.1981 c -0.18328,-0.18326 -0.33323,-12.17531 -0.33323,-26.64903 l 0,-26.31577 26.64902,0 26.64902,0 -0.12764,26.52138 -0.12764,26.52138 -26.18815,0.12765 c -14.40349,0.0702 -26.33811,-0.0222 -26.52138,-0.20561 z M 645.96344,640.91322 C 613.51101,613.1458 577.2295,577.5769 547.53078,544.41387 473.85905,462.14845 431.33602,386.30052 422.47075,321.34547 c -4.0149,-29.41689 -1.96779,-63.29459 5.62905,-93.15495 4.37879,-17.21143 9.4236,-30.84531 17.52724,-47.36842 18.9312,-38.60025 46.46541,-70.37238 82.40877,-95.092719 12.56449,-8.641337 33.13498,-19.526795 47.61513,-25.196904 48.24047,-18.889912 101.2554,-22.133365 150.98683,-9.237373 60.03224,15.567118 112.49938,53.881786 145.74004,106.428126 23.56308,37.2482 36.68231,80.61362 37.66362,124.4969 0.0819,3.66365 0.0138,6.7722 -0.15128,6.90789 -0.1651,0.13569 -6.82628,-5.69766 -14.80263,-12.96301 l -14.50238,-13.20972 -1.60318,-9.73436 C 870.25369,200.22358 842.27248,152.58731 800.15751,119.02717 773.09629,97.462915 741.57639,82.764069 707.88777,75.998521 c -15.92409,-3.197966 -21.7855,-3.710497 -42.4342,-3.710497 -20.91218,0 -26.48484,0.501947 -43.42105,3.911082 -84.32262,16.973527 -151.80311,84.454324 -168.76694,168.767734 -5.77004,28.67814 -5.92997,61.49746 -0.422,86.59539 11.0658,50.423 42.74651,107.27395 94.18433,169.0135 29.97651,35.98007 68.92963,76.07739 104.2527,107.31499 l 3.08307,2.72645 -0.1294,18.63108 -0.1294,18.63109 -8.14144,-6.96612 z m 7.89473,-258.05017 c -20.75531,-2.86291 -38.95168,-11.45204 -53.63236,-25.31578 -20.98134,-19.81377 -31.61177,-46.92256 -29.70582,-75.75314 1.93674,-29.29629 17.56887,-56.14888 42.39031,-72.81732 8.69484,-5.83888 21.34991,-11.22636 31.81958,-13.54612 10.10996,-2.24006 23.92755,-2.7633 34.05585,-1.2896 42.3754,6.16576 75.34503,39.51236 80.88832,81.81319 5.25875,40.12953 -15.51508,79.23508 -51.74358,97.40436 -8.52521,4.27555 -16.61974,6.96693 -26.68743,8.87341 -4.65856,0.88218 -22.57157,1.29492 -27.38487,0.631 z m 21.06052,-28.38145 c 25.105,-3.72774 45.85135,-21.045 53.85787,-44.95591 2.54959,-7.61416 3.25717,-12.29228 3.23447,-21.38451 -0.0305,-12.21942 -1.89649,-19.90994 -7.43446,-30.64061 -7.93488,-15.37503 -21.41042,-26.91179 -38.02028,-32.55012 -7.58433,-2.57455 -11.44321,-3.15317 -21.10272,-3.16424 -6.7558,-0.008 -9.88543,0.20483 -13.07566,0.88811 -13.10263,2.80629 -23.72113,8.4424 -33.31517,17.68312 -14.10671,13.58719 -21.04916,30.83973 -20.3166,50.48836 0.49681,13.32536 3.75522,23.52959 10.97781,34.37877 14.38348,21.60568 39.82695,33.02378 65.19474,29.25703 z"
         style="fill:#1a1a1a" />
    </g>
  </g>
</svg>
