<?xml version="1.0" encoding="UTF-8" standalone="no"?>
<!-- Created with Inkscape (http://www.inkscape.org/) -->

<svg
   xmlns:dc="http://purl.org/dc/elements/1.1/"
   xmlns:cc="http://creativecommons.org/ns#"
   xmlns:rdf="http://www.w3.org/1999/02/22-rdf-syntax-ns#"
   xmlns:svg="http://www.w3.org/2000/svg"
   xmlns="http://www.w3.org/2000/svg"
   xmlns:sodipodi="http://sodipodi.sourceforge.net/DTD/sodipodi-0.dtd"
   xmlns:inkscape="http://www.inkscape.org/namespaces/inkscape"
   id="svg2"
   version="1.1"
   inkscape:version="0.91 r13725"
   width="800"
   height="800"
   viewBox="0 0 800 800"
   sodipodi:docname="mail.svg">
  <metadata
     id="metadata8">
    <rdf:RDF>
      <cc:Work
         rdf:about="">
        <dc:format>image/svg+xml</dc:format>
        <dc:type
           rdf:resource="http://purl.org/dc/dcmitype/StillImage" />
        <dc:title></dc:title>
      </cc:Work>
    </rdf:RDF>
  </metadata>
  <defs
     id="defs6" />
  <sodipodi:namedview
     pagecolor="#ffffff"
     bordercolor="#666666"
     borderopacity="1"
     objecttolerance="10"
     gridtolerance="10"
     guidetolerance="10"
     inkscape:pageopacity="0"
     inkscape:pageshadow="2"
     inkscape:window-width="1366"
     inkscape:window-height="668"
     id="namedview4"
     showgrid="false"
     inkscape:zoom="0.59577691"
     inkscape:cx="110.93085"
     inkscape:cy="332.33916"
     inkscape:window-x="0"
     inkscape:window-y="1"
     inkscape:window-maximized="1"
     inkscape:current-layer="svg2" />
  <g
     id="g3338"
     transform="matrix(1.2052844,0,0,1.2052844,-670.37378,215.84539)"
     style="fill:#1a1a1a">
    <path
       style="fill:#1a1a1a"
       d="m 671.79419,337.13197 c -8.2801,-1.74244 -14.2156,-4.9251 -20.39442,-10.93565 -5.58111,-5.42912 -9.14846,-11.4547 -11.21896,-18.94985 l -1.01731,-3.68264 0,-150.8221 0,-150.8220881 1.01731,-3.682643 c 1.19423,-4.323055 3.35757,-9.1075029 5.63337,-12.4587679 2.0991,-3.091064 6.67872,-7.874631 9.83499,-10.27299 3.39016,-2.576079 9.3174,-5.433747 13.87737,-6.690628 l 3.78536,-1.04337 214.75549,0 214.75551,0 3.7853,1.04337 c 4.56,1.256881 10.4872,4.114549 13.8774,6.690628 3.1563,2.398359 7.7359,7.181926 9.835,10.27299 2.2758,3.351265 4.4391,8.1357129 5.6334,12.4587679 l 1.0173,3.682643 0,150.8220881 0,150.8221 -1.0173,3.68264 c -1.1943,4.32306 -3.3576,9.10751 -5.6334,12.45877 -2.0991,3.09107 -6.6787,7.87463 -9.835,10.27299 -3.3902,2.57608 -9.3174,5.43376 -13.8774,6.69061 l -3.7853,1.04339 -213.80694,0.0692 c -208.50247,0.0675 -213.89165,0.0513 -217.22177,-0.64943 z m 427.27021,-17.85092 c 3.8712,-0.53843 6.4115,-1.52804 9.8833,-3.85013 4.3329,-2.89796 7.6974,-7.63051 9.1416,-12.85849 0.6342,-2.29576 0.6695,-9.94951 0.6695,-145.27758 l 0,-142.854129 -0.8447,0 c -0.5795,0 -35.9474,30.442323 -112.6292,96.943509 -86.51906,75.03249 -112.22689,97.13383 -113.74211,97.78556 -1.07673,0.46313 -2.64066,0.84206 -3.4754,0.84206 -0.83474,0 -2.3976,-0.37893 -3.47302,-0.84206 -1.51082,-0.65063 -27.36594,-22.88002 -113.73488,-97.78556 C 693.56545,44.349126 658.81708,14.440721 658.22795,14.440721 l -0.85197,0 0,143.043849 0,143.04385 0.84153,2.65598 c 2.73736,8.63943 9.96533,14.82491 18.8436,16.12581 3.23781,0.47443 418.58899,0.44572 422.00329,-0.0292 z M 891.37763,185.65787 C 911.34815,168.50893 1111.5613,-5.1904271 1112.6241,-6.2895121 c 1.1174,-1.155417 1.357,-1.620154 1.0353,-2.007866 -0.7752,-0.934009 -11.8665,-5.1103089 -14.6339,-5.5102229 -3.6662,-0.529793 -418.23225,-0.531507 -421.91934,-0.0017 -1.6647,0.239185 -4.85097,1.264701 -8.5371,2.747709 -5.32484,2.1422969 -5.88111,2.4532619 -5.88111,3.2876619 0,0.754306 19.48874,17.8198401 107.37775,94.0265531 128.22349,111.179897 117.32048,101.775837 117.99842,101.775837 0.30411,0 1.79519,-1.06674 3.31351,-2.37054 z"
       id="path3340"
       inkscape:connector-curvature="0" />
  </g>
</svg>
