<svg xmlns="http://www.w3.org/2000/svg" width="19.028" height="19.027" viewBox="0 0 19.028 19.027"><g transform="translate(1891 -539.046)"><path d="M-1737.878,923.623a.363.363,0,0,1-.073-.007.362.362,0,0,1-.07-.021.383.383,0,0,1-.064-.034.366.366,0,0,1-.057-.046.342.342,0,0,1-.046-.057.342.342,0,0,1-.034-.064.351.351,0,0,1-.021-.069.372.372,0,0,1-.007-.073.373.373,0,0,1,.007-.073.368.368,0,0,1,.021-.07.345.345,0,0,1,.034-.064.342.342,0,0,1,.046-.057.367.367,0,0,1,.057-.046.392.392,0,0,1,.064-.034.362.362,0,0,1,.07-.021.362.362,0,0,1,.145,0,.344.344,0,0,1,.07.021.372.372,0,0,1,.064.034.367.367,0,0,1,.057.046.348.348,0,0,1,.046.057.353.353,0,0,1,.034.064.377.377,0,0,1,.021.07.355.355,0,0,1,.007.073.354.354,0,0,1-.007.073.36.36,0,0,1-.021.069.349.349,0,0,1-.034.064.348.348,0,0,1-.046.057.366.366,0,0,1-.057.046.365.365,0,0,1-.064.034.344.344,0,0,1-.07.021.362.362,0,0,1-.072.007Z" transform="translate(-147.073 -369.569)" fill="#fff"/><path d="M-1875.149,853.448l-5.72,2.048-.017.006-.015.006a2.409,2.409,0,0,1-1.851.031,21.507,21.507,0,0,1-2.158-1.1,3.346,3.346,0,0,0-1.729-.588v-2.993a2.3,2.3,0,0,1,1.772-1.168,2.145,2.145,0,0,1,1.819.855.371.371,0,0,0,.2.157l2.954,1a.834.834,0,0,1,.607.984.72.72,0,0,1-.344.435.72.72,0,0,1-.546.065l-3.33-1.055a.372.372,0,0,0-.467.242.372.372,0,0,0,.242.467l3.336,1.057.01,0a1.477,1.477,0,0,0,.4.057,1.46,1.46,0,0,0,.712-.186,1.458,1.458,0,0,0,.7-.881q.013-.045.023-.09l2.791-.773c.4-.138.932-.187,1.168.355.244.637-.39.987-.555,1.066Zm-12.233.883h-.665v-3.25h.665v3.25Zm-1.408.693h-1.466V851.08h1.466v3.942Zm14.886-2.917,0-.011a1.546,1.546,0,0,0-2.094-.772l-2.589.716a1.7,1.7,0,0,0-1.051-1.035l-.01,0-2.846-.966a2.936,2.936,0,0,0-2.368-1.09,2.973,2.973,0,0,0-2.321,1.392h-3.44a.372.372,0,0,0-.371.372v4.686a.372.372,0,0,0,.371.372h2.21a.372.372,0,0,0,.372-.372v-.321h1.036a.372.372,0,0,0,.371-.372v-.107a2.635,2.635,0,0,1,1.358.487,22.52,22.52,0,0,0,2.233,1.14l.016.007a3.336,3.336,0,0,0,1.2.225,2.963,2.963,0,0,0,1.231-.264l5.723-2.049.03-.012a1.586,1.586,0,0,0,.948-2.023Z" transform="translate(0 -298.381)" fill="#fff"/><g transform="translate(-1889.896 539.046)"><path d="M-1551.378,663.264a.367.367,0,0,1-.073-.007.368.368,0,0,1-.069-.021.364.364,0,0,1-.064-.034.361.361,0,0,1-.057-.046.361.361,0,0,1-.046-.057.356.356,0,0,1-.034-.064.345.345,0,0,1-.021-.07.372.372,0,0,1-.007-.073.372.372,0,0,1,.007-.072.357.357,0,0,1,.021-.07.365.365,0,0,1,.034-.064.358.358,0,0,1,.046-.056.358.358,0,0,1,.057-.046.364.364,0,0,1,.064-.034.347.347,0,0,1,.069-.021.369.369,0,0,1,.145,0,.365.365,0,0,1,.069.021.373.373,0,0,1,.064.034.353.353,0,0,1,.057.046.358.358,0,0,1,.046.056.357.357,0,0,1,.034.064.367.367,0,0,1,.022.07.371.371,0,0,1,.007.072.372.372,0,0,1-.007.073.354.354,0,0,1-.022.07.348.348,0,0,1-.034.064.362.362,0,0,1-.046.057.356.356,0,0,1-.057.046.373.373,0,0,1-.064.034.389.389,0,0,1-.069.021.375.375,0,0,1-.073.007Z" transform="translate(1563.255 -657.932)" fill="#fff"/><path d="M-1844.127,544.991h-1.466v-3.942h1.466v3.942Zm-2.874-3.25h.665v3.25H-1847v-3.25Zm-2.515,4.642a2.706,2.706,0,0,1-.388-.027h0a2.128,2.128,0,0,1-1.377-.753l-.045-.06a.37.37,0,0,0-.2-.17l-2.955-1a.834.834,0,0,1-.607-.984h0a.719.719,0,0,1,.344-.433.719.719,0,0,1,.546-.065l3.33,1.055a.371.371,0,0,0,.466-.242.372.372,0,0,0-.242-.467l-2.648-.839-.023-.023h0l-1.371-1.371,1.178-.422.013,0,0,0,.015-.006a2.409,2.409,0,0,1,1.851-.032,21.509,21.509,0,0,1,2.158,1.1,3.345,3.345,0,0,0,1.729.588v2.993a2.3,2.3,0,0,1-1.772,1.169Zm-4.347,3.72-.847-.847a1.618,1.618,0,0,1,1.694,0l-.847.847Zm-5.7-7.393a1.6,1.6,0,0,1,.239.847,1.605,1.605,0,0,1-.239.847l-.847-.847.847-.847Zm2.766-2.766.847.847a1.6,1.6,0,0,1-.847.239,1.6,1.6,0,0,1-.847-.239l.847-.847Zm5.7,7.393a1.625,1.625,0,0,1-.237-.773,2.887,2.887,0,0,0,.655.355l-.418.418Zm-4.014-5.036a1.457,1.457,0,0,0-.605.64,2.117,2.117,0,0,0-1.112.585,2.121,2.121,0,0,0,0,3,2.112,2.112,0,0,0,1.5.62,2.112,2.112,0,0,0,1.5-.62,2.111,2.111,0,0,0,.551-.959l1.255.426a2.373,2.373,0,0,0,.394,1.884l-.849.849a2.362,2.362,0,0,0-2.765,0l-3.782-3.782a2.339,2.339,0,0,0,.447-1.383,2.339,2.339,0,0,0-.447-1.382l.848-.848a2.339,2.339,0,0,0,1.382.447,2.339,2.339,0,0,0,1.382-.447l.8.8a1.471,1.471,0,0,0-.5.171Zm-.743,1.451a1.645,1.645,0,0,0,1.114,1.315l.01,0,.743.252a1.369,1.369,0,0,1-.37.673,1.377,1.377,0,0,1-1.945,0,1.377,1.377,0,0,1,0-1.945,1.372,1.372,0,0,1,.448-.3Zm12.1-3.447h-2.21a.372.372,0,0,0-.372.372V541h-1.036a.372.372,0,0,0-.372.372v.107a2.634,2.634,0,0,1-1.358-.487,22.481,22.481,0,0,0-2.233-1.14l-.016-.007a3.162,3.162,0,0,0-2.427.038l-1.5.536-1.26-1.261a.372.372,0,0,0-.526,0l-4.139,4.139a.369.369,0,0,0,0,.526l7.072,7.072a.4.4,0,0,0,.526,0l3.778-3.778c.1.008.2.013.306.013a2.972,2.972,0,0,0,2.321-1.392h3.44a.372.372,0,0,0,.372-.372v-4.686a.372.372,0,0,0-.372-.372Z" transform="translate(1861.309 -539.046)" fill="#fff"/></g></g></svg>