<svg xmlns="http://www.w3.org/2000/svg" width="249" height="193.609" viewBox="0 0 249 193.609">
  <g id="Group_9521" data-name="Group 9521" transform="translate(-572 -83)">
    <g id="Group_9193" data-name="Group 9193" transform="translate(572 83)">
      <g id="Group_9192" data-name="Group 9192">
        <path id="Path_10020" data-name="Path 10020" d="M779.084,503.027a2.794,2.794,0,0,1-.214-.2,4.416,4.416,0,0,1-.942-1.516c-.524-1.251-1.044-3.136-2.294-6.12-1.91,4.557-2.115,6.554-3.236,7.635-1.08,1.121-3.078,1.325-7.635,3.236,4.557,1.91,6.554,2.115,7.635,3.236,1.122,1.081,1.326,3.079,3.236,7.635,1.252-2.986,1.771-4.872,2.3-6.123a4.4,4.4,0,0,1,.94-1.512,2.783,2.783,0,0,1,.214-.2c1.127-.953,3.149-1.245,7.421-3.036C782.233,504.272,780.211,503.981,779.084,503.027Z" transform="translate(-653.242 -495.192)" fill="#f94"/>
        <path id="Path_10021" data-name="Path 10021" d="M540.107,599.589a4.56,4.56,0,0,1-.335-.313A6.91,6.91,0,0,1,538.3,596.9c-.821-1.959-1.635-4.912-3.594-9.584-2.992,7.136-3.311,10.265-5.068,11.957-1.692,1.756-4.82,2.076-11.956,5.068,7.136,2.992,10.263,3.311,11.956,5.068,1.757,1.691,2.076,4.82,5.068,11.956,1.961-4.675,2.774-7.631,3.6-9.588a6.878,6.878,0,0,1,1.472-2.367,4.129,4.129,0,0,1,.335-.313c1.764-1.494,4.931-1.95,11.622-4.755C545.038,601.539,541.871,601.082,540.107,599.589Z" transform="translate(-517.68 -491.334)" fill="#f94"/>
        <path id="Path_10022" data-name="Path 10022" d="M837.639,666.034a3.373,3.373,0,0,1-.247-.232,5.108,5.108,0,0,1-1.092-1.755c-.607-1.449-1.209-3.635-2.658-7.091-2.214,5.279-2.45,7.6-3.75,8.847-1.251,1.3-3.566,1.536-8.845,3.75,5.279,2.214,7.594,2.45,8.845,3.749,1.3,1.253,1.536,3.567,3.75,8.846,1.45-3.459,2.052-5.645,2.66-7.094a5.093,5.093,0,0,1,1.09-1.752c.078-.08.161-.158.247-.232,1.305-1.1,3.65-1.442,8.6-3.517C841.289,667.477,838.944,667.139,837.639,666.034Z" transform="translate(-669.666 -609.364)" fill="#fc6076"/>
        <path id="Path_10024" data-name="Path 10024" d="M834.866,664.517a2.783,2.783,0,0,1-.206-.193,4.255,4.255,0,0,1-.909-1.462c-.506-1.207-1.007-3.028-2.214-5.906-1.844,4.4-2.041,6.326-3.123,7.368-1.042,1.083-2.97,1.28-7.367,3.123,4.4,1.844,6.325,2.041,7.367,3.122,1.083,1.043,1.28,2.971,3.123,7.368,1.208-2.881,1.709-4.7,2.216-5.909a4.243,4.243,0,0,1,.907-1.459c.065-.067.134-.132.206-.193,1.087-.92,3.04-1.2,7.161-2.929C837.906,665.718,835.953,665.437,834.866,664.517Z" transform="translate(-609.22 -634.834)" fill="#fc6076"/>
        <path id="Path_10023" data-name="Path 10023" d="M618.085,494.055a2.931,2.931,0,0,1-.215-.2,4.443,4.443,0,0,1-.949-1.527c-.529-1.26-1.053-3.162-2.313-6.169-1.926,4.592-2.131,6.607-3.262,7.7-1.089,1.131-3.1,1.336-7.695,3.262,4.592,1.926,6.606,2.131,7.695,3.261,1.131,1.09,1.336,3.1,3.262,7.7,1.262-3.009,1.785-4.911,2.314-6.172a4.445,4.445,0,0,1,.948-1.524c.068-.07.14-.138.215-.2,1.136-.961,3.175-1.255,7.481-3.059C621.26,495.31,619.22,495.016,618.085,494.055Z" transform="translate(-566.235 -442.476)" fill="#00b3bf"/>
        <path id="Path_10025" data-name="Path 10025" d="M617.1,493.518a2.712,2.712,0,0,1-.2-.188,4.137,4.137,0,0,1-.884-1.423c-.493-1.175-.981-2.947-2.156-5.749-1.795,4.28-1.986,6.157-3.04,7.172-1.015,1.054-2.891,1.245-7.171,3.04,4.28,1.795,6.156,1.986,7.171,3.039,1.054,1.016,1.246,2.892,3.04,7.172,1.176-2.8,1.664-4.577,2.157-5.752a4.141,4.141,0,0,1,.883-1.42c.063-.065.13-.128.2-.188,1.058-.9,2.959-1.169,6.972-2.851C620.062,494.687,618.161,494.414,617.1,493.518Z" transform="translate(-375.074 -377.027)" fill="#00b3bf"/>
      </g>
    </g>
    <g id="Group_9513" data-name="Group 9513" transform="translate(-212.197 -16.115)">
      <path id="Path_11237" data-name="Path 11237" d="M83.777,3H22.434a7.217,7.217,0,0,0-7.217,7.217v90.211A7.217,7.217,0,0,1,8,107.644H76.56a7.217,7.217,0,0,0,7.217-7.217V10.217A7.217,7.217,0,0,1,90.994,3Z" transform="translate(856.335 182.529)" fill="#00b3bf"/>
      <path id="Path_11238" data-name="Path 11238" d="M57.217,3h0A7.217,7.217,0,0,0,50,10.217H64.434A7.217,7.217,0,0,0,57.217,3Z" transform="translate(890.112 182.529)" fill="#00b3bf"/>
      <path id="Path_11239" data-name="Path 11239" d="M3,27.042a3.608,3.608,0,0,0,3.608,3.608h41.5a3.608,3.608,0,0,0,3.608-3.608V9H3Z" transform="translate(852.314 187.354)" fill="#f94"/>
      <path id="Path_11240" data-name="Path 11240" d="M48.105,3H6.608A3.608,3.608,0,0,0,3,6.608v7.217H51.713V6.608A3.608,3.608,0,0,0,48.105,3Z" transform="translate(852.314 182.529)" fill="#f94"/>
      <rect id="Rectangle_2549" data-name="Rectangle 2549" width="16.238" height="3.608" transform="translate(878.769 259.502)" fill="#ffd422"/>
      <rect id="Rectangle_2550" data-name="Rectangle 2550" width="27.063" height="3.608" transform="translate(878.769 266.718)" fill="#ffd422"/>
      <rect id="Rectangle_2551" data-name="Rectangle 2551" width="25.259" height="3.608" transform="translate(878.769 252.285)" fill="#ffd422"/>
      <rect id="Rectangle_2552" data-name="Rectangle 2552" width="18.042" height="3.608" transform="translate(885.986 245.068)" fill="#ffd422"/>
      <rect id="Rectangle_2553" data-name="Rectangle 2553" width="25.259" height="3.608" transform="translate(878.769 237.851)" fill="#ffd422"/>
      <rect id="Rectangle_2554" data-name="Rectangle 2554" width="39.693" height="3.608" transform="translate(878.769 230.634)" fill="#ffd422"/>
      <rect id="Rectangle_2555" data-name="Rectangle 2555" width="48.714" height="3.608" transform="translate(885.986 223.417)" fill="#ffd422"/>
      <rect id="Rectangle_2556" data-name="Rectangle 2556" width="21.651" height="21.651" transform="translate(945.91 259.555) rotate(45)" fill="#f94"/>
      <path id="Path_11241" data-name="Path 11241" d="M54.4,70.143,40.362,56.11V43.352l6.379-1.276,8.93,8.93-8.93-8.93-6.379,1.276v5.1H32.707V38.249l15.309-7.655L59.5,34.422l5.1,5.1,5.1,15.31Z" transform="translate(876.205 204.721)" fill="#ffb398"/>
      <path id="Path_11242" data-name="Path 11242" d="M41.9,45.1,55.933,31.066a3.608,3.608,0,0,1,5.1,0h0a3.608,3.608,0,0,1,0,5.1L47,50.2Z" transform="translate(883.598 204.25)" fill="#f94"/>
      <path id="Path_11243" data-name="Path 11243" d="M33.276,48.134,32,54.513l6.379-1.276,1.276-1.276-5.1-5.1Z" transform="translate(875.637 217.8)" fill="#ff9811"/>
      <path id="Path_11244" data-name="Path 11244" d="M39.793,43.322,33.414,49.7l5.1,5.1,5.1-5.1Z" transform="translate(876.774 214.957)" fill="#f94"/>
      <rect id="Rectangle_2558" data-name="Rectangle 2558" width="18.042" height="18.042" transform="translate(914.853 192.746)" fill="#fff"/>
      <path id="Path_11245" data-name="Path 11245" d="M77.169,64.217H12.217A7.217,7.217,0,0,1,5,57H69.952a7.217,7.217,0,0,0,7.217,7.217Z" transform="translate(853.923 225.956)" fill="#5aaae7"/>
      <path id="Path_11246" data-name="Path 11246" d="M77.169,64.217H12.217A7.217,7.217,0,0,1,5,57H69.952a7.217,7.217,0,0,0,7.217,7.217Z" transform="translate(853.923 225.956)" fill="#5aaae7"/>
      <path id="Path_11247" data-name="Path 11247" d="M77.169,64.217H12.217A7.217,7.217,0,0,1,5,57H69.952a7.217,7.217,0,0,0,7.217,7.217Z" transform="translate(853.923 225.956)" fill="#00b3bf"/>
      <rect id="Rectangle_2559" data-name="Rectangle 2559" width="3.608" height="3.608" transform="translate(858.923 196.354)" fill="#fff"/>
      <path id="Path_11248" data-name="Path 11248" d="M8.608,18.413V13H5v9.021h7.217V18.413Z" transform="translate(853.923 190.571)" fill="#fff"/>
      <path id="Path_11249" data-name="Path 11249" d="M7.413,38.084h41.5a5.419,5.419,0,0,0,5.413-5.413V7.413A5.419,5.419,0,0,0,48.91,2H7.413A5.419,5.419,0,0,0,2,7.413V32.672A5.419,5.419,0,0,0,7.413,38.084Zm41.5-3.608H7.413a1.807,1.807,0,0,1-1.8-1.8V16.434H50.714V32.672A1.806,1.806,0,0,1,48.91,34.476ZM7.413,5.608h41.5a1.807,1.807,0,0,1,1.8,1.8v5.413H5.608V7.413A1.807,1.807,0,0,1,7.413,5.608Z" transform="translate(851.51 181.725)"/>
      <rect id="Rectangle_2560" data-name="Rectangle 2560" width="16.238" height="3.608" transform="translate(878.769 259.502)"/>
      <rect id="Rectangle_2561" data-name="Rectangle 2561" width="27.063" height="3.608" transform="translate(878.769 266.718)"/>
      <rect id="Rectangle_2562" data-name="Rectangle 2562" width="25.259" height="3.608" transform="translate(878.769 252.285)"/>
      <rect id="Rectangle_2563" data-name="Rectangle 2563" width="18.042" height="3.608" transform="translate(885.986 245.068)"/>
      <rect id="Rectangle_2564" data-name="Rectangle 2564" width="25.259" height="3.608" transform="translate(878.769 237.851)"/>
      <rect id="Rectangle_2565" data-name="Rectangle 2565" width="39.693" height="3.608" transform="translate(878.769 230.634)"/>
      <rect id="Rectangle_2566" data-name="Rectangle 2566" width="48.714" height="3.608" transform="translate(885.986 223.417)"/>
      <path id="Path_11250" data-name="Path 11250" d="M68.26,41.286,71.3,38.248a5.412,5.412,0,1,0-7.654-7.655l-3.039,3.039L49.472,29.921,32.5,38.408V51.534h7.655v2.551L32.639,61.6l-1.913,9.569,9.569-1.913,5.489-5.49,7.655,7.655,1.276,1.276L71.3,89.278l17.86-17.861L72.876,55.134ZM66.2,33.144A1.8,1.8,0,0,1,68.747,35.7L55.989,48.454,53.437,45.9ZM36.105,47.926V40.638l13.643-6.822,8,2.668-6.866,6.866-1.958-1.958-8.776,1.755v4.778Zm-.27,16.1,2.036,2.036-2.545.509Zm4.845-.257-2.551-2.551L40.68,58.66l2.552,2.552Zm3.08-7.127V46.106l3.982-.8,8.248,8.248,2.551-2.551h0l6.866-6.867,3.828,11.482L55.989,68.866ZM71.3,84.176,58.541,71.418,71.3,58.659,84.056,71.418Z" transform="translate(874.611 203.446)"/>
      <path id="Path_11251" data-name="Path 11251" d="M61.867,47.106h3.608V12.825H79.909v-1.8A9.032,9.032,0,0,0,70.888,2H33V5.608H63.676a8.977,8.977,0,0,0-1.809,5.413Zm9.021-41.5a5.422,5.422,0,0,1,5.1,3.608H65.808A5.4,5.4,0,0,1,70.888,5.608Z" transform="translate(876.441 181.725)"/>
      <rect id="Rectangle_2567" data-name="Rectangle 2567" width="37.889" height="3.608" transform="translate(878.769 273.935)"/>
      <path id="Path_11252" data-name="Path 11252" d="M56.651,6H35V27.651H56.651ZM53.042,24.042H38.608V9.608H53.042Z" transform="translate(878.049 184.941)"/>
      <path id="Path_11253" data-name="Path 11253" d="M83.357,88.4a5.4,5.4,0,0,1-3.58,1.352h-1.8a5.419,5.419,0,0,1-5.413-5.413v-1.8H20.238V23H16.63v59.54H4v1.8a9.032,9.032,0,0,0,9.021,9.021H79.777a9.011,9.011,0,0,0,5.969-2.256ZM13.021,89.756a5.422,5.422,0,0,1-5.1-3.608H69.133a8.985,8.985,0,0,0,1.627,3.608Z" transform="translate(853.119 198.613)"/>
    </g>
  </g>
</svg>
