<svg xmlns="http://www.w3.org/2000/svg" xmlns:xlink="http://www.w3.org/1999/xlink" width="13" height="13" viewBox="0 0 13 13">
  <defs>
    <linearGradient id="linear-gradient" x1="0.5" x2="0.5" y2="1" gradientUnits="objectBoundingBox">
      <stop offset="0" stop-color="#fc6076"/>
      <stop offset="1" stop-color="#f94"/>
    </linearGradient>
  </defs>
  <g id="phone-call" transform="translate(-0.344)">
    <g id="Group_8355" data-name="Group 8355" transform="translate(0.344 0)">
      <path id="Path_11226" data-name="Path 11226" d="M10.624,34.706a1.281,1.281,0,0,0-.929-.425,1.325,1.325,0,0,0-.94.422l-.868.864c-.071-.038-.143-.074-.212-.11-.1-.049-.192-.1-.272-.145a9.432,9.432,0,0,1-2.261-2.058A5.558,5.558,0,0,1,4.4,32.086c.225-.206.434-.42.637-.626l.231-.233a1.257,1.257,0,0,0,0-1.9l-.75-.749c-.085-.085-.173-.173-.256-.261-.165-.17-.338-.346-.517-.51a1.3,1.3,0,0,0-.92-.4,1.347,1.347,0,0,0-.934.4l-.005.005-.934.941a2.006,2.006,0,0,0-.6,1.276,4.8,4.8,0,0,0,.352,2.036,11.809,11.809,0,0,0,2.1,3.5,12.928,12.928,0,0,0,4.306,3.366,6.716,6.716,0,0,0,2.418.713c.058,0,.118.005.173.005a2.072,2.072,0,0,0,1.585-.68c0-.005.008-.008.011-.014a6.242,6.242,0,0,1,.481-.5c.118-.112.239-.23.357-.354a1.368,1.368,0,0,0,.415-.949,1.318,1.318,0,0,0-.423-.941Zm.984,2.889s0,0,0,0c-.107.115-.217.219-.335.335a7.219,7.219,0,0,0-.53.549,1.326,1.326,0,0,1-1.033.436c-.041,0-.085,0-.126,0a5.966,5.966,0,0,1-2.143-.642A12.2,12.2,0,0,1,3.384,35.1a11.134,11.134,0,0,1-1.978-3.289A3.912,3.912,0,0,1,1.1,30.092a1.259,1.259,0,0,1,.379-.815l.937-.936a.625.625,0,0,1,.418-.195.588.588,0,0,1,.4.192l.008.008c.168.156.327.318.495.491L4,29.1l.75.749a.523.523,0,0,1,0,.85c-.08.08-.157.159-.236.236-.231.236-.451.455-.69.669-.005.005-.011.008-.014.014a.559.559,0,0,0-.143.623l.008.025a6.011,6.011,0,0,0,.888,1.446l0,0A10.08,10.08,0,0,0,7,35.936a3.753,3.753,0,0,0,.338.184c.1.049.192.1.272.145l.033.019a.6.6,0,0,0,.272.069.588.588,0,0,0,.418-.189l.94-.938a.622.622,0,0,1,.415-.206.56.56,0,0,1,.4.2l.005.005,1.514,1.512A.542.542,0,0,1,11.608,37.6Z" transform="translate(-0.344 -26.653)" fill="url(#linear-gradient)"/>
      <path id="Path_11227" data-name="Path 11227" d="M245.249,86.661a3.536,3.536,0,0,1,2.88,2.88.369.369,0,0,0,.365.308.49.49,0,0,0,.063-.005.371.371,0,0,0,.305-.429,4.276,4.276,0,0,0-3.484-3.484.373.373,0,0,0-.429.3A.367.367,0,0,0,245.249,86.661Z" transform="translate(-238.223 -83.569)" fill="url(#linear-gradient)"/>
      <path id="Path_11228" data-name="Path 11228" d="M254.943,5.743A7.041,7.041,0,0,0,249.206.006a.37.37,0,1,0-.121.731,6.289,6.289,0,0,1,5.127,5.127.369.369,0,0,0,.365.308.49.49,0,0,0,.063-.005A.364.364,0,0,0,254.943,5.743Z" transform="translate(-241.949 0)" fill="url(#linear-gradient)"/>
    </g>
  </g>
</svg>
