<svg xmlns="http://www.w3.org/2000/svg" width="14" height="14" viewBox="0 0 14 14">
  <g id="Group_8178" data-name="Group 8178" transform="translate(-3524.128 -16241.162)">
    <g id="Group_7545" data-name="Group 7545" transform="translate(3524.128 16241.162)">
      <path id="Path_9215" data-name="Path 9215" d="M-642.75,82.143h0a1.718,1.718,0,0,1,0-2.423l10.576-10.57a1.72,1.72,0,0,1,2.424,0h0a1.718,1.718,0,0,1,0,2.423l-10.576,10.57A1.7,1.7,0,0,1-642.75,82.143Z" transform="translate(643.25 -68.65)" fill="#333"/>
      <path id="Path_9216" data-name="Path 9216" d="M-629.76,82.232h0a1.72,1.72,0,0,1-2.424,0l-10.566-10.56a1.718,1.718,0,0,1,0-2.423h0a1.72,1.72,0,0,1,2.424,0l10.576,10.57A1.7,1.7,0,0,1-629.76,82.232Z" transform="translate(643.25 -68.74)" fill="#333"/>
    </g>
  </g>
</svg>
