<svg xmlns="http://www.w3.org/2000/svg" width="22.871" height="22.871" viewBox="0 0 22.871 22.871">
  <g id="Group_9254" data-name="Group 9254" transform="translate(-5240.064 1057.935)">
    <path id="Path_9215" data-name="Path 9215" d="M-642.433,90.692h0a2.806,2.806,0,0,1,0-3.958l17.277-17.268a2.81,2.81,0,0,1,3.96,0h0a2.806,2.806,0,0,1,0,3.958l-17.277,17.268A2.78,2.78,0,0,1-642.433,90.692Z" transform="translate(5883.314 -1126.585)" fill="#fff"/>
    <path id="Path_9216" data-name="Path 9216" d="M-621.213,90.764h0a2.811,2.811,0,0,1-3.96,0l-17.26-17.242a2.8,2.8,0,0,1,0-3.956h0a2.811,2.811,0,0,1,3.96,0L-621.2,86.824A2.769,2.769,0,0,1-621.213,90.764Z" transform="translate(5883.314 -1126.662)" fill="#fff"/>
  </g>
</svg>
