<svg xmlns="http://www.w3.org/2000/svg" xmlns:xlink="http://www.w3.org/1999/xlink" width="74.999" height="80.877" viewBox="0 0 74.999 80.877">
  <defs>
    <linearGradient id="linear-gradient" x1="0.5" x2="0.5" y2="1" gradientUnits="objectBoundingBox">
      <stop offset="0" stop-color="#fc6076"/>
      <stop offset="1" stop-color="#f94"/>
    </linearGradient>
  </defs>
  <g id="Group_9481" data-name="Group 9481" transform="translate(-9080 -1499)">
    <g id="Group_8181" data-name="Group 8181" transform="translate(5832 -14762)">
      <g id="Symbol_1_14" data-name="Symbol 1 – 14" transform="translate(-257.613 1206.076)">
        <path id="Path_9526" data-name="Path 9526" d="M-1375.817,2486.718c-.024-.021-.047-.042-.069-.065a1.417,1.417,0,0,1-.3-.488c-.169-.4-.336-1.01-.738-1.97-.615,1.467-.681,2.111-1.042,2.458s-.991.427-2.458,1.042c1.467.615,2.11.682,2.458,1.042s.427.991,1.042,2.458c.4-.961.57-1.569.739-1.971a1.416,1.416,0,0,1,.3-.487.787.787,0,0,1,.069-.064,15.062,15.062,0,0,1,2.389-.979A15.176,15.176,0,0,1-1375.817,2486.718Z" transform="translate(4934.428 12570.729)" fill="#f94"/>
      </g>
      <path id="Path_9527" data-name="Path 9527" d="M-1622.966,2578.808c-.024-.02-.046-.041-.068-.063a1.4,1.4,0,0,1-.3-.48c-.166-.4-.331-1-.728-1.942-.606,1.446-.671,2.08-1.027,2.423s-.977.42-2.423,1.027c1.447.606,2.08.671,2.423,1.027s.421.977,1.027,2.423c.4-.948.563-1.547.729-1.943a1.384,1.384,0,0,1,.3-.48c.022-.022.044-.043.068-.064a15.014,15.014,0,0,1,2.355-.964A14.879,14.879,0,0,1-1622.966,2578.808Z" transform="translate(4875.511 13713.879)" fill="#4d4d4d"/>
      <path id="Path_9528" data-name="Path 9528" d="M-1195.089,2640.806c-.017-.015-.034-.031-.05-.047a1.05,1.05,0,0,1-.221-.357c-.123-.293-.245-.736-.539-1.436-.448,1.07-.5,1.539-.76,1.793s-.723.311-1.793.76c1.069.448,1.539.5,1.793.76s.312.723.76,1.794c.294-.7.416-1.145.539-1.439a1.035,1.035,0,0,1,.221-.355c.016-.016.033-.032.05-.047a11.163,11.163,0,0,1,1.743-.712A11.144,11.144,0,0,1-1195.089,2640.806Z" transform="translate(4516.346 13653.337)" fill="#00b3bf"/>
      <path id="Path_9529" data-name="Path 9529" d="M-1538.177,2477a.611.611,0,0,1-.05-.047,1.055,1.055,0,0,1-.221-.356c-.123-.294-.245-.737-.539-1.437-.448,1.07-.5,1.54-.76,1.793s-.723.312-1.793.76c1.07.449,1.539.5,1.793.76s.311.723.76,1.792c.294-.7.416-1.144.539-1.437a1.052,1.052,0,0,1,.221-.355c.016-.016.033-.032.05-.046a11.091,11.091,0,0,1,1.743-.714A11.162,11.162,0,0,1-1538.177,2477Z" transform="translate(4803.829 13795.986)" fill="#00b3bf"/>
      <rect id="Rectangle_2432" data-name="Rectangle 2432" width="2.07" height="3.106" transform="translate(3306.633 16282.676)" fill="none"/>
      <rect id="Rectangle_2433" data-name="Rectangle 2433" width="2.07" height="3.106" transform="translate(3306.633 16319.777)" fill="none"/>
      <path id="Path_9531" data-name="Path 9531" d="M-1042.182,2574.63v37.164a3.111,3.111,0,0,0,2.07,2.928V2571.7A3.11,3.11,0,0,0-1042.182,2574.63Z" transform="translate(4309.478 13709.496)" fill="none"/>
      <rect id="Rectangle_2434" data-name="Rectangle 2434" width="2.07" height="3.106" transform="translate(3306.633 16301.226)" fill="none"/>
      <rect id="Rectangle_2435" data-name="Rectangle 2435" width="2.07" height="3.106" transform="translate(3306.633 16291.95)" fill="none"/>
      <path id="Path_9532" data-name="Path 9532" d="M-993.917,2600.284a14.332,14.332,0,0,1,14.307,13.494l2.191,0v-43.375l-33.126-.048v43.374l2.324,0A14.332,14.332,0,0,1-993.917,2600.284Zm-2.136-13.364h-4.141a1.037,1.037,0,0,1-1.035-1.035,1.037,1.037,0,0,1,1.035-1.035h4.141a1.037,1.037,0,0,1,1.035,1.035A1.037,1.037,0,0,1-996.053,2586.919Zm-3.105-5.176a1.037,1.037,0,0,1,1.035-1.035h8.281a1.037,1.037,0,0,1,1.035,1.035,1.037,1.037,0,0,1-1.035,1.035h-8.281A1.037,1.037,0,0,1-999.158,2581.743Zm5.176,9.316a1.037,1.037,0,0,1-1.035-1.035,1.036,1.036,0,0,1,1.035-1.035,1.036,1.036,0,0,1,1.035,1.035A1.036,1.036,0,0,1-993.982,2591.06Zm1.035-5.175a1.037,1.037,0,0,1,1.035-1.035h4.141a1.037,1.037,0,0,1,1.035,1.035,1.037,1.037,0,0,1-1.035,1.035h-4.141A1.037,1.037,0,0,1-992.947,2585.884Zm-12.422,4.14V2577.6a1.061,1.061,0,0,1,1.036-1.035h20.7a1.065,1.065,0,0,1,1.035,1.035v12.422a1.071,1.071,0,0,1-1.035,1.035h-6.211a1.037,1.037,0,0,1-1.035-1.035,1.036,1.036,0,0,1,1.035-1.035h5.176v-10.352H-1003.3v10.352h5.176a1.037,1.037,0,0,1,1.035,1.035,1.037,1.037,0,0,1-1.035,1.035h-6.211A1.061,1.061,0,0,1-1005.369,2590.024Z" transform="translate(4281.982 13710.664)" fill="none"/>
      <rect id="Rectangle_2436" data-name="Rectangle 2436" width="2.07" height="3.106" transform="translate(3306.633 16310.501)" fill="none"/>
    </g>
    <g id="login" transform="translate(9055.995 1520.122)">
      <g id="Group_9472" data-name="Group 9472" transform="translate(36.175)">
        <g id="Group_9471" data-name="Group 9471">
          <path id="Path_10151" data-name="Path 10151" d="M80.746,297.743H42.915a6.741,6.741,0,0,0,0,13.481h3.951l-.51.414a1.991,1.991,0,0,0,.761,3.475l.265.068-1.307,5.092a1.167,1.167,0,0,0,.84,1.421l3.969,1.019a1.167,1.167,0,0,0,1.421-.84l1.307-5.092.265.068a1.992,1.992,0,0,0,2.34-2.679l-1.2-2.945H80.746a6.741,6.741,0,0,0,0-13.481ZM47.635,314.2v0Zm5.573.071a1.317,1.317,0,0,0-1.6.948l-1.27,4.947-1.708-.439,1.27-4.946a1.317,1.317,0,0,0-.948-1.6l-.591-.152,2.212-1.8,1.452-1.179.479,1.179,1.3,3.194Zm21.678-5.376H54.071l-.482-1.185a1.167,1.167,0,0,0-1.817-.466L49.74,308.89H42.915a4.406,4.406,0,0,1,0-8.813H74.886v8.813Zm5.86,0H77.22v-8.813h3.526a4.406,4.406,0,0,1,0,8.813Z" transform="translate(-36.175 -262.993)" fill="url(#linear-gradient)"/>
          <path id="Path_10152" data-name="Path 10152" d="M408.106,329.234a1.167,1.167,0,1,0-1.831,1.448l.786.994-.786.994a1.167,1.167,0,1,0,1.831,1.448l1.359-1.718a1.167,1.167,0,0,0,0-1.448Z" transform="translate(-362.859 -290.417)" fill="url(#linear-gradient)"/>
          <path id="Path_10153" data-name="Path 10153" d="M96.308,347.114a1.151,1.151,0,0,0,.107.2,1.193,1.193,0,0,0,.146.177,1.1,1.1,0,0,0,.177.145,1.19,1.19,0,0,0,.2.107,1.206,1.206,0,0,0,.218.066,1.128,1.128,0,0,0,.456,0,1.178,1.178,0,0,0,.218-.066,1.2,1.2,0,0,0,.2-.107,1.159,1.159,0,0,0,.177-.145,1.116,1.116,0,0,0,.145-.177,1.149,1.149,0,0,0,.107-.2,1.176,1.176,0,0,0,.067-.218,1.151,1.151,0,0,0,.023-.228,1.169,1.169,0,0,0-.023-.229,1.234,1.234,0,0,0-.067-.218,1.179,1.179,0,0,0-.107-.2,1.114,1.114,0,0,0-.145-.177,1.254,1.254,0,0,0-.177-.146,1.188,1.188,0,0,0-.2-.107,1.163,1.163,0,0,0-1.271.253,1.164,1.164,0,0,0-.253.378,1.234,1.234,0,0,0-.067.218,1.166,1.166,0,0,0-.022.229,1.148,1.148,0,0,0,.022.228A1.174,1.174,0,0,0,96.308,347.114Z" transform="translate(-89.211 -305.178)" fill="url(#linear-gradient)"/>
          <path id="Path_10154" data-name="Path 10154" d="M149.489,347.113a1.154,1.154,0,0,0,.107.2,1.191,1.191,0,0,0,.146.177,1.1,1.1,0,0,0,.177.145,1.183,1.183,0,0,0,.2.107,1.238,1.238,0,0,0,.218.067,1.173,1.173,0,0,0,.229.023,1.152,1.152,0,0,0,.228-.023,1.182,1.182,0,0,0,.218-.067,1.151,1.151,0,0,0,.2-.107,1.1,1.1,0,0,0,.177-.145,1.115,1.115,0,0,0,.145-.177,1.155,1.155,0,0,0,.107-.2,1.178,1.178,0,0,0,.066-.218,1.151,1.151,0,0,0,.023-.228,1.169,1.169,0,0,0-.023-.229,1.234,1.234,0,0,0-.066-.218,1.18,1.18,0,0,0-.107-.2,1.111,1.111,0,0,0-.145-.178,1.177,1.177,0,0,0-1.054-.32,1.229,1.229,0,0,0-.218.067,1.17,1.17,0,0,0-.631.632,1.232,1.232,0,0,0-.067.218,1.166,1.166,0,0,0-.022.229,1.148,1.148,0,0,0,.022.228A1.174,1.174,0,0,0,149.489,347.113Z" transform="translate(-136.186 -305.177)" fill="url(#linear-gradient)"/>
          <path id="Path_10155" data-name="Path 10155" d="M202.669,347.113a1.154,1.154,0,0,0,.107.2,1.115,1.115,0,0,0,.145.177,1.1,1.1,0,0,0,.177.145,1.15,1.15,0,0,0,.2.107,1.181,1.181,0,0,0,.218.067,1.122,1.122,0,0,0,.455,0,1.181,1.181,0,0,0,.218-.067,1.152,1.152,0,0,0,.2-.107,1.1,1.1,0,0,0,.177-.145,1.116,1.116,0,0,0,.145-.177,1.155,1.155,0,0,0,.107-.2,1.176,1.176,0,0,0,.067-.218,1.151,1.151,0,0,0,.023-.228,1.169,1.169,0,0,0-.023-.229,1.142,1.142,0,0,0-.067-.218,1.18,1.18,0,0,0-.107-.2,1.112,1.112,0,0,0-.145-.178,1.177,1.177,0,0,0-1.053-.32,1.214,1.214,0,0,0-.219.067,1.163,1.163,0,0,0-.378.253,1.109,1.109,0,0,0-.145.178,1.177,1.177,0,0,0-.107.2,1.143,1.143,0,0,0-.067.218,1.168,1.168,0,0,0-.023.229,1.15,1.15,0,0,0,.023.228A1.093,1.093,0,0,0,202.669,347.113Z" transform="translate(-183.158 -305.177)" fill="url(#linear-gradient)"/>
          <path id="Path_10156" data-name="Path 10156" d="M255.85,347.113a1.151,1.151,0,0,0,.107.2,1.114,1.114,0,0,0,.145.177,1.1,1.1,0,0,0,.177.145,1.153,1.153,0,0,0,.2.107,1.181,1.181,0,0,0,.218.067,1.122,1.122,0,0,0,.455,0,1.182,1.182,0,0,0,.218-.067,1.153,1.153,0,0,0,.2-.107,1.1,1.1,0,0,0,.177-.145,1.12,1.12,0,0,0,.145-.177,1.157,1.157,0,0,0,.107-.2,1.1,1.1,0,0,0,.066-.218,1.15,1.15,0,0,0,.023-.228,1.168,1.168,0,0,0-.023-.229,1.144,1.144,0,0,0-.066-.218,1.182,1.182,0,0,0-.107-.2,1.116,1.116,0,0,0-.145-.178,1.163,1.163,0,0,0-1.271-.253,1.152,1.152,0,0,0-.2.107,1.186,1.186,0,0,0-.177.146,1.107,1.107,0,0,0-.145.178,1.178,1.178,0,0,0-.107.2,1.234,1.234,0,0,0-.066.218,1.17,1.17,0,0,0-.023.229,1.152,1.152,0,0,0,.023.228A1.176,1.176,0,0,0,255.85,347.113Z" transform="translate(-230.132 -305.177)" fill="url(#linear-gradient)"/>
          <path id="Path_10157" data-name="Path 10157" d="M309.03,347.108a1.156,1.156,0,0,0,.107.2,1.123,1.123,0,0,0,.145.177,1.106,1.106,0,0,0,.177.145,1.155,1.155,0,0,0,.2.107,1.177,1.177,0,0,0,.218.066,1.148,1.148,0,0,0,.228.023,1.168,1.168,0,0,0,.229-.023,1.233,1.233,0,0,0,.218-.066,1.186,1.186,0,0,0,.2-.107,1.105,1.105,0,0,0,.177-.145,1.192,1.192,0,0,0,.146-.177,1.152,1.152,0,0,0,.107-.2,1.176,1.176,0,0,0,.067-.218,1.15,1.15,0,0,0,.022-.228,1.168,1.168,0,0,0-.022-.229,1.232,1.232,0,0,0-.067-.218,1.164,1.164,0,0,0-.253-.378,1.163,1.163,0,0,0-.378-.253,1.241,1.241,0,0,0-.218-.067,1.157,1.157,0,0,0-.456,0,1.184,1.184,0,0,0-.218.067,1.155,1.155,0,0,0-.2.107,1.191,1.191,0,0,0-.177.146,1.112,1.112,0,0,0-.145.177,1.182,1.182,0,0,0-.107.2,1.237,1.237,0,0,0-.067.218,1.172,1.172,0,0,0-.023.229,1.154,1.154,0,0,0,.023.228A1.177,1.177,0,0,0,309.03,347.108Z" transform="translate(-277.106 -305.171)" fill="url(#linear-gradient)"/>
          <path id="Path_10158" data-name="Path 10158" d="M120.373,29.5a1.173,1.173,0,0,0,.09.078A16.333,16.333,0,0,0,129.674,33l.072,0q.16.008.321.012l.095,0c.132,0,.264.005.4.005s.266,0,.4-.005l.091,0q.165,0,.328-.012l.063,0a16.321,16.321,0,0,0,9.334-3.514,1.169,1.169,0,0,0,.1-.094,16.511,16.511,0,1,0-20.5.108Zm11.7,1.108-.217.021-.241.021q-.21.015-.421.024l-.145.005c-.164.005-.327.009-.492.009s-.324,0-.486-.009l-.142-.005q-.2-.009-.4-.023l-.233-.019-.251-.024c-.093-.01-.186-.02-.279-.032l-.049-.007a14.1,14.1,0,0,1-6.372-2.508V25.948a8.263,8.263,0,0,1,3.492-6.743,7.749,7.749,0,0,0,9.555,0,8.263,8.263,0,0,1,3.492,6.743V27.98h0A14.1,14.1,0,0,1,132.074,30.608ZM130.558,2.334a14.17,14.17,0,0,1,10.658,23.517,10.593,10.593,0,0,0-4.209-8.356,7.729,7.729,0,0,0,1.381-4.416,7.856,7.856,0,0,0-.085-1.153,1.167,1.167,0,0,0-2.309.343,5.523,5.523,0,0,1,.06.81A5.411,5.411,0,0,1,135,16.294a5.473,5.473,0,0,1-2.084,1.712,5.424,5.424,0,0,1-4.6,0,5.473,5.473,0,0,1-2.084-1.712,5.437,5.437,0,0,1,4.384-8.656,5.472,5.472,0,0,1,1.222.138,1.167,1.167,0,0,0,.522-2.275,7.78,7.78,0,0,0-9.518,7.578,7.729,7.729,0,0,0,1.381,4.416,10.593,10.593,0,0,0-4.21,8.454v.026a14.17,14.17,0,0,1,10.548-23.64Z" transform="translate(-104.958)" fill="url(#linear-gradient)"/>
          <path id="Path_10159" data-name="Path 10159" d="M287.579,65.159a1.185,1.185,0,0,0,.107.2,1.159,1.159,0,0,0,.322.323,1.154,1.154,0,0,0,.2.107,1.179,1.179,0,0,0,.218.066,1.178,1.178,0,0,0,.455,0,1.218,1.218,0,0,0,.219-.066,1.188,1.188,0,0,0,.2-.107,1.159,1.159,0,0,0,.322-.323,1.183,1.183,0,0,0,.107-.2,1.12,1.12,0,0,0,.067-.218,1.164,1.164,0,0,0,.023-.229,1.152,1.152,0,0,0-.023-.228,1.094,1.094,0,0,0-.067-.218,1.2,1.2,0,0,0-.107-.2,1.134,1.134,0,0,0-.322-.322,1.194,1.194,0,0,0-.2-.107,1.217,1.217,0,0,0-.219-.066,1.145,1.145,0,0,0-.455,0,1.178,1.178,0,0,0-.218.066,1.159,1.159,0,0,0-.2.107,1.134,1.134,0,0,0-.322.322,1.2,1.2,0,0,0-.107.2,1.173,1.173,0,0,0-.066.218,1.148,1.148,0,0,0-.023.228,1.16,1.16,0,0,0,.023.229A1.2,1.2,0,0,0,287.579,65.159Z" transform="translate(-258.158 -56.129)" fill="url(#linear-gradient)"/>
        </g>
      </g>
    </g>
  </g>
</svg>
