<svg xmlns="http://www.w3.org/2000/svg" width="469.333" height="469.334" viewBox="0 0 469.333 469.334"><path d="M309.333,362.667H160A10.667,10.667,0,1,0,160,384H309.333a10.667,10.667,0,1,0,0-21.333Z" fill="#419ba6"/><path d="M245.333,405.333H138.667a10.667,10.667,0,1,0,0,21.334H245.334a10.667,10.667,0,1,0,0-21.334Z" fill="#419ba6"/><path d="M426.667,192H405.334V117.333a10.661,10.661,0,0,0-10.667-10.667H384V96a10.729,10.729,0,0,0-3.138-7.554L295.555,3.138A10.729,10.729,0,0,0,288,0H128A42.716,42.716,0,0,0,85.333,42.667v64H74.667A10.661,10.661,0,0,0,64,117.334V192H42.667A42.716,42.716,0,0,0,0,234.667V341.334A42.715,42.715,0,0,0,42.667,384H60.612L45.854,417.208a37.083,37.083,0,0,0,33.875,52.126H389.6a37.083,37.083,0,0,0,33.875-52.126L408.708,384h17.958a42.716,42.716,0,0,0,42.667-42.667V234.667A42.715,42.715,0,0,0,426.667,192Zm-320-149.333A21.355,21.355,0,0,1,128,21.334H277.333V64A42.716,42.716,0,0,0,320,106.667h42.667V192h-256V42.667Zm266.4,313.666,30.917,69.542A15.739,15.739,0,0,1,389.6,448H79.729a15.739,15.739,0,0,1-14.375-22.125l30.917-69.542a10.677,10.677,0,0,0-9.751-15H74.667a10.667,10.667,0,1,1,0-21.333h320a10.667,10.667,0,0,1,0,21.334H382.813a10.675,10.675,0,0,0-9.75,15Zm32.27-79A21.333,21.333,0,1,1,426.666,256,21.355,21.355,0,0,1,405.333,277.333Z" fill="#419ba6"/></svg>