<svg xmlns="http://www.w3.org/2000/svg" width="24" height="24" viewBox="0 0 24 24"><g transform="translate(12392 -4164)"><g transform="translate(57 3)"><rect width="24" height="24" transform="translate(-12449 4161)" fill="none"/><g transform="translate(-12447 4163)"><g transform="translate(5.217 2.608)"><path d="M107.271,50.868a.444.444,0,0,0-.094-.142l-2.608-2.608a.435.435,0,1,0-.615.615L105.82,50.6H96.435a.435.435,0,0,0-.435.435v3.478a.435.435,0,0,0,.87,0V51.469h8.95l-1.867,1.867a.435.435,0,1,0,.615.615l2.608-2.608a.43.43,0,0,0,.094-.142A.435.435,0,0,0,107.271,50.868Z" transform="translate(-96 -47.99)" fill="#e58744"/></g><g transform="translate(3.479 10.435)"><path d="M74.879,192a.434.434,0,0,0-.435.435v3.043h-8.95l1.867-1.867a.435.435,0,0,0-.615-.615l-2.608,2.608a.431.431,0,0,0-.094.142.436.436,0,0,0,.094.474l2.608,2.608a.435.435,0,0,0,.615-.615l-1.867-1.867h9.385a.434.434,0,0,0,.435-.435v-3.478A.434.434,0,0,0,74.879,192Z" transform="translate(-64.01 -192)" fill="#e58744"/></g><path d="M17.826,0H2.174A2.176,2.176,0,0,0,0,2.174V17.826A2.176,2.176,0,0,0,2.174,20H17.826A2.176,2.176,0,0,0,20,17.826V2.174A2.176,2.176,0,0,0,17.826,0Zm1.3,17.826a1.306,1.306,0,0,1-1.3,1.3H2.174a1.306,1.306,0,0,1-1.3-1.3V2.174a1.306,1.306,0,0,1,1.3-1.3H17.826a1.306,1.306,0,0,1,1.3,1.3Z" fill="#e58744"/></g></g></g></svg>