<svg xmlns="http://www.w3.org/2000/svg" width="24" height="24" viewBox="0 0 24 24"><g transform="translate(-16 -446)"><rect width="24" height="24" transform="translate(16 446)" fill="none"/><g transform="translate(18 446.242)"><g transform="translate(3.897 12.564)"><g transform="translate(0 0)"><path d="M100.652,278.4a.89.89,0,1,0,.89.89A.891.891,0,0,0,100.652,278.4Zm0,1.193a.3.3,0,1,1,.3-.3A.3.3,0,0,1,100.652,279.6Z" transform="translate(-99.762 -278.402)" fill="#fff"/></g></g><g transform="translate(7.144 16.161)"><path d="M188.6,372.538a.293.293,0,0,0-.279-.2h-1.744l-.539-1.658a.294.294,0,0,0-.558,0l-.539,1.658H183.2a.294.294,0,0,0-.173.531l1.411,1.025-.539,1.658a.294.294,0,0,0,.452.328l1.411-1.025,1.411,1.025a.294.294,0,0,0,.452-.328l-.539-1.658,1.411-1.025A.293.293,0,0,0,188.6,372.538Zm-2.035,1a.294.294,0,0,0-.107.328l.326,1-.852-.619a.3.3,0,0,0-.345,0l-.852.619.326-1a.294.294,0,0,0-.107-.328l-.852-.619h1.054a.294.294,0,0,0,.279-.2l.326-1,.326,1a.294.294,0,0,0,.279.2h1.054Z" transform="translate(-182.906 -370.474)" fill="#fff"/></g><g transform="translate(14.289 16.161)"><path d="M371.509,372.537a.294.294,0,0,0-.279-.2h-1.744l-.539-1.658a.294.294,0,0,0-.558,0l-.539,1.658h-1.744a.294.294,0,0,0-.173.531l1.411,1.025-.539,1.658a.294.294,0,0,0,.452.328l1.411-1.025,1.411,1.025a.294.294,0,0,0,.452-.328l-.539-1.658,1.411-1.025A.293.293,0,0,0,371.509,372.537Zm-2.035,1a.294.294,0,0,0-.107.328l.326,1-.852-.619a.293.293,0,0,0-.345,0l-.852.619.326-1a.294.294,0,0,0-.107-.328l-.852-.619h1.054a.294.294,0,0,0,.279-.2l.326-1,.326,1a.294.294,0,0,0,.279.2h1.054Z" transform="translate(-365.813 -370.473)" fill="#fff"/></g><g transform="translate(0 16.161)"><g transform="translate(0)"><path d="M5.7,372.538a.294.294,0,0,0-.279-.2H3.673l-.539-1.658a.294.294,0,0,0-.558,0l-.539,1.658H.293a.294.294,0,0,0-.173.531l1.411,1.025-.539,1.658a.294.294,0,0,0,.452.328l1.411-1.025,1.411,1.025a.294.294,0,0,0,.452-.328l-.539-1.658,1.411-1.025A.293.293,0,0,0,5.7,372.538Zm-2.035,1a.294.294,0,0,0-.107.328l.326,1-.852-.619a.3.3,0,0,0-.345,0l-.852.619.326-1a.293.293,0,0,0-.107-.328l-.852-.619H2.25a.294.294,0,0,0,.279-.2l.326-1,.326,1a.294.294,0,0,0,.279.2H4.513Z" transform="translate(0 -370.474)" fill="#fff"/></g></g><g transform="translate(2.505 1.758)"><g transform="translate(0 0)"><path d="M79.245,9.076a1.33,1.33,0,0,0-.833-2.367H73.69A5.389,5.389,0,0,0,74.1,5.224a3.678,3.678,0,0,0-.44-2.834A1.566,1.566,0,0,0,72.6,1.763a.626.626,0,0,0-.693.6,11.139,11.139,0,0,1-.544,2.69A6.552,6.552,0,0,1,68.31,7.657a1.084,1.084,0,0,0-.709-.263H65.215a1.09,1.09,0,0,0-1.089,1.089v5.966a1.09,1.09,0,0,0,1.089,1.089H67.6a1.086,1.086,0,0,0,.81-.362,2.779,2.779,0,0,0,1.5.413h7.671a1.33,1.33,0,0,0,1-2.208A1.329,1.329,0,0,0,79,11.308a1.329,1.329,0,0,0,.249-2.232ZM67.6,14.951H65.215a.5.5,0,0,1-.5-.5V8.483a.5.5,0,0,1,.5-.5H67.6a.5.5,0,0,1,.358.151v6.546a.292.292,0,0,0,.018.1A.5.5,0,0,1,67.6,14.951ZM77.179,9.37h1.233a.743.743,0,1,1,0,1.486H77.179a.294.294,0,1,0,0,.587H78a.743.743,0,1,1,0,1.486H76.954a.294.294,0,1,0,0,.587h.629a.743.743,0,0,1,0,1.486H69.912a2.171,2.171,0,0,1-1.24-.355,1.09,1.09,0,0,0,.018-.2V8.483a1.084,1.084,0,0,0-.051-.329,6.969,6.969,0,0,0,3.244-2.84,11.98,11.98,0,0,0,.6-2.908c0-.009,0-.019,0-.028a.032.032,0,0,1,.011-.025.029.029,0,0,1,.024-.008.987.987,0,0,1,.673.4,3.143,3.143,0,0,1,.325,2.394,3.766,3.766,0,0,1-.563,1.676.3.3,0,0,0,.227.479h5.226a.743.743,0,0,1,0,1.486H77.179a.294.294,0,1,0,0,.587Z" transform="translate(-64.126 -1.758)" fill="#fff"/></g></g></g></g></svg>