<svg xmlns="http://www.w3.org/2000/svg" width="20" height="20" viewBox="0 0 20 20"><g transform="translate(2.581 1.29)"><rect width="11.613" height="0.645" fill="#fff"/></g><g transform="translate(1.29 2.581)"><rect width="12.903" height="0.645" fill="#fff"/></g><g transform="translate(1.29 3.871)"><rect width="12.903" height="0.645" fill="#fff"/></g><path d="M1.29,6.452V18.71H14.839v.645H.645V.645H14.839V5.806h.645V0H0V20H15.484V18.71H20V6.452ZM19.355,18.065H1.935V7.1H19.355Z" fill="#fff"/><g transform="translate(2.946 7.343)"><path d="M78.132,183.8H76.439l-.845-1.689L74.75,183.8H73.056l.86,1.29-.86,1.29H74.75l.845,1.689.845-1.689h1.694l-.86-1.29Zm-1.205,1.935H76.04l-.446.892-.446-.892h-.887l.43-.645-.43-.645h.887l.446-.892.446.892h.887l-.43.645Z" transform="translate(-73.056 -182.112)" fill="#fff"/></g><g transform="translate(8.107 7.343)"><path d="M206.132,183.8h-1.694l-.845-1.689-.845,1.689h-1.694l.86,1.29-.86,1.29h1.694l.845,1.689.845-1.689h1.694l-.86-1.29Zm-1.205,1.935h-.887l-.446.892-.446-.892h-.887l.43-.645-.43-.645h.887l.446-.892.446.892h.887l-.43.645Z" transform="translate(-201.056 -182.112)" fill="#fff"/></g><g transform="translate(13.268 7.343)"><path d="M334.132,183.8h-1.694l-.845-1.689-.845,1.689h-1.694l.86,1.29-.86,1.29h1.694l.845,1.689.845-1.689h1.694l-.86-1.29Zm-1.205,1.935h-.887l-.446.892-.446-.892h-.887l.43-.645-.43-.645h.887l.446-.892.446.892h.887l-.43.645Z" transform="translate(-329.056 -182.112)" fill="#fff"/></g><g transform="translate(5.526 11.859)"><path d="M142.132,295.8h-1.694l-.845-1.689-.845,1.689h-1.694l.86,1.29-.86,1.29h1.694l.845,1.689.845-1.689h1.694l-.86-1.29Zm-1.205,1.935h-.887l-.446.892-.446-.892h-.887l.43-.645-.43-.645h.887l.446-.892.446.892h.887l-.43.645Z" transform="translate(-137.056 -294.112)" fill="#fff"/></g><g transform="translate(10.688 11.859)"><path d="M270.132,295.8h-1.694l-.845-1.689-.845,1.689h-1.694l.86,1.29-.86,1.29h1.694l.845,1.689.845-1.689h1.694l-.86-1.29Zm-1.205,1.935h-.887l-.446.892-.446-.892h-.887l.43-.645-.43-.645h.887l.446-.892.446.892h.887l-.43.645Z" transform="translate(-265.056 -294.112)" fill="#fff"/></g><g transform="translate(1.29 5.161)"><rect width="11.613" height="0.645" fill="#fff"/></g><g transform="translate(13.548 5.161)"><rect width="0.645" height="0.645" fill="#fff"/></g><g transform="translate(1.29 1.29)"><rect width="0.645" height="0.645" fill="#fff"/></g></svg>