<svg xmlns="http://www.w3.org/2000/svg" xmlns:xlink="http://www.w3.org/1999/xlink" width="60" height="60" viewBox="0 0 60 60"><defs><clipPath id="a"><circle cx="30" cy="30" r="30" transform="translate(3370 15499)" fill="#fff" stroke="#707070" stroke-width="1"/></clipPath></defs><g transform="translate(-3370 -15499)"><g clip-path="url(#a)"><g transform="translate(0.105 -8.895)"><g transform="translate(1545.895 15454.895)"><circle cx="30.053" cy="30.053" r="30.053" transform="translate(1824 53)" fill="#00b3bf"/><g transform="translate(1840.529 72.534)"><g transform="translate(0 0)"><path d="M27.059,68.4a1.373,1.373,0,0,0-1.942,0L8.667,84.85,2.344,78.527A1.373,1.373,0,1,0,.4,80.469L7.7,87.763a1.374,1.374,0,0,0,1.942,0L27.059,70.342A1.373,1.373,0,0,0,27.059,68.4Z" transform="translate(0 -67.997)" fill="#fff"/></g></g></g></g></g></g></svg>