<svg xmlns="http://www.w3.org/2000/svg" width="48" height="48" viewBox="0 0 48 48"><g transform="translate(-0.004)"><g transform="translate(0.004)"><path d="M24,0A24,24,0,1,0,48,24,24.027,24.027,0,0,0,24,0ZM35.073,20.3l-12.6,12.6a.753.753,0,0,1-1.035,0L12.983,24.45a.727.727,0,0,1-.213-.518.736.736,0,0,1,.213-.519l1.081-1.08a.738.738,0,0,1,1.035,0l6.59,6.59a.372.372,0,0,0,.53,0L32.957,18.185a.753.753,0,0,1,1.035,0l1.081,1.082a.731.731,0,0,1,0,1.035Z" transform="translate(-0.004)" fill="#4bb543"/></g></g></svg>