<svg xmlns="http://www.w3.org/2000/svg" xmlns:xlink="http://www.w3.org/1999/xlink" width="241.001" height="241.001" viewBox="0 0 241.001 241.001"><defs><filter id="a" x="0" y="0" width="241.001" height="241.001" filterUnits="userSpaceOnUse"><feOffset dy="3" input="SourceAlpha"/><feGaussianBlur stdDeviation="12.5" result="b"/><feFlood flood-color="#d7e8e9" flood-opacity="0.78"/><feComposite operator="in" in2="b"/><feComposite in="SourceGraphic"/></filter></defs><g transform="translate(3062.5 -1716.354)"><g transform="matrix(1, 0, 0, 1, -3062.5, 1716.35)" filter="url(#a)"><circle cx="83" cy="83" r="83" transform="translate(37.5 34.5)" fill="#fff"/></g><path d="M-2675.323,1847.252a1.79,1.79,0,0,1-.138-.129,2.848,2.848,0,0,1-.608-.979c-.339-.807-.674-2.025-1.482-3.952-1.234,2.943-1.365,4.233-2.09,4.931-.7.724-1.988.856-4.931,2.09,2.943,1.234,4.233,1.366,4.931,2.09.724.7.856,1.988,2.09,4.931.809-1.928,1.144-3.146,1.483-3.954a2.848,2.848,0,0,1,.607-.977,1.865,1.865,0,0,1,.138-.129c.728-.616,2.034-.8,4.793-1.961C-2673.288,1848.056-2674.6,1847.867-2675.323,1847.252Z" transform="translate(-230.055 -61.724)" fill="#f94"/><path d="M-2925.321,1937.784c-.033-.028-.065-.058-.094-.089a1.949,1.949,0,0,1-.416-.67c-.232-.553-.462-1.387-1.014-2.706-.845,2.015-.936,2.9-1.431,3.376-.478.5-1.361.586-3.376,1.431,2.015.845,2.9.935,3.376,1.431.5.478.586,1.361,1.431,3.376.553-1.32.783-2.155,1.015-2.708a1.952,1.952,0,0,1,.416-.668,1.246,1.246,0,0,1,.094-.089c.5-.422,1.393-.551,3.282-1.343C-2923.928,1938.334-2924.823,1938.205-2925.321,1937.784Z" transform="translate(-63.081 -123.982)" fill="#f94"/><path d="M-2623.6,2006.52a.844.844,0,0,1-.07-.065,1.437,1.437,0,0,1-.308-.5c-.171-.409-.342-1.026-.751-2-.625,1.491-.692,2.145-1.059,2.5s-1.007.434-2.5,1.059c1.491.625,2.144.692,2.5,1.059s.434,1.007,1.059,2.5c.41-.977.579-1.594.751-2a1.45,1.45,0,0,1,.308-.495c.022-.023.045-.045.07-.066a15.389,15.389,0,0,1,2.428-.993A15.388,15.388,0,0,1-2623.6,2006.52Z" transform="translate(-268.091 -171.041)" fill="#fc6076"/><path d="M-2841,1835.722a.937.937,0,0,1-.07-.065,1.439,1.439,0,0,1-.308-.5c-.171-.409-.341-1.026-.751-2-.625,1.491-.692,2.145-1.059,2.5s-1.007.434-2.5,1.059c1.491.625,2.145.692,2.5,1.059s.434,1.007,1.059,2.5c.41-.977.579-1.594.751-2a1.443,1.443,0,0,1,.307-.495c.022-.023.045-.045.07-.066a15.381,15.381,0,0,1,2.428-.993A15.368,15.368,0,0,1-2841,1835.722Z" transform="translate(-121.179 -55.619)" fill="#00b3bf"/><g transform="translate(-2976.173 1795.348)"><path d="M-2764.384,1918.743l-2.453.74-3.453-1.09-4.177.35h-13.684v75.591h37.45v-75.591Z" transform="translate(2816.115 -1908.567)" fill="#f94"/><path d="M-2802.665,1892.571l3.131,17.444h14.089l3.132-17.444Z" transform="translate(2825.924 -1891.117)" fill="#fc6076"/><g transform="translate(24.712 30.527)"><circle cx="5.815" cy="5.815" r="5.815" transform="translate(2.907)" fill="#ffdaae"/><path d="M-2792.509,2018.111h6.1a5.673,5.673,0,0,1,5.673,5.673v8.864h-17.444v-8.864a5.673,5.673,0,0,1,5.673-5.673Z" transform="translate(2798.182 -2006.482)" fill="#ffdaae"/></g><path d="M-2697.126,2062.947l-11.629,14.537-4.361-4.361-4.361,4.361,8.722,8.722,15.99-18.9Z" transform="translate(2768.356 -2006.254)" fill="#fc6076"/><path d="M-2780.37,1914.744a4.361,4.361,0,0,1-4.361-4.361,4.361,4.361,0,0,1,4.361-4.361,4.361,4.361,0,0,1,4.361,4.361A4.366,4.366,0,0,1-2780.37,1914.744Zm0-5.815a1.454,1.454,0,0,0-1.454,1.454,1.454,1.454,0,0,0,1.454,1.454,1.453,1.453,0,0,0,1.454-1.454A1.456,1.456,0,0,0-2780.37,1908.929Z" transform="translate(2813.804 -1900.207)"/><path d="M-2799.53,1959.825h-46.518a1.454,1.454,0,0,0-1.454,1.453v31.981a1.454,1.454,0,0,0,1.454,1.454h46.518a1.454,1.454,0,0,0,1.454-1.454v-31.981A1.454,1.454,0,0,0-2799.53,1959.825Zm-23.259,17.444a4.361,4.361,0,0,1-4.361-4.361,4.361,4.361,0,0,1,4.361-4.361,4.361,4.361,0,0,1,4.361,4.361A4.366,4.366,0,0,1-2822.789,1977.269Zm-3.049,2.907h6.1a4.224,4.224,0,0,1,4.219,4.219v7.41h-14.537v-7.41A4.223,4.223,0,0,1-2825.838,1980.176Zm24.854,11.629h-11.629v-7.41a7.114,7.114,0,0,0-4.758-6.691,7.268,7.268,0,0,0-.572-10.263,7.269,7.269,0,0,0-10.263.572,7.268,7.268,0,0,0,0,9.691,7.115,7.115,0,0,0-4.758,6.691v7.41h-11.629v-29.073h43.61Z" transform="translate(2856.223 -1936.566)"/><path d="M-2847.5,2076.4h21.8v2.907h-21.8Z" transform="translate(2856.223 -2015.344)"/><path d="M-2771.28,2076.4h8.722v2.907h-8.722Z" transform="translate(2804.715 -2015.344)"/><path d="M-2847.5,2103.3h34.888v2.907H-2847.5Z" transform="translate(2856.223 -2033.524)"/><path d="M-2735.412,2076.4h5.815v2.907h-5.815Z" transform="translate(2780.476 -2015.344)"/><path d="M-2797.784,1948.113l-4.361-4.361a1.453,1.453,0,0,0-2.055,0,1.407,1.407,0,0,0-.108.121l-3.226,4.032v-49.642a1.454,1.454,0,0,0-1.454-1.453h-21.633l1.258-7.012a1.453,1.453,0,0,0-1.174-1.687,1.448,1.448,0,0,0-.257-.023h-20.351a1.454,1.454,0,0,0-1.454,1.454,1.457,1.457,0,0,0,.023.256l1.259,7.012h-21.633a1.454,1.454,0,0,0-1.454,1.453v75.591a1.454,1.454,0,0,0,1.454,1.454h63.961a1.454,1.454,0,0,0,1.454-1.454V1961.7l9.831-11.619a1.454,1.454,0,0,0-.081-1.967Zm-34.747-57.119-2.609,14.536H-2846.8l-2.609-14.536Zm22.089,81.405H-2871.5v-72.683h20.7l1.351,7.525a1.454,1.454,0,0,0,1.431,1.2h14.09a1.454,1.454,0,0,0,1.431-1.2l1.351-7.525h20.7v51.822l-4.481,5.6-3.213-3.213a1.453,1.453,0,0,0-2.055,0h0l-4.361,4.361a1.453,1.453,0,0,0,0,2.055h0l8.722,8.722a1.454,1.454,0,0,0,1.028.426h.06a1.453,1.453,0,0,0,1.049-.513l3.251-3.843Zm-4.45-6.506-6.577-6.577,2.306-2.306,3.333,3.333a1.472,1.472,0,0,0,1.108.424,1.452,1.452,0,0,0,1.054-.544l10.615-13.268,2.266,2.267Z" transform="translate(2874.403 -1888.087)"/><path d="M-2847.5,2130.2h13.083v2.907H-2847.5Z" transform="translate(2856.223 -2051.703)"/><path d="M-2798.182,2130.2h23.259v2.907h-23.259Z" transform="translate(2822.894 -2051.703)"/></g></g></svg>