<svg xmlns="http://www.w3.org/2000/svg" width="20.005" height="20.005" viewBox="0 0 20.005 20.005"><path d="M20.64,96.116a4.61,4.61,0,0,1-2.545-.762,52.552,52.552,0,0,1-4.7-3.488L3.662,83.76l-.814.956,2.213,1.845a2.188,2.188,0,0,0-.374,3.632L7.462,92.48a2.246,2.246,0,0,0,1.429.511A2.458,2.458,0,0,0,11.11,91.6l1.471,1.225a53.881,53.881,0,0,0,4.813,3.573,5.883,5.883,0,0,0,3.246.972.938.938,0,1,1,0,1.875H17.577a13.157,13.157,0,0,1-3.153-.383,3.844,3.844,0,0,0-2.134.081,6.038,6.038,0,0,1-1.886.3,1.718,1.718,0,0,1-1.727-1.708,1.694,1.694,0,0,1,.29-.947l.885-1.313L3.562,91.819l-.614,1.093,5.09,2.8-.126.188a2.937,2.937,0,0,0,.833,4.1,3.015,3.015,0,0,0,1.658.5,7.281,7.281,0,0,0,2.286-.367,2.6,2.6,0,0,1,1.428-.054,14.42,14.42,0,0,0,3.459.421H20.64a2.188,2.188,0,1,0,0-4.376ZM10.026,90.927a1.2,1.2,0,0,1-1.138.813.969.969,0,0,1-.617-.221L5.5,89.232a.945.945,0,0,1-.124-1.341.964.964,0,0,1,.435-.294l.357-.118,3.92,3.266Z" transform="translate(-2.848 -80.487)" fill="#fff"/><path d="M190.436,3.636V6.877a1.9,1.9,0,0,0,3.793,0,.629.629,0,0,1,.632-.625,1.886,1.886,0,0,0,1.9-1.875V3.751h3.161a1.886,1.886,0,0,0,1.9-1.875A1.886,1.886,0,0,0,199.919,0h-1.264V1.25h1.264a.625.625,0,1,1,0,1.25h-8.851a.625.625,0,1,1,0-1.25h1.264V0h-1.264a1.868,1.868,0,0,0-.632,3.636Zm1.264.115h3.793v.625a.629.629,0,0,1-.632.625,1.886,1.886,0,0,0-1.9,1.875.632.632,0,0,1-1.264,0Z" transform="translate(-181.811 0)" fill="#fff"/><rect width="1.264" height="1.25" transform="translate(11.787 0)" fill="#fff"/><rect width="1.264" height="1.25" transform="translate(14.315 0)" fill="#fff"/></svg>