<svg xmlns="http://www.w3.org/2000/svg" width="24" height="24" viewBox="0 0 24 24"><g transform="translate(-16 -494)"><rect width="24" height="24" transform="translate(16 494)" fill="none"/><g transform="translate(18 495.997)"><g transform="translate(0 0.001)"><path d="M18.976,7.9l-1.4-.238A7.926,7.926,0,0,0,17.008,6.3l.827-1.157A1.232,1.232,0,0,0,17.7,3.552L16.457,2.307a1.226,1.226,0,0,0-.873-.363,1.214,1.214,0,0,0-.714.23L13.708,3A7.844,7.844,0,0,0,12.3,2.42l-.234-1.387A1.234,1.234,0,0,0,10.842,0H9.083a1.234,1.234,0,0,0-1.22,1.032L7.621,2.453a7.731,7.731,0,0,0-1.358.572L5.114,2.2a1.234,1.234,0,0,0-1.592.134L2.273,3.577a1.237,1.237,0,0,0-.134,1.592l.836,1.174a7.742,7.742,0,0,0-.556,1.366l-1.387.234A1.234,1.234,0,0,0,0,9.163v1.759a1.234,1.234,0,0,0,1.032,1.22l1.421.242a7.731,7.731,0,0,0,.572,1.358L2.2,14.887a1.232,1.232,0,0,0,.134,1.592l1.245,1.245a1.226,1.226,0,0,0,.873.363,1.214,1.214,0,0,0,.714-.23l1.174-.836a7.9,7.9,0,0,0,1.32.543l.234,1.4A1.234,1.234,0,0,0,9.116,20h1.763a1.234,1.234,0,0,0,1.22-1.032l.238-1.4A7.926,7.926,0,0,0,13.7,17l1.157.827a1.227,1.227,0,0,0,.719.23h0a1.226,1.226,0,0,0,.873-.363l1.245-1.245a1.237,1.237,0,0,0,.134-1.592L17,13.7a7.87,7.87,0,0,0,.564-1.362l1.4-.234A1.234,1.234,0,0,0,20,10.88V9.121A1.219,1.219,0,0,0,18.976,7.9Zm-.1,2.979a.108.108,0,0,1-.092.109l-1.755.292a.561.561,0,0,0-.451.414,6.688,6.688,0,0,1-.727,1.751.565.565,0,0,0,.025.614l1.032,1.454a.114.114,0,0,1-.013.142L15.655,16.9a.106.106,0,0,1-.079.033.1.1,0,0,1-.063-.021l-1.45-1.032a.565.565,0,0,0-.614-.025,6.688,6.688,0,0,1-1.751.727.555.555,0,0,0-.414.451l-.3,1.755a.108.108,0,0,1-.109.092H9.12a.108.108,0,0,1-.109-.092l-.292-1.755a.561.561,0,0,0-.414-.451,6.945,6.945,0,0,1-1.713-.7.578.578,0,0,0-.284-.075.55.55,0,0,0-.326.1l-1.462,1.04a.124.124,0,0,1-.063.021.112.112,0,0,1-.079-.033L3.133,15.693a.113.113,0,0,1-.013-.142L4.149,14.11a.572.572,0,0,0,.025-.618,6.625,6.625,0,0,1-.735-1.746.572.572,0,0,0-.451-.414l-1.767-.3a.108.108,0,0,1-.092-.109V9.163a.108.108,0,0,1,.092-.109l1.742-.292a.565.565,0,0,0,.455-.418A6.681,6.681,0,0,1,4.132,6.59.558.558,0,0,0,4.1,5.98L3.062,4.517a.114.114,0,0,1,.013-.142L4.32,3.13A.106.106,0,0,1,4.4,3.1a.1.1,0,0,1,.063.021L5.9,4.146a.572.572,0,0,0,.618.025,6.625,6.625,0,0,1,1.746-.735.572.572,0,0,0,.414-.451l.3-1.767a.108.108,0,0,1,.109-.092H10.85a.108.108,0,0,1,.109.092l.292,1.742a.565.565,0,0,0,.418.455,6.781,6.781,0,0,1,1.792.735.565.565,0,0,0,.614-.025l1.441-1.036a.124.124,0,0,1,.063-.021.112.112,0,0,1,.079.033L16.9,4.346a.113.113,0,0,1,.013.142l-1.032,1.45a.565.565,0,0,0-.025.614A6.688,6.688,0,0,1,16.586,8.3a.555.555,0,0,0,.451.414l1.755.3a.108.108,0,0,1,.092.109V10.88Z" transform="translate(0 -0.001)" fill="#fff"/><path d="M140.416,136a4.316,4.316,0,1,0,4.316,4.316A4.319,4.319,0,0,0,140.416,136Zm0,7.5a3.188,3.188,0,1,1,3.188-3.188A3.19,3.19,0,0,1,140.416,143.5Z" transform="translate(-130.414 -130.319)" fill="#fff"/></g></g></g></svg>