<svg xmlns="http://www.w3.org/2000/svg" xmlns:xlink="http://www.w3.org/1999/xlink" width="75" height="76" viewBox="0 0 75 76">
  <defs>
    <linearGradient id="linear-gradient" x1="0.5" x2="0.5" y2="1" gradientUnits="objectBoundingBox">
      <stop offset="0" stop-color="#fc6076"/>
      <stop offset="1" stop-color="#f94"/>
    </linearGradient>
  </defs>
  <g id="Group_8181" data-name="Group 8181" transform="translate(-3248 -16261)">
    <g id="Symbol_1_6" data-name="Symbol 1 – 6" transform="translate(-257.613 1206.076)">
      <path id="Path_9526" data-name="Path 9526" d="M-1375.817,2486.718c-.024-.021-.047-.042-.069-.065a1.417,1.417,0,0,1-.3-.488c-.169-.4-.336-1.01-.738-1.97-.615,1.467-.681,2.111-1.042,2.458s-.991.427-2.458,1.042c1.467.615,2.11.682,2.458,1.042s.427.991,1.042,2.458c.4-.961.57-1.569.739-1.971a1.416,1.416,0,0,1,.3-.487.787.787,0,0,1,.069-.064,15.062,15.062,0,0,1,2.389-.979A15.176,15.176,0,0,1-1375.817,2486.718Z" transform="translate(4934.428 12570.729)" fill="#f94"/>
    </g>
    <path id="Path_9527" data-name="Path 9527" d="M-1622.966,2578.808c-.024-.02-.046-.041-.068-.063a1.4,1.4,0,0,1-.3-.48c-.166-.4-.331-1-.728-1.942-.606,1.446-.671,2.08-1.027,2.423s-.977.42-2.423,1.027c1.447.606,2.08.671,2.423,1.027s.421.977,1.027,2.423c.4-.948.563-1.547.729-1.943a1.384,1.384,0,0,1,.3-.48c.022-.022.044-.043.068-.064a15.014,15.014,0,0,1,2.355-.964A14.879,14.879,0,0,1-1622.966,2578.808Z" transform="translate(4875.511 13713.879)" fill="#4d4d4d"/>
    <path id="Path_9528" data-name="Path 9528" d="M-1195.089,2640.806c-.017-.015-.034-.031-.05-.047a1.05,1.05,0,0,1-.221-.357c-.123-.293-.245-.736-.539-1.436-.448,1.07-.5,1.539-.76,1.793s-.723.311-1.793.76c1.069.448,1.539.5,1.793.76s.312.723.76,1.794c.294-.7.416-1.145.539-1.439a1.035,1.035,0,0,1,.221-.355c.016-.016.033-.032.05-.047a11.163,11.163,0,0,1,1.743-.712A11.144,11.144,0,0,1-1195.089,2640.806Z" transform="translate(4516.346 13653.337)" fill="#00b3bf"/>
    <path id="Path_9529" data-name="Path 9529" d="M-1538.177,2477a.611.611,0,0,1-.05-.047,1.055,1.055,0,0,1-.221-.356c-.123-.294-.245-.737-.539-1.437-.448,1.07-.5,1.54-.76,1.793s-.723.312-1.793.76c1.07.449,1.539.5,1.793.76s.311.723.76,1.792c.294-.7.416-1.144.539-1.437a1.052,1.052,0,0,1,.221-.355c.016-.016.033-.032.05-.046a11.091,11.091,0,0,1,1.743-.714A11.162,11.162,0,0,1-1538.177,2477Z" transform="translate(4803.829 13795.986)" fill="#00b3bf"/>
    <g id="Group_8180" data-name="Group 8180" transform="translate(3284 16320.677)">
      <g id="Group_7545" data-name="Group 7545">
        <path id="Path_9215" data-name="Path 9215" d="M-642.929,77.324h0a1.1,1.1,0,0,1,0-1.558l6.8-6.795a1.106,1.106,0,0,1,1.558,0h0a1.1,1.1,0,0,1,0,1.558l-6.8,6.795A1.094,1.094,0,0,1-642.929,77.324Z" transform="translate(643.25 -68.65)" fill="url(#linear-gradient)"/>
        <path id="Path_9216" data-name="Path 9216" d="M-634.578,77.418h0a1.106,1.106,0,0,1-1.558,0l-6.792-6.789a1.1,1.1,0,0,1,0-1.558h0a1.106,1.106,0,0,1,1.558,0l6.8,6.8A1.091,1.091,0,0,1-634.578,77.418Z" transform="translate(643.25 -68.744)" fill="url(#linear-gradient)"/>
      </g>
    </g>
    <rect id="Rectangle_2432" data-name="Rectangle 2432" width="2.07" height="3.106" transform="translate(3306.633 16282.676)" fill="none"/>
    <rect id="Rectangle_2433" data-name="Rectangle 2433" width="2.07" height="3.106" transform="translate(3306.633 16319.777)" fill="none"/>
    <path id="Path_9531" data-name="Path 9531" d="M-1042.182,2574.63v37.164a3.111,3.111,0,0,0,2.07,2.928V2571.7A3.11,3.11,0,0,0-1042.182,2574.63Z" transform="translate(4309.478 13709.496)" fill="none"/>
    <rect id="Rectangle_2434" data-name="Rectangle 2434" width="2.07" height="3.106" transform="translate(3306.633 16301.226)" fill="none"/>
    <rect id="Rectangle_2435" data-name="Rectangle 2435" width="2.07" height="3.106" transform="translate(3306.633 16291.95)" fill="none"/>
    <path id="Path_9532" data-name="Path 9532" d="M-993.917,2600.284a14.332,14.332,0,0,1,14.307,13.494l2.191,0v-43.375l-33.126-.048v43.374l2.324,0A14.332,14.332,0,0,1-993.917,2600.284Zm-2.136-13.364h-4.141a1.037,1.037,0,0,1-1.035-1.035,1.037,1.037,0,0,1,1.035-1.035h4.141a1.037,1.037,0,0,1,1.035,1.035A1.037,1.037,0,0,1-996.053,2586.919Zm-3.105-5.176a1.037,1.037,0,0,1,1.035-1.035h8.281a1.037,1.037,0,0,1,1.035,1.035,1.037,1.037,0,0,1-1.035,1.035h-8.281A1.037,1.037,0,0,1-999.158,2581.743Zm5.176,9.316a1.037,1.037,0,0,1-1.035-1.035,1.036,1.036,0,0,1,1.035-1.035,1.036,1.036,0,0,1,1.035,1.035A1.036,1.036,0,0,1-993.982,2591.06Zm1.035-5.175a1.037,1.037,0,0,1,1.035-1.035h4.141a1.037,1.037,0,0,1,1.035,1.035,1.037,1.037,0,0,1-1.035,1.035h-4.141A1.037,1.037,0,0,1-992.947,2585.884Zm-12.422,4.14V2577.6a1.061,1.061,0,0,1,1.036-1.035h20.7a1.065,1.065,0,0,1,1.035,1.035v12.422a1.071,1.071,0,0,1-1.035,1.035h-6.211a1.037,1.037,0,0,1-1.035-1.035,1.036,1.036,0,0,1,1.035-1.035h5.176v-10.352H-1003.3v10.352h5.176a1.037,1.037,0,0,1,1.035,1.035,1.037,1.037,0,0,1-1.035,1.035h-6.211A1.061,1.061,0,0,1-1005.369,2590.024Z" transform="translate(4281.982 13710.664)" fill="none"/>
    <rect id="Rectangle_2436" data-name="Rectangle 2436" width="2.07" height="3.106" transform="translate(3306.633 16310.501)" fill="none"/>
    <path id="Path_9533" data-name="Path 9533" d="M-1013.487,2563.326a1.035,1.035,0,0,0,1.035-1.035v-5.176a1.035,1.035,0,0,0-1.035-1.035h-3.105v-.466a1.036,1.036,0,0,0-1.033-1.035l-35.2-.052A5.182,5.182,0,0,0-1058,2559.7v37.164a5.182,5.182,0,0,0,5.174,5.175l3.383.005c-.032-.393-.05-.79-.05-1.19,0-.3.01-.589.028-.881l-2.324,0V2556.6l33.126.048v43.375l-2.19,0c.016.277.025.557.025.838,0,.415-.019.826-.053,1.232l3.254.005a1.036,1.036,0,0,0,.731-.3,1.034,1.034,0,0,0,.3-.732v-.466h3.105a1.035,1.035,0,0,0,1.035-1.035v-5.176a1.035,1.035,0,0,0-1.035-1.035h-3.105v-2.07h3.105a1.035,1.035,0,0,0,1.035-1.036v-5.175a1.035,1.035,0,0,0-1.035-1.035h-3.105v-2.071h3.105a1.035,1.035,0,0,0,1.035-1.035v-5.176a1.035,1.035,0,0,0-1.035-1.035h-3.105v-2.07h3.105a1.035,1.035,0,0,0,1.035-1.036v-5.175a1.035,1.035,0,0,0-1.035-1.036h-3.105v-2.07Zm-3.105-5.176h2.071v3.106h-2.071Zm-37.267,41.644a3.111,3.111,0,0,1-2.07-2.928V2559.7a3.11,3.11,0,0,1,2.07-2.928Zm39.337-4.377v3.1h-2.071v-3.1Zm0-9.317v3.106h-2.071V2586.1Zm0-9.317v3.106h-2.071v-3.106Zm0-9.316v3.106h-2.071v-3.106Z" transform="translate(4323.226 13724.298)" fill="url(#linear-gradient)"/>
    <path id="Path_9534" data-name="Path 9534" d="M-962.718,2631.257a1.036,1.036,0,0,0-1.035-1.034h-5.176v-10.352H-950.3v10.352h-5.176a1.036,1.036,0,0,0-1.035,1.034,1.037,1.037,0,0,0,1.035,1.036h6.211a1.072,1.072,0,0,0,1.035-1.036v-12.421a1.065,1.065,0,0,0-1.035-1.036h-20.7a1.061,1.061,0,0,0-1.036,1.036v12.421a1.061,1.061,0,0,0,1.035,1.036h6.211A1.037,1.037,0,0,0-962.718,2631.257Z" transform="translate(4247.613 13669.492)" fill="url(#linear-gradient)"/>
    <path id="Path_9535" data-name="Path 9535" d="M-890.874,2712.709a1.036,1.036,0,0,0-1.035,1.035,1.037,1.037,0,0,0,1.035,1.035,1.037,1.037,0,0,0,1.035-1.035A1.036,1.036,0,0,0-890.874,2712.709Z" transform="translate(4178.874 13586.974)" fill="url(#linear-gradient)"/>
    <path id="Path_9536" data-name="Path 9536" d="M-934.188,2681.073h-4.141a1.037,1.037,0,0,0-1.035,1.036,1.037,1.037,0,0,0,1.035,1.035h4.141a1.037,1.037,0,0,0,1.035-1.035A1.037,1.037,0,0,0-934.188,2681.073Z" transform="translate(4220.118 13614.486)" fill="url(#linear-gradient)"/>
    <path id="Path_9537" data-name="Path 9537" d="M-869.88,2682.109a1.037,1.037,0,0,0-1.035-1.036h-4.141a1.037,1.037,0,0,0-1.035,1.036,1.037,1.037,0,0,0,1.035,1.035h4.141A1.037,1.037,0,0,0-869.88,2682.109Z" transform="translate(4165.126 13614.486)" fill="url(#linear-gradient)"/>
    <path id="Path_9538" data-name="Path 9538" d="M-914.229,2651.507a1.037,1.037,0,0,0,1.035-1.035,1.037,1.037,0,0,0-1.035-1.035h-8.281a1.037,1.037,0,0,0-1.035,1.035,1.037,1.037,0,0,0,1.035,1.035Z" transform="translate(4206.369 13642.001)" fill="url(#linear-gradient)"/>
    <path id="Path_9539" data-name="Path 9539" d="M-950.33,2829.152A11.846,11.846,0,0,0-962.155,2818a11.845,11.845,0,0,0-11.822,11.117c-.015.241-.023.483-.023.728,0,.332.014.659.041.984a11.846,11.846,0,0,0,11.8,10.861,11.846,11.846,0,0,0,11.8-10.827c.029-.335.044-.675.044-1.019C-950.31,2829.612-950.317,2829.382-950.33,2829.152Zm-1.979,1.542a9.881,9.881,0,0,1-9.845,9.032,9.882,9.882,0,0,1-9.848-9.061q-.033-.406-.034-.821c0-.2.007-.406.019-.606a9.882,9.882,0,0,1,9.863-9.274,9.882,9.882,0,0,1,9.865,9.3c.011.19.017.384.017.577C-952.273,2830.131-952.286,2830.415-952.31,2830.694Z" transform="translate(4250.22 13495.31)" fill="url(#linear-gradient)"/>
  </g>
</svg>
