<svg xmlns="http://www.w3.org/2000/svg" xmlns:xlink="http://www.w3.org/1999/xlink" width="75" height="66" viewBox="0 0 75 66">
  <defs>
    <linearGradient id="linear-gradient" x1="0.5" x2="0.5" y2="1" gradientUnits="objectBoundingBox">
      <stop offset="0" stop-color="#fc6076"/>
      <stop offset="1" stop-color="#f94"/>
    </linearGradient>
  </defs>
  <g id="Group_8174" data-name="Group 8174" transform="translate(-3511.061 -15042.759)">
    <g id="Group_8173" data-name="Group 8173" transform="translate(3524.904 15060.209)">
      <g id="Group_8172" data-name="Group 8172" transform="translate(0)">
        <g id="Group_8171" data-name="Group 8171">
          <ellipse id="Ellipse_163" data-name="Ellipse 163" cx="1.896" cy="1.896" rx="1.896" ry="1.896" transform="translate(34.706 18.016)" fill="url(#linear-gradient)"/>
          <path id="Path_9523" data-name="Path 9523" d="M-1553.115,2539.316h-2.465v-1.9a1.9,1.9,0,0,0-1.9-1.9,1.9,1.9,0,0,0-1.9,1.9v1.9H-1568v-1.9a1.9,1.9,0,0,0-1.9-1.9,1.9,1.9,0,0,0-1.9,1.9v1.9h-8.534v-1.9a1.9,1.9,0,0,0-1.9-1.9,1.9,1.9,0,0,0-1.9,1.9v1.9h-2.37a7.6,7.6,0,0,0-7.586,7.585v29.585a7.6,7.6,0,0,0,7.586,7.586h14.508a1.9,1.9,0,0,0,1.9-1.9,1.9,1.9,0,0,0-1.9-1.9h-14.508a3.8,3.8,0,0,1-3.793-3.793V2546.9a3.8,3.8,0,0,1,3.793-3.792h2.37v1.9a1.9,1.9,0,0,0,1.9,1.9,1.9,1.9,0,0,0,1.9-1.9v-1.9h8.534v1.9a1.9,1.9,0,0,0,1.9,1.9,1.9,1.9,0,0,0,1.9-1.9v-1.9h8.629v1.9a1.9,1.9,0,0,0,1.9,1.9,1.9,1.9,0,0,0,1.9-1.9v-1.9h2.465a3.8,3.8,0,0,1,3.793,3.792v10.81a1.9,1.9,0,0,0,1.9,1.9,1.9,1.9,0,0,0,1.9-1.9V2546.9A7.594,7.594,0,0,0-1553.115,2539.316Z" transform="translate(1594.079 -2535.523)" fill="url(#linear-gradient)"/>
          <path id="Path_9524" data-name="Path 9524" d="M-1380.484,2737.643a11.486,11.486,0,0,0-11.474,11.474,11.486,11.486,0,0,0,11.474,11.473,11.487,11.487,0,0,0,11.474-11.473A11.487,11.487,0,0,0-1380.484,2737.643Zm0,19.154a7.69,7.69,0,0,1-7.681-7.681,7.689,7.689,0,0,1,7.681-7.681,7.689,7.689,0,0,1,7.681,7.681A7.689,7.689,0,0,1-1380.484,2756.8Z" transform="translate(1417.56 -2712.041)" fill="url(#linear-gradient)"/>
          <path id="Path_9525" data-name="Path 9525" d="M-1311.7,2786.447h-.854v-1.992a1.9,1.9,0,0,0-1.9-1.9,1.9,1.9,0,0,0-1.9,1.9v3.888a1.9,1.9,0,0,0,1.9,1.9h2.75a1.9,1.9,0,0,0,1.9-1.9A1.9,1.9,0,0,0-1311.7,2786.447Z" transform="translate(1351.53 -2751.268)" fill="url(#linear-gradient)"/>
          <ellipse id="Ellipse_164" data-name="Ellipse 164" cx="1.896" cy="1.896" rx="1.896" ry="1.896" transform="translate(26.456 18.016)" fill="url(#linear-gradient)"/>
          <ellipse id="Ellipse_165" data-name="Ellipse 165" cx="1.896" cy="1.896" rx="1.896" ry="1.896" transform="translate(18.206 26.266)" fill="url(#linear-gradient)"/>
          <ellipse id="Ellipse_166" data-name="Ellipse 166" cx="1.896" cy="1.896" rx="1.896" ry="1.896" transform="translate(9.956 18.016)" fill="url(#linear-gradient)"/>
          <ellipse id="Ellipse_167" data-name="Ellipse 167" cx="1.896" cy="1.896" rx="1.896" ry="1.896" transform="translate(9.956 26.266)" fill="url(#linear-gradient)"/>
          <ellipse id="Ellipse_168" data-name="Ellipse 168" cx="1.896" cy="1.896" rx="1.896" ry="1.896" transform="translate(9.956 34.516)" fill="url(#linear-gradient)"/>
          <ellipse id="Ellipse_169" data-name="Ellipse 169" cx="1.896" cy="1.896" rx="1.896" ry="1.896" transform="translate(18.206 34.516)" fill="url(#linear-gradient)"/>
          <ellipse id="Ellipse_170" data-name="Ellipse 170" cx="1.896" cy="1.896" rx="1.896" ry="1.896" transform="translate(18.206 18.016)" fill="url(#linear-gradient)"/>
        </g>
      </g>
    </g>
    <g id="Symbol_1_7" data-name="Symbol 1 – 7" transform="translate(5.448 -12.166)">
      <path id="Path_9526" data-name="Path 9526" d="M-1375.817,2486.718c-.024-.021-.047-.042-.069-.065a1.417,1.417,0,0,1-.3-.488c-.169-.4-.336-1.01-.738-1.97-.615,1.467-.681,2.111-1.042,2.458s-.991.427-2.458,1.042c1.467.615,2.11.682,2.458,1.042s.427.991,1.042,2.458c.4-.961.57-1.569.739-1.971a1.416,1.416,0,0,1,.3-.487.787.787,0,0,1,.069-.064,15.062,15.062,0,0,1,2.389-.979A15.176,15.176,0,0,1-1375.817,2486.718Z" transform="translate(4934.428 12570.729)" fill="#f94"/>
    </g>
    <path id="Path_9527" data-name="Path 9527" d="M-1622.966,2578.808c-.024-.02-.046-.041-.068-.063a1.4,1.4,0,0,1-.3-.48c-.166-.4-.331-1-.728-1.942-.606,1.446-.671,2.08-1.027,2.423s-.977.42-2.423,1.027c1.447.606,2.08.671,2.423,1.027s.421.977,1.027,2.423c.4-.948.563-1.547.729-1.943a1.384,1.384,0,0,1,.3-.48c.022-.022.044-.043.068-.064a15.014,15.014,0,0,1,2.355-.964A14.879,14.879,0,0,1-1622.966,2578.808Z" transform="translate(5138.572 12495.774)" fill="#4d4d4d"/>
    <path id="Path_9528" data-name="Path 9528" d="M-1195.089,2640.806c-.017-.015-.034-.031-.05-.047a1.05,1.05,0,0,1-.221-.357c-.123-.293-.245-.736-.539-1.436-.448,1.07-.5,1.539-.76,1.793s-.723.311-1.793.76c1.069.448,1.539.5,1.793.76s.312.723.76,1.794c.294-.7.416-1.145.539-1.439a1.035,1.035,0,0,1,.221-.355c.016-.016.033-.032.05-.047a11.163,11.163,0,0,1,1.743-.712A11.144,11.144,0,0,1-1195.089,2640.806Z" transform="translate(4779.407 12435.238)" fill="#00b3bf"/>
    <path id="Path_9529" data-name="Path 9529" d="M-1538.177,2477a.611.611,0,0,1-.05-.047,1.055,1.055,0,0,1-.221-.356c-.123-.294-.245-.737-.539-1.437-.448,1.07-.5,1.54-.76,1.793s-.723.312-1.793.76c1.07.449,1.539.5,1.793.76s.311.723.76,1.792c.294-.7.416-1.144.539-1.437a1.052,1.052,0,0,1,.221-.355c.016-.016.033-.032.05-.046a11.091,11.091,0,0,1,1.743-.714A11.162,11.162,0,0,1-1538.177,2477Z" transform="translate(5066.89 12577.745)" fill="#00b3bf"/>
  </g>
</svg>
