<svg xmlns="http://www.w3.org/2000/svg" width="249.001" height="204" viewBox="0 0 249.001 204"><g transform="translate(-599 -137.142)"><g transform="translate(599 137.143)"><path d="M779.084,503.027a2.794,2.794,0,0,1-.214-.2,4.416,4.416,0,0,1-.942-1.516c-.524-1.251-1.044-3.136-2.294-6.12-1.91,4.557-2.115,6.554-3.236,7.635-1.08,1.121-3.078,1.325-7.635,3.236,4.557,1.91,6.554,2.115,7.635,3.236,1.122,1.081,1.326,3.079,3.236,7.635,1.252-2.986,1.771-4.872,2.3-6.123a4.4,4.4,0,0,1,.94-1.512,2.783,2.783,0,0,1,.214-.2c1.127-.953,3.149-1.245,7.421-3.036C782.233,504.272,780.211,503.981,779.084,503.027Z" transform="translate(-653.242 -495.192)" fill="#f94"/><path d="M540.107,599.589a4.56,4.56,0,0,1-.335-.313A6.91,6.91,0,0,1,538.3,596.9c-.821-1.959-1.635-4.912-3.594-9.584-2.992,7.136-3.311,10.265-5.068,11.957-1.692,1.756-4.82,2.076-11.956,5.068,7.136,2.992,10.263,3.311,11.956,5.068,1.757,1.691,2.076,4.82,5.068,11.956,1.961-4.675,2.774-7.631,3.6-9.588a6.878,6.878,0,0,1,1.472-2.367,4.129,4.129,0,0,1,.335-.313c1.764-1.494,4.931-1.95,11.622-4.755C545.038,601.539,541.871,601.082,540.107,599.589Z" transform="translate(-517.68 -491.334)" fill="#f94"/><path d="M837.639,666.034a3.373,3.373,0,0,1-.247-.232,5.108,5.108,0,0,1-1.092-1.755c-.607-1.449-1.209-3.635-2.658-7.091-2.214,5.279-2.45,7.6-3.75,8.847-1.251,1.3-3.566,1.536-8.845,3.75,5.279,2.214,7.594,2.45,8.845,3.749,1.3,1.253,1.536,3.567,3.75,8.846,1.45-3.459,2.052-5.645,2.66-7.094a5.093,5.093,0,0,1,1.09-1.752c.078-.08.161-.158.247-.232,1.305-1.1,3.65-1.442,8.6-3.517C841.289,667.477,838.944,667.139,837.639,666.034Z" transform="translate(-669.666 -609.364)" fill="#fc6076"/><path d="M834.866,664.517a2.783,2.783,0,0,1-.206-.193,4.255,4.255,0,0,1-.909-1.462c-.506-1.207-1.007-3.028-2.214-5.906-1.844,4.4-2.041,6.326-3.123,7.368-1.042,1.083-2.97,1.28-7.367,3.123,4.4,1.844,6.325,2.041,7.367,3.122,1.083,1.043,1.28,2.971,3.123,7.368,1.208-2.881,1.709-4.7,2.216-5.909a4.243,4.243,0,0,1,.907-1.459c.065-.067.134-.132.206-.193,1.087-.92,3.04-1.2,7.161-2.929C837.906,665.718,835.953,665.437,834.866,664.517Z" transform="translate(-609.22 -634.834)" fill="#fc6076"/><path d="M618.085,494.055a2.931,2.931,0,0,1-.215-.2,4.443,4.443,0,0,1-.949-1.527c-.529-1.26-1.053-3.162-2.313-6.169-1.926,4.592-2.131,6.607-3.262,7.7-1.089,1.131-3.1,1.336-7.695,3.262,4.592,1.926,6.606,2.131,7.695,3.261,1.131,1.09,1.336,3.1,3.262,7.7,1.262-3.009,1.785-4.911,2.314-6.172a4.445,4.445,0,0,1,.948-1.524c.068-.07.14-.138.215-.2,1.136-.961,3.175-1.255,7.481-3.059C621.26,495.31,619.22,495.016,618.085,494.055Z" transform="translate(-566.235 -442.476)" fill="#00b3bf"/><path d="M617.1,493.518a2.712,2.712,0,0,1-.2-.188,4.137,4.137,0,0,1-.884-1.423c-.493-1.175-.981-2.947-2.156-5.749-1.795,4.28-1.986,6.157-3.04,7.172-1.015,1.054-2.891,1.245-7.171,3.04,4.28,1.795,6.156,1.986,7.171,3.039,1.054,1.016,1.246,2.892,3.04,7.172,1.176-2.8,1.664-4.577,2.157-5.752a4.141,4.141,0,0,1,.883-1.42c.063-.065.13-.128.2-.188,1.058-.9,2.959-1.169,6.972-2.851C620.062,494.687,618.161,494.414,617.1,493.518Z" transform="translate(-375.074 -377.027)" fill="#00b3bf"/></g><g transform="translate(662.528 217.922)"><path d="M75.573,307.723H8V290.483a11.926,11.926,0,0,1,8.154-11.313l21.657-7.22V264H61.661v7.95l13.912,4.637Zm0,0" transform="translate(-6.013 -198.415)" fill="#f94"/><path d="M128,256h23.849v21.862H128Zm0,0" transform="translate(-96.201 -192.402)" fill="#f0d0b4"/><path d="M64,51.723v-15.9a27.824,27.824,0,0,1,55.648,0v15.9Zm0,0" transform="translate(-48.101 -6.013)" fill="#b27946"/><path d="M128,262.712a23.654,23.654,0,0,0,23.849,0V256H128Zm0,0" transform="translate(-96.201 -192.403)" fill="#ecc19c"/><path d="M135.749,128.943v10.931a19.874,19.874,0,1,1-39.749,0V128.943a8.944,8.944,0,0,1,14.31-7.155l5.564,4.174,5.564-4.174a8.944,8.944,0,0,1,14.31,7.155Zm0,0" transform="translate(-72.151 -90.189)" fill="#f0d0b4"/><path d="M71.95,152a7.95,7.95,0,0,0,0,15.9H111.7a7.95,7.95,0,0,0,0-15.9Zm0,0" transform="translate(-48.101 -114.239)" fill="#f0d0b4"/><path d="M187.925,296,176,307.925l13.912,9.937,3.975-19.874Zm0,0" transform="translate(-132.277 -222.465)" fill="#e6e9ed"/><path d="M109.962,296l11.925,11.925-13.912,9.937L104,297.987Zm0,0" transform="translate(-78.163 -222.465)" fill="#e6e9ed"/><path d="M59.975,397.912V384L56,397.912Zm0,0" transform="translate(-42.088 -288.603)" fill="#f94"/><path d="M267.975,310.66,264,309.336V341.8h3.975Zm0,0" transform="translate(-198.415 -232.488)" fill="#f94"/><path d="M331.673,307.623H280V248h39.749l11.925,11.925Zm0,0" transform="translate(-210.44 -186.39)" fill="#fff"/><path d="M445.912,259.925,433.987,248H432v15.9h13.912Zm0,0" transform="translate(-324.679 -186.39)" fill="#fff"/><path d="M440,248v11.925h11.925Zm0,0" transform="translate(-330.691 -186.39)" fill="#00b3bf"/><path d="M392,392h15.9v15.9H392Zm0,0" transform="translate(-294.616 -294.616)" fill="#00b3bf"/><path d="M367.749,75.874A19.874,19.874,0,1,1,347.874,56,19.874,19.874,0,0,1,367.749,75.874Zm0,0" transform="translate(-246.515 -42.088)" fill="#00b3bf"/><path d="M131.975,161.987A1.987,1.987,0,1,1,129.987,160,1.988,1.988,0,0,1,131.975,161.987Zm0,0" transform="translate(-96.201 -120.251)"/><path d="M211.975,161.987A1.987,1.987,0,1,1,209.987,160,1.988,1.988,0,0,1,211.975,161.987Zm0,0" transform="translate(-156.327 -120.251)"/><path d="M151.95,223.95A7.958,7.958,0,0,0,159.9,216h-3.975a3.975,3.975,0,1,1-7.95,0H144A7.958,7.958,0,0,0,151.95,223.95Zm0,0" transform="translate(-108.226 -162.339)" fill="#333"/><path d="M67.573,59.623V75.415L57.635,72.1V66.535a21.9,21.9,0,0,0,7.133-11.007,9.915,9.915,0,0,0,8.767-9.818v-15.9a29.811,29.811,0,0,0-59.623,0v15.9a9.915,9.915,0,0,0,8.767,9.818,21.9,21.9,0,0,0,7.133,11.007V72.1l-20.3,6.77A13.89,13.89,0,0,0,0,92.066V111.3H67.573v11.925h55.648V72.712L110.132,59.623ZM111.3,66.408l5.139,5.139H111.3ZM59.317,76.852l-3.03,15.141-9.5-6.787,9.4-9.4ZM65.5,51.333c.042-.546.083-1.092.083-1.648V40.114A5.926,5.926,0,0,1,65.5,51.333ZM17.887,45.711a5.954,5.954,0,0,1,3.975-5.6v9.571c0,.556.042,1.1.083,1.648a5.952,5.952,0,0,1-4.058-5.623Zm4.356-9.774a9.831,9.831,0,0,0-4.356,1.876v-8a25.837,25.837,0,0,1,51.673,0v8A9.831,9.831,0,0,0,65.2,35.937,10.917,10.917,0,0,0,48.1,30.012l-4.373,3.277-4.371-3.277a10.919,10.919,0,0,0-17.11,5.924Zm3.593,13.749V38.755A6.957,6.957,0,0,1,36.968,33.19l6.755,5.068,6.757-5.068a6.956,6.956,0,0,1,11.13,5.564V49.686a17.887,17.887,0,0,1-35.774,0ZM43.724,71.547a21.719,21.719,0,0,0,9.937-2.412v3.577l-9.937,9.937-9.937-9.937V69.135A21.72,21.72,0,0,0,43.724,71.547ZM31.262,75.809l9.4,9.4-9.5,6.787L28.13,76.852ZM19.874,107.321V95.4H15.9v11.925H3.975V92.066a9.924,9.924,0,0,1,6.795-9.427L24.331,78.12,28.467,98.8,43.724,87.9l15.26,10.9L63.118,78.12,67.573,79.6v27.718Zm51.673,11.925V63.6h35.774V75.522h11.925v43.723Zm0,0" transform="translate(0 0)" fill="#333"/><path d="M384,403.874h19.874V384H384Zm3.975-15.9H399.9V399.9H387.975Zm0,0" transform="translate(-288.603 -288.603)" fill="#333"/><path d="M304,448h15.9v3.975H304Zm0,0" transform="translate(-228.478 -336.704)" fill="#333"/><path d="M304,416h15.9v3.975H304Zm0,0" transform="translate(-228.478 -312.654)" fill="#333"/><path d="M304,384h15.9v3.975H304Zm0,0" transform="translate(-228.478 -288.603)" fill="#333"/><path d="M304,272h3.975v3.975H304Zm0,0" transform="translate(-228.478 -204.427)" fill="#333"/><path d="M336,272h19.874v3.975H336Zm0,0" transform="translate(-252.528 -204.427)" fill="#333"/><path d="M304,304h27.824v3.975H304Zm0,0" transform="translate(-228.478 -228.478)" fill="#333"/><path d="M448,336h3.975v3.975H448Zm0,0" transform="translate(-336.704 -252.528)" fill="#333"/><path d="M304,336h31.8v3.975H304Zm0,0" transform="translate(-228.478 -252.528)" fill="#333"/><path d="M341.862,91.723A21.827,21.827,0,0,0,359.648,57.2l3.553-3.878-2.931-2.686-3.234,3.527a21.851,21.851,0,1,0-15.174,37.564Zm0-39.749a17.818,17.818,0,0,1,12.493,5.109L339.664,73.111l-8.486-6.788-2.484,3.1,11.388,9.111L356.889,60.2a17.87,17.87,0,1,1-15.027-8.226Zm0,0" transform="translate(-240.503 -36.075)" fill="#333"/></g></g></svg>