<svg xmlns="http://www.w3.org/2000/svg" width="16" height="16" viewBox="0 0 16 16"><g transform="translate(10942 -7600)"><g transform="translate(-10942 7600)"><path d="M7.5,14h1V13h-1ZM8,2a.5.5,0,0,0-.5.5V7.512h-4a.5.5,0,0,0,0,1H8a.5.5,0,0,0,.5-.5V2.5A.5.5,0,0,0,8,2ZM3.367,11.416l.692.693.692-.693-.692-.693Zm1.48-7.255-.708-.707-.707.707.707.707Zm6.192-.025.692.693.692-.693-.692-.693Zm-.146,7.252.707.707.707-.707-.707-.707ZM13,7.5v1h1v-1ZM8,0a8,8,0,1,0,8,8A8,8,0,0,0,8,0ZM8,15a7,7,0,1,1,7-7A7,7,0,0,1,8,15Z"/></g></g></svg>