<svg xmlns="http://www.w3.org/2000/svg" width="20.602" height="16.897" viewBox="0 0 20.602 16.897"><g transform="translate(-167.5 -552.239)"><g transform="translate(482.214 128.758)"><path d="M-309.9,436.882a.411.411,0,0,0,.326-.161c.011-.015,1.124-1.472,2.222-3.208,1.5-2.377,2.264-4.133,2.264-5.22a4.818,4.818,0,0,0-4.812-4.812,4.817,4.817,0,0,0-4.812,4.812c0,1.087.762,2.843,2.264,5.22,1.1,1.736,2.211,3.193,2.222,3.208a.41.41,0,0,0,.326.161Zm-3.991-8.589A4,4,0,0,1-309.9,424.3a4,4,0,0,1,3.991,3.991c0,1.728-2.633,5.654-3.991,7.495-1.358-1.841-3.991-5.766-3.991-7.495Zm0,0" fill="#242424"/><path d="M-271.375,463.936a2.888,2.888,0,0,0-2.885-2.885,2.888,2.888,0,0,0-2.885,2.885,2.888,2.888,0,0,0,2.885,2.885,2.888,2.888,0,0,0,2.885-2.885Zm-4.949,0a2.066,2.066,0,0,1,2.064-2.064,2.066,2.066,0,0,1,2.064,2.064A2.066,2.066,0,0,1-274.259,466a2.066,2.066,0,0,1-2.064-2.064Zm0,0" transform="translate(-35.643 -35.643)" fill="#242424"/><path d="M-251.08,485.461a.41.41,0,0,0-.41-.41,1.656,1.656,0,0,0-1.653,1.654.41.41,0,0,0,.41.41.41.41,0,0,0,.41-.41.834.834,0,0,1,.833-.833.41.41,0,0,0,.41-.41Zm0,0" transform="translate(-58.411 -58.411)" fill="#242424"/><path d="M-95.906,423.481a4.817,4.817,0,0,0-4.812,4.812c0,1.087.762,2.843,2.264,5.22,1.1,1.736,2.211,3.193,2.222,3.208a.411.411,0,0,0,.326.161.411.411,0,0,0,.326-.161c.011-.014,1.124-1.471,2.222-3.208,1.5-2.377,2.264-4.133,2.264-5.22a4.818,4.818,0,0,0-4.812-4.812Zm0,12.307c-1.358-1.841-3.991-5.766-3.991-7.495a4,4,0,0,1,3.991-3.991,4,4,0,0,1,3.991,3.991c0,1.728-2.633,5.654-3.991,7.495Zm0,0" transform="translate(-203.018)" fill="#242424"/><path d="M-60.263,461.051a2.888,2.888,0,0,0-2.885,2.885,2.888,2.888,0,0,0,2.885,2.885,2.888,2.888,0,0,0,2.885-2.885,2.888,2.888,0,0,0-2.885-2.885Zm0,4.949a2.066,2.066,0,0,1-2.064-2.064,2.066,2.066,0,0,1,2.064-2.064,2.066,2.066,0,0,1,2.064,2.064A2.066,2.066,0,0,1-60.263,466Zm0,0" transform="translate(-238.661 -35.643)" fill="#242424"/><path d="M-33.2,698.458a1.4,1.4,0,0,0-1.4,1.4,1.4,1.4,0,0,0,1.4,1.4,1.4,1.4,0,0,0,1.4-1.4,1.4,1.4,0,0,0-1.4-1.4Zm0,1.97a.575.575,0,0,1-.575-.575.575.575,0,0,1,.575-.574.575.575,0,0,1,.575.574.575.575,0,0,1-.575.575Zm0,0" transform="translate(-265.751 -260.871)" fill="#242424"/><path d="M-84.274,717.657h-1.108a.41.41,0,0,0-.41.41.41.41,0,0,0,.41.41h1.108a.41.41,0,0,0,.41-.41.41.41,0,0,0-.41-.41Zm0,0" transform="translate(-217.178 -279.085)" fill="#242424"/><path d="M-240.889,699.443h-4.576a1.4,1.4,0,0,0-1.334-.985,1.4,1.4,0,0,0-1.4,1.4,1.4,1.4,0,0,0,1.4,1.4,1.4,1.4,0,0,0,1.334-.985h4.576a.41.41,0,0,0,.41-.41.41.41,0,0,0-.41-.41Zm-5.91.985a.575.575,0,0,1-.574-.575.575.575,0,0,1,.574-.574.575.575,0,0,1,.575.574.575.575,0,0,1-.575.575Zm0,0" transform="translate(-63.108 -260.871)" fill="#242424"/></g></g></svg>