<svg xmlns="http://www.w3.org/2000/svg" xmlns:xlink="http://www.w3.org/1999/xlink" width="120" height="72" viewBox="0 0 120 72"><defs><linearGradient id="a" x1="0.5" x2="0.5" y2="1" gradientUnits="objectBoundingBox"><stop offset="0" stop-color="#fc6076"/><stop offset="1" stop-color="#f94"/></linearGradient></defs><g transform="translate(-542 -215)"><text transform="translate(542 283)" fill="#666" font-size="12" font-family="Poppins-Regular, Poppins"><tspan x="0" y="0">Size : 1366px X 380px</tspan></text><g transform="translate(577 210.5)"><path d="M34.658,34.938a1.74,1.74,0,0,0,1.23-2.97l-6.958-6.958a1.729,1.729,0,0,0-.266-.217c-.043-.03-.091-.05-.137-.075a1.689,1.689,0,0,0-.162-.085,1.641,1.641,0,0,0-.179-.056c-.049-.015-.1-.033-.146-.043a1.731,1.731,0,0,0-.682,0,1.412,1.412,0,0,0-.146.043,1.008,1.008,0,0,0-.341.142c-.045.025-.093.045-.137.074a1.729,1.729,0,0,0-.266.217l-6.958,6.958a1.74,1.74,0,0,0,2.461,2.46l3.989-3.989V46.247a1.74,1.74,0,1,0,3.479,0V30.439l3.989,3.989A1.731,1.731,0,0,0,34.658,34.938Z" transform="translate(-2.848 -3.486)" fill="url(#a)"/><path d="M41,18.013a15.965,15.965,0,0,0-4.015,0,.846.846,0,1,1-.258-1.671,16.6,16.6,0,0,1,3.5-.1A12.867,12.867,0,0,0,27.5,4.5a13.643,13.643,0,0,0-10.53,5.181,7.549,7.549,0,0,1,2.743,5.808.857.857,0,0,1-1.714,0,5.9,5.9,0,0,0-2.751-4.967,6.06,6.06,0,0,0-.6-.335c-.059-.029-.119-.058-.18-.085a5.889,5.889,0,0,0-.716-.271l-.091-.023a6.1,6.1,0,0,0-.676-.15l-.2-.03A6.206,6.206,0,0,0,12,9.572a5.967,5.967,0,0,0-6,5.917c0,.069.005.138.01.206l.01.178-.008.135c-.006.11-.013.219-.013.326v.533l-.486.229A10.037,10.037,0,0,0,0,25.763a9.243,9.243,0,0,0,9.3,9.168H21.453V31.26l-1,.99a3.463,3.463,0,0,1-4.85,0,3.348,3.348,0,0,1,0-4.781l6.857-6.763h0a3.473,3.473,0,0,1,.523-.422c.084-.055.176-.094.263-.141a3.323,3.323,0,0,1,.327-.17,3.365,3.365,0,0,1,.348-.107c.1-.028.191-.065.291-.085a3.486,3.486,0,0,1,1.343,0,3.035,3.035,0,0,1,.291.085,3.365,3.365,0,0,1,.348.107,3.515,3.515,0,0,1,.327.17c.087.047.179.085.263.141a3.421,3.421,0,0,1,.523.422h0l6.857,6.763a3.348,3.348,0,0,1,0,4.781,3.463,3.463,0,0,1-4.85,0l-1-.99v3.671H30.3c.051,0,.1,0,.149-.008l.17-.009.232.009c.05,0,.1.008.149.008h8.4A8.547,8.547,0,0,0,48,26.455,8.7,8.7,0,0,0,41,18.013Z" fill="url(#a)"/></g></g></svg>