<svg xmlns="http://www.w3.org/2000/svg" width="115" height="115" viewBox="0 0 115 115">
  <g id="Group_9481" data-name="Group 9481" transform="translate(-409 -174)">
    <g id="Group_9483" data-name="Group 9483" transform="translate(-37 -32)">
      <g id="Group_9482" data-name="Group 9482">
        <path id="Path_9543" data-name="Path 9543" d="M57.5,0A57.5,57.5,0,1,1,0,57.5,57.5,57.5,0,0,1,57.5,0Z" transform="translate(446 206)" fill="#333"/>
      </g>
      <g id="profile" transform="translate(478 225.585)">
        <path id="Path_9243" data-name="Path 9243" d="M143.772,41.513a14.051,14.051,0,1,0-13.785-14.07A13.933,13.933,0,0,0,143.772,41.513Zm0-24.429a10.361,10.361,0,1,1-10.149,10.359A10.286,10.286,0,0,1,143.772,17.084Z" transform="translate(-117.859)" fill="#fff"/>
        <path id="Path_9244" data-name="Path 9244" d="M1.836,360.435H50.164A1.832,1.832,0,0,0,52,358.579a17.579,17.579,0,0,0-17.461-17.653H17.461A17.579,17.579,0,0,0,0,358.579,1.832,1.832,0,0,0,1.836,360.435Zm15.626-15.8H34.539A13.832,13.832,0,0,1,48.2,356.723H3.8A13.869,13.869,0,0,1,17.461,344.638Z" transform="translate(0 -297.02)" fill="#fff"/>
      </g>
    </g>
  </g>
</svg>
