<svg xmlns="http://www.w3.org/2000/svg" width="106.001" height="91.828" viewBox="0 0 106.001 91.828"><g transform="translate(-1095 -678)"><g transform="translate(26 -43.172)"><g transform="translate(249 303)"><path d="M13812.688-642.209c-5.636,7.752-33.479,37.411-51.049-1.685s16.242-63.363,24.2-65.386,37.789-14.493,63.977,10.785,5.636,46.174-3.314,45.837S13818.323-649.961,13812.688-642.209Z" transform="translate(-12936.645 1134.135)" fill="#dbf4f6"/></g><g transform="translate(1082 721.017)"><circle cx="32.355" cy="32.355" r="32.355" transform="translate(15.29 0.155)" fill="#00b3bf"/><circle cx="27.233" cy="27.233" r="27.233" transform="translate(20.411 5.277)" fill="#fc6076"/><path d="M149.309,81.538a28.483,28.483,0,1,1,28.483-28.483A28.47,28.47,0,0,1,149.309,81.538Zm0-54.467a25.984,25.984,0,1,0,25.984,25.984A25.964,25.964,0,0,0,149.309,27.071Z" transform="translate(-101.664 -20.545)"/><path d="M181.121,107.354a22.486,22.486,0,1,1,22.486-22.486A22.552,22.552,0,0,1,181.121,107.354Z" transform="translate(-133.477 -52.358)" fill="#fff"/><g transform="translate(36.524 12.273)"><rect width="2.498" height="2.374" transform="translate(28.859 18.988)"/><rect width="2.374" height="2.499" transform="matrix(-0.5, -0.866, 0.866, -0.5, 27.071, 12.401)"/><rect width="2.374" height="2.498" transform="matrix(-0.866, -0.5, 0.5, -0.866, 20.939, 5.509)"/><rect width="2.374" height="2.498" transform="translate(9.996 37.977)"/><rect width="2.374" height="2.498" transform="translate(9.996)"/><rect width="2.499" height="2.374" transform="translate(20.188 38.325) rotate(-119.993)"/><rect width="2.499" height="2.374" transform="translate(1.249 5.455) rotate(-119.993)"/><rect width="2.499" height="2.374" transform="translate(28.11 31.356) rotate(-150.007)"/></g><circle cx="3.248" cy="3.248" r="3.248" transform="translate(44.397 29.262)" fill="#fff"/><path d="M276.56,184.8a4.5,4.5,0,1,1,4.5-4.5A4.479,4.479,0,0,1,276.56,184.8Zm0-6.5a2,2,0,1,0,2,2A1.973,1.973,0,0,0,276.56,178.309Z" transform="translate(-228.916 -147.797)"/><path d="M293.792,121.973a1.18,1.18,0,0,1-1.249-1.249V110.105a1.249,1.249,0,0,1,2.5,0v10.619A1.252,1.252,0,0,1,293.792,121.973Z" transform="translate(-246.147 -91.462)"/><path d="M320.643,198.788h-6.371a1.249,1.249,0,0,1,0-2.5h6.371a1.18,1.18,0,0,1,1.249,1.249A1.252,1.252,0,0,1,320.643,198.788Z" transform="translate(-263.379 -165.029)"/><path d="M105.86,207.318v12.243a9.869,9.869,0,1,0,19.738,0V207.318Z" transform="translate(-89.071 -174.308)" fill="#f94"/><path d="M108.313,224.05a11.143,11.143,0,0,1-11.118-11.118V200.689a1.18,1.18,0,0,1,1.249-1.249h19.613a1.18,1.18,0,0,1,1.249,1.249v12.243A10.958,10.958,0,0,1,108.313,224.05Zm-8.495-22.111v10.993a8.62,8.62,0,1,0,17.24,0V201.939Z" transform="translate(-81.781 -167.68)"/><path d="M91.113,169.83s-7.62-16.49,2.374-18.489c0,0,5.746-7.37,15.99,0,0,0,11.993,2.124,1.249,18.489a35.022,35.022,0,0,1,0-11.618c-3.873,1.124-7,4.872-17.24.625C93.486,158.837,93.736,163.334,91.113,169.83Z" transform="translate(-74.324 -124.453)" fill="#e1e6e7"/><path d="M104.883,163.936h-.25a1.356,1.356,0,0,1-1-1,38.176,38.176,0,0,1-.25-9.869.436.436,0,0,0-.25.125,14.983,14.983,0,0,1-6.871,1.749,21.433,21.433,0,0,1-7.246-1.5,33.1,33.1,0,0,1-2.5,9.744,1.2,1.2,0,0,1-1.124.75,1.092,1.092,0,0,1-1.124-.75c-.25-.375-4.872-10.619-1.874-16.49a7.584,7.584,0,0,1,4.747-3.748,10.826,10.826,0,0,1,8-3.373,15.916,15.916,0,0,1,9.244,3.373,8.794,8.794,0,0,1,5.746,4.747c1.624,3.873.25,9.119-4,15.615A1.687,1.687,0,0,1,104.883,163.936ZM94.889,142.2a8.038,8.038,0,0,0-6.371,2.873c-.125.25-.5.375-.75.5a4.672,4.672,0,0,0-3.5,2.5c-1.5,2.873-.375,7.87.75,11.243a24.292,24.292,0,0,0,1.249-7.371,1.356,1.356,0,0,1,.5-1.124,1.433,1.433,0,0,1,1.249-.125,22.064,22.064,0,0,0,8,1.874,13.079,13.079,0,0,0,5.871-1.5,16.327,16.327,0,0,1,2.623-1,1.539,1.539,0,0,1,1.249.25,1.007,1.007,0,0,1,.375,1.124,31.906,31.906,0,0,0-.5,7.5c2.249-4.247,2.873-7.745,1.874-10.119a5.7,5.7,0,0,0-4.247-3.248.948.948,0,0,1-.5-.25A12.683,12.683,0,0,0,94.889,142.2Z" transform="translate(-68.481 -117.31)"/><path d="M58.78,380.417H8.186l2.748-12.492a10.781,10.781,0,0,1,8.12-8.12l5.5-1.249a14.877,14.877,0,0,0,8.87,3,14.6,14.6,0,0,0,8.87-3l5.5,1.249a10.6,10.6,0,0,1,8.12,8.12Z" transform="translate(-6.888 -301.56)" fill="#fff"/><path d="M51.892,375.44H1.3a1.136,1.136,0,0,1-1-.5.972.972,0,0,1-.25-1L2.8,361.449a11.807,11.807,0,0,1,9.119-8.995l5.5-1.249a.972.972,0,0,1,1,.25,13.37,13.37,0,0,0,16.24,0,1.346,1.346,0,0,1,1-.25l5.5,1.249a11.983,11.983,0,0,1,9.119,8.995l2.748,12.367a.751.751,0,0,1,.125.5A1.338,1.338,0,0,1,51.892,375.44ZM2.8,372.942H50.268l-2.374-10.993a9.426,9.426,0,0,0-7.121-7.121l-5-1.124a16.308,16.308,0,0,1-18.489,0l-5,1.124a9.426,9.426,0,0,0-7.121,7.121Z" transform="translate(0 -295.334)"/><path d="M45.207,402.843l1.5-6.746a5.915,5.915,0,0,1,4.5-4.5l3.5-.75a19.874,19.874,0,0,0,19.738,0l3.5.75a5.915,5.915,0,0,1,4.5,4.5l1.5,6.746Z" transform="translate(-38.038 -328.733)" fill="#f94"/><g transform="translate(17.913 69.238)"><rect width="2.498" height="2.374"/><rect width="2.498" height="2.374" transform="translate(7.371)"/><rect width="2.498" height="2.374" transform="translate(14.866)"/></g></g></g></g></svg>